G04 #@! TF.FileFunction,Profile,NP*
%FSLAX46Y46*%
G04 Gerber Fmt 4.6, Leading zero omitted, Abs format (unit mm)*
G04 Created by KiCad (PCBNEW 4.0.7+dfsg1-1) date Wed Feb 21 11:45:41 2018*
%MOMM*%
%LPD*%
G01*
G04 APERTURE LIST*
%ADD10C,1.000000*%
%ADD11C,0.100000*%
G04 APERTURE END LIST*
D10*
D11*
X64985272Y7850619D02*
X65032404Y7976691D01*
X1221483Y54884109D02*
X1130000Y54760000D01*
X1313969Y54990964D02*
X1221483Y54884109D01*
X8502025Y62516841D02*
X1313969Y54990964D01*
X8600822Y62615075D02*
X8502025Y62516841D01*
X37481558Y63193165D02*
X37435266Y63226428D01*
X37526760Y63157570D02*
X37481558Y63193165D01*
X37570768Y63119788D02*
X37526760Y63157570D01*
X575203Y53687979D02*
X516394Y53545783D01*
X640493Y53839577D02*
X575203Y53687979D01*
X711581Y53997243D02*
X640493Y53839577D01*
X787782Y54157648D02*
X711581Y53997243D01*
X66860246Y35248732D02*
X66802134Y35389914D01*
X66901052Y35105756D02*
X66860246Y35248732D01*
X37613482Y63079963D02*
X37570768Y63119788D01*
X37654793Y63038241D02*
X37613482Y63079963D01*
X37694601Y62994766D02*
X37654793Y63038241D01*
X40798933Y36275118D02*
X40317841Y36303158D01*
X65328166Y36428150D02*
X40798933Y36275118D01*
X481510Y338518D02*
X572301Y266397D01*
X57474578Y212667D02*
X57632084Y253362D01*
X39217432Y36672249D02*
X38951693Y36865296D01*
X39531059Y36509215D02*
X39217432Y36672249D01*
X37732801Y62949684D02*
X37694601Y62994766D01*
X37769291Y62903138D02*
X37732801Y62949684D01*
X37803966Y62855275D02*
X37769291Y62903138D01*
X1175000Y44435D02*
X56520190Y103561D01*
X64597857Y7152760D02*
X64674753Y7260228D01*
X57787216Y300978D02*
X57939248Y355694D01*
X969687Y71621D02*
X1072620Y51345D01*
X66307082Y36019324D02*
X66178202Y36119977D01*
X66428107Y35908371D02*
X66307082Y36019324D01*
X56676746Y106576D02*
X56835272Y115417D01*
X38042503Y62179022D02*
X38040840Y62230837D01*
X38054564Y38826867D02*
X38042503Y62179022D01*
X38055360Y38798177D02*
X38054564Y38826867D01*
X64933112Y7726715D02*
X64985272Y7850619D01*
X396118Y417997D02*
X481510Y338518D01*
X66728288Y35527889D02*
X66640285Y35661235D01*
X66802134Y35389914D02*
X66728288Y35527889D01*
X58855776Y952971D02*
X64429520Y6951383D01*
X572301Y266397D02*
X667513Y202654D01*
X64429520Y6951383D02*
X64516108Y7049683D01*
X65111481Y8233847D02*
X65143372Y8364188D01*
X58745790Y843360D02*
X58855776Y952971D01*
X867196Y104264D02*
X969687Y71621D01*
X58627566Y742197D02*
X58745790Y843360D01*
X317122Y503840D02*
X396118Y417997D01*
X64813824Y7486901D02*
X64875955Y7605353D01*
X33159Y1096650D02*
X52902Y993596D01*
X57315417Y178707D02*
X57474578Y212667D01*
X64875955Y7605353D02*
X64933112Y7726715D01*
X65143372Y8364188D02*
X65170131Y8495204D01*
X56835272Y115417D02*
X56995041Y130264D01*
X667513Y202654D02*
X766143Y148275D01*
X58501896Y649231D02*
X58627566Y742197D01*
X58369505Y564282D02*
X58501896Y649231D01*
X245517Y595052D02*
X317122Y503840D01*
X39896540Y36383688D02*
X39531059Y36509215D01*
X40317841Y36303158D02*
X39896540Y36383688D01*
X56995041Y130264D02*
X57155332Y151300D01*
X65471101Y36419086D02*
X65328166Y36428150D01*
X65615629Y36391212D02*
X65471101Y36419086D01*
X57632084Y253362D02*
X57787216Y300978D01*
X9697349Y63273868D02*
X9562419Y63224200D01*
X9834069Y63316681D02*
X9697349Y63273868D01*
X9972133Y63352346D02*
X9834069Y63316681D01*
X10111098Y63380572D02*
X9972133Y63352346D01*
X65191727Y8626527D02*
X65208137Y8757780D01*
X38060412Y38717075D02*
X38055360Y38798177D01*
X38073682Y38591064D02*
X38060412Y38717075D01*
X38099135Y38427636D02*
X38073682Y38591064D01*
X65074482Y8104557D02*
X65111481Y8233847D01*
X66043041Y36208910D02*
X65903176Y36284706D01*
X66178202Y36119977D02*
X66043041Y36208910D01*
X37339829Y63285379D02*
X37290890Y63310777D01*
X37387989Y63257215D02*
X37339829Y63285379D01*
X37435266Y63226428D02*
X37387989Y63257215D01*
X52902Y993596D02*
X85003Y890906D01*
X9172822Y63036979D02*
X9049503Y62962807D01*
X9299712Y63105463D02*
X9172822Y63036979D01*
X9429726Y63167967D02*
X9299712Y63105463D01*
X9562419Y63224200D02*
X9429726Y63167967D01*
X8705413Y62709081D02*
X8600822Y62615075D01*
X8815353Y62798566D02*
X8705413Y62709081D01*
X8930198Y62883238D02*
X8815353Y62798566D01*
X9049503Y62962807D02*
X8930198Y62883238D01*
X66539698Y35788536D02*
X66428107Y35908371D01*
X66640285Y35661235D02*
X66539698Y35788536D01*
X10250518Y63401067D02*
X10111098Y63380572D01*
X10389949Y63413538D02*
X10250518Y63401067D01*
X10528945Y63417695D02*
X10389949Y63413538D01*
X36935205Y63398927D02*
X10528945Y63417695D01*
X58231116Y487163D02*
X58369505Y564282D01*
X65219332Y8888596D02*
X66924437Y34820104D01*
X38028136Y62336018D02*
X38017302Y62389095D01*
X38036017Y62283217D02*
X38028136Y62336018D01*
X38040840Y62230837D02*
X38036017Y62283217D01*
X1072620Y51345D02*
X1175000Y44435D01*
X37836723Y62806238D02*
X37803966Y62855275D01*
X37867458Y62756173D02*
X37836723Y62806238D01*
X37896069Y62705225D02*
X37867458Y62756173D01*
X65208137Y8757780D02*
X65219332Y8888596D01*
X66922974Y34962407D02*
X66901052Y35105756D01*
X66924437Y34820104D02*
X66922974Y34962407D01*
X64516108Y7049683D02*
X64597857Y7152760D01*
X56520190Y103561D02*
X56676746Y106576D01*
X57155332Y151300D02*
X57315417Y178707D01*
X65032404Y7976691D02*
X65074482Y8104557D01*
X385714Y53208928D02*
X359687Y53137662D01*
X420965Y53302927D02*
X385714Y53208928D01*
X464752Y53416320D02*
X420965Y53302927D01*
X516394Y53545783D02*
X464752Y53416320D01*
X58087455Y417696D02*
X58231116Y487163D01*
X57939248Y355694D02*
X58087455Y417696D01*
X37191089Y63352693D02*
X37140435Y63368921D01*
X37241275Y63333263D02*
X37191089Y63352693D01*
X37290890Y63310777D02*
X37241275Y63333263D01*
X37922450Y62653538D02*
X37896069Y62705225D01*
X37946500Y62601258D02*
X37922450Y62653538D01*
X37968112Y62548528D02*
X37946500Y62601258D01*
X343568Y53092458D02*
X338045Y53076652D01*
X359687Y53137662D02*
X343568Y53092458D01*
X64674753Y7260228D02*
X64746748Y7371736D01*
X37987186Y62495494D02*
X37968112Y62548528D01*
X38003617Y62442302D02*
X37987186Y62495494D01*
X38017302Y62389095D02*
X38003617Y62442302D01*
X65760180Y36345946D02*
X65615629Y36391212D01*
X65903176Y36284706D02*
X65760180Y36345946D01*
X38729875Y37080860D02*
X38548008Y37311458D01*
X38951693Y36865296D02*
X38729875Y37080860D01*
X38140740Y38234281D02*
X38099135Y38427636D01*
X38202462Y38018495D02*
X38140740Y38234281D01*
X38288270Y37787766D02*
X38202462Y38018495D01*
X26762Y1199071D02*
X33159Y1096650D01*
X64746748Y7371736D02*
X64813824Y7486901D01*
X766143Y148275D02*
X867196Y104264D01*
X38402130Y37549589D02*
X38288270Y37787766D01*
X38548008Y37311458D02*
X38402130Y37549589D01*
X182302Y690634D02*
X245517Y595052D01*
X128467Y789586D02*
X182302Y690634D01*
X338043Y53076650D02*
X26762Y1199071D01*
X85003Y890906D02*
X128467Y789586D01*
X65170131Y8495204D02*
X65191727Y8626527D01*
X36986696Y63396952D02*
X36935205Y63398927D01*
X37038135Y63391196D02*
X36986696Y63396952D01*
X37089415Y63381805D02*
X37038135Y63391196D01*
X37140435Y63368921D02*
X37089415Y63381805D01*
X868409Y54317459D02*
X787782Y54157648D01*
X952779Y54473342D02*
X868409Y54317459D01*
X1040204Y54621966D02*
X952779Y54473342D01*
X1130000Y54760000D02*
X1040204Y54621966D01*
M02*
