<?xml version="1.0" standalone="no"?>
<!DOCTYPE svg PUBLIC "-//W3C//DTD SVG 1.1//EN"
"http://www.w3.org/Graphics/SVG/1.1/DTD/svg11.dtd">
<svg width="5519.63" height="5242.11" viewBox="0 0 5519.63 5242.11" version="1.1"
xmlns="http://www.w3.org/2000/svg"
xmlns:xlink="http://www.w3.org/1999/xlink">
<circle cx="2661.83" cy="3936.1" r="31.4961" style=""/>
<circle cx="3061.75" cy="3422.4" r="31.4961" style=""/>
<circle cx="2920.33" cy="3280.98" r="31.4961" style=""/>
<circle cx="2778.92" cy="3139.57" r="31.4961" style=""/>
<circle cx="3203.17" cy="3563.82" r="31.4961" style=""/>
<circle cx="3261.83" cy="3936.1" r="31.4961" style=""/>
<circle cx="3627.42" cy="3139.57" r="31.4961" style=""/>
<circle cx="3486" cy="2998.15" r="31.4961" style=""/>
<circle cx="3344.59" cy="2856.73" r="31.4961" style=""/>
<circle cx="3203.17" cy="2715.31" r="31.4961" style=""/>
<circle cx="2765.53" cy="2677.44" r="31.4961" style=""/>
<circle cx="3189.86" cy="2253.19" r="31.4961" style=""/>
<circle cx="3686.4" cy="2419.72" r="31.4961" style=""/>
<circle cx="4110.65" cy="2843.98" r="31.4961" style=""/>
<circle cx="2868.13" cy="4794.37" r="32.0079" style=""/>
<circle cx="2868.13" cy="4400.67" r="32.0079" style=""/>
<circle cx="3852.38" cy="4794.37" r="32.0079" style=""/>
<circle cx="3852.38" cy="4400.67" r="32.0079" style=""/>
<circle cx="4668.13" cy="3873.9" r="32.0079" style=""/>
<circle cx="5061.83" cy="3873.9" r="32.0079" style=""/>
<circle cx="4668.13" cy="2889.65" r="32.0079" style=""/>
<circle cx="5061.83" cy="2889.65" r="32.0079" style=""/>
<circle cx="2427.03" cy="3005.94" r="35.4331" style=""/>
<circle cx="2568.44" cy="2864.53" r="35.4331" style=""/>
<circle cx="1932.7" cy="4128.23" r="39.3701" style=""/>
<circle cx="2129.55" cy="4128.23" r="39.3701" style=""/>
<circle cx="2326.4" cy="4128.23" r="39.3701" style=""/>
<circle cx="2545.29" cy="2443.98" r="39.3701" style=""/>
<circle cx="2686.71" cy="2302.56" r="39.3701" style=""/>
<circle cx="2828.13" cy="2161.14" r="39.3701" style=""/>
<circle cx="4362.62" cy="2300.67" r="39.3701" style=""/>
<circle cx="4362.62" cy="2103.82" r="39.3701" style=""/>
<circle cx="4362.62" cy="1906.97" r="39.3701" style=""/>
<circle cx="4553.4" cy="4859.49" r="47.2441" style=""/>
<circle cx="4692.54" cy="4720.27" r="47.2441" style=""/>
<circle cx="4970.96" cy="4441.93" r="47.2441" style=""/>
<circle cx="5110.18" cy="4302.72" r="47.2441" style=""/>
<circle cx="5110.49" cy="4859.8" r="47.2441" style=""/>
<circle cx="1182.3" cy="4450.27" r="59.0551" style=""/>
<circle cx="1182.3" cy="2836.89" r="59.0551" style=""/>
<circle cx="3161.83" cy="1108.54" r="59.0551" style=""/>
<circle cx="4775.22" cy="1108.54" r="59.0551" style=""/>
<circle cx="1787.03" cy="4679.41" r="110.236" style=""/>
<circle cx="2472.07" cy="4679.41" r="110.236" style=""/>
<circle cx="4913.8" cy="2446.34" r="110.236" style=""/>
<circle cx="4913.8" cy="1761.3" r="110.236" style=""/>
</svg>
