<?xml version="1.0" standalone="no"?>
<!DOCTYPE svg PUBLIC "-//W3C//DTD SVG 1.1//EN"
"http://www.w3.org/Graphics/SVG/1.1/DTD/svg11.dtd">
<svg width="5275" height="4997" viewBox="0 0 5275 4997" version="1.1"
xmlns="http://www.w3.org/2000/svg"
xmlns:xlink="http://www.w3.org/1999/xlink">
<g fill-rule="evenodd"><path d="M 830.885,0 L 2909.87,1.47774 L 2918.68,2.14962 L 2922.97,2.94348 L 2931.21,5.30306 L 2939.68,8.85843 L 2947.5,13.1717 L 2951.53,15.7972 L 2962.46,24.3997 L 2969.42,31.1505 L 2978.72,42.1325 L 2986.61,53.9544 L 2993.05,66.5642 L 2994.88,71.0274 L 2997.74,79.5619 L 2998.91,84.1251 L 3000.42,92.6655 L 3000.97,101.324 L 3001.98,1941.95 L 3003.4,1957.94 L 3005.37,1970.6 L 3008.58,1985.54 L 3013.38,2002.29 L 3020.02,2020.15 L 3028.8,2038.54 L 3040.07,2056.93 L 3054.08,2074.69 L 3071.15,2091.28 L 3091.61,2106.14 L 3115.78,2118.71 L 3144.01,2128.4 L 3176.66,2134.64 L 3214.15,2136.83 L 5145.38,2124.79 L 5157.13,2125.57 L 5168.94,2127.87 L 5180.32,2131.43 L 5192.28,2136.55 L 5203.58,2142.69 L 5214.22,2149.69 L 5224.86,2158 L 5234.61,2166.95 L 5243.6,2176.63 L 5251.52,2186.65 L 5258.64,2197.43 L 5264.65,2208.6 L 5269.53,2220.49 L 5272.85,2232.23 L 5274.58,2243.52 L 5274.73,2255.57 L 5140.49,4297.06 L 5139.59,4307.59 L 5138.3,4317.92 L 5136.55,4328.56 L 5134.44,4338.87 L 5131.86,4349.43 L 5128.95,4359.61 L 5125.54,4369.97 L 5121.83,4379.9 L 5117.59,4389.95 L 5113.09,4399.5 L 5108.13,4408.98 L 5102.67,4418.35 L 5097,4427.13 L 5090.84,4435.75 L 5084.16,4444.17 L 5077.27,4451.99 L 4638.47,4924.22 L 4629.49,4933.16 L 4619.96,4941.3 L 4610.07,4948.62 L 4599.43,4955.46 L 4588.12,4961.76 L 4576.62,4967.31 L 4564.95,4972.19 L 4552.62,4976.63 L 4540.41,4980.38 L 4527.84,4983.63 L 4514.99,4986.38 L 4502.23,4988.56 L 4489.46,4990.23 L 4476.74,4991.41 L 4464.12,4992.11 L 4451.79,4992.35 L 94.6059,4997 L 85.7815,4996.38 L 77.243,4994.68 L 69.1744,4992.11 L 60.5139,4988.34 L 52.7493,4984.06 L 44.9647,4978.86 L 37.3261,4972.8 L 30.3873,4966.32 L 24.1684,4959.56 L 18.1455,4951.89 L 12.9944,4944.08 L 8.75515,4936.28 L 5.17378,4927.98 L 2.50626,4919.52 L 0.782562,4910.48 L 0.272653,4902.14 L 24.7763,818.023 L 24.9963,816.747 L 28.7676,806.281 L 39.1158,779.607 L 48.934,756.364 L 60.6039,731.17 L 66.9508,718.588 L 73.7136,706.095 L 80.5964,694.393 L 87.7611,683.375 L 95.0918,673.416 L 102.696,664.62 L 668.584,72.1372 L 676.434,64.3306 L 684.957,56.6679 L 693.761,49.5092 L 702.956,42.7344 L 712.502,36.3735 L 722.21,30.5346 L 732.525,24.9676 L 742.761,20.0484 L 753.377,15.5452 L 764.359,11.5 L 775.313,8.07656 L 786.181,5.26906 L 797.323,2.99947 L 808.509,1.34776 L 819.943,0.327942 L 830.885,0 z " style="fill-opacity:1.000000;fill:rgb(103,198,105);stroke:rgb(0,0,0);stroke-width:2"/></g>
</svg>
