<?xml version="1.0" standalone="no"?>
<!DOCTYPE svg PUBLIC "-//W3C//DTD SVG 1.1//EN"
"http://www.w3.org/Graphics/SVG/1.1/DTD/svg11.dtd">
<svg width="5027" height="4805" viewBox="0 0 5027 4805" version="1.1"
xmlns="http://www.w3.org/2000/svg"
xmlns:xlink="http://www.w3.org/1999/xlink">
<g fill-rule="evenodd"><path d="M 2741.11,2118.31 L 2785.65,2073.78 L 2796.52,2064.97 L 2808.98,2058.62 L 2822.5,2055 L 2836.47,2054.27 L 2850.28,2056.46 L 2863.35,2061.47 L 2875.08,2069.09 L 2884.97,2078.98 L 2892.59,2090.71 L 2897.6,2103.77 L 2899.79,2117.59 L 2899.06,2131.56 L 2895.44,2145.08 L 2889.09,2157.54 L 2880.29,2168.41 L 2835.75,2212.95 L 2824.88,2221.76 L 2812.41,2228.11 L 2798.9,2231.73 L 2784.92,2232.46 L 2771.11,2230.27 L 2758.05,2225.26 L 2746.31,2217.64 L 2736.42,2207.75 L 2728.8,2196.01 L 2723.79,2182.95 L 2721.6,2169.13 L 2722.33,2155.16 L 2725.95,2141.65 L 2732.31,2129.18 L 2741.11,2118.31 z " style="fill-opacity:1.000000;fill:rgb(103,198,105);stroke:rgb(0,0,0);stroke-width:2"/></g>
<g fill-rule="evenodd"><path d="M 4680.58,2980.94 L 4890.53,2980.94 L 4897.08,2981.63 L 4903.34,2983.67 L 4909.04,2986.96 L 4913.94,2991.36 L 4917.81,2996.69 L 4920.48,3002.7 L 4921.85,3009.14 L 4921.85,3015.73 L 4920.48,3022.17 L 4917.81,3028.18 L 4913.94,3033.51 L 4909.04,3037.91 L 4903.34,3041.21 L 4897.08,3043.24 L 4890.53,3043.93 L 4680.58,3043.93 L 4674.04,3043.24 L 4667.77,3041.21 L 4662.07,3037.91 L 4657.18,3033.51 L 4653.31,3028.18 L 4650.63,3022.17 L 4649.26,3015.73 L 4649.26,3009.14 L 4650.63,3002.7 L 4653.31,2996.69 L 4657.18,2991.36 L 4662.07,2986.96 L 4667.77,2983.67 L 4674.04,2981.63 L 4680.58,2980.94 z " style="fill-opacity:1.000000;fill:rgb(115,81,255);stroke:rgb(0,0,0);stroke-width:2"/></g>
<g fill-rule="evenodd"><path d="M 2520.09,378.114 L 2474.41,378.186 L 2469.56,377.812 L 2464.83,376.694 L 2460.32,374.862 L 2430.33,359.866 L 2426,357.247 L 2422.15,353.967 L 2407.15,338.971 L 2403.87,335.117 L 2401.25,330.786 L 2386.25,300.794 L 2384.42,296.29 L 2383.3,291.559 L 2382.93,286.709 L 2382.93,196.732 L 2383.3,191.887 L 2384.42,187.155 L 2386.25,182.65 L 2401.25,152.658 L 2403.87,148.33 L 2407.15,144.475 L 2422.14,129.477 L 2426,126.197 L 2430.33,123.575 L 2460.32,108.579 L 2464.83,106.747 L 2469.56,105.629 L 2474.41,105.254 L 2519.4,105.254 L 2524.24,105.629 L 2528.97,106.747 L 2533.48,108.579 L 2563.47,123.575 L 2567.8,126.195 L 2571.66,129.477 L 2586.65,144.475 L 2589.93,148.328 L 2592.55,152.658 L 2607.55,182.65 L 2609.38,187.153 L 2610.5,191.885 L 2610.87,196.732 L 2610.87,286.709 L 2610.5,291.559 L 2609.38,296.29 L 2607.55,300.794 L 2592.55,330.786 L 2589.93,335.117 L 2586.65,338.971 L 2571.65,353.967 L 2567.8,357.247 L 2563.47,359.866 L 2532.2,375.464 L 2525.94,377.498 L 2520.09,378.114M 2511.96,315.202 L 2530.73,305.817 L 2538.5,298.048 L 2547.89,279.274 L 2547.89,204.169 L 2538.5,185.396 L 2530.73,177.625 L 2511.96,168.238 L 2481.84,168.238 L 2463.07,177.623 L 2455.3,185.394 L 2445.91,204.165 L 2445.91,279.278 L 2455.3,298.048 L 2463.07,305.817 L 2481.84,315.202 L 2511.96,315.202 z " style="fill-opacity:1.000000;fill:rgb(74,236,41);stroke:rgb(0,0,0);stroke-width:2"/></g>
<g fill-rule="evenodd"><path d="M 1326.99,288.209 L 1222.42,288.209 L 1199.6,356.655 L 1196.88,362.65 L 1192.97,367.945 L 1188.04,372.315 L 1182.32,375.562 L 1176.04,377.548 L 1169.49,378.186 L 1162.94,377.448 L 1156.7,375.364 L 1151.02,372.031 L 1146.16,367.587 L 1142.33,362.232 L 1139.7,356.197 L 1138.38,349.746 L 1138.43,343.162 L 1139.85,336.735 L 1244.83,21.8137 L 1247.53,15.8545 L 1251.41,10.5831 L 1256.29,6.22564 L 1261.97,2.97203 L 1268.19,0.960281 L 1274.7,0.282364 L 1281.21,0.96228 L 1287.44,2.97203 L 1293.12,6.22564 L 1298,10.5831 L 1301.88,15.8565 L 1304.58,21.8157 L 1409.66,337.219 L 1412.39,330.948 L 1416.26,325.622 L 1421.15,321.217 L 1426.85,317.925 L 1433.11,315.892 L 1439.66,315.202 L 1462.22,315.202 L 1476.17,308.227 L 1483.15,294.27 L 1483.15,168.238 L 1439.66,168.238 L 1433.11,167.55 L 1426.85,165.516 L 1421.15,162.225 L 1416.26,157.819 L 1412.39,152.492 L 1409.71,146.478 L 1408.34,140.039 L 1408.34,133.454 L 1409.71,127.015 L 1412.39,121 L 1416.26,115.674 L 1421.15,111.269 L 1426.85,107.977 L 1433.11,105.943 L 1439.66,105.254 L 1483.15,105.254 L 1483.15,31.7725 L 1483.84,25.2253 L 1485.87,18.9641 L 1489.17,13.2628 L 1493.57,8.36937 L 1498.9,4.49985 L 1504.91,1.82217 L 1511.35,0.454343 L 1517.94,0.454343 L 1524.38,1.82217 L 1530.39,4.49985 L 1535.72,8.36937 L 1540.12,13.2628 L 1543.41,18.9641 L 1545.45,25.2253 L 1546.14,31.7725 L 1546.14,105.254 L 1559.63,105.254 L 1566.18,105.943 L 1572.44,107.977 L 1578.14,111.269 L 1583.04,115.674 L 1586.91,121 L 1589.58,127.015 L 1590.95,133.454 L 1590.95,140.039 L 1589.58,146.478 L 1586.91,152.492 L 1583.04,157.819 L 1578.14,162.225 L 1572.44,165.516 L 1566.18,167.55 L 1559.63,168.238 L 1546.14,168.238 L 1546.14,301.705 L 1545.76,306.555 L 1544.64,311.286 L 1542.81,315.79 L 1527.81,345.782 L 1525.2,350.113 L 1521.92,353.967 L 1518.06,357.247 L 1513.73,359.866 L 1483.74,374.862 L 1479.23,376.694 L 1474.5,377.812 L 1469.66,378.186 L 1439.66,378.186 L 1433.11,377.498 L 1426.85,375.464 L 1421.15,372.173 L 1416.26,367.767 L 1412.39,362.44 L 1409.68,356.255 L 1407.07,362.234 L 1403.24,367.589 L 1398.38,372.033 L 1392.7,375.366 L 1386.46,377.448 L 1379.91,378.186 L 1373.36,377.548 L 1367.08,375.56 L 1361.36,372.311 L 1356.43,367.943 L 1352.52,362.646 L 1349.8,356.653 L 1326.99,288.209M 1305.99,225.225 L 1274.7,131.358 L 1243.41,225.225 L 1305.99,225.225 z " style="fill-opacity:1.000000;fill:rgb(205,186,171);stroke:rgb(0,0,0);stroke-width:2"/></g>
<g fill-rule="evenodd"><path d="M 629.863,0.280364 L 779.826,0.280364 L 785.97,0.88629 L 791.877,2.67807 L 797.322,5.58971 L 802.094,9.50523 L 806.009,14.2766 L 808.921,19.722 L 810.713,25.6293 L 811.319,31.7725 L 811.319,346.694 L 810.713,352.839 L 808.921,358.746 L 806.009,364.192 L 802.094,368.963 L 797.322,372.879 L 791.877,375.79 L 785.97,377.582 L 779.826,378.186 L 629.863,378.186 L 623.314,377.498 L 617.052,375.464 L 611.351,372.173 L 606.458,367.767 L 602.588,362.44 L 599.91,356.427 L 598.543,349.988 L 598.543,343.402 L 599.91,336.963 L 602.588,330.948 L 606.458,325.622 L 611.351,321.217 L 617.052,317.925 L 623.314,315.892 L 629.863,315.202 L 748.334,315.202 L 748.334,213.228 L 674.851,213.228 L 668.302,212.54 L 662.041,210.507 L 656.34,207.215 L 651.446,202.81 L 647.577,197.482 L 644.899,191.469 L 643.531,185.03 L 643.531,178.445 L 644.899,172.005 L 647.577,165.99 L 651.446,160.665 L 656.34,156.259 L 662.041,152.968 L 668.302,150.934 L 674.851,150.244 L 748.334,150.244 L 748.334,63.2646 L 629.863,63.2646 L 623.314,62.5767 L 617.052,60.543 L 611.351,57.2514 L 606.458,52.8459 L 602.588,47.5186 L 599.91,41.5053 L 598.543,35.0661 L 598.543,28.4809 L 599.91,22.0417 L 602.588,16.0264 L 606.458,10.7011 L 611.351,6.29563 L 617.052,3.00403 L 623.314,0.970279 L 629.863,0.280364 z " style="fill-opacity:1.000000;fill:rgb(242,251,227);stroke:rgb(0,0,0);stroke-width:2"/></g>
<g fill-rule="evenodd"><path d="M 1033.26,378.186 L 974.779,378.186 L 969.929,377.812 L 965.198,376.694 L 960.694,374.862 L 930.702,359.866 L 926.372,357.247 L 922.519,353.969 L 907.521,338.973 L 904.239,335.117 L 901.62,330.786 L 886.623,300.794 L 884.792,296.29 L 883.674,291.559 L 883.3,286.709 L 883.3,196.732 L 883.674,191.887 L 884.792,187.155 L 886.623,182.65 L 901.62,152.658 L 904.239,148.328 L 907.519,144.473 L 922.517,129.475 L 926.37,126.195 L 930.702,123.575 L 960.694,108.579 L 965.198,106.747 L 969.929,105.629 L 974.779,105.254 L 1034.76,105.254 L 1039.61,105.629 L 1044.34,106.747 L 1049.87,109.091 L 1055.02,106.795 L 1061.46,105.427 L 1068.05,105.427 L 1074.49,106.795 L 1080.5,109.473 L 1085.83,113.343 L 1090.23,118.236 L 1093.52,123.937 L 1095.56,130.198 L 1096.25,136.746 L 1096.25,451.669 L 1095.56,458.218 L 1093.52,464.479 L 1090.23,470.181 L 1085.83,475.074 L 1080.5,478.944 L 1074.49,481.621 L 1068.05,482.989 L 1061.46,482.989 L 1055.02,481.621 L 1049.01,478.944 L 1043.68,475.074 L 1039.28,470.181 L 1035.99,464.479 L 1033.95,458.218 L 1033.26,451.669 L 1033.26,378.186M 955.667,298.046 L 963.438,305.815 L 982.21,315.202 L 1027.33,315.202 L 1033.26,312.236 L 1033.26,171.207 L 1027.33,168.238 L 982.214,168.238 L 963.44,177.625 L 955.669,185.396 L 946.284,204.165 L 946.284,279.278 L 955.667,298.046 z " style="fill-opacity:1.000000;fill:rgb(70,124,194);stroke:rgb(0,0,0);stroke-width:2"/></g>
<g fill-rule="evenodd"><path d="M 2234.46,253.061 L 2279.79,126.155 L 2282.64,120.222 L 2286.66,115.008 L 2291.68,110.747 L 2297.47,107.619 L 2303.79,105.767 L 2310.35,105.267 L 2316.88,106.143 L 2323.08,108.359 L 2328.68,111.813 L 2333.45,116.358 L 2337.16,121.793 L 2339.67,127.883 L 2340.85,134.358 L 2340.66,140.939 L 2339.1,147.338 L 2264.12,357.287 L 2261.35,363.094 L 2257.46,368.215 L 2252.61,372.437 L 2247,375.586 L 2240.86,377.53 L 2234.46,378.186 L 2228.06,377.53 L 2221.93,375.586 L 2216.32,372.437 L 2211.47,368.213 L 2207.58,363.092 L 2204.81,357.287 L 2129.83,147.338 L 2128.27,140.941 L 2128.08,134.36 L 2129.27,127.885 L 2131.77,121.795 L 2135.48,116.358 L 2140.25,111.815 L 2145.85,108.359 L 2152.05,106.145 L 2158.58,105.267 L 2165.14,105.767 L 2171.46,107.619 L 2177.25,110.745 L 2182.27,115.008 L 2186.29,120.22 L 2189.14,126.155 L 2234.46,253.061 z " style="fill-opacity:1.000000;fill:rgb(84,248,27);stroke:rgb(0,0,0);stroke-width:2"/></g>
<g fill-rule="evenodd"><path d="M 1889.55,0.280364 L 2039.51,0.280364 L 2045.66,0.88629 L 2051.56,2.67807 L 2057.01,5.58971 L 2061.78,9.50523 L 2065.7,14.2766 L 2068.61,19.722 L 2070.4,25.6293 L 2071.01,31.7725 L 2071.01,346.694 L 2070.4,352.839 L 2068.61,358.746 L 2065.7,364.192 L 2061.78,368.963 L 2057.01,372.879 L 2051.56,375.79 L 2045.66,377.582 L 2039.51,378.186 L 1889.55,378.186 L 1883,377.498 L 1876.74,375.464 L 1871.04,372.173 L 1866.15,367.767 L 1862.28,362.44 L 1859.6,356.427 L 1858.23,349.988 L 1858.23,343.402 L 1859.6,336.963 L 1862.28,330.948 L 1866.15,325.622 L 1871.04,321.217 L 1876.74,317.925 L 1883,315.892 L 1889.55,315.202 L 2008.02,315.202 L 2008.02,213.228 L 1934.54,213.228 L 1927.99,212.54 L 1921.73,210.507 L 1916.03,207.215 L 1911.14,202.81 L 1907.27,197.482 L 1904.59,191.469 L 1903.22,185.03 L 1903.22,178.445 L 1904.59,172.005 L 1907.27,165.99 L 1911.14,160.665 L 1916.03,156.259 L 1921.73,152.968 L 1927.99,150.934 L 1934.54,150.244 L 2008.02,150.244 L 2008.02,63.2646 L 1889.55,63.2646 L 1883,62.5767 L 1876.74,60.543 L 1871.04,57.2514 L 1866.15,52.8459 L 1862.28,47.5186 L 1859.6,41.5053 L 1858.23,35.0661 L 1858.23,28.4809 L 1859.6,22.0417 L 1862.28,16.0264 L 1866.15,10.7011 L 1871.04,6.29563 L 1876.74,3.00403 L 1883,0.970279 L 1889.55,0.280364 z " style="fill-opacity:1.000000;fill:rgb(232,231,141);stroke:rgb(0,0,0);stroke-width:2"/></g>
<g fill-rule="evenodd"><path d="M 5027,3492.32 L 5027,3552.3 L 5026.62,3557.15 L 5025.51,3561.88 L 5023.67,3566.39 L 5008.68,3596.38 L 5006.06,3600.71 L 5002.78,3604.56 L 4987.78,3619.56 L 4983.93,3622.84 L 4979.6,3625.46 L 4949.61,3640.45 L 4945.1,3642.29 L 4940.37,3643.4 L 4935.52,3643.78 L 4920.53,3643.78 L 4915.68,3643.4 L 4910.94,3642.29 L 4906.44,3640.45 L 4876.45,3625.46 L 4872.12,3622.84 L 4868.26,3619.56 L 4860.54,3611.83 L 4852.82,3619.56 L 4848.96,3622.84 L 4844.63,3625.46 L 4814.64,3640.45 L 4810.13,3642.29 L 4805.4,3643.4 L 4800.56,3643.78 L 4740.57,3643.78 L 4735.72,3643.4 L 4730.99,3642.29 L 4726.49,3640.45 L 4696.49,3625.46 L 4692.16,3622.84 L 4688.31,3619.56 L 4673.31,3604.56 L 4670.03,3600.71 L 4667.41,3596.38 L 4652.42,3566.39 L 4650.58,3561.88 L 4649.47,3557.15 L 4649.09,3552.3 L 4649.09,3492.32 L 4649.47,3487.47 L 4650.58,3482.74 L 4652.42,3478.23 L 4667.41,3448.24 L 4670.03,3443.91 L 4673.31,3440.06 L 4688.31,3425.06 L 4692.16,3421.78 L 4696.49,3419.16 L 4726.49,3404.16 L 4730.99,3402.33 L 4735.72,3401.21 L 4740.57,3400.84 L 4800.56,3400.84 L 4805.4,3401.21 L 4810.13,3402.33 L 4814.64,3404.16 L 4844.63,3419.16 L 4848.96,3421.78 L 4852.82,3425.06 L 4860.54,3432.78 L 4868.26,3425.06 L 4872.11,3421.78 L 4876.45,3419.16 L 4906.44,3404.16 L 4910.94,3402.33 L 4915.68,3401.21 L 4920.53,3400.84 L 4935.52,3400.84 L 4940.37,3401.21 L 4945.1,3402.33 L 4949.61,3404.16 L 4979.6,3419.16 L 4983.93,3421.78 L 4987.78,3425.06 L 5002.78,3440.06 L 5006.06,3443.91 L 5008.68,3448.24 L 5023.67,3478.23 L 5025.51,3482.74 L 5026.62,3487.47 L 5027,3492.32M 4712.08,3499.75 L 4712.08,3544.87 L 4721.46,3563.64 L 4729.23,3571.41 L 4748,3580.79 L 4793.12,3580.79 L 4811.89,3571.41 L 4819.66,3563.64 L 4829.05,3544.87 L 4829.05,3499.75 L 4819.66,3480.98 L 4811.89,3473.21 L 4793.12,3463.82 L 4748.01,3463.82 L 4729.23,3473.21 L 4721.47,3480.98 L 4712.08,3499.75M 4946.86,3571.41 L 4954.63,3563.64 L 4964.02,3544.87 L 4964.02,3499.75 L 4954.63,3480.98 L 4946.86,3473.21 L 4927.96,3463.82 L 4909.19,3473.21 L 4901.42,3480.98 L 4892.03,3499.75 L 4892.03,3544.87 L 4901.42,3563.64 L 4909.19,3571.41 L 4927.96,3580.79 L 4946.86,3571.41 z " style="fill-opacity:1.000000;fill:rgb(118,90,46);stroke:rgb(0,0,0);stroke-width:2"/></g>
<g fill-rule="evenodd"><path d="M 5027,3012.44 L 5026.39,3018.58 L 5024.91,3023.72 L 5021.92,3029.59 L 5017.78,3034.7 L 5002.78,3049.7 L 4998.01,3053.62 L 4992.56,3056.53 L 4986.65,3058.32 L 4980.51,3058.92 L 4974.37,3058.32 L 4968.46,3056.53 L 4963.01,3053.62 L 4958.24,3049.7 L 4942.11,3033.51 L 4938.24,3028.18 L 4935.56,3022.17 L 4934.2,3015.73 L 4934.02,3012.44 L 4934.48,3007.81 L 4935.56,3002.7 L 4936.42,3000.38 L 4939.33,2994.94 L 4943.25,2990.17 L 4958.24,2975.17 L 4963.01,2971.26 L 4968.46,2968.34 L 4974.37,2966.55 L 4980.51,2965.95 L 4986.65,2966.55 L 4992.56,2968.34 L 4998.01,2971.25 L 5002.78,2975.17 L 5017.78,2990.17 L 5021.69,2994.94 L 5024.6,3000.38 L 5025.93,3004.28 L 5026.39,3006.29 L 5027,3012.44 z " style="fill-opacity:1.000000;fill:rgb(99,51,159);stroke:rgb(0,0,0);stroke-width:2"/></g>
<g fill-rule="evenodd"><path d="M 4922.02,3265.87 L 4995.51,3265.87 L 5002.06,3266.56 L 5008.32,3268.6 L 5014.02,3271.89 L 5018.91,3276.29 L 5022.78,3281.62 L 5025.46,3287.63 L 5026.83,3294.07 L 5026.83,3300.66 L 5025.46,3307.1 L 5022.78,3313.11 L 5018.91,3318.44 L 5014.02,3322.84 L 5008.32,3326.13 L 5002.06,3328.17 L 4995.51,3328.86 L 4680.58,3328.86 L 4674.04,3328.17 L 4667.77,3326.13 L 4662.07,3322.84 L 4657.18,3318.44 L 4653.31,3313.11 L 4650.63,3307.1 L 4649.26,3300.66 L 4649.26,3294.07 L 4650.63,3287.63 L 4652.93,3282.48 L 4650.58,3276.95 L 4649.47,3272.22 L 4649.09,3267.37 L 4649.09,3207.39 L 4649.47,3202.54 L 4650.58,3197.81 L 4652.42,3193.3 L 4667.41,3163.31 L 4670.03,3158.98 L 4673.31,3155.13 L 4688.31,3140.13 L 4692.16,3136.85 L 4696.49,3134.23 L 4726.49,3119.23 L 4730.99,3117.4 L 4735.72,3116.28 L 4740.57,3115.91 L 4830.55,3115.91 L 4835.4,3116.28 L 4840.13,3117.4 L 4844.63,3119.23 L 4874.62,3134.23 L 4878.95,3136.85 L 4882.81,3140.13 L 4897.8,3155.13 L 4901.08,3158.98 L 4903.7,3163.31 L 4918.7,3193.3 L 4920.53,3197.81 L 4921.65,3202.54 L 4922.02,3207.39 L 4922.02,3265.87M 4715.04,3265.87 L 4856.07,3265.87 L 4859.04,3259.94 L 4859.04,3214.82 L 4849.65,3196.05 L 4841.88,3188.28 L 4823.11,3178.89 L 4748.01,3178.89 L 4729.23,3188.28 L 4721.47,3196.05 L 4712.08,3214.82 L 4712.08,3259.94 L 4715.04,3265.87 z " style="fill-opacity:1.000000;fill:rgb(201,154,102);stroke:rgb(0,0,0);stroke-width:2"/></g>
<g fill-rule="evenodd"><path d="M 4719.05,2824 L 4733.01,2830.98 L 4859.04,2830.98 L 4859.04,2787.49 L 4859.73,2780.94 L 4861.76,2774.68 L 4865.05,2768.98 L 4869.46,2764.09 L 4874.79,2760.22 L 4880.8,2757.54 L 4887.24,2756.17 L 4893.82,2756.17 L 4900.26,2757.54 L 4906.28,2760.22 L 4911.6,2764.09 L 4916.01,2768.98 L 4919.3,2774.68 L 4921.33,2780.94 L 4922.02,2787.49 L 4922.02,2830.98 L 4995.51,2830.98 L 5002.06,2831.67 L 5008.32,2833.7 L 5014.02,2836.99 L 5018.91,2841.4 L 5022.78,2846.73 L 5025.46,2852.74 L 5026.83,2859.18 L 5026.83,2865.77 L 5025.46,2872.2 L 5022.78,2878.22 L 5018.91,2883.55 L 5014.02,2887.95 L 5008.32,2891.24 L 5002.06,2893.28 L 4995.51,2893.96 L 4922.02,2893.96 L 4922.02,2907.46 L 4921.33,2914.01 L 4919.3,2920.27 L 4916.01,2925.97 L 4911.6,2930.87 L 4906.28,2934.73 L 4900.26,2937.41 L 4893.82,2938.78 L 4887.24,2938.78 L 4880.8,2937.41 L 4874.79,2934.73 L 4869.46,2930.87 L 4865.05,2925.97 L 4861.76,2920.27 L 4859.73,2914.01 L 4859.04,2907.46 L 4859.04,2893.96 L 4725.57,2893.96 L 4720.73,2893.59 L 4715.99,2892.47 L 4711.49,2890.64 L 4681.5,2875.64 L 4677.17,2873.02 L 4673.31,2869.74 L 4670.03,2865.89 L 4667.41,2861.56 L 4652.42,2831.57 L 4650.58,2827.07 L 4649.47,2822.33 L 4649.09,2817.48 L 4649.09,2787.49 L 4649.78,2780.94 L 4651.81,2774.68 L 4655.11,2768.98 L 4659.51,2764.09 L 4664.84,2760.22 L 4670.85,2757.54 L 4677.29,2756.17 L 4683.88,2756.17 L 4690.32,2757.54 L 4696.33,2760.22 L 4701.66,2764.09 L 4706.06,2768.98 L 4709.35,2774.68 L 4711.39,2780.94 L 4712.08,2787.49 L 4712.08,2810.05 L 4719.05,2824 z " style="fill-opacity:1.000000;fill:rgb(50,13,183);stroke:rgb(0,0,0);stroke-width:2"/></g>
<g fill-rule="evenodd"><path d="M 2787.83,315.202 L 2787.83,31.7725 L 2788.52,25.2253 L 2790.55,18.9641 L 2793.84,13.2628 L 2798.25,8.36937 L 2803.57,4.49985 L 2809.59,1.82217 L 2816.03,0.454343 L 2822.61,0.454343 L 2829.05,1.82217 L 2835.07,4.49985 L 2840.39,8.36937 L 2844.8,13.2628 L 2848.09,18.9641 L 2850.12,25.2253 L 2850.81,31.7725 L 2850.81,346.694 L 2850.21,352.839 L 2848.41,358.746 L 2845.5,364.192 L 2841.59,368.963 L 2836.82,372.879 L 2831.37,375.79 L 2825.46,377.582 L 2819.32,378.186 L 2669.36,378.186 L 2662.81,377.498 L 2656.55,375.464 L 2650.85,372.173 L 2645.95,367.767 L 2642.08,362.44 L 2639.41,356.427 L 2638.04,349.988 L 2638.04,343.402 L 2639.41,336.963 L 2642.08,330.948 L 2645.95,325.622 L 2650.85,321.217 L 2656.55,317.925 L 2662.81,315.892 L 2669.36,315.202 L 2787.83,315.202 z " style="fill-opacity:1.000000;fill:rgb(49,88,163);stroke:rgb(0,0,0);stroke-width:2"/></g>
<g fill-rule="evenodd"><path d="M 2058.24,2397.98 L 2136.18,2320.04 L 2247.52,2431.38 L 2169.58,2509.32 L 2058.24,2397.98 z " style="fill-opacity:1.000000;fill:rgb(90,37,93);stroke:rgb(0,0,0);stroke-width:2"/></g>
<g fill-rule="evenodd"><path d="M 432.569,4141.03 L 431.535,4150.85 L 428.483,4160.24 L 423.546,4168.8 L 416.939,4176.14 L 408.95,4181.94 L 399.927,4185.96 L 390.268,4188.01 L 380.393,4188.01 L 370.735,4185.96 L 361.714,4181.94 L 353.723,4176.14 L 347.115,4168.8 L 342.178,4160.24 L 339.126,4150.85 L 338.093,4141.03 L 339.126,4131.21 L 342.178,4121.82 L 347.115,4113.27 L 353.723,4105.93 L 361.712,4100.12 L 370.735,4096.11 L 380.393,4094.05 L 390.268,4094.05 L 399.927,4096.11 L 408.948,4100.12 L 416.939,4105.93 L 423.546,4113.27 L 428.483,4121.82 L 431.535,4131.21 L 432.569,4141.03 z " style="fill-opacity:1.000000;fill:rgb(5,23,88);stroke:rgb(0,0,0);stroke-width:2"/></g>
<g fill-rule="evenodd"><path d="M 710.925,4419.39 L 709.891,4429.21 L 706.839,4438.6 L 701.902,4447.15 L 695.295,4454.49 L 687.306,4460.3 L 678.283,4464.31 L 668.624,4466.37 L 658.749,4466.37 L 649.09,4464.31 L 640.07,4460.3 L 632.079,4454.49 L 625.471,4447.15 L 620.534,4438.6 L 617.482,4429.21 L 616.448,4419.39 L 617.482,4409.57 L 620.534,4400.18 L 625.471,4391.62 L 632.079,4384.28 L 640.068,4378.48 L 649.09,4374.46 L 658.749,4372.41 L 668.624,4372.41 L 678.283,4374.46 L 687.304,4378.48 L 695.295,4384.28 L 701.902,4391.62 L 706.839,4400.18 L 709.891,4409.57 L 710.925,4419.39 z " style="fill-opacity:1.000000;fill:rgb(233,94,212);stroke:rgb(0,0,0);stroke-width:2"/></g>
<g fill-rule="evenodd"><path d="M 312.58,2275.63 L 312.58,2015.82 L 572.388,2015.82 L 572.388,2275.63 L 312.58,2275.63 z " style="fill-opacity:1.000000;fill:rgb(171,178,205);stroke:rgb(0,0,0);stroke-width:2"/></g>
<g fill-rule="evenodd"><path d="M 312.58,1590.67 L 312.58,1330.87 L 572.388,1330.87 L 572.388,1590.67 L 312.58,1590.67 z " style="fill-opacity:1.000000;fill:rgb(198,155,180);stroke:rgb(0,0,0);stroke-width:2"/></g>
<g fill-rule="evenodd"><path d="M 3438.97,4508.43 L 3438.97,4248.62 L 3698.78,4248.62 L 3698.78,4508.43 L 3438.97,4508.43 z " style="fill-opacity:1.000000;fill:rgb(84,17,14);stroke:rgb(0,0,0);stroke-width:2"/></g>
<g fill-rule="evenodd"><path d="M 2754.01,4508.43 L 2754.01,4248.62 L 3013.82,4248.62 L 3013.82,4508.43 L 2754.01,4508.43 z " style="fill-opacity:1.000000;fill:rgb(130,116,65);stroke:rgb(0,0,0);stroke-width:2"/></g>
<g fill-rule="evenodd"><path d="M 2552.43,3990.75 L 2662.69,3880.5 L 2662.69,3748.68 L 2657.69,3747.62 L 2635.13,3737.58 L 2615.16,3723.07 L 2598.64,3704.72 L 2586.29,3683.34 L 2578.66,3659.86 L 2576.08,3635.3 L 2578.66,3610.75 L 2586.29,3587.27 L 2598.64,3565.89 L 2615.16,3547.54 L 2635.13,3533.03 L 2657.69,3522.99 L 2681.84,3517.86 L 2706.52,3517.86 L 2730.67,3522.99 L 2753.22,3533.03 L 2773.2,3547.54 L 2789.72,3565.89 L 2802.06,3587.27 L 2809.69,3610.75 L 2812.27,3635.3 L 2809.69,3659.86 L 2802.06,3683.34 L 2789.72,3704.72 L 2773.2,3723.07 L 2753.22,3737.58 L 2730.67,3747.62 L 2725.67,3748.68 L 2725.67,3893.54 L 2725.06,3899.69 L 2723.27,3905.59 L 2720.36,3911.04 L 2716.45,3915.81 L 2602.18,4030.08 L 2607.8,4037.35 L 2618.33,4058.8 L 2624.32,4081.93 L 2625.53,4105.8 L 2621.91,4129.42 L 2613.61,4151.82 L 2600.97,4172.1 L 2584.51,4189.42 L 2564.9,4203.07 L 2542.94,4212.49 L 2519.53,4217.31 L 2468.22,4217.91 L 2444.45,4215.49 L 2421.65,4208.34 L 2400.76,4196.74 L 2382.63,4181.18 L 2368,4162.28 L 2357.48,4140.83 L 2355.02,4131.31 L 1637.08,4131.31 L 1629.48,4151.82 L 1616.84,4172.1 L 1600.38,4189.42 L 1580.76,4203.07 L 1558.8,4212.49 L 1535.4,4217.31 L 1484.09,4217.91 L 1460.32,4215.49 L 1437.52,4208.34 L 1416.63,4196.74 L 1398.5,4181.18 L 1383.87,4162.28 L 1373.35,4140.83 L 1367.36,4117.7 L 1366.15,4093.83 L 1369.77,4070.22 L 1378.07,4047.81 L 1390.7,4027.53 L 1407.17,4010.21 L 1426.78,3996.56 L 1448.74,3987.14 L 1472.14,3982.33 L 1523.45,3981.72 L 1547.22,3984.14 L 1570.02,3991.29 L 1590.92,4002.89 L 1609.05,4018.45 L 1623.67,4037.35 L 1634.2,4058.8 L 1636.66,4068.32 L 2354.6,4068.32 L 2362.2,4047.81 L 2374.83,4027.53 L 2391.3,4010.21 L 2410.91,3996.56 L 2432.87,3987.14 L 2456.28,3982.33 L 2507.58,3981.72 L 2531.36,3984.14 L 2552.43,3990.75 z " style="fill-opacity:1.000000;fill:rgb(33,61,220);stroke:rgb(0,0,0);stroke-width:2"/></g>
<g fill-rule="evenodd"><path d="M 2502.84,1790.97 L 2564.08,1729.73 L 2658.72,1824.37 L 2491.7,1991.38 L 2397.06,1896.74 L 2458.3,1835.5 L 2182.2,1559.41 L 2178.6,1555.02 L 2085.93,1462.34 L 1384.89,1462.34 L 1378.74,1461.74 L 1372.84,1459.95 L 1367.39,1457.04 L 1362.62,1453.12 L 749.084,839.586 L 738.512,839.586 L 738.512,965.554 L 423.59,965.554 L 423.59,650.633 L 738.512,650.633 L 738.512,776.601 L 762.131,776.601 L 768.274,777.207 L 774.181,778.999 L 779.626,781.911 L 784.398,785.826 L 1397.93,1399.36 L 2098.97,1399.36 L 2105.12,1399.96 L 2111.03,1401.76 L 2116.47,1404.67 L 2121.24,1408.58 L 2226.74,1514.08 L 2230.34,1518.47 L 2502.84,1790.97 z " style="fill-opacity:1.000000;fill:rgb(135,112,233);stroke:rgb(0,0,0);stroke-width:2"/></g>
<g fill-rule="evenodd"><path d="M 719.616,2721.86 L 719.616,3439.8 L 740.131,3447.4 L 760.409,3460.04 L 777.729,3476.5 L 791.379,3496.12 L 800.802,3518.08 L 805.613,3541.48 L 806.219,3592.79 L 803.802,3616.56 L 796.648,3639.36 L 785.052,3660.25 L 769.486,3678.38 L 750.59,3693.01 L 729.139,3703.53 L 706.005,3709.52 L 682.142,3710.73 L 658.523,3707.11 L 636.116,3698.82 L 615.839,3686.18 L 598.519,3669.71 L 584.868,3650.1 L 575.445,3628.14 L 570.634,3604.74 L 570.028,3553.43 L 572.446,3529.66 L 579.599,3506.86 L 591.196,3485.96 L 606.762,3467.83 L 625.657,3453.21 L 647.109,3442.68 L 656.632,3440.22 L 656.632,2722.28 L 636.116,2714.68 L 615.839,2702.05 L 598.519,2685.58 L 584.868,2665.97 L 575.445,2644.01 L 570.634,2620.61 L 570.028,2569.3 L 572.446,2545.52 L 579.599,2522.73 L 591.196,2501.83 L 606.762,2483.7 L 625.657,2469.08 L 647.109,2458.55 L 670.242,2452.56 L 694.105,2451.35 L 717.724,2454.97 L 740.131,2463.27 L 760.409,2475.91 L 777.729,2492.37 L 791.263,2511.82 L 1132.28,2511.82 L 1137.65,2495.28 L 1150,2473.9 L 1166.52,2455.55 L 1186.49,2441.04 L 1209.04,2431 L 1233.19,2425.87 L 1257.88,2425.87 L 1282.03,2431 L 1304.58,2441.04 L 1324.56,2455.55 L 1341.08,2473.9 L 1353.42,2495.28 L 1361.05,2518.76 L 1363.63,2543.31 L 1361.05,2567.87 L 1353.42,2591.34 L 1341.08,2612.73 L 1324.56,2631.07 L 1304.58,2645.59 L 1282.03,2655.63 L 1257.88,2660.76 L 1233.19,2660.76 L 1209.04,2655.63 L 1186.49,2645.59 L 1166.52,2631.07 L 1150,2612.73 L 1137.65,2591.34 L 1132.28,2574.8 L 805.819,2574.8 L 806.219,2608.66 L 803.802,2632.43 L 796.648,2655.23 L 785.052,2676.12 L 769.486,2694.25 L 750.59,2708.88 L 729.139,2719.4 L 719.616,2721.86 z " style="fill-opacity:1.000000;fill:rgb(62,161,65);stroke:rgb(0,0,0);stroke-width:2"/></g>
<g fill-rule="evenodd"><path d="M 2162.75,961.497 L 2145.58,957.847 L 2115.51,944.457 L 2088.88,925.109 L 2066.85,900.646 L 2050.39,872.138 L 2040.22,840.829 L 2036.78,808.093 L 2040.22,775.357 L 2050.39,744.049 L 2066.85,715.541 L 2088.88,691.078 L 2115.51,671.73 L 2145.58,658.34 L 2177.78,651.497 L 2210.7,651.497 L 2242.9,658.34 L 2272.97,671.73 L 2299.6,691.078 L 2321.63,715.541 L 2338.09,744.049 L 2348.26,775.357 L 2351.7,808.093 L 2348.26,840.829 L 2338.09,872.138 L 2321.63,900.646 L 2299.6,925.109 L 2272.97,944.457 L 2242.9,957.847 L 2225.73,961.495 L 2225.73,1207.6 L 2887.29,1869.16 L 2891.21,1873.93 L 2894.12,1879.37 L 2895.91,1885.28 L 2896.52,1891.42 L 2896.52,1911.85 L 3132.74,2148.09 L 4206.59,2148.09 L 4212.73,2148.69 L 4218.64,2150.48 L 4224.09,2153.39 L 4228.86,2157.31 L 4483.94,2412.4 L 4487.86,2417.17 L 4490.77,2422.62 L 4492.56,2428.52 L 4493.17,2434.67 L 4493.17,3299.13 L 4492.56,3305.27 L 4490.77,3311.18 L 4487.86,3316.62 L 4483.94,3321.4 L 4205.01,3600.32 L 4205.01,3991.96 L 4330.98,3991.96 L 4330.98,4306.88 L 4016.06,4306.88 L 4016.06,3991.96 L 4142.03,3991.96 L 4142.03,3587.28 L 4142.63,3581.14 L 4144.43,3575.23 L 4147.34,3569.78 L 4151.25,3565.01 L 4430.19,3286.08 L 4430.19,2447.71 L 4193.54,2211.07 L 3119.7,2211.07 L 3113.56,2210.47 L 3107.65,2208.67 L 3102.21,2205.76 L 3097.43,2201.85 L 2842.75,1947.17 L 2838.84,1942.4 L 2835.93,1936.95 L 2834.13,1931.04 L 2833.53,1924.9 L 2833.53,1904.47 L 2171.97,1242.91 L 2168.05,1238.14 L 2165.14,1232.69 L 2163.35,1226.79 L 2162.75,1220.64 L 2162.75,961.497 z " style="fill-opacity:1.000000;fill:rgb(225,252,103);stroke:rgb(0,0,0);stroke-width:2"/></g>
<g fill-rule="evenodd"><path d="M 2490.96,3080.1 L 2477.95,3082.16 L 2464.8,3081.47 L 2452.09,3078.07 L 2440.35,3072.09 L 2430.12,3063.8 L 2352.18,2985.86 L 2343.9,2975.63 L 2337.92,2963.9 L 2334.51,2951.18 L 2333.82,2938.03 L 2335.88,2925.03 L 2340.6,2912.73 L 2347.77,2901.69 L 2357.08,2892.38 L 2368.13,2885.21 L 2380.42,2880.49 L 2393.42,2878.43 L 2406.57,2879.12 L 2419.29,2882.53 L 2431.02,2888.5 L 2441.26,2896.79 L 2519.2,2974.73 L 2527.48,2984.96 L 2533.46,2996.69 L 2536.87,3009.41 L 2537.56,3022.56 L 2535.5,3035.56 L 2788.82,3288.89 L 2950.84,3288.89 L 2956.98,3289.5 L 2962.89,3291.29 L 2968.33,3294.2 L 2973.11,3298.12 L 3248.66,3573.67 L 3252.58,3578.44 L 3255.49,3583.89 L 3257.28,3589.8 L 3257.89,3595.94 L 3257.89,3718.6 L 3263.12,3721.86 L 3271.91,3730.23 L 3278.85,3740.19 L 3283.64,3751.35 L 3286.08,3763.24 L 3286.39,3885.51 L 3285.16,3897.58 L 3281.52,3909.17 L 3275.63,3919.78 L 3267.73,3928.99 L 3258.13,3936.42 L 3247.23,3941.77 L 3235.48,3944.81 L 3223.36,3945.42 L 3211.36,3943.59 L 3199.98,3939.37 L 3189.67,3932.95 L 3180.88,3924.59 L 3173.94,3914.62 L 3169.15,3903.47 L 3166.71,3891.58 L 3166.4,3769.3 L 3167.63,3757.23 L 3171.27,3745.65 L 3177.16,3735.03 L 3185.06,3725.82 L 3194.9,3718.28 L 3194.9,3608.99 L 2937.79,3351.88 L 2775.78,3351.88 L 2769.63,3351.27 L 2763.73,3349.48 L 2758.28,3346.57 L 2753.51,3342.65 L 2490.96,3080.1 z " style="fill-opacity:1.000000;fill:rgb(62,1,126);stroke:rgb(0,0,0);stroke-width:2"/></g>
<g fill-rule="evenodd"><path d="M 1956.21,2456.28 L 1969.21,2454.22 L 1982.36,2454.91 L 1995.08,2458.31 L 2006.81,2464.29 L 2017.04,2472.58 L 2094.98,2550.52 L 2103.27,2560.75 L 2109.25,2572.48 L 2112.66,2585.2 L 2113.34,2598.35 L 2111.28,2611.35 L 2106.57,2623.65 L 2099.39,2634.69 L 2090.08,2644 L 2079.04,2651.17 L 2066.75,2655.89 L 2053.74,2657.95 L 2040.59,2657.26 L 2027.87,2653.86 L 2016.14,2647.88 L 2005.91,2639.59 L 1927.97,2561.65 L 1919.68,2551.42 L 1913.71,2539.69 L 1910.3,2526.97 L 1909.61,2513.82 L 1911.67,2500.81 L 1647.48,2236.62 L 1645.31,2233.98 L 1633.26,2231.41 L 1610.7,2221.37 L 1590.73,2206.86 L 1574.21,2188.51 L 1561.86,2167.13 L 1554.23,2143.65 L 1551.65,2119.1 L 1554.23,2094.55 L 1561.86,2071.07 L 1574.21,2049.69 L 1590.73,2031.34 L 1610.7,2016.83 L 1633.26,2006.79 L 1657.4,2001.65 L 1682.09,2001.65 L 1706.24,2006.79 L 1728.79,2016.83 L 1748.77,2031.34 L 1765.29,2049.69 L 1777.63,2071.07 L 1785.26,2094.55 L 1787.84,2119.1 L 1785.26,2143.65 L 1777.63,2167.13 L 1765.29,2188.51 L 1748.77,2206.86 L 1728.79,2221.37 L 1723.61,2223.68 L 1956.21,2456.28 z " style="fill-opacity:1.000000;fill:rgb(151,234,220);stroke:rgb(0,0,0);stroke-width:2"/></g>
<g fill-rule="evenodd"><path d="M 1815.18,2597.62 L 1827.81,2595.62 L 1840.96,2596.31 L 1853.67,2599.72 L 1865.41,2605.7 L 1875.64,2613.98 L 1953.58,2691.92 L 1961.87,2702.16 L 1967.84,2713.89 L 1971.25,2726.6 L 1971.94,2739.75 L 1969.88,2752.76 L 1965.16,2765.05 L 1957.99,2776.1 L 1948.68,2785.41 L 1937.64,2792.58 L 1925.34,2797.3 L 1912.34,2799.36 L 1899.19,2798.67 L 1886.47,2795.26 L 1874.74,2789.28 L 1864.51,2781 L 1786.57,2703.06 L 1778.28,2692.82 L 1772.3,2681.09 L 1768.89,2668.37 L 1768.21,2655.22 L 1770.39,2641.9 L 1271.29,2142.8 L 1267.38,2138.03 L 1264.47,2132.58 L 1262.67,2126.68 L 1262.07,2120.53 L 1262.07,1868.59 L 1029.54,1868.65 L 1023.4,1868.05 L 1017.49,1866.26 L 1011.68,1863.05 L 935.497,1863.24 L 923.421,1862.01 L 911.838,1858.37 L 901.224,1852.48 L 892.015,1844.58 L 884.584,1834.98 L 879.238,1824.08 L 876.195,1812.33 L 875.581,1800.21 L 877.418,1788.21 L 881.634,1776.83 L 888.055,1766.52 L 896.418,1757.73 L 906.381,1750.79 L 917.538,1746 L 929.426,1743.56 L 1051.7,1743.25 L 1063.78,1744.48 L 1075.36,1748.12 L 1085.97,1754.01 L 1095.18,1761.91 L 1102.61,1771.51 L 1107.96,1782.41 L 1111,1794.16 L 1111.58,1805.67 L 1293.56,1805.61 L 1299.7,1806.22 L 1305.61,1808.01 L 1311.06,1810.92 L 1315.83,1814.83 L 1319.74,1819.61 L 1322.66,1825.05 L 1324.45,1830.96 L 1325.05,1837.1 L 1325.05,2107.49 L 1815.18,2597.62 z " style="fill-opacity:1.000000;fill:rgb(107,150,143);stroke:rgb(0,0,0);stroke-width:2"/></g>
<g fill-rule="evenodd"><path d="M 833.154,4804.72 L 689.066,4804.72 L 682.92,4804.11 L 676.663,4802.13 L 457.564,4802.13 L 451.419,4801.53 L 445.511,4799.74 L 440.066,4796.83 L 435.295,4792.91 L 320.975,4678.59 L 259.738,4739.83 L 64.89,4544.98 L 126.127,4483.74 L 11.8066,4369.42 L 7.89103,4364.65 L 4.97939,4359.21 L 3.18761,4353.3 L 2.58368,4347.15 L 2.58368,4128.06 L 0.603926,4121.8 L -8.52651e-14,4115.65 L -8.52651e-14,3855.77 L 0.603926,3849.63 L 2.39571,3843.72 L 5.30535,3838.28 L 9.22287,3833.5 L 191.794,3650.93 L 181.794,3628.14 L 176.982,3604.74 L 176.376,3553.43 L 178.794,3529.66 L 185.947,3506.86 L 197.544,3485.96 L 213.11,3467.83 L 232.006,3453.21 L 253.457,3442.68 L 262.98,3440.22 L 262.98,2722.28 L 242.464,2714.68 L 222.187,2702.05 L 204.867,2685.58 L 191.217,2665.97 L 181.794,2644.01 L 176.982,2620.61 L 176.376,2569.3 L 178.794,2545.52 L 185.947,2522.73 L 192.162,2511.53 L 43.5107,2362.87 L 39.5951,2358.1 L 36.6835,2352.66 L 34.8917,2346.75 L 34.2878,2340.6 L 34.2878,2056.71 L 34.8917,2050.57 L 36.6835,2044.66 L 39.5931,2039.22 L 43.5107,2034.45 L 279.556,1798.4 L 284.327,1794.49 L 289.772,1791.58 L 295.68,1789.79 L 301.825,1789.18 L 512.881,1789.18 L 519.024,1789.79 L 524.932,1791.58 L 530.377,1794.49 L 535.148,1798.4 L 704.07,1967.33 L 885.577,1967.33 L 888.055,1963.35 L 896.418,1954.55 L 906.381,1947.62 L 917.538,1942.83 L 929.426,1940.39 L 1051.7,1940.08 L 1063.78,1941.31 L 1075.36,1944.94 L 1085.97,1950.84 L 1095.18,1958.74 L 1102.61,1968.34 L 1107.96,1979.24 L 1111,1990.99 L 1111.62,2003.11 L 1109.78,2015.11 L 1105.56,2026.49 L 1099.14,2036.79 L 1090.78,2045.59 L 1080.82,2052.53 L 1069.66,2057.31 L 1057.77,2059.76 L 935.497,2060.07 L 923.421,2058.84 L 911.838,2055.2 L 901.224,2049.31 L 892.015,2041.41 L 884.584,2031.81 L 883.852,2030.31 L 691.027,2030.31 L 684.882,2029.71 L 678.975,2027.91 L 673.529,2025 L 668.758,2021.09 L 499.835,1852.16 L 314.869,1852.16 L 97.2721,2069.76 L 97.2721,2327.56 L 236.555,2466.84 L 253.457,2458.55 L 276.59,2452.56 L 300.453,2451.35 L 324.072,2454.97 L 346.48,2463.27 L 366.757,2475.91 L 384.077,2492.37 L 397.727,2511.98 L 407.15,2533.94 L 411.962,2557.35 L 412.567,2608.66 L 410.15,2632.43 L 402.997,2655.23 L 391.4,2676.12 L 375.834,2694.25 L 356.938,2708.88 L 335.487,2719.4 L 325.964,2721.86 L 325.964,3439.8 L 346.48,3447.4 L 366.757,3460.04 L 384.077,3476.5 L 397.727,3496.12 L 407.15,3518.08 L 411.962,3541.48 L 412.567,3592.79 L 410.15,3616.56 L 402.997,3639.36 L 391.4,3660.25 L 375.834,3678.38 L 356.938,3693.01 L 351.403,3695.73 L 456.242,3800.57 L 982.998,3800.57 L 1537.96,3245.6 L 1537.96,2998.11 L 1538.56,2991.97 L 1540.36,2986.06 L 1543.26,2980.62 L 1547.18,2975.84 L 1661.86,2861.16 L 1645.16,2844.46 L 1636.88,2834.23 L 1630.9,2822.49 L 1627.49,2809.78 L 1626.8,2796.63 L 1628.86,2783.62 L 1633.58,2771.33 L 1640.75,2760.28 L 1650.06,2750.98 L 1661.11,2743.8 L 1673.4,2739.08 L 1686.4,2737.03 L 1699.55,2737.71 L 1712.27,2741.12 L 1724,2747.1 L 1734.24,2755.38 L 1812.18,2833.32 L 1820.46,2843.56 L 1826.44,2855.29 L 1829.85,2868.01 L 1830.54,2881.16 L 1828.48,2894.16 L 1823.76,2906.45 L 1816.59,2917.5 L 1807.28,2926.81 L 1796.23,2933.98 L 1783.94,2938.7 L 1770.93,2940.76 L 1757.78,2940.07 L 1745.07,2936.66 L 1733.34,2930.68 L 1723.1,2922.4 L 1706.4,2905.7 L 1600.94,3011.15 L 1600.94,3258.65 L 1600.34,3264.79 L 1598.55,3270.7 L 1595.63,3276.15 L 1591.72,3280.92 L 1018.31,3854.33 L 1013.54,3858.25 L 1008.09,3861.16 L 1002.19,3862.95 L 996.042,3863.55 L 443.2,3863.55 L 437.054,3862.95 L 431.147,3861.16 L 425.702,3858.24 L 420.93,3854.33 L 275.318,3708.72 L 264.872,3707.11 L 242.464,3698.82 L 236.625,3695.18 L 62.9843,3868.81 L 62.9843,3956.9 L 64.4941,3960.83 L 65.524,3967.33 L 65.18,3973.91 L 62.9843,3981.23 L 62.9843,4105.84 L 64.962,4112.09 L 65.568,4118.24 L 65.568,4334.11 L 170.663,4439.21 L 231.902,4377.97 L 426.75,4572.82 L 365.511,4634.05 L 470.606,4739.15 L 686.482,4739.15 L 692.625,4739.76 L 698.878,4741.73 L 823.337,4741.73 L 829.592,4739.76 L 835.738,4739.15 L 1134.82,4739.15 L 1165.35,4708.62 L 1166.52,4704.23 L 1169.51,4698.36 L 1174.62,4692.26 L 1179.4,4688.34 L 1184.85,4685.42 L 1190.76,4683.62 L 1194.21,4683.28 L 1201.24,4681.23 L 1207.82,4680.89 L 1214.32,4681.92 L 1217.17,4683.01 L 1474.64,4683.01 L 1474.64,4636.38 L 1472.88,4630.59 L 1472.28,4624.44 L 1472.28,4610.36 L 1460.32,4609.15 L 1437.52,4601.99 L 1416.63,4590.4 L 1398.5,4574.83 L 1383.87,4555.93 L 1373.35,4534.48 L 1367.36,4511.35 L 1366.15,4487.49 L 1369.77,4463.87 L 1378.07,4441.46 L 1390.7,4421.18 L 1407.17,4403.86 L 1426.78,4390.21 L 1448.74,4380.79 L 1472.14,4375.98 L 1523.45,4375.37 L 1547.22,4377.79 L 1570.02,4384.94 L 1590.92,4396.54 L 1609.05,4412.11 L 1623.67,4431 L 1634.2,4452.45 L 1640.19,4475.59 L 1641.4,4499.45 L 1637.78,4523.07 L 1629.48,4545.48 L 1616.84,4565.75 L 1600.38,4583.07 L 1580.76,4596.72 L 1558.8,4606.15 L 1535.26,4610.96 L 1535.26,4614.87 L 1537.02,4620.66 L 1537.63,4626.81 L 1537.63,4683.01 L 2454.84,4683.01 L 2454.84,4626.02 L 2455.44,4619.88 L 2456.41,4616.68 L 2456.41,4610.36 L 2444.45,4609.15 L 2421.65,4601.99 L 2400.76,4590.4 L 2382.63,4574.83 L 2368,4555.93 L 2357.48,4534.48 L 2351.49,4511.35 L 2350.28,4487.49 L 2353.9,4463.87 L 2362.2,4441.46 L 2374.83,4421.18 L 2391.3,4403.86 L 2410.91,4390.21 L 2432.87,4380.79 L 2456.28,4375.98 L 2507.58,4375.37 L 2531.36,4377.79 L 2554.16,4384.94 L 2575.05,4396.54 L 2593.18,4412.11 L 2607.8,4431 L 2618.33,4452.45 L 2624.32,4475.59 L 2625.53,4499.45 L 2621.91,4523.07 L 2613.61,4545.48 L 2600.97,4565.75 L 2584.51,4583.07 L 2564.9,4596.72 L 2542.94,4606.15 L 2519.4,4610.96 L 2519.4,4624.44 L 2518.79,4630.58 L 2517.82,4633.78 L 2517.82,4682.58 L 3238.99,4661.99 L 3238.99,4166.21 L 3016.7,3943.92 L 3014.53,3943.59 L 3003.15,3939.37 L 2992.85,3932.95 L 2984.05,3924.59 L 2977.12,3914.62 L 2972.33,3903.47 L 2969.88,3891.58 L 2969.58,3769.3 L 2970.81,3757.23 L 2974.44,3745.65 L 2980.33,3735.03 L 2988.24,3725.82 L 2997.84,3718.39 L 3008.73,3713.05 L 3020.49,3710 L 3032.61,3709.39 L 3044.6,3711.23 L 3055.99,3715.44 L 3066.29,3721.86 L 3075.09,3730.23 L 3082.02,3740.19 L 3086.81,3751.35 L 3089.25,3763.24 L 3089.56,3885.51 L 3088.33,3897.58 L 3084.7,3909.17 L 3079.82,3917.96 L 3292.75,4130.9 L 3296.67,4135.67 L 3299.58,4141.11 L 3301.37,4147.02 L 3301.98,4153.17 L 3301.98,4660.19 L 3680.45,4649.39 L 3681.97,4648.93 L 3692.73,4640 L 3761.76,4570.96 L 3761.76,2966.61 L 3158.77,2966.61 L 3152.62,2966 L 3146.72,2964.21 L 3141.27,2961.3 L 3136.5,2957.38 L 2951.2,2772.09 L 2889.96,2833.32 L 2800.89,2744.25 L 2967.9,2577.24 L 3056.98,2666.31 L 2995.74,2727.55 L 3171.81,2903.62 L 3761.59,2903.62 L 4042.59,2622.63 L 4029.68,2600.27 L 4019.5,2568.96 L 4016.06,2536.23 L 4019.5,2503.49 L 4029.68,2472.18 L 4046.14,2443.67 L 4068.16,2419.21 L 4094.79,2399.86 L 4124.87,2386.47 L 4157.06,2379.63 L 4189.98,2379.63 L 4222.18,2386.47 L 4252.25,2399.86 L 4278.88,2419.21 L 4300.91,2443.67 L 4317.37,2472.18 L 4327.54,2503.49 L 4330.98,2536.23 L 4327.54,2568.96 L 4317.37,2600.27 L 4300.91,2628.78 L 4278.88,2653.24 L 4252.25,2672.59 L 4222.18,2685.98 L 4189.98,2692.82 L 4157.06,2692.82 L 4124.87,2685.98 L 4094.79,2672.59 L 4087.21,2667.08 L 3824.75,2929.54 L 3824.75,4584.01 L 3824.14,4590.15 L 3822.35,4596.06 L 3819.44,4601.51 L 3814.03,4607.77 L 3817.12,4634.34 L 3816.68,4637.38 L 3815.85,4639.3 L 3814.65,4641 L 3679.33,4764.71 L 3676.2,4766.65 L 3672.59,4767.33 L 1193.07,4769.98 L 1170.13,4792.91 L 1165.36,4796.83 L 1159.92,4799.74 L 1154.01,4801.53 L 1147.87,4802.13 L 845.556,4802.13 L 839.297,4804.11 L 833.154,4804.72 z " style="fill-opacity:1.000000;fill:rgb(56,92,42);stroke:rgb(0,0,0);stroke-width:2"/></g>
<g fill-rule="evenodd"><path d="M 2349.56,3221.51 L 2336.55,3223.57 L 2323.4,3222.88 L 2310.68,3219.47 L 2298.95,3213.49 L 2288.72,3205.21 L 2210.78,3127.27 L 2202.49,3117.03 L 2196.51,3105.3 L 2193.11,3092.58 L 2192.42,3079.43 L 2194.48,3066.43 L 2199.19,3054.14 L 2206.37,3043.09 L 2215.68,3033.78 L 2226.72,3026.61 L 2239.01,3021.89 L 2252.02,3019.83 L 2265.17,3020.52 L 2277.89,3023.93 L 2289.62,3029.91 L 2299.85,3038.19 L 2377.79,3116.13 L 2386.08,3126.37 L 2392.06,3138.1 L 2395.46,3150.82 L 2396.15,3163.97 L 2394.09,3176.97 L 2405.63,3188.51 L 2409.54,3193.28 L 2412.45,3198.72 L 2414.25,3204.63 L 2414.85,3210.77 L 2414.85,3513.21 L 2414.25,3519.36 L 2412.45,3525.26 L 2409.54,3530.71 L 2405.63,3535.48 L 2283.53,3657.57 L 2278.76,3661.49 L 2273.31,3664.4 L 2267.41,3666.19 L 2261.26,3666.8 L 2207.51,3666.8 L 2202.14,3683.34 L 2189.79,3704.72 L 2173.27,3723.07 L 2153.3,3737.58 L 2130.74,3747.62 L 2106.59,3752.75 L 2081.91,3752.75 L 2057.76,3747.62 L 2035.2,3737.58 L 2015.23,3723.07 L 1998.71,3704.72 L 1986.37,3683.34 L 1978.74,3659.86 L 1976.16,3635.3 L 1978.74,3610.75 L 1986.37,3587.27 L 1998.71,3565.89 L 2015.23,3547.54 L 2035.2,3533.03 L 2057.76,3522.99 L 2081.91,3517.86 L 2106.59,3517.86 L 2130.74,3522.99 L 2153.3,3533.03 L 2173.27,3547.54 L 2189.79,3565.89 L 2202.14,3587.27 L 2207.51,3603.81 L 2248.22,3603.81 L 2351.87,3500.17 L 2351.87,3223.82 L 2349.56,3221.51 z " style="fill-opacity:1.000000;fill:rgb(236,176,59);stroke:rgb(0,0,0);stroke-width:2"/></g>
<g fill-rule="evenodd"><path d="M 2760.25,2502.08 L 2781.96,2480.37 L 2792.2,2472.09 L 2803.93,2466.11 L 2816.64,2462.7 L 2829.8,2462.01 L 2842.8,2464.07 L 2855.09,2468.79 L 2866.14,2475.96 L 2875.45,2485.27 L 2882.62,2496.31 L 2887.34,2508.61 L 2889.4,2521.61 L 2888.71,2534.76 L 2885.3,2547.48 L 2879.32,2559.21 L 2871.03,2569.45 L 2793.09,2647.38 L 2782.86,2655.67 L 2771.13,2661.65 L 2758.41,2665.06 L 2745.26,2665.74 L 2732.25,2663.68 L 2719.96,2658.96 L 2708.92,2651.79 L 2699.61,2642.48 L 2692.44,2631.44 L 2687.72,2619.15 L 2685.66,2606.14 L 2686.35,2592.99 L 2689.76,2580.27 L 2695.74,2568.54 L 2704.02,2558.31 L 2715.71,2546.62 L 2648.6,2479.5 L 2626.95,2489.14 L 2602.8,2494.27 L 2578.11,2494.27 L 2553.96,2489.14 L 2531.41,2479.1 L 2511.43,2464.58 L 2494.91,2446.24 L 2482.57,2424.86 L 2474.94,2401.38 L 2472.36,2376.82 L 2474.94,2352.27 L 2482.57,2328.79 L 2494.91,2307.41 L 2511.43,2289.06 L 2531.41,2274.55 L 2553.96,2264.51 L 2578.11,2259.38 L 2602.8,2259.38 L 2626.95,2264.51 L 2649.5,2274.55 L 2669.47,2289.06 L 2685.99,2307.41 L 2698.34,2328.79 L 2705.97,2352.27 L 2708.55,2376.82 L 2705.97,2401.38 L 2698.34,2424.86 L 2692.73,2434.56 L 2760.25,2502.08 z " style="fill-opacity:1.000000;fill:rgb(251,50,175);stroke:rgb(0,0,0);stroke-width:2"/></g>
<g fill-rule="evenodd"><path d="M 2569.51,2058.16 L 2568.47,2055.46 L 2566.28,2041.65 L 2567.01,2027.68 L 2570.63,2014.16 L 2576.98,2001.7 L 2585.79,1990.83 L 2658.16,1918.45 L 2669.03,1909.65 L 2681.5,1903.3 L 2695.01,1899.68 L 2708.98,1898.94 L 2722.8,1901.13 L 2735.86,1906.15 L 2747.59,1913.77 L 2757.48,1923.66 L 2765.11,1935.39 L 2770.12,1948.45 L 2772.31,1962.27 L 2771.58,1976.24 L 2767.95,1989.75 L 2761.6,2002.22 L 2752.8,2013.09 L 2680.43,2085.46 L 2669.55,2094.27 L 2657.09,2100.62 L 2643.57,2104.24 L 2629.6,2104.97 L 2615.79,2102.78 L 2614.46,2102.28 L 2543.12,2173.62 L 2538.34,2177.54 L 2532.9,2180.45 L 2526.99,2182.24 L 2520.85,2182.85 L 2396.48,2182.85 L 2396.48,2394.39 L 2398.33,2400.41 L 2398.94,2406.56 L 2398.94,2494.05 L 2570.01,2665.12 L 2573.92,2669.89 L 2576.83,2675.34 L 2578.62,2681.25 L 2579.23,2687.39 L 2579.23,2752.61 L 2582.66,2755.38 L 2660.6,2833.32 L 2668.88,2843.56 L 2674.86,2855.29 L 2678.27,2868.01 L 2678.96,2881.16 L 2676.9,2894.16 L 2945.66,3162.92 L 3167.35,3162.92 L 3173.49,3163.53 L 3179.4,3165.32 L 3184.84,3168.23 L 3189.62,3172.15 L 3446.28,3428.81 L 3450.19,3433.58 L 3453.1,3439.02 L 3454.89,3444.93 L 3455.5,3451.08 L 3455.5,3684.23 L 3454.71,3690.97 L 3454.71,3718.6 L 3459.94,3721.86 L 3468.74,3730.23 L 3475.68,3740.19 L 3480.46,3751.35 L 3482.91,3763.24 L 3483.22,3885.51 L 3481.99,3897.58 L 3478.35,3909.17 L 3472.46,3919.78 L 3464.56,3928.99 L 3454.95,3936.42 L 3444.06,3941.77 L 3432.31,3944.81 L 3420.18,3945.42 L 3408.19,3943.59 L 3396.8,3939.37 L 3386.5,3932.95 L 3377.7,3924.59 L 3370.77,3914.62 L 3365.98,3903.47 L 3363.54,3891.58 L 3363.23,3769.3 L 3364.46,3757.23 L 3368.09,3745.65 L 3373.98,3735.03 L 3381.89,3725.82 L 3391.73,3718.28 L 3391.73,3685.02 L 3392.52,3678.28 L 3392.52,3464.12 L 3154.3,3225.91 L 2932.62,3225.91 L 2926.47,3225.3 L 2920.56,3223.51 L 2915.12,3220.6 L 2910.35,3216.68 L 2632.36,2938.7 L 2619.36,2940.76 L 2606.21,2940.07 L 2593.49,2936.66 L 2581.76,2930.68 L 2571.52,2922.4 L 2493.59,2844.46 L 2485.3,2834.23 L 2479.32,2822.49 L 2475.91,2809.78 L 2475.23,2796.63 L 2477.29,2783.62 L 2482,2771.33 L 2489.18,2760.28 L 2498.49,2750.98 L 2509.53,2743.8 L 2516.25,2741.23 L 2516.25,2700.44 L 2345.18,2529.37 L 2341.26,2524.6 L 2338.35,2519.15 L 2336.56,2513.24 L 2335.95,2507.1 L 2335.95,2416.27 L 2334.1,2410.25 L 2333.5,2404.1 L 2333.5,2164.4 L 2224.38,2055.29 L 2202.73,2064.93 L 2178.59,2070.06 L 2153.9,2070.06 L 2129.75,2064.93 L 2107.2,2054.88 L 2087.22,2040.37 L 2070.7,2022.02 L 2058.36,2000.64 L 2050.73,1977.16 L 2048.15,1952.61 L 2050.73,1928.06 L 2058.36,1904.58 L 2063.96,1894.87 L 1860.86,1691.77 L 1230.56,1691.77 L 1224.42,1691.16 L 1218.51,1689.37 L 1213.06,1686.46 L 1208.29,1682.54 L 1162.4,1636.66 L 1103.7,1636.66 L 1098.52,1644.97 L 1089.73,1654.21 L 1079.28,1661.49 L 1067.56,1666.51 L 1055.08,1669.08 L 938.489,1669.4 L 925.809,1668.11 L 913.65,1664.3 L 902.507,1658.11 L 892.837,1649.81 L 885.038,1639.74 L 879.424,1628.29 L 876.231,1615.96 L 875.585,1603.23 L 877.514,1590.63 L 881.94,1578.68 L 888.681,1567.87 L 897.462,1558.63 L 907.921,1551.35 L 919.633,1546.32 L 932.116,1543.76 L 1048.71,1543.44 L 1061.39,1544.73 L 1073.55,1548.54 L 1084.69,1554.73 L 1094.36,1563.03 L 1102.44,1573.67 L 1175.45,1573.67 L 1181.59,1574.28 L 1187.5,1576.07 L 1192.95,1578.98 L 1197.72,1582.9 L 1243.6,1628.78 L 1873.91,1628.78 L 1880.05,1629.39 L 1885.96,1631.18 L 1891.4,1634.09 L 1896.18,1638.01 L 2108.1,1849.94 L 2129.75,1840.3 L 2153.9,1835.16 L 2178.59,1835.16 L 2202.73,1840.3 L 2225.29,1850.34 L 2245.26,1864.85 L 2261.78,1883.2 L 2274.13,1904.58 L 2281.76,1928.06 L 2284.34,1952.61 L 2281.76,1977.16 L 2274.13,2000.64 L 2268.52,2010.35 L 2378.03,2119.86 L 2507.8,2119.86 L 2569.51,2058.16 z " style="fill-opacity:1.000000;fill:rgb(60,84,236);stroke:rgb(0,0,0);stroke-width:2"/></g>
<g fill-rule="evenodd"><path d="M 345.742,3926.61 L 1050.62,3926.61 L 1736.4,3240.84 L 1741.17,3236.92 L 1746.61,3234.01 L 1752.52,3232.22 L 1758.67,3231.61 L 2051.58,3231.61 L 2051.01,3220.84 L 2053.07,3207.83 L 2057.79,3195.54 L 2064.96,3184.5 L 2074.27,3175.19 L 2085.32,3168.01 L 2097.61,3163.3 L 2110.62,3161.24 L 2123.77,3161.92 L 2136.48,3165.33 L 2148.21,3171.31 L 2158.45,3179.6 L 2236.39,3257.54 L 2244.67,3267.77 L 2250.65,3279.5 L 2254.06,3292.22 L 2254.75,3305.37 L 2252.69,3318.37 L 2247.97,3330.67 L 2240.8,3341.71 L 2231.49,3351.02 L 2220.44,3358.19 L 2208.15,3362.91 L 2195.15,3364.97 L 2182,3364.28 L 2169.28,3360.87 L 2157.55,3354.9 L 2147.31,3346.61 L 2095.3,3294.59 L 1771.71,3294.59 L 1095.16,3971.15 L 1095.16,4298.22 L 1094.55,4304.36 L 1092.76,4310.27 L 1089.85,4315.71 L 1085.93,4320.48 L 920.227,4486.19 L 917.686,4488.28 L 909.223,4496.74 L 912.312,4504.78 L 914.888,4521.04 L 914.026,4537.48 L 909.767,4553.38 L 902.293,4568.04 L 891.935,4580.83 L 825.129,4647.64 L 812.336,4658 L 797.672,4665.47 L 781.774,4669.73 L 765.336,4670.59 L 749.08,4668.02 L 733.714,4662.12 L 719.912,4653.15 L 708.273,4641.51 L 699.308,4627.71 L 693.411,4612.35 L 690.835,4596.09 L 691.697,4579.65 L 695.959,4563.75 L 703.43,4549.09 L 713.789,4536.3 L 780.594,4469.49 L 793.383,4459.13 L 808.049,4451.66 L 823.947,4447.4 L 840.383,4446.54 L 856.641,4449.12 L 864.686,4452.2 L 875.235,4441.66 L 877.776,4439.57 L 1032.18,4285.17 L 1032.18,3989.59 L 354.953,3989.59 L 353.057,3996.66 L 345.586,4011.33 L 335.227,4024.12 L 268.423,4090.93 L 255.631,4101.29 L 240.964,4108.76 L 225.066,4113.02 L 208.63,4113.88 L 192.374,4111.31 L 177.008,4105.41 L 163.204,4096.44 L 151.565,4084.81 L 142.603,4071 L 136.703,4055.64 L 134.128,4039.38 L 134.989,4022.94 L 139.249,4007.05 L 146.722,3992.38 L 157.079,3979.59 L 223.883,3912.78 L 236.673,3902.43 L 251.337,3894.95 L 267.235,3890.69 L 283.673,3889.83 L 299.929,3892.41 L 315.295,3898.3 L 329.1,3907.27 L 340.738,3918.9 L 345.742,3926.61 z " style="fill-opacity:1.000000;fill:rgb(24,219,92);stroke:rgb(0,0,0);stroke-width:2"/></g>
</svg>
