<?xml version="1.0" standalone="no"?>
<!DOCTYPE svg PUBLIC "-//W3C//DTD SVG 1.1//EN"
"http://www.w3.org/Graphics/SVG/1.1/DTD/svg11.dtd">
<svg width="5338" height="5060" viewBox="0 0 5338 5060" version="1.1"
xmlns="http://www.w3.org/2000/svg"
xmlns:xlink="http://www.w3.org/1999/xlink">
<g fill-rule="evenodd"><path d="M 2791.63,2305.64 L 2836.17,2261.1 L 2838.62,2258.9 L 2849.49,2250.09 L 2855.01,2246.51 L 2867.47,2240.16 L 2870.48,2238.81 L 2873.62,2237.79 L 2887.14,2234.18 L 2893.63,2233.15 L 2907.6,2232.41 L 2910.9,2232.41 L 2914.18,2232.76 L 2928,2234.95 L 2934.36,2236.65 L 2947.42,2241.66 L 2953.28,2244.65 L 2965.01,2252.27 L 2967.68,2254.21 L 2970.13,2256.41 L 2980.02,2266.3 L 2984.17,2271.42 L 2991.79,2283.15 L 2993.43,2286.01 L 2994.78,2289.02 L 2999.79,2302.08 L 3001.49,2308.43 L 3003.68,2322.25 L 3004.03,2325.53 L 3004.03,2328.83 L 3003.29,2342.8 L 3002.95,2346.08 L 3002.26,2349.3 L 2998.64,2362.82 L 2996.28,2368.96 L 2989.93,2381.42 L 2988.28,2384.28 L 2986.35,2386.95 L 2977.54,2397.82 L 2975.34,2400.27 L 2930.8,2444.8 L 2928.35,2447.01 L 2917.48,2455.81 L 2914.81,2457.75 L 2911.96,2459.4 L 2899.49,2465.75 L 2893.35,2468.11 L 2879.84,2471.73 L 2876.61,2472.42 L 2873.33,2472.76 L 2859.36,2473.49 L 2856.06,2473.49 L 2852.78,2473.15 L 2838.97,2470.96 L 2832.61,2469.25 L 2819.55,2464.24 L 2816.54,2462.9 L 2813.69,2461.25 L 2801.95,2453.63 L 2796.84,2449.49 L 2786.95,2439.6 L 2784.74,2437.15 L 2782.8,2434.48 L 2775.18,2422.74 L 2772.2,2416.88 L 2767.18,2403.82 L 2765.48,2397.47 L 2763.29,2383.65 L 2762.95,2380.37 L 2762.95,2377.07 L 2763.68,2363.1 L 2764.71,2356.6 L 2768.33,2343.09 L 2769.35,2339.95 L 2770.69,2336.94 L 2777.04,2324.47 L 2780.63,2318.95 L 2789.43,2308.08 L 2791.63,2305.64 z " style="fill-opacity:1.000000;fill:rgb(103,198,105);stroke:rgb(0,0,0);stroke-width:2"/></g>
<g fill-rule="evenodd"><path d="M 4916.5,3159 L 4919.84,3160.49 L 4925.88,3162.81 L 4932.46,3164.95 L 4937.65,3166.34 L 4944.23,3167.74 L 4948.91,3168.48 L 4955.49,3169.17 L 4959.92,3169.41 L 4963.22,3169.41 L 4965.43,3169.47 L 4966.51,3169.52 L 4971.01,3169.52 L 4972.05,3169.47 L 4976.81,3169.47 L 4977.74,3169.52 L 4982.99,3169.51 L 4983.73,3169.47 L 4989.72,3169.48 L 4990.19,3169.51 L 4997.28,3169.5 L 4997.32,3169.49 L 4997.8,3169.48 L 5000.11,3171.15 L 5000.4,3175.76 L 5000.63,3184.42 L 5000.66,3185.31 L 5000.74,3187.25 L 5000.76,3190.63 L 5000.63,3195.15 L 5000.69,3198.43 L 5000.71,3198.8 L 5000.76,3201.66 L 5000.63,3205.4 L 5000.62,3206.8 L 5000.69,3208.9 L 5000.7,3209.47 L 5000.7,3210.65 L 5000.7,3210.65 L 5000.7,3215.99 L 5000.72,3216.73 L 5000.76,3217.36 L 5000.76,3218.69 L 5000.63,3221.38 L 5000.62,3222.3 L 5000.7,3225.27 L 5000.7,3225.6 L 5000.7,3226.58 L 5000.7,3233.31 L 5000.7,3235.07 L 5000.7,3242.27 L 5000.7,3245.15 L 5000.7,3253.28 L 5000.7,3257.09 L 5000.68,3258.67 L 5000.42,3268.23 L 5000.04,3272.86 L 4997.47,3274.73 L 4991.77,3278.02 L 4988.83,3279.52 L 4985.75,3280.7 L 4979.49,3282.73 L 4973.05,3284.1 L 4966.5,3284.79 L 4963.22,3284.96 L 4753.28,3284.96 L 4749.99,3284.79 L 4743.44,3284.1 L 4737,3282.73 L 4730.74,3280.7 L 4727.66,3279.52 L 4724.72,3278.02 L 4719.02,3274.73 L 4713.7,3270.86 L 4708.8,3266.45 L 4706.47,3264.12 L 4704.39,3261.56 L 4700.52,3256.23 L 4697.24,3250.53 L 4694.56,3244.52 L 4693.38,3241.44 L 4692.52,3238.25 L 4691.15,3231.82 L 4690.47,3225.27 L 4690.47,3218.69 L 4691.15,3212.14 L 4692.52,3205.7 L 4693.38,3202.52 L 4694.56,3199.44 L 4697.24,3193.43 L 4698.73,3190.49 L 4700.53,3187.72 L 4704.4,3182.4 L 4708.8,3177.51 L 4713.7,3173.1 L 4719.02,3169.23 L 4724.72,3165.94 L 4727.66,3164.44 L 4730.74,3163.26 L 4737,3161.23 L 4743.43,3159.86 L 4749.98,3159.17 L 4753.28,3159 L 4916.5,3159 z " style="fill-opacity:1.000000;fill:rgb(115,81,255);stroke:rgb(0,0,0);stroke-width:2"/></g>
<g fill-rule="evenodd"><path d="M 2424.25,416.118 L 2425.93,406.419 L 2426.37,404.154 L 2427.39,399.359 L 2428.48,395.047 L 2429.87,390.378 L 2431.25,386.281 L 2432.99,381.736 L 2433.8,379.708 L 2439.31,366.812 L 2440.44,363.955 L 2442.72,357.732 L 2444.62,351.529 L 2444.99,350.075 L 2445.89,348.265 L 2447.11,346.05 L 2449.73,341.723 L 2452.69,337.617 L 2455.97,333.762 L 2457.69,331.9 L 2472.68,316.903 L 2474.54,315.187 L 2478.4,311.908 L 2482.5,308.944 L 2486.84,306.323 L 2489.06,305.101 L 2519.05,290.106 L 2521.26,289.102 L 2525.77,287.27 L 2530.39,285.792 L 2535.12,284.674 L 2539.93,283.927 L 2544.78,283.551 L 2547.21,283.455 L 2592.2,283.455 L 2594.63,283.551 L 2599.48,283.927 L 2604.29,284.674 L 2609.02,285.792 L 2613.64,287.27 L 2618.14,289.102 L 2620.36,290.106 L 2650.35,305.101 L 2652.57,306.321 L 2656.9,308.94 L 2661.01,311.906 L 2664.87,315.187 L 2666.73,316.903 L 2681.72,331.9 L 2683.44,333.764 L 2686.72,337.617 L 2689.67,341.717 L 2692.29,346.046 L 2693.52,348.265 L 2708.51,378.256 L 2709.51,380.474 L 2711.35,384.977 L 2712.82,389.602 L 2713.94,394.333 L 2714.69,399.139 L 2715.07,403.986 L 2715.16,406.419 L 2715.16,496.392 L 2715.07,498.827 L 2715.01,499.591 L 2714.03,501.081 L 2712.5,503.506 L 2709.97,507.222 L 2709.77,507.498 L 2706.89,511.813 L 2706.72,512.099 L 2704.74,515.148 L 2702.93,517.728 L 2701.9,519.246 L 2700.92,520.765 L 2700.24,521.853 L 2696.81,527.498 L 2694.6,531.602 L 2691.79,537.557 L 2690,541.928 L 2687.81,548.191 L 2686.86,551.222 L 2686.34,553.082 L 2686.32,553.152 L 2684.91,558.215 L 2684.49,559.667 L 2683.59,562.554 L 2682.73,565.638 L 2682.14,567.961 L 2681.41,570.613 L 2681.16,571.481 L 2666.72,585.914 L 2664.86,587.634 L 2661,590.913 L 2656.9,593.869 L 2652.57,596.488 L 2650.33,597.724 L 2619.06,613.321 L 2614.73,615.093 L 2608.47,617.127 L 2602.04,618.494 L 2596.19,619.11 L 2592.94,619.282 L 2547.26,619.354 L 2544.79,619.262 L 2539.94,618.888 L 2535.12,618.138 L 2530.39,617.021 L 2525.77,615.543 L 2521.26,613.711 L 2519.05,612.707 L 2489.06,597.712 L 2486.84,596.492 L 2482.51,593.873 L 2478.4,590.907 L 2474.54,587.628 L 2472.69,585.914 L 2457.69,570.919 L 2455.98,569.061 L 2452.7,565.208 L 2449.73,561.094 L 2447.11,556.763 L 2445.89,554.55 L 2430.9,524.559 L 2429.89,522.341 L 2428.06,517.838 L 2426.58,513.213 L 2425.47,508.482 L 2424.72,503.662 L 2424.34,498.813 L 2424.25,496.392 L 2424.25,416.118M 2562.08,409.417 L 2554.53,413.19 L 2553.99,413.732 L 2550.21,421.287 L 2550.21,481.53 L 2553.99,489.077 L 2554.53,489.619 L 2562.07,493.392 L 2577.33,493.392 L 2584.88,489.619 L 2585.42,489.077 L 2589.2,481.522 L 2589.2,421.293 L 2585.42,413.738 L 2584.88,413.194 L 2577.33,409.417 L 2562.08,409.417 z " style="fill-opacity:1.000000;fill:rgb(74,236,41);stroke:rgb(0,0,0);stroke-width:2"/></g>
<g fill-rule="evenodd"><path d="M 1200.62,603.093 L 1198.93,599.26 L 1196.65,593.277 L 1194.54,586.694 L 1193.17,581.523 L 1191.79,574.938 L 1191.07,570.269 L 1190.41,563.686 L 1190.19,559.265 L 1190.22,552.682 L 1190.47,548.245 L 1191.19,541.664 L 1191.5,539.34 L 1200.61,483.174 L 1287.82,221.551 L 1289.02,218.508 L 1291.72,212.549 L 1295.03,206.892 L 1298.91,201.621 L 1303.31,196.784 L 1308.19,192.427 L 1313.5,188.601 L 1319.18,185.348 L 1325.15,182.704 L 1331.38,180.693 L 1337.8,179.337 L 1344.31,178.659 L 1350.84,178.661 L 1357.35,179.341 L 1363.75,180.693 L 1369.98,182.702 L 1375.96,185.348 L 1381.64,188.601 L 1386.95,192.431 L 1391.84,196.788 L 1396.24,201.625 L 1400.11,206.898 L 1403.42,212.551 L 1406.12,218.51 L 1407.32,221.559 L 1449.71,348.813 L 1449.71,343.144 L 1450.4,336.601 L 1451.77,330.163 L 1452.62,326.979 L 1453.8,323.9 L 1456.48,317.885 L 1457.98,314.947 L 1459.77,312.18 L 1463.64,306.855 L 1468.05,301.963 L 1472.94,297.558 L 1478.27,293.689 L 1483.97,290.397 L 1486.91,288.902 L 1489.99,287.72 L 1496.25,285.686 L 1502.67,284.319 L 1509.22,283.629 L 1512.52,283.455 L 1524.52,283.455 L 1524.52,241.468 L 1524.69,238.179 L 1525.38,231.632 L 1526.75,225.195 L 1528.78,218.934 L 1529.96,215.856 L 1531.46,212.917 L 1534.75,207.216 L 1538.62,201.891 L 1543.02,196.998 L 1545.36,194.666 L 1547.92,192.589 L 1553.25,188.719 L 1558.94,185.43 L 1564.96,182.752 L 1568.04,181.57 L 1571.22,180.717 L 1577.66,179.349 L 1584.21,178.661 L 1590.79,178.661 L 1597.33,179.349 L 1603.77,180.717 L 1606.96,181.57 L 1610.04,182.752 L 1616.05,185.43 L 1618.99,186.925 L 1621.76,188.723 L 1627.08,192.593 L 1631.97,196.998 L 1636.38,201.891 L 1640.25,207.216 L 1643.54,212.917 L 1645.04,215.856 L 1646.22,218.934 L 1648.25,225.195 L 1649.62,231.622 L 1650.31,238.169 L 1650.48,241.468 L 1650.48,286.244 L 1655.02,287.72 L 1658.1,288.9 L 1661.04,290.397 L 1666.74,293.689 L 1672.06,297.558 L 1676.96,301.963 L 1681.36,306.855 L 1685.23,312.18 L 1687.03,314.945 L 1688.52,317.885 L 1691.2,323.9 L 1692.38,326.979 L 1693.24,330.163 L 1694.61,336.601 L 1695.29,343.144 L 1695.29,349.729 L 1694.61,356.274 L 1693.24,362.713 L 1692.38,365.9 L 1691.2,368.98 L 1688.52,374.993 L 1685.24,380.688 L 1681.37,386.015 L 1679.29,388.58 L 1676.96,390.912 L 1672.06,395.317 L 1666.74,399.187 L 1661.04,402.478 L 1658.1,403.976 L 1655.02,405.156 L 1650.48,406.629 L 1650.48,511.387 L 1650.39,513.823 L 1650.01,518.672 L 1649.26,523.477 L 1648.14,528.208 L 1646.67,532.833 L 1644.83,537.337 L 1643.83,539.554 L 1628.83,569.545 L 1627.62,571.759 L 1625,576.09 L 1622.03,580.203 L 1618.75,584.056 L 1615.17,587.634 L 1611.32,590.913 L 1607.22,593.869 L 1602.89,596.488 L 1600.67,597.712 L 1570.68,612.707 L 1568.46,613.713 L 1563.95,615.545 L 1559.33,617.021 L 1554.6,618.138 L 1549.78,618.888 L 1544.94,619.262 L 1542.51,619.354 L 1512.52,619.354 L 1509.23,619.182 L 1502.68,618.494 L 1496.25,617.127 L 1489.99,615.093 L 1486.91,613.911 L 1483.97,612.415 L 1482.54,611.594 L 1481.51,612.202 L 1475.52,614.919 L 1469.27,617.001 L 1466.1,617.879 L 1462.85,618.418 L 1456.3,619.156 L 1449.72,619.206 L 1443.17,618.568 L 1439.91,618.079 L 1436.72,617.249 L 1430.44,615.261 L 1427.35,614.101 L 1424.4,612.625 L 1418.68,609.376 L 1413.33,605.555 L 1408.41,601.187 L 1406.05,598.872 L 1403.96,596.322 L 1400.05,591.025 L 1398.23,588.274 L 1396.71,585.346 L 1393.99,579.353 L 1392.79,576.29 L 1377.16,529.382 L 1317.99,529.382 L 1302.35,576.294 L 1301.14,579.359 L 1298.42,585.354 L 1296.9,588.286 L 1295.08,591.039 L 1291.17,596.334 L 1286.74,601.181 L 1281.81,605.551 L 1279.23,607.61 L 1276.45,609.386 L 1270.72,612.633 L 1267.77,614.109 L 1264.68,615.265 L 1258.41,617.251 L 1251.96,618.568 L 1245.41,619.206 L 1238.83,619.156 L 1232.29,618.418 L 1229.03,617.879 L 1225.85,616.999 L 1219.6,614.915 L 1213.62,612.196 L 1207.95,608.862 L 1205.19,607.044 L 1202.65,604.949 L 1200.62,603.093M 1498.47,495.152 L 1502.67,494.256 L 1509.22,493.566 L 1512.52,493.392 L 1524.52,493.392 L 1524.52,409.417 L 1512.52,409.417 L 1509.23,409.245 L 1502.68,408.557 L 1496.25,407.189 L 1489.99,405.156 L 1486.91,403.974 L 1483.97,402.478 L 1478.27,399.187 L 1472.94,395.317 L 1468.05,390.912 L 1465.72,388.58 L 1463.64,386.015 L 1460.81,382.122 L 1498.47,495.152 z " style="fill-opacity:1.000000;fill:rgb(205,186,171);stroke:rgb(0,0,0);stroke-width:2"/></g>
<g fill-rule="evenodd"><path d="M 789.739,454.405 L 747.75,454.405 L 744.459,454.233 L 737.91,453.545 L 731.473,452.177 L 725.212,450.144 L 722.133,448.962 L 719.195,447.466 L 713.494,444.175 L 708.169,440.305 L 703.276,435.9 L 700.942,433.569 L 698.867,431.003 L 694.997,425.676 L 691.708,419.981 L 689.03,413.968 L 687.849,410.889 L 686.995,407.701 L 685.627,401.262 L 684.941,394.717 L 684.941,388.132 L 685.627,381.59 L 686.995,375.151 L 687.849,371.967 L 689.03,368.888 L 691.708,362.873 L 693.204,359.935 L 695.001,357.168 L 698.871,351.843 L 703.276,346.952 L 708.169,342.546 L 713.494,338.677 L 719.195,335.386 L 722.133,333.89 L 725.212,332.708 L 731.473,330.674 L 737.902,329.307 L 744.451,328.617 L 747.75,328.443 L 789.739,328.443 L 789.739,304.449 L 702.764,304.449 L 699.473,304.277 L 692.924,303.589 L 686.487,302.221 L 680.226,300.188 L 677.146,299.006 L 674.209,297.51 L 668.508,294.219 L 663.183,290.35 L 658.29,285.944 L 655.956,283.613 L 653.88,281.047 L 650.011,275.72 L 646.722,270.025 L 644.044,264.012 L 642.862,260.933 L 642.009,257.745 L 640.641,251.306 L 639.955,244.761 L 639.955,238.177 L 640.641,231.634 L 642.009,225.195 L 642.862,222.011 L 644.044,218.932 L 646.722,212.917 L 648.217,209.979 L 650.015,207.212 L 653.884,201.887 L 658.29,196.996 L 663.183,192.591 L 668.508,188.721 L 674.209,185.43 L 677.146,183.934 L 680.226,182.752 L 686.487,180.719 L 692.916,179.351 L 699.465,178.661 L 702.764,178.487 L 852.72,178.487 L 855.809,178.641 L 861.952,179.247 L 868.003,180.449 L 873.91,182.24 L 879.617,184.606 L 885.062,187.517 L 890.189,190.945 L 894.961,194.86 L 899.328,199.227 L 903.243,203.999 L 906.67,209.126 L 909.582,214.571 L 911.948,220.278 L 913.739,226.185 L 914.941,232.236 L 915.547,238.379 L 915.701,241.468 L 915.701,556.373 L 915.549,559.465 L 914.943,565.61 L 913.739,571.661 L 911.948,577.568 L 909.582,583.275 L 906.67,588.72 L 903.243,593.847 L 899.328,598.618 L 894.961,602.985 L 890.189,606.9 L 885.062,610.328 L 879.617,613.239 L 873.91,615.605 L 868.003,617.397 L 861.942,618.6 L 855.799,619.204 L 852.72,619.354 L 702.764,619.354 L 699.473,619.182 L 692.924,618.494 L 686.487,617.127 L 680.226,615.093 L 677.146,613.911 L 674.209,612.415 L 668.508,609.124 L 663.183,605.255 L 658.29,600.85 L 655.956,598.518 L 653.88,595.952 L 650.011,590.625 L 646.722,584.93 L 644.044,578.917 L 642.862,575.838 L 642.009,572.65 L 640.641,566.212 L 639.955,559.667 L 639.955,553.082 L 640.641,546.539 L 642.009,540.1 L 642.862,536.917 L 644.044,533.837 L 646.722,527.822 L 648.217,524.885 L 650.015,522.117 L 653.884,516.792 L 658.29,511.901 L 663.183,507.496 L 668.508,503.626 L 674.209,500.335 L 677.146,498.839 L 680.226,497.657 L 686.487,495.624 L 692.916,494.256 L 699.465,493.566 L 702.764,493.392 L 789.739,493.392 L 789.739,454.405 z " style="fill-opacity:1.000000;fill:rgb(242,251,227);stroke:rgb(0,0,0);stroke-width:2"/></g>
<g fill-rule="evenodd"><path d="M 1200.62,483.162 L 1191.5,539.34 L 1191.19,541.664 L 1190.47,548.245 L 1190.22,552.682 L 1190.19,559.265 L 1190.41,563.686 L 1191.07,570.269 L 1191.79,574.938 L 1193.17,581.523 L 1194.54,586.694 L 1196.65,593.277 L 1198.93,599.26 L 1200.62,603.093 L 1200.62,661.343 L 1200.44,664.642 L 1199.75,671.191 L 1198.38,677.62 L 1196.35,683.881 L 1195.17,686.961 L 1193.67,689.898 L 1190.38,695.599 L 1186.51,700.924 L 1182.11,705.817 L 1177.22,710.222 L 1171.89,714.092 L 1169.12,715.889 L 1166.19,717.385 L 1160.17,720.063 L 1157.09,721.245 L 1153.91,722.098 L 1147.47,723.466 L 1140.93,724.152 L 1134.34,724.152 L 1127.8,723.466 L 1121.36,722.098 L 1118.17,721.245 L 1115.09,720.063 L 1109.08,717.385 L 1103.38,714.096 L 1098.06,710.226 L 1095.49,708.151 L 1093.16,705.817 L 1088.75,700.924 L 1084.88,695.599 L 1081.59,689.898 L 1080.1,686.961 L 1078.91,683.881 L 1076.88,677.62 L 1075.51,671.183 L 1074.83,664.634 L 1074.65,661.343 L 1074.65,619.354 L 1047.66,619.354 L 1045.24,619.262 L 1040.39,618.888 L 1035.57,618.138 L 1030.84,617.021 L 1026.22,615.543 L 1021.71,613.711 L 1019.49,612.707 L 989.504,597.712 L 987.284,596.488 L 982.955,593.869 L 978.856,590.913 L 975.003,587.636 L 973.139,585.918 L 958.142,570.923 L 956.426,569.065 L 953.144,565.21 L 950.179,561.094 L 947.559,556.763 L 946.34,554.55 L 931.344,524.559 L 930.34,522.341 L 928.509,517.838 L 927.031,513.213 L 925.913,508.482 L 925.163,503.662 L 924.789,498.813 L 924.697,496.392 L 924.697,406.419 L 924.789,403.998 L 925.163,399.153 L 925.913,394.335 L 927.031,389.604 L 928.507,384.983 L 930.338,380.478 L 931.344,378.256 L 946.34,348.265 L 947.563,346.046 L 950.183,341.717 L 953.138,337.615 L 956.418,333.76 L 958.138,331.896 L 973.135,316.899 L 974.993,315.185 L 978.846,311.906 L 982.959,308.94 L 987.29,306.321 L 989.504,305.101 L 1019.49,290.106 L 1021.71,289.102 L 1026.22,287.27 L 1030.84,285.792 L 1035.57,284.674 L 1040.38,283.927 L 1045.23,283.551 L 1047.66,283.455 L 1107.64,283.455 L 1110.08,283.551 L 1114.92,283.927 L 1119.73,284.674 L 1122.75,285.386 L 1127.8,284.317 L 1134.34,283.629 L 1140.93,283.629 L 1147.47,284.317 L 1153.91,285.684 L 1157.09,286.538 L 1160.17,287.72 L 1166.19,290.397 L 1169.12,291.893 L 1171.89,293.691 L 1177.22,297.56 L 1182.11,301.965 L 1186.51,306.859 L 1190.38,312.184 L 1193.67,317.885 L 1195.17,320.824 L 1196.35,323.902 L 1198.38,330.163 L 1199.75,336.589 L 1200.44,343.136 L 1200.62,346.436 L 1200.62,483.162M 1062.53,493.392 L 1074.65,493.392 L 1074.65,409.417 L 1062.53,409.417 L 1054.98,413.194 L 1054.43,413.738 L 1050.66,421.285 L 1050.66,481.53 L 1054.43,489.073 L 1054.97,489.613 L 1062.53,493.392 z " style="fill-opacity:1.000000;fill:rgb(70,124,194);stroke:rgb(0,0,0);stroke-width:2"/></g>
<g fill-rule="evenodd"><path d="M 2444.99,350.069 L 2444.62,351.529 L 2442.72,357.732 L 2440.44,363.955 L 2439.31,366.812 L 2433.8,379.708 L 2432.99,381.736 L 2431.25,386.281 L 2429.87,390.378 L 2428.48,395.047 L 2427.39,399.359 L 2426.37,404.154 L 2425.93,406.419 L 2424.25,416.122 L 2366.59,577.558 L 2365.36,580.531 L 2362.59,586.338 L 2359.24,591.831 L 2355.34,596.952 L 2350.95,601.651 L 2346.09,605.873 L 2340.84,609.574 L 2335.23,612.723 L 2329.33,615.285 L 2323.19,617.229 L 2316.89,618.534 L 2310.49,619.19 L 2304.07,619.19 L 2297.67,618.534 L 2291.37,617.227 L 2285.23,615.283 L 2279.33,612.723 L 2273.72,609.574 L 2268.47,605.871 L 2263.62,601.647 L 2259.22,596.944 L 2255.33,591.823 L 2251.98,586.34 L 2249.21,580.535 L 2247.97,577.558 L 2175.33,374.145 L 2174.12,367.216 L 2173.66,364.069 L 2172.87,357.486 L 2172.47,351.459 L 2172.37,344.874 L 2172.6,338.885 L 2173.2,332.304 L 2174.1,326.067 L 2175.32,319.866 L 2175.47,319.512 L 2178.59,313.727 L 2182.3,308.29 L 2184.3,305.667 L 2186.57,303.263 L 2191.33,298.72 L 2196.54,294.703 L 2202.14,291.247 L 2205.04,289.666 L 2208.08,288.394 L 2214.29,286.18 L 2220.67,284.628 L 2227.2,283.751 L 2230.49,283.483 L 2233.79,283.561 L 2240.35,284.061 L 2246.82,285.24 L 2253.14,287.092 L 2256.25,288.186 L 2259.23,289.598 L 2265.02,292.723 L 2267.84,294.439 L 2270.46,296.44 L 2275.48,300.704 L 2280.02,305.457 L 2284.04,310.668 L 2285.92,313.383 L 2287.5,316.281 L 2290.35,322.216 L 2291.62,325.255 L 2307.28,369.118 L 2322.95,325.255 L 2324.22,322.214 L 2327.07,316.281 L 2330.52,310.68 L 2334.54,305.467 L 2336.69,302.965 L 2339.09,300.7 L 2344.11,296.438 L 2349.53,292.729 L 2355.32,289.602 L 2358.31,288.188 L 2361.43,287.092 L 2367.75,285.24 L 2374.21,284.061 L 2380.77,283.561 L 2384.07,283.483 L 2387.36,283.749 L 2393.88,284.625 L 2397.13,285.234 L 2400.29,286.182 L 2406.49,288.398 L 2412.41,291.243 L 2418.02,294.697 L 2420.73,296.572 L 2423.23,298.722 L 2428,303.267 L 2432.26,308.278 L 2435.97,313.713 L 2437.69,316.531 L 2439.1,319.51 L 2441.6,325.599 L 2442.7,328.711 L 2443.46,331.92 L 2444.64,338.395 L 2445.14,344.958 L 2444.99,350.069 z " style="fill-opacity:1.000000;fill:rgb(84,248,27);stroke:rgb(0,0,0);stroke-width:2"/></g>
<g fill-rule="evenodd"><path d="M 2175.32,319.858 L 2174.1,326.067 L 2173.2,332.304 L 2172.6,338.885 L 2172.37,344.874 L 2172.47,351.459 L 2172.87,357.486 L 2173.66,364.069 L 2174.12,367.216 L 2175.32,374.141 L 2175.32,556.373 L 2175.17,559.465 L 2174.57,565.61 L 2173.36,571.661 L 2171.57,577.568 L 2169.2,583.275 L 2166.29,588.72 L 2162.87,593.847 L 2158.95,598.618 L 2154.58,602.985 L 2149.81,606.9 L 2144.69,610.328 L 2139.24,613.239 L 2133.53,615.605 L 2127.63,617.397 L 2121.57,618.6 L 2115.42,619.204 L 2112.34,619.354 L 1962.39,619.354 L 1959.1,619.182 L 1952.55,618.494 L 1946.11,617.127 L 1939.85,615.093 L 1936.77,613.911 L 1933.83,612.415 L 1928.13,609.124 L 1922.81,605.255 L 1917.91,600.85 L 1915.58,598.518 L 1913.5,595.952 L 1909.63,590.625 L 1906.34,584.93 L 1903.67,578.917 L 1902.49,575.838 L 1901.63,572.65 L 1900.26,566.212 L 1899.58,559.667 L 1899.58,553.082 L 1900.26,546.539 L 1901.63,540.1 L 1902.49,536.917 L 1903.67,533.837 L 1906.34,527.822 L 1907.84,524.885 L 1909.64,522.117 L 1913.51,516.792 L 1917.91,511.901 L 1922.81,507.496 L 1928.13,503.626 L 1933.83,500.335 L 1936.77,498.839 L 1939.85,497.657 L 1946.11,495.624 L 1952.54,494.256 L 1959.09,493.566 L 1962.39,493.392 L 2049.36,493.392 L 2049.36,454.405 L 2007.38,454.405 L 2004.08,454.233 L 1997.53,453.545 L 1991.1,452.177 L 1984.84,450.144 L 1981.76,448.962 L 1978.82,447.466 L 1973.12,444.175 L 1967.79,440.305 L 1962.9,435.9 L 1960.57,433.569 L 1958.49,431.003 L 1954.62,425.676 L 1951.33,419.981 L 1948.66,413.968 L 1947.47,410.889 L 1946.62,407.701 L 1945.25,401.262 L 1944.57,394.717 L 1944.57,388.132 L 1945.25,381.59 L 1946.62,375.151 L 1947.47,371.967 L 1948.66,368.888 L 1951.33,362.873 L 1952.83,359.935 L 1954.63,357.168 L 1958.5,351.843 L 1962.9,346.952 L 1967.79,342.546 L 1973.12,338.677 L 1978.82,335.386 L 1981.76,333.89 L 1984.84,332.708 L 1991.1,330.674 L 1997.53,329.307 L 2004.08,328.617 L 2007.38,328.443 L 2049.36,328.443 L 2049.36,304.449 L 1962.39,304.449 L 1959.1,304.277 L 1952.55,303.589 L 1946.11,302.221 L 1939.85,300.188 L 1936.77,299.006 L 1933.83,297.51 L 1928.13,294.219 L 1922.81,290.35 L 1917.91,285.944 L 1915.58,283.613 L 1913.5,281.047 L 1909.63,275.72 L 1906.34,270.025 L 1903.67,264.012 L 1902.49,260.933 L 1901.63,257.745 L 1900.26,251.306 L 1899.58,244.761 L 1899.58,238.177 L 1900.26,231.634 L 1901.63,225.195 L 1902.49,222.011 L 1903.67,218.932 L 1906.34,212.917 L 1907.84,209.979 L 1909.64,207.212 L 1913.51,201.887 L 1917.91,196.996 L 1922.81,192.591 L 1928.13,188.721 L 1933.83,185.43 L 1936.77,183.934 L 1939.85,182.752 L 1946.11,180.719 L 1952.54,179.351 L 1959.09,178.661 L 1962.39,178.487 L 2112.34,178.487 L 2115.43,178.641 L 2121.58,179.247 L 2127.63,180.449 L 2133.53,182.24 L 2139.24,184.606 L 2144.69,187.517 L 2149.81,190.945 L 2154.58,194.86 L 2158.95,199.227 L 2162.87,203.999 L 2166.29,209.126 L 2169.2,214.571 L 2171.57,220.278 L 2173.36,226.185 L 2174.56,232.236 L 2175.17,238.379 L 2175.32,241.468 L 2175.32,319.858 z " style="fill-opacity:1.000000;fill:rgb(232,231,141);stroke:rgb(0,0,0);stroke-width:2"/></g>
<g fill-rule="evenodd"><path d="M 4933.22,3862.13 L 4931.4,3863.14 L 4901.41,3878.13 L 4899.18,3879.14 L 4894.68,3880.97 L 4890.06,3882.44 L 4885.33,3883.56 L 4880.51,3884.31 L 4875.66,3884.69 L 4873.24,3884.78 L 4813.26,3884.78 L 4810.84,3884.69 L 4805.99,3884.31 L 4801.17,3883.56 L 4796.44,3882.44 L 4791.81,3880.97 L 4787.31,3879.14 L 4785.09,3878.13 L 4755.1,3863.14 L 4752.89,3861.92 L 4748.56,3859.3 L 4744.45,3856.33 L 4740.59,3853.05 L 4738.73,3851.34 L 4723.74,3836.34 L 4722.02,3834.49 L 4718.75,3830.63 L 4715.78,3826.52 L 4713.16,3822.2 L 4711.94,3819.98 L 4696.94,3789.99 L 4695.94,3787.77 L 4694.11,3783.26 L 4692.63,3778.64 L 4691.51,3773.9 L 4690.76,3769.09 L 4690.39,3764.24 L 4690.3,3761.82 L 4690.3,3701.83 L 4690.39,3699.41 L 4690.76,3694.57 L 4691.51,3689.75 L 4692.63,3685.02 L 4694.11,3680.4 L 4695.94,3675.89 L 4696.94,3673.67 L 4711.94,3643.68 L 4713.16,3641.46 L 4715.78,3637.14 L 4718.74,3633.02 L 4722.02,3629.17 L 4723.73,3627.32 L 4738.73,3612.32 L 4740.59,3610.6 L 4744.44,3607.32 L 4748.55,3604.36 L 4752.89,3601.74 L 4755.1,3600.52 L 4785.09,3585.52 L 4787.31,3584.52 L 4791.81,3582.68 L 4796.44,3581.21 L 4801.17,3580.09 L 4805.98,3579.34 L 4810.83,3578.97 L 4813.26,3578.87 L 4873.24,3578.87 L 4875.68,3578.97 L 4880.52,3579.34 L 4885.33,3580.09 L 4890.06,3581.21 L 4894.68,3582.68 L 4899.19,3584.52 L 4901.41,3585.52 L 4931.4,3600.52 L 4933.22,3601.52 L 4935.05,3600.52 L 4965.04,3585.52 L 4967.26,3584.52 L 4971.76,3582.68 L 4976.38,3581.21 L 4981.12,3580.09 L 4985.92,3579.34 L 4990.77,3578.97 L 4993.21,3578.87 L 5008.2,3578.87 L 5010.64,3578.97 L 5015.48,3579.34 L 5020.29,3580.09 L 5025.02,3581.21 L 5029.65,3582.68 L 5034.15,3584.52 L 5036.37,3585.52 L 5066.36,3600.52 L 5068.57,3601.74 L 5072.9,3604.36 L 5077.02,3607.32 L 5080.87,3610.6 L 5082.73,3612.32 L 5097.73,3627.32 L 5099.44,3629.18 L 5102.72,3633.03 L 5105.68,3637.13 L 5108.3,3641.46 L 5109.52,3643.68 L 5124.51,3673.67 L 5125.52,3675.89 L 5127.35,3680.39 L 5128.83,3685.02 L 5129.95,3689.75 L 5130.69,3694.55 L 5131.07,3699.4 L 5131.17,3701.83 L 5131.17,3761.82 L 5131.07,3764.25 L 5130.69,3769.1 L 5129.95,3773.91 L 5128.83,3778.64 L 5127.35,3783.26 L 5125.52,3787.77 L 5124.51,3789.98 L 5109.52,3819.97 L 5108.3,3822.19 L 5105.68,3826.52 L 5102.71,3830.63 L 5099.44,3834.49 L 5097.72,3836.34 L 5082.73,3851.34 L 5080.86,3853.06 L 5077.01,3856.34 L 5072.91,3859.29 L 5068.58,3861.91 L 5066.36,3863.14 L 5036.37,3878.13 L 5034.14,3879.14 L 5029.64,3880.97 L 5025.02,3882.44 L 5020.29,3883.56 L 5015.47,3884.31 L 5010.62,3884.69 L 5008.2,3884.78 L 4993.21,3884.78 L 4990.78,3884.69 L 4985.94,3884.31 L 4981.12,3883.56 L 4976.38,3882.44 L 4971.76,3880.97 L 4967.26,3879.14 L 4965.04,3878.13 L 4935.05,3863.14 L 4933.22,3862.13M 4816.26,3746.95 L 4820.03,3754.5 L 4820.58,3755.04 L 4828.12,3758.82 L 4858.38,3758.82 L 4865.92,3755.04 L 4866.47,3754.5 L 4870.24,3746.95 L 4870.24,3716.71 L 4866.47,3709.15 L 4865.92,3708.61 L 4858.37,3704.83 L 4828.13,3704.83 L 4820.58,3708.61 L 4820.04,3709.15 L 4816.26,3716.7 L 4816.26,3746.95M 5005.2,3746.95 L 5005.2,3716.71 L 5001.43,3709.15 L 5000.92,3708.64 L 5000.69,3708.53 L 5000.52,3708.61 L 4999.98,3709.15 L 4996.21,3716.7 L 4996.21,3746.95 L 4999.98,3754.5 L 5000.52,3755.04 L 5000.68,3755.12 L 5000.92,3755.01 L 5001.43,3754.5 L 5005.2,3746.95 z " style="fill-opacity:1.000000;fill:rgb(118,90,46);stroke:rgb(0,0,0);stroke-width:2"/></g>
<g fill-rule="evenodd"><path d="M 5000.1,3171 L 5008.65,3162.45 L 5010.94,3160.37 L 5015.72,3156.46 L 5020.84,3153.03 L 5026.29,3150.12 L 5032,3147.75 L 5037.9,3145.96 L 5043.96,3144.76 L 5050.11,3144.16 L 5056.27,3144.16 L 5062.41,3144.76 L 5068.47,3145.96 L 5074.38,3147.75 L 5080.08,3150.12 L 5085.52,3153.03 L 5090.67,3156.46 L 5095.44,3160.38 L 5097.72,3162.45 L 5112.72,3177.45 L 5114.79,3179.74 L 5118.71,3184.51 L 5122.14,3189.64 L 5125.05,3195.08 L 5127.1,3199.81 L 5128.42,3203.7 L 5129.27,3206.68 L 5129.74,3208.69 L 5130.41,3212.75 L 5131.01,3218.89 L 5131.01,3225.07 L 5130.41,3231.21 L 5129.32,3236.87 L 5127.83,3242.01 L 5125.64,3247.56 L 5122.65,3253.43 L 5119.07,3258.95 L 5114.92,3264.06 L 5112.72,3266.51 L 5097.72,3281.51 L 5095.43,3283.58 L 5090.66,3287.5 L 5085.53,3290.93 L 5080.08,3293.84 L 5074.38,3296.2 L 5068.47,3298 L 5062.41,3299.2 L 5056.27,3299.8 L 5050.11,3299.8 L 5043.96,3299.2 L 5037.9,3298 L 5032,3296.2 L 5026.29,3293.84 L 5020.84,3290.93 L 5015.72,3287.5 L 5010.94,3283.58 L 5008.61,3281.47 L 5000.03,3272.86 L 5000.42,3268.23 L 5000.68,3258.67 L 5000.7,3257.09 L 5000.7,3253.28 L 5000.7,3245.15 L 5000.7,3242.27 L 5000.7,3235.07 L 5000.7,3233.31 L 5000.7,3226.58 L 5000.7,3225.6 L 5000.7,3225.27 L 5000.62,3222.3 L 5000.63,3221.38 L 5000.76,3218.69 L 5000.76,3217.36 L 5000.72,3216.73 L 5000.7,3215.99 L 5000.7,3210.65 L 5000.7,3210.65 L 5000.7,3209.47 L 5000.69,3208.9 L 5000.62,3206.8 L 5000.63,3205.4 L 5000.76,3201.66 L 5000.71,3198.8 L 5000.69,3198.43 L 5000.63,3195.15 L 5000.76,3190.63 L 5000.74,3187.25 L 5000.66,3185.31 L 5000.63,3184.42 L 5000.4,3175.76 L 5000.1,3171 z " style="fill-opacity:1.000000;fill:rgb(99,51,159);stroke:rgb(0,0,0);stroke-width:2"/></g>
<g fill-rule="evenodd"><path d="M 4692.23,3492.01 L 4691.51,3488.99 L 4690.76,3484.17 L 4690.39,3479.32 L 4690.3,3476.9 L 4690.3,3416.92 L 4690.39,3414.5 L 4690.76,3409.65 L 4691.51,3404.83 L 4692.63,3400.1 L 4694.11,3395.48 L 4695.94,3390.97 L 4696.94,3388.75 L 4711.94,3358.76 L 4713.17,3356.54 L 4715.79,3352.21 L 4718.74,3348.11 L 4722.02,3344.26 L 4723.74,3342.39 L 4738.73,3327.4 L 4740.59,3325.69 L 4744.45,3322.41 L 4748.56,3319.44 L 4752.89,3316.82 L 4755.1,3315.6 L 4785.09,3300.61 L 4787.31,3299.6 L 4791.81,3297.77 L 4796.44,3296.29 L 4801.17,3295.17 L 4805.98,3294.43 L 4810.83,3294.05 L 4813.26,3293.96 L 4903.23,3293.96 L 4905.67,3294.05 L 4910.51,3294.43 L 4915.32,3295.17 L 4920.05,3296.29 L 4924.68,3297.77 L 4929.18,3299.6 L 4931.4,3300.61 L 4961.39,3315.6 L 4963.61,3316.83 L 4967.94,3319.44 L 4972.04,3322.4 L 4975.89,3325.68 L 4977.76,3327.4 L 4992.75,3342.39 L 4994.47,3344.26 L 4997.75,3348.11 L 5000.71,3352.22 L 5003.33,3356.54 L 5004.55,3358.76 L 5019.55,3388.75 L 5020.55,3390.97 L 5022.38,3395.48 L 5023.86,3400.1 L 5024.98,3404.83 L 5025.72,3409.64 L 5026.1,3414.48 L 5026.2,3416.92 L 5026.2,3443.91 L 5068.18,3443.91 L 5071.48,3444.09 L 5078.03,3444.77 L 5084.46,3446.14 L 5090.72,3448.18 L 5093.8,3449.36 L 5096.74,3450.85 L 5102.44,3454.15 L 5107.76,3458.01 L 5112.66,3462.42 L 5117.06,3467.31 L 5120.93,3472.64 L 5122.73,3475.4 L 5124.22,3478.34 L 5126.9,3484.36 L 5128.08,3487.44 L 5128.94,3490.62 L 5130.3,3497.06 L 5130.99,3503.6 L 5130.99,3510.19 L 5130.3,3516.73 L 5128.94,3523.17 L 5128.08,3526.36 L 5126.9,3529.44 L 5124.22,3535.45 L 5120.93,3541.14 L 5117.06,3546.47 L 5114.99,3549.04 L 5112.66,3551.37 L 5107.76,3555.77 L 5102.44,3559.64 L 5096.74,3562.93 L 5093.8,3564.43 L 5090.72,3565.61 L 5084.46,3567.65 L 5078.02,3569.01 L 5071.47,3569.7 L 5068.18,3569.87 L 4753.28,3569.87 L 4749.99,3569.7 L 4743.44,3569.01 L 4737,3567.65 L 4730.74,3565.61 L 4727.66,3564.43 L 4724.72,3562.93 L 4719.02,3559.64 L 4713.7,3555.77 L 4708.8,3551.37 L 4706.47,3549.04 L 4704.39,3546.47 L 4700.52,3541.14 L 4697.24,3535.45 L 4694.56,3529.44 L 4693.38,3526.36 L 4692.52,3523.17 L 4691.15,3516.73 L 4690.47,3510.19 L 4690.47,3503.6 L 4691.15,3497.06 L 4692.23,3492.01M 4900.23,3443.91 L 4900.23,3431.79 L 4896.46,3424.24 L 4895.91,3423.69 L 4888.36,3419.92 L 4828.13,3419.92 L 4820.58,3423.69 L 4820.03,3424.24 L 4816.26,3431.78 L 4816.26,3443.91 L 4900.23,3443.91 z " style="fill-opacity:1.000000;fill:rgb(201,154,102);stroke:rgb(0,0,0);stroke-width:2"/></g>
<g fill-rule="evenodd"><path d="M 4997.86,3169.47 L 4997.32,3169.49 L 4997.28,3169.5 L 4990.19,3169.51 L 4989.72,3169.48 L 4983.73,3169.47 L 4982.99,3169.51 L 4977.74,3169.52 L 4976.81,3169.47 L 4972.05,3169.47 L 4971.01,3169.52 L 4966.51,3169.52 L 4965.43,3169.47 L 4963.22,3169.41 L 4959.92,3169.41 L 4955.49,3169.17 L 4948.91,3168.48 L 4944.23,3167.74 L 4937.65,3166.34 L 4932.46,3164.95 L 4925.88,3162.81 L 4919.84,3160.49 L 4916.5,3159 L 4914.33,3156.59 L 4910.46,3151.26 L 4907.17,3145.56 L 4905.68,3142.63 L 4904.5,3139.55 L 4903.02,3135 L 4798.27,3135 L 4795.84,3134.91 L 4790.99,3134.54 L 4786.18,3133.79 L 4781.44,3132.67 L 4776.82,3131.19 L 4772.32,3129.36 L 4770.1,3128.36 L 4740.11,3113.36 L 4737.89,3112.14 L 4733.56,3109.52 L 4729.46,3106.56 L 4725.6,3103.28 L 4722.02,3099.7 L 4718.75,3095.85 L 4715.78,3091.74 L 4713.16,3087.42 L 4711.94,3085.2 L 4696.94,3055.21 L 4695.94,3052.99 L 4694.11,3048.48 L 4692.63,3043.86 L 4691.51,3039.12 L 4690.76,3034.31 L 4690.39,3029.46 L 4690.3,3027.04 L 4690.3,2997.04 L 4690.47,2993.76 L 4691.16,2987.21 L 4692.52,2980.77 L 4694.56,2974.51 L 4695.74,2971.43 L 4697.24,2968.49 L 4700.53,2962.79 L 4704.4,2957.47 L 4708.8,2952.57 L 4711.13,2950.24 L 4713.7,2948.17 L 4719.03,2944.3 L 4724.72,2941.01 L 4730.73,2938.33 L 4733.81,2937.15 L 4737,2936.29 L 4743.44,2934.93 L 4749.98,2934.24 L 4756.57,2934.24 L 4763.11,2934.93 L 4769.55,2936.29 L 4772.73,2937.15 L 4775.81,2938.33 L 4781.83,2941.01 L 4784.77,2942.5 L 4787.53,2944.3 L 4792.86,2948.17 L 4797.75,2952.57 L 4802.16,2957.47 L 4806.02,2962.79 L 4809.32,2968.49 L 4810.81,2971.43 L 4811.99,2974.51 L 4814.03,2980.77 L 4815.39,2987.2 L 4816.08,2993.75 L 4816.26,2997.04 L 4816.26,3009.04 L 4900.23,3009.04 L 4900.23,2997.04 L 4900.41,2993.76 L 4901.09,2987.21 L 4902.46,2980.77 L 4904.5,2974.51 L 4905.68,2971.43 L 4907.17,2968.49 L 4910.46,2962.79 L 4914.33,2957.47 L 4918.74,2952.57 L 4921.07,2950.24 L 4923.64,2948.17 L 4928.96,2944.3 L 4934.66,2941.01 L 4940.67,2938.33 L 4943.75,2937.15 L 4946.94,2936.29 L 4953.38,2934.93 L 4959.92,2934.24 L 4966.51,2934.24 L 4973.05,2934.93 L 4979.49,2936.29 L 4982.67,2937.15 L 4985.75,2938.33 L 4991.77,2941.01 L 4994.71,2942.5 L 4997.47,2944.3 L 5002.8,2948.17 L 5007.69,2952.57 L 5012.09,2957.47 L 5015.96,2962.79 L 5019.25,2968.49 L 5020.75,2971.43 L 5021.93,2974.51 L 5023.96,2980.77 L 5025.33,2987.2 L 5026.02,2993.75 L 5026.2,2997.04 L 5026.2,3009.04 L 5068.18,3009.04 L 5071.48,3009.21 L 5078.03,3009.9 L 5084.46,3011.27 L 5090.72,3013.31 L 5093.8,3014.49 L 5096.74,3015.98 L 5102.44,3019.27 L 5107.76,3023.14 L 5112.66,3027.55 L 5117.06,3032.44 L 5120.93,3037.77 L 5122.73,3040.53 L 5124.22,3043.47 L 5126.9,3049.49 L 5128.08,3052.57 L 5128.94,3055.75 L 5130.3,3062.19 L 5130.99,3068.73 L 5130.99,3075.32 L 5130.3,3081.86 L 5128.94,3088.3 L 5128.08,3091.49 L 5126.9,3094.57 L 5124.22,3100.58 L 5120.93,3106.27 L 5117.06,3111.6 L 5114.99,3114.17 L 5112.66,3116.5 L 5107.76,3120.9 L 5102.44,3124.77 L 5096.74,3128.06 L 5093.8,3129.56 L 5090.72,3130.74 L 5084.46,3132.78 L 5078.02,3134.14 L 5071.47,3134.83 L 5068.18,3135 L 5023.41,3135 L 5021.93,3139.55 L 5020.75,3142.63 L 5019.25,3145.56 L 5015.96,3151.26 L 5012.09,3156.59 L 5007.69,3161.48 L 5002.8,3165.89 L 4997.86,3169.47 z " style="fill-opacity:1.000000;fill:rgb(50,13,183);stroke:rgb(0,0,0);stroke-width:2"/></g>
<g fill-rule="evenodd"><path d="M 2681.15,571.489 L 2681.41,570.613 L 2682.14,567.961 L 2682.73,565.638 L 2683.59,562.554 L 2684.49,559.667 L 2684.91,558.215 L 2686.32,553.152 L 2686.34,553.082 L 2686.86,551.222 L 2687.81,548.191 L 2690,541.928 L 2691.79,537.557 L 2694.6,531.602 L 2696.81,527.498 L 2700.24,521.853 L 2700.92,520.765 L 2701.9,519.246 L 2702.93,517.728 L 2704.74,515.148 L 2706.72,512.099 L 2706.89,511.813 L 2709.77,507.498 L 2709.97,507.222 L 2712.5,503.506 L 2714.03,501.081 L 2714.98,499.633 L 2716.54,498.839 L 2719.62,497.657 L 2725.88,495.624 L 2732.31,494.256 L 2738.86,493.566 L 2742.16,493.392 L 2829.13,493.392 L 2829.13,241.468 L 2829.3,238.179 L 2829.99,231.632 L 2831.36,225.195 L 2833.39,218.934 L 2834.57,215.856 L 2836.07,212.917 L 2839.36,207.216 L 2843.23,201.891 L 2847.63,196.998 L 2849.96,194.666 L 2852.53,192.589 L 2857.86,188.719 L 2863.55,185.43 L 2869.57,182.752 L 2872.64,181.57 L 2875.83,180.717 L 2882.27,179.349 L 2888.82,178.661 L 2895.4,178.661 L 2901.94,179.349 L 2908.38,180.717 L 2911.57,181.57 L 2914.65,182.752 L 2920.66,185.43 L 2923.6,186.925 L 2926.37,188.723 L 2931.69,192.593 L 2936.58,196.998 L 2940.99,201.891 L 2944.86,207.216 L 2948.15,212.917 L 2949.65,215.856 L 2950.82,218.934 L 2952.86,225.195 L 2954.23,231.622 L 2954.92,238.169 L 2955.09,241.468 L 2955.09,556.373 L 2954.94,559.465 L 2954.33,565.61 L 2953.13,571.661 L 2951.34,577.568 L 2948.97,583.275 L 2946.06,588.72 L 2942.63,593.847 L 2938.72,598.618 L 2934.35,602.985 L 2929.58,606.9 L 2924.45,610.328 L 2919.01,613.239 L 2913.3,615.605 L 2907.39,617.397 L 2901.33,618.6 L 2895.19,619.204 L 2892.11,619.354 L 2742.16,619.354 L 2738.86,619.182 L 2732.31,618.494 L 2725.88,617.127 L 2719.62,615.093 L 2716.54,613.911 L 2713.6,612.415 L 2707.9,609.124 L 2702.57,605.255 L 2697.68,600.85 L 2695.35,598.518 L 2693.27,595.952 L 2689.4,590.625 L 2686.11,584.93 L 2683.44,578.917 L 2682.25,575.838 L 2681.4,572.65 L 2681.15,571.489 z " style="fill-opacity:1.000000;fill:rgb(49,88,163);stroke:rgb(0,0,0);stroke-width:2"/></g>
<g fill-rule="evenodd"><path d="M 2108.8,2585.28 L 2186.74,2507.35 L 2191.51,2503.43 L 2196.95,2500.52 L 2202.86,2498.73 L 2209,2498.13 L 2215.15,2498.73 L 2221.05,2500.52 L 2226.5,2503.43 L 2231.27,2507.35 L 2342.61,2618.69 L 2346.52,2623.46 L 2349.43,2628.9 L 2351.23,2634.81 L 2351.83,2640.95 L 2351.23,2647.1 L 2349.43,2653 L 2346.52,2658.45 L 2342.61,2663.22 L 2264.67,2741.16 L 2259.9,2745.07 L 2254.45,2747.98 L 2248.55,2749.77 L 2242.4,2750.38 L 2236.26,2749.77 L 2230.35,2747.98 L 2224.91,2745.07 L 2220.14,2741.16 L 2108.8,2629.82 L 2104.89,2625.05 L 2101.97,2619.6 L 2100.18,2613.7 L 2099.58,2607.55 L 2100.18,2601.41 L 2101.97,2595.5 L 2104.88,2590.06 L 2108.8,2585.28 z " style="fill-opacity:1.000000;fill:rgb(90,37,93);stroke:rgb(0,0,0);stroke-width:2"/></g>
<g fill-rule="evenodd"><path d="M 536.797,4353.81 L 535.763,4363.64 L 534.395,4370.07 L 531.344,4379.46 L 528.666,4385.47 L 523.729,4394.03 L 519.86,4399.35 L 513.253,4406.69 L 508.362,4411.09 L 500.373,4416.9 L 497.604,4418.7 L 494.664,4420.2 L 485.642,4424.21 L 479.389,4426.24 L 469.73,4428.3 L 466.473,4428.81 L 463.182,4428.98 L 453.307,4428.98 L 450.014,4428.81 L 446.756,4428.3 L 437.098,4426.24 L 430.841,4424.21 L 421.821,4420.2 L 418.883,4418.7 L 416.12,4416.9 L 408.129,4411.1 L 405.566,4409.02 L 403.234,4406.69 L 396.627,4399.35 L 392.758,4394.03 L 387.821,4385.47 L 385.143,4379.46 L 382.092,4370.07 L 380.724,4363.64 L 379.69,4353.81 L 379.518,4350.52 L 379.69,4347.22 L 380.724,4337.4 L 382.092,4330.97 L 385.143,4321.58 L 387.821,4315.56 L 392.758,4307.01 L 396.627,4301.69 L 403.234,4294.35 L 408.125,4289.94 L 416.114,4284.14 L 418.881,4282.34 L 421.823,4280.84 L 430.845,4276.83 L 437.098,4274.79 L 446.756,4272.74 L 450.012,4272.23 L 453.307,4272.05 L 463.182,4272.05 L 466.473,4272.23 L 469.73,4272.74 L 479.389,4274.79 L 485.646,4276.83 L 494.666,4280.84 L 497.604,4282.34 L 500.367,4284.13 L 508.358,4289.94 L 510.921,4292.01 L 513.253,4294.35 L 519.86,4301.69 L 523.729,4307.01 L 528.666,4315.56 L 531.344,4321.58 L 534.395,4330.97 L 535.763,4337.4 L 536.797,4347.22 L 536.969,4350.52 L 536.797,4353.81 z " style="fill-opacity:1.000000;fill:rgb(5,23,88);stroke:rgb(0,0,0);stroke-width:2"/></g>
<g fill-rule="evenodd"><path d="M 815.138,4632.15 L 814.105,4641.97 L 812.737,4648.41 L 809.685,4657.8 L 807.008,4663.81 L 802.071,4672.37 L 798.201,4677.69 L 791.595,4685.03 L 786.703,4689.43 L 778.715,4695.24 L 775.945,4697.04 L 773.006,4698.53 L 763.983,4702.55 L 757.73,4704.58 L 748.072,4706.64 L 744.815,4707.15 L 741.523,4707.32 L 731.649,4707.32 L 728.356,4707.15 L 725.098,4706.64 L 715.44,4704.58 L 709.183,4702.55 L 700.162,4698.53 L 697.225,4697.04 L 694.461,4695.24 L 686.471,4689.44 L 683.907,4687.36 L 681.576,4685.03 L 674.969,4677.69 L 671.099,4672.37 L 666.162,4663.81 L 663.485,4657.8 L 660.433,4648.41 L 659.066,4641.97 L 658.032,4632.15 L 657.86,4628.86 L 658.032,4625.56 L 659.066,4615.74 L 660.433,4609.31 L 663.485,4599.92 L 666.162,4593.9 L 671.099,4585.35 L 674.969,4580.03 L 681.576,4572.69 L 686.467,4568.28 L 694.455,4562.48 L 697.223,4560.68 L 700.164,4559.18 L 709.187,4555.17 L 715.44,4553.13 L 725.098,4551.08 L 728.354,4550.56 L 731.649,4550.39 L 741.523,4550.39 L 744.815,4550.56 L 748.072,4551.08 L 757.73,4553.13 L 763.987,4555.17 L 773.008,4559.18 L 775.945,4560.68 L 778.709,4562.47 L 786.699,4568.28 L 789.263,4570.35 L 791.595,4572.69 L 798.201,4580.03 L 802.071,4585.35 L 807.008,4593.9 L 809.685,4599.92 L 812.737,4609.31 L 814.105,4615.74 L 815.138,4625.56 L 815.31,4628.86 L 815.138,4632.15 z " style="fill-opacity:1.000000;fill:rgb(233,94,212);stroke:rgb(0,0,0);stroke-width:2"/></g>
<g fill-rule="evenodd"><path d="M 354.007,2485.21 L 354.007,2225.41 L 354.611,2219.27 L 356.402,2213.36 L 359.314,2207.92 L 363.229,2203.15 L 368,2199.23 L 373.445,2196.32 L 379.352,2194.53 L 385.497,2193.92 L 645.292,2193.92 L 651.435,2194.53 L 657.342,2196.32 L 662.787,2199.23 L 667.558,2203.15 L 671.473,2207.92 L 674.385,2213.36 L 676.177,2219.27 L 676.782,2225.41 L 676.782,2485.21 L 676.177,2491.35 L 674.385,2497.26 L 671.473,2502.7 L 667.558,2507.48 L 662.787,2511.39 L 657.342,2514.3 L 651.435,2516.09 L 645.292,2516.7 L 385.497,2516.7 L 379.352,2516.09 L 373.445,2514.3 L 368,2511.39 L 363.229,2507.48 L 359.314,2502.7 L 356.402,2497.26 L 354.611,2491.35 L 354.007,2485.21 z " style="fill-opacity:1.000000;fill:rgb(171,178,205);stroke:rgb(0,0,0);stroke-width:2"/></g>
<g fill-rule="evenodd"><path d="M 354.007,1800.29 L 354.007,1540.49 L 354.611,1534.35 L 356.402,1528.44 L 359.314,1523 L 363.229,1518.23 L 368,1514.31 L 373.445,1511.4 L 379.352,1509.61 L 385.497,1509 L 645.292,1509 L 651.435,1509.61 L 657.342,1511.4 L 662.787,1514.31 L 667.558,1518.23 L 671.473,1523 L 674.385,1528.44 L 676.177,1534.35 L 676.782,1540.49 L 676.782,1800.29 L 676.177,1806.43 L 674.385,1812.34 L 671.473,1817.79 L 667.558,1822.56 L 662.787,1826.47 L 657.342,1829.38 L 651.435,1831.18 L 645.292,1831.78 L 385.497,1831.78 L 379.352,1831.18 L 373.445,1829.38 L 368,1826.47 L 363.229,1822.56 L 359.314,1817.79 L 356.402,1812.34 L 354.611,1806.43 L 354.007,1800.29 z " style="fill-opacity:1.000000;fill:rgb(198,155,180);stroke:rgb(0,0,0);stroke-width:2"/></g>
<g fill-rule="evenodd"><path d="M 3802.13,4451.05 L 3803.01,4458.1 L 3803.01,4717.89 L 3802.4,4724.04 L 3800.61,4729.94 L 3797.7,4735.39 L 3793.79,4740.16 L 3789.02,4744.07 L 3783.57,4746.99 L 3777.66,4748.78 L 3771.52,4749.38 L 3511.73,4749.38 L 3505.58,4748.78 L 3499.67,4746.99 L 3494.23,4744.07 L 3489.46,4740.16 L 3485.54,4735.39 L 3482.63,4729.94 L 3480.84,4724.04 L 3480.23,4717.89 L 3480.23,4458.1 L 3480.84,4451.95 L 3482.63,4446.05 L 3485.54,4440.6 L 3489.46,4435.83 L 3494.23,4431.92 L 3499.67,4429 L 3505.58,4427.21 L 3511.73,4426.61 L 3771.52,4426.61 L 3777.66,4427.21 L 3783.57,4429 L 3789.02,4431.92 L 3793.79,4435.83 L 3797.7,4440.6 L 3800.61,4446.05 L 3802.13,4451.05 z " style="fill-opacity:1.000000;fill:rgb(84,17,14);stroke:rgb(0,0,0);stroke-width:2"/></g>
<g fill-rule="evenodd"><path d="M 2795.32,4717.89 L 2795.32,4458.1 L 2795.92,4451.95 L 2797.71,4446.05 L 2800.62,4440.6 L 2804.54,4435.83 L 2809.31,4431.92 L 2814.75,4429 L 2820.66,4427.21 L 2826.81,4426.61 L 3086.6,4426.61 L 3092.74,4427.21 L 3098.65,4429 L 3104.1,4431.92 L 3108.87,4435.83 L 3112.78,4440.6 L 3115.69,4446.05 L 3117.49,4451.95 L 3118.09,4458.1 L 3118.09,4717.89 L 3117.49,4724.04 L 3115.69,4729.94 L 3112.78,4735.39 L 3108.87,4740.16 L 3104.1,4744.07 L 3098.65,4746.99 L 3092.74,4748.78 L 3086.6,4749.38 L 2826.81,4749.38 L 2820.66,4748.78 L 2814.75,4746.99 L 2809.31,4744.07 L 2804.54,4740.16 L 2800.62,4735.39 L 2797.71,4729.94 L 2795.92,4724.04 L 2795.32,4717.89 z " style="fill-opacity:1.000000;fill:rgb(130,116,65);stroke:rgb(0,0,0);stroke-width:2"/></g>
<g fill-rule="evenodd"><path d="M 1731.84,4372.28 L 1729.05,4377.96 L 1716.41,4398.24 L 1712.51,4403.28 L 1696.05,4420.6 L 1691.22,4424.75 L 1671.61,4438.4 L 1666.03,4441.49 L 1644.07,4450.91 L 1638,4452.82 L 1614.6,4457.63 L 1608.62,4458.27 L 1557.32,4458.88 L 1553.76,4458.72 L 1529.99,4456.3 L 1523.75,4455.02 L 1500.95,4447.87 L 1495.1,4445.36 L 1474.2,4433.76 L 1468.97,4430.12 L 1450.84,4414.55 L 1446.45,4409.94 L 1431.83,4391.04 L 1428.46,4385.64 L 1417.94,4364.19 L 1415.72,4358.21 L 1409.74,4335.08 L 1408.77,4328.78 L 1407.56,4304.92 L 1407.88,4298.55 L 1411.5,4274.93 L 1413.1,4268.77 L 1421.4,4246.36 L 1424.2,4240.64 L 1436.84,4220.37 L 1440.74,4215.33 L 1457.2,4198.01 L 1462.04,4193.86 L 1481.65,4180.21 L 1487.22,4177.12 L 1509.18,4167.69 L 1515.25,4165.79 L 1538.66,4160.97 L 1544.63,4160.33 L 1595.94,4159.73 L 1599.49,4159.88 L 1623.26,4162.3 L 1629.5,4163.59 L 1652.3,4170.74 L 1658.16,4173.25 L 1679.05,4184.85 L 1684.28,4188.49 L 1702.41,4204.05 L 1706.8,4208.67 L 1721.42,4227.56 L 1724.79,4232.97 L 1731.34,4246.32 L 2405.5,4246.32 L 2408.28,4240.64 L 2420.92,4220.37 L 2424.82,4215.33 L 2441.29,4198.01 L 2446.12,4193.86 L 2465.73,4180.21 L 2471.3,4177.12 L 2493.26,4167.69 L 2499.34,4165.79 L 2522.74,4160.97 L 2528.71,4160.33 L 2580.02,4159.73 L 2583.57,4159.88 L 2607.34,4162.3 L 2613.58,4163.58 L 2616.46,4164.48 L 2703.99,4076.95 L 2703.99,3979.8 L 2695.12,3975.85 L 2692.18,3974.36 L 2689.42,3972.56 L 2669.45,3958.05 L 2666.88,3955.97 L 2664.55,3953.64 L 2648.03,3935.3 L 2645.96,3932.74 L 2644.16,3929.97 L 2631.82,3908.59 L 2629.14,3902.58 L 2621.51,3879.1 L 2620.15,3872.66 L 2617.56,3848.11 L 2617.39,3844.82 L 2617.56,3841.52 L 2620.15,3816.97 L 2621.51,3810.53 L 2629.14,3787.06 L 2631.82,3781.04 L 2644.16,3759.66 L 2645.96,3756.9 L 2648.03,3754.34 L 2664.55,3735.99 L 2666.88,3733.66 L 2669.45,3731.58 L 2689.42,3717.07 L 2692.18,3715.28 L 2695.12,3713.78 L 2717.68,3703.74 L 2723.93,3701.71 L 2748.08,3696.57 L 2751.34,3696.06 L 2754.63,3695.88 L 2779.31,3695.88 L 2785.86,3696.57 L 2810.01,3701.71 L 2816.27,3703.74 L 2838.82,3713.78 L 2841.76,3715.28 L 2844.53,3717.07 L 2864.5,3731.58 L 2867.06,3733.66 L 2869.39,3735.99 L 2885.91,3754.34 L 2887.98,3756.9 L 2889.78,3759.66 L 2902.12,3781.04 L 2904.8,3787.06 L 2912.43,3810.53 L 2913.8,3816.97 L 2916.38,3841.52 L 2916.55,3844.82 L 2916.38,3848.11 L 2913.8,3872.66 L 2912.43,3879.1 L 2904.8,3902.58 L 2902.12,3908.59 L 2889.78,3929.97 L 2887.98,3932.74 L 2885.91,3935.3 L 2869.39,3953.64 L 2867.06,3955.98 L 2864.5,3958.05 L 2844.53,3972.56 L 2841.76,3974.36 L 2838.82,3975.85 L 2829.95,3979.8 L 2829.95,4103.04 L 2829.8,4106.13 L 2829.2,4112.27 L 2827.99,4118.33 L 2826.2,4124.23 L 2823.84,4129.94 L 2820.92,4135.38 L 2817.5,4140.51 L 2813.58,4145.28 L 2811.51,4147.57 L 2714.54,4244.53 L 2719.4,4254.42 L 2721.61,4260.4 L 2727.6,4283.53 L 2728.56,4289.83 L 2729.78,4313.69 L 2729.45,4320.05 L 2725.83,4343.67 L 2724.24,4349.84 L 2715.94,4372.25 L 2713.13,4377.96 L 2700.49,4398.24 L 2696.59,4403.28 L 2680.13,4420.6 L 2675.3,4424.75 L 2655.69,4438.4 L 2650.11,4441.49 L 2628.16,4450.91 L 2622.08,4452.82 L 2598.68,4457.63 L 2592.71,4458.27 L 2541.4,4458.88 L 2537.84,4458.72 L 2514.07,4456.3 L 2507.83,4455.02 L 2485.03,4447.87 L 2479.18,4445.36 L 2458.28,4433.76 L 2453.05,4430.12 L 2434.92,4414.55 L 2430.54,4409.94 L 2415.91,4391.04 L 2412.54,4385.64 L 2405.99,4372.28 L 1731.84,4372.28 z " style="fill-opacity:1.000000;fill:rgb(33,61,220);stroke:rgb(0,0,0);stroke-width:2"/></g>
<g fill-rule="evenodd"><path d="M 1483.83,1577.49 L 2171.8,1577.49 L 2174.89,1577.65 L 2181.03,1578.25 L 2187.08,1579.46 L 2192.99,1581.25 L 2198.7,1583.61 L 2204.14,1586.52 L 2209.27,1589.95 L 2214.04,1593.87 L 2216.33,1595.94 L 2321.83,1701.44 L 2323.9,1703.73 L 2326.52,1706.92 L 2575.64,1956.04 L 2614.61,1917.07 L 2619.38,1913.16 L 2624.83,1910.24 L 2630.73,1908.45 L 2636.88,1907.85 L 2643.02,1908.45 L 2648.93,1910.24 L 2654.37,1913.15 L 2659.14,1917.07 L 2753.78,2011.71 L 2757.7,2016.48 L 2760.61,2021.92 L 2762.4,2027.83 L 2763,2033.97 L 2762.4,2040.12 L 2760.61,2046.02 L 2757.69,2051.47 L 2753.78,2056.24 L 2586.78,2223.24 L 2582,2227.16 L 2576.56,2230.07 L 2570.65,2231.86 L 2564.51,2232.47 L 2558.37,2231.86 L 2552.46,2230.07 L 2547.01,2227.16 L 2542.24,2223.24 L 2447.61,2128.61 L 2443.69,2123.84 L 2440.78,2118.39 L 2438.99,2112.48 L 2438.38,2106.34 L 2438.99,2100.2 L 2440.78,2094.29 L 2443.69,2088.85 L 2447.61,2084.07 L 2486.57,2045.11 L 2232.76,1791.29 L 2230.68,1789 L 2228.07,1785.81 L 2145.71,1703.46 L 1457.75,1703.46 L 1454.67,1703.31 L 1448.52,1702.7 L 1442.46,1701.5 L 1436.56,1699.71 L 1430.85,1697.34 L 1425.4,1694.43 L 1420.28,1691 L 1415.51,1687.09 L 1413.21,1685.01 L 842.898,1114.69 L 842.898,1175.2 L 842.292,1181.35 L 840.5,1187.25 L 837.589,1192.7 L 833.673,1197.47 L 828.902,1201.39 L 823.457,1204.3 L 817.55,1206.09 L 811.407,1206.69 L 496.502,1206.69 L 490.357,1206.09 L 484.45,1204.3 L 479.005,1201.39 L 474.234,1197.47 L 470.318,1192.7 L 467.407,1187.25 L 465.615,1181.35 L 465.011,1175.2 L 465.011,860.296 L 465.615,854.153 L 467.407,848.246 L 470.318,842.801 L 474.234,838.03 L 479.005,834.115 L 484.45,831.203 L 490.357,829.412 L 496.502,828.806 L 811.407,828.806 L 817.55,829.412 L 823.457,831.203 L 828.902,834.115 L 833.673,838.03 L 837.589,842.801 L 840.5,848.246 L 842.292,854.153 L 842.898,860.296 L 842.898,955.392 L 844.257,955.528 L 850.308,956.73 L 856.215,958.521 L 861.922,960.887 L 867.367,963.798 L 872.494,967.226 L 877.266,971.141 L 879.557,973.217 L 1483.83,1577.49 z " style="fill-opacity:1.000000;fill:rgb(135,112,233);stroke:rgb(0,0,0);stroke-width:2"/></g>
<g fill-rule="evenodd"><path d="M 880.603,2689.9 L 1182.9,2689.9 L 1183.25,2689.11 L 1195.6,2667.73 L 1197.39,2664.96 L 1199.47,2662.4 L 1215.98,2644.05 L 1218.31,2641.72 L 1220.88,2639.65 L 1240.85,2625.14 L 1243.61,2623.34 L 1246.55,2621.84 L 1269.11,2611.8 L 1275.37,2609.77 L 1299.51,2604.64 L 1302.77,2604.12 L 1306.06,2603.95 L 1330.75,2603.95 L 1337.29,2604.64 L 1361.44,2609.77 L 1367.7,2611.8 L 1390.25,2621.84 L 1393.19,2623.34 L 1395.96,2625.14 L 1415.93,2639.65 L 1418.49,2641.72 L 1420.82,2644.05 L 1437.34,2662.4 L 1439.42,2664.96 L 1441.21,2667.73 L 1453.56,2689.11 L 1456.23,2695.12 L 1463.86,2718.6 L 1465.23,2725.04 L 1467.81,2749.59 L 1467.98,2752.88 L 1467.81,2756.17 L 1465.23,2780.72 L 1463.86,2787.16 L 1456.23,2810.64 L 1453.56,2816.65 L 1441.21,2838.03 L 1439.42,2840.8 L 1437.34,2843.36 L 1420.82,2861.71 L 1418.49,2864.04 L 1415.93,2866.11 L 1395.96,2880.63 L 1393.19,2882.42 L 1390.25,2883.92 L 1367.7,2893.96 L 1361.44,2895.99 L 1337.29,2901.12 L 1330.75,2901.81 L 1306.06,2901.81 L 1302.77,2901.64 L 1299.51,2901.12 L 1275.37,2895.99 L 1269.11,2893.96 L 1246.55,2883.92 L 1243.62,2882.42 L 1240.85,2880.63 L 1220.88,2866.11 L 1218.32,2864.04 L 1215.98,2861.71 L 1199.47,2843.36 L 1197.39,2840.8 L 1195.6,2838.03 L 1183.25,2816.65 L 1182.85,2815.86 L 910.574,2815.86 L 910.598,2817.85 L 910.44,2821.41 L 908.022,2845.18 L 906.738,2851.42 L 899.586,2874.22 L 897.074,2880.07 L 885.478,2900.97 L 881.837,2906.2 L 866.272,2924.33 L 861.654,2928.71 L 842.76,2943.34 L 837.353,2946.71 L 824.003,2953.26 L 824.003,3627.41 L 829.682,3630.2 L 849.958,3642.84 L 854.997,3646.74 L 872.316,3663.2 L 876.468,3668.03 L 890.117,3687.64 L 893.209,3693.22 L 902.631,3715.18 L 904.539,3721.25 L 909.35,3744.65 L 909.992,3750.63 L 910.598,3801.93 L 910.44,3805.49 L 908.022,3829.26 L 906.738,3835.5 L 899.586,3858.3 L 897.074,3864.15 L 885.478,3885.05 L 881.837,3890.28 L 866.272,3908.41 L 861.654,3912.8 L 842.76,3927.42 L 837.353,3930.79 L 815.902,3941.31 L 809.927,3943.53 L 786.795,3949.52 L 780.498,3950.48 L 756.637,3951.69 L 750.27,3951.37 L 726.652,3947.75 L 720.485,3946.15 L 698.079,3937.85 L 692.36,3935.05 L 672.083,3922.41 L 667.044,3918.51 L 649.725,3902.05 L 645.574,3897.21 L 631.924,3877.6 L 628.833,3872.03 L 619.41,3850.07 L 617.503,3844 L 612.692,3820.59 L 612.05,3814.62 L 611.444,3763.31 L 611.602,3759.76 L 614.019,3735.99 L 615.303,3729.75 L 622.456,3706.95 L 624.967,3701.09 L 636.563,3680.2 L 640.205,3674.97 L 655.77,3656.84 L 660.387,3652.45 L 679.282,3637.83 L 684.689,3634.46 L 698.041,3627.91 L 698.041,2953.75 L 692.36,2950.97 L 672.083,2938.33 L 667.044,2934.43 L 649.725,2917.96 L 645.574,2913.13 L 631.924,2893.52 L 628.833,2887.95 L 619.41,2865.99 L 617.503,2859.91 L 612.692,2836.51 L 612.05,2830.54 L 611.444,2779.23 L 611.602,2775.68 L 614.019,2751.91 L 615.303,2745.66 L 622.456,2722.87 L 624.967,2717.01 L 636.563,2696.12 L 640.205,2690.89 L 655.77,2672.76 L 660.387,2668.37 L 679.282,2653.74 L 684.689,2650.38 L 706.139,2639.85 L 712.114,2637.64 L 735.246,2631.65 L 741.543,2630.69 L 765.405,2629.47 L 771.772,2629.8 L 795.39,2633.42 L 801.557,2635.01 L 823.963,2643.31 L 829.682,2646.12 L 849.958,2658.76 L 854.997,2662.66 L 872.316,2679.12 L 876.468,2683.96 L 880.603,2689.9 z " style="fill-opacity:1.000000;fill:rgb(62,161,65);stroke:rgb(0,0,0);stroke-width:2"/></g>
<g fill-rule="evenodd"><path d="M 3218.56,2326.18 L 4279.31,2326.18 L 4282.4,2326.34 L 4288.54,2326.94 L 4294.59,2328.14 L 4300.5,2329.93 L 4306.21,2332.3 L 4311.65,2335.21 L 4316.78,2338.64 L 4321.55,2342.55 L 4323.84,2344.63 L 4578.91,2599.71 L 4580.99,2602 L 4584.9,2606.77 L 4588.33,2611.9 L 4591.24,2617.34 L 4593.61,2623.05 L 4595.4,2628.95 L 4596.6,2635.01 L 4597.21,2641.15 L 4597.36,2644.24 L 4597.36,3508.65 L 4597.21,3511.75 L 4596.6,3517.89 L 4595.4,3523.94 L 4593.61,3529.85 L 4591.24,3535.56 L 4588.33,3541 L 4584.9,3546.13 L 4580.99,3550.9 L 4578.91,3553.19 L 4309.22,3822.88 L 4309.22,4169.96 L 4403.69,4169.96 L 4409.84,4170.56 L 4415.74,4172.35 L 4421.19,4175.27 L 4425.96,4179.18 L 4429.88,4183.95 L 4432.79,4189.4 L 4434.58,4195.3 L 4435.18,4201.45 L 4435.18,4516.35 L 4434.58,4522.5 L 4432.79,4528.4 L 4429.88,4533.85 L 4425.96,4538.62 L 4421.19,4542.54 L 4415.74,4545.45 L 4409.84,4547.24 L 4403.69,4547.84 L 4088.79,4547.84 L 4082.64,4547.24 L 4076.74,4545.45 L 4071.29,4542.54 L 4066.52,4538.62 L 4062.61,4533.85 L 4059.69,4528.4 L 4057.9,4522.5 L 4057.3,4516.35 L 4057.3,4201.45 L 4057.9,4195.3 L 4059.69,4189.4 L 4062.61,4183.95 L 4066.52,4179.18 L 4071.29,4175.27 L 4076.74,4172.35 L 4082.64,4170.56 L 4088.79,4169.96 L 4183.26,4169.96 L 4183.26,3796.79 L 4183.41,3793.71 L 4184.01,3787.57 L 4185.22,3781.51 L 4187.01,3775.6 L 4189.37,3769.9 L 4192.28,3764.46 L 4195.71,3759.32 L 4199.63,3754.55 L 4201.71,3752.26 L 4471.4,3482.57 L 4471.4,2670.33 L 4253.22,2452.14 L 3192.48,2452.14 L 3189.4,2451.99 L 3183.25,2451.39 L 3177.19,2450.19 L 3171.28,2448.39 L 3165.58,2446.03 L 3160.13,2443.12 L 3155,2439.69 L 3150.23,2435.77 L 3147.94,2433.7 L 2893.27,2179.03 L 2891.2,2176.74 L 2887.28,2171.97 L 2883.85,2166.84 L 2880.94,2161.4 L 2878.58,2155.69 L 2876.79,2149.78 L 2875.58,2143.72 L 2874.98,2137.58 L 2874.83,2134.5 L 2874.83,2127.12 L 2222.52,1474.81 L 2220.45,1472.52 L 2216.53,1467.75 L 2213.11,1462.62 L 2210.19,1457.18 L 2207.83,1451.47 L 2206.04,1445.56 L 2204.83,1439.5 L 2204.23,1433.36 L 2204.08,1430.28 L 2204.08,1195.59 L 2175.53,1182.87 L 2169.83,1179.58 L 2143.2,1160.24 L 2140.63,1158.16 L 2138.3,1155.83 L 2116.28,1131.37 L 2112.41,1126.04 L 2095.95,1097.54 L 2094.45,1094.6 L 2093.27,1091.52 L 2083.1,1060.22 L 2081.73,1053.78 L 2078.29,1021.04 L 2078.12,1017.75 L 2078.29,1014.46 L 2081.73,981.723 L 2083.1,975.284 L 2093.27,943.978 L 2094.45,940.902 L 2095.95,937.963 L 2112.41,909.456 L 2116.28,904.131 L 2138.3,879.669 L 2140.63,877.339 L 2143.19,875.264 L 2169.82,855.917 L 2175.52,852.626 L 2205.6,839.236 L 2208.67,838.054 L 2211.86,837.202 L 2244.06,830.36 L 2250.6,829.67 L 2283.52,829.67 L 2290.06,830.36 L 2322.26,837.202 L 2325.44,838.054 L 2328.52,839.236 L 2358.59,852.626 L 2364.29,855.917 L 2390.92,875.264 L 2393.49,877.337 L 2395.82,879.669 L 2417.84,904.131 L 2421.71,909.456 L 2438.17,937.963 L 2439.67,940.9 L 2440.85,943.978 L 2451.02,975.284 L 2452.39,981.723 L 2455.83,1014.46 L 2456,1017.75 L 2455.83,1021.04 L 2452.39,1053.78 L 2451.02,1060.22 L 2440.85,1091.52 L 2439.67,1094.6 L 2438.17,1097.54 L 2421.71,1126.04 L 2417.84,1131.37 L 2395.82,1155.83 L 2393.49,1158.16 L 2390.92,1160.24 L 2364.29,1179.58 L 2358.59,1182.87 L 2330.04,1195.59 L 2330.04,1404.19 L 2982.34,2056.49 L 2984.42,2058.78 L 2988.33,2063.56 L 2991.76,2068.68 L 2994.67,2074.13 L 2997.04,2079.83 L 2998.83,2085.74 L 3000.03,2091.79 L 3000.64,2097.94 L 3000.79,2101.02 L 3000.79,2108.41 L 3218.56,2326.18 z " style="fill-opacity:1.000000;fill:rgb(225,252,103);stroke:rgb(0,0,0);stroke-width:2"/></g>
<g fill-rule="evenodd"><path d="M 3005.4,3466.93 L 3023.62,3466.93 L 3026.71,3467.08 L 3032.85,3467.69 L 3038.9,3468.89 L 3044.81,3470.68 L 3050.52,3473.05 L 3055.96,3475.96 L 3061.09,3479.39 L 3065.86,3483.3 L 3068.15,3485.38 L 3343.69,3760.92 L 3345.77,3763.21 L 3349.69,3767.98 L 3353.11,3773.11 L 3356.02,3778.55 L 3358.39,3784.26 L 3360.18,3790.17 L 3361.38,3796.22 L 3361.99,3802.36 L 3362.14,3805.45 L 3362.14,3912.89 L 3366.37,3916.91 L 3370.52,3921.74 L 3377.46,3931.7 L 3380.55,3937.28 L 3385.34,3948.43 L 3387.25,3954.51 L 3389.69,3966.4 L 3390.33,3972.66 L 3390.64,4094.93 L 3390.48,4098.2 L 3389.25,4110.27 L 3387.97,4116.51 L 3384.33,4128.09 L 3381.82,4133.95 L 3375.93,4144.56 L 3372.29,4149.79 L 3364.39,4159 L 3359.77,4163.39 L 3350.17,4170.82 L 3344.76,4174.19 L 3333.86,4179.54 L 3327.89,4181.75 L 3316.14,4184.79 L 3309.84,4185.76 L 3297.72,4186.37 L 3291.36,4186.05 L 3279.36,4184.21 L 3273.19,4182.61 L 3261.81,4178.4 L 3256.09,4175.59 L 3245.79,4169.17 L 3240.74,4165.27 L 3231.95,4156.91 L 3227.8,4152.08 L 3220.87,4142.11 L 3217.77,4136.54 L 3212.99,4125.38 L 3211.08,4119.31 L 3208.63,4107.42 L 3207.99,4101.16 L 3207.68,3978.89 L 3207.84,3975.62 L 3209.07,3963.54 L 3210.36,3957.31 L 3213.99,3945.73 L 3216.5,3939.87 L 3222.39,3929.26 L 3226.03,3924.03 L 3233.94,3914.82 L 3236.18,3912.7 L 3236.18,3831.54 L 2997.53,3592.89 L 2848.57,3592.89 L 2845.49,3592.74 L 2839.34,3592.14 L 2833.28,3590.93 L 2827.38,3589.14 L 2821.67,3586.78 L 2816.22,3583.86 L 2811.1,3580.44 L 2806.33,3576.52 L 2804.03,3574.45 L 2552.71,3323.12 L 2552.41,3323.15 L 2549.11,3323.15 L 2535.97,3322.46 L 2532.69,3322.12 L 2529.46,3321.43 L 2516.74,3318.02 L 2513.61,3317.01 L 2510.59,3315.66 L 2498.86,3309.68 L 2493.35,3306.11 L 2483.11,3297.82 L 2480.66,3295.61 L 2402.73,3217.68 L 2400.52,3215.22 L 2392.23,3204.99 L 2388.65,3199.48 L 2382.67,3187.75 L 2381.33,3184.73 L 2380.31,3181.59 L 2376.9,3168.88 L 2376.22,3165.65 L 2375.87,3162.37 L 2375.19,3149.22 L 2375.53,3142.65 L 2377.59,3129.65 L 2379.29,3123.29 L 2384.01,3111 L 2385.35,3107.99 L 2387,3105.13 L 2394.17,3094.09 L 2398.32,3088.97 L 2407.63,3079.66 L 2412.74,3075.52 L 2423.78,3068.35 L 2426.64,3066.7 L 2429.65,3065.36 L 2441.95,3060.64 L 2448.3,3058.94 L 2461.31,3056.88 L 2467.88,3056.53 L 2481.03,3057.22 L 2484.31,3057.56 L 2487.53,3058.25 L 2500.25,3061.66 L 2503.39,3062.68 L 2506.4,3064.02 L 2518.13,3070 L 2523.64,3073.58 L 2533.88,3081.86 L 2536.33,3084.07 L 2614.27,3162.01 L 2616.48,3164.46 L 2624.76,3174.69 L 2628.34,3180.21 L 2634.32,3191.94 L 2635.66,3194.95 L 2636.68,3198.09 L 2640.09,3210.81 L 2640.77,3214.03 L 2641.12,3217.31 L 2641.8,3230.46 L 2641.62,3233.9 L 2874.65,3466.93 L 3005.4,3466.93 z " style="fill-opacity:1.000000;fill:rgb(62,1,126);stroke:rgb(0,0,0);stroke-width:2"/></g>
<g fill-rule="evenodd"><path d="M 1701.88,2472.3 L 1699.55,2471.8 L 1693.3,2469.77 L 1670.74,2459.73 L 1667.81,2458.23 L 1665.04,2456.43 L 1645.07,2441.92 L 1642.51,2439.85 L 1640.17,2437.52 L 1623.66,2419.17 L 1621.58,2416.61 L 1619.79,2413.84 L 1607.44,2392.46 L 1604.77,2386.45 L 1597.14,2362.97 L 1595.77,2356.53 L 1593.19,2331.98 L 1593.02,2328.69 L 1593.19,2325.4 L 1595.77,2300.85 L 1597.14,2294.41 L 1604.77,2270.93 L 1607.44,2264.92 L 1619.79,2243.54 L 1621.58,2240.77 L 1623.66,2238.21 L 1640.17,2219.86 L 1642.5,2217.53 L 1645.07,2215.46 L 1665.04,2200.95 L 1667.8,2199.15 L 1670.74,2197.65 L 1693.3,2187.61 L 1699.56,2185.58 L 1723.7,2180.45 L 1726.96,2179.93 L 1730.25,2179.76 L 1754.94,2179.76 L 1761.48,2180.45 L 1785.63,2185.58 L 1791.89,2187.61 L 1814.44,2197.65 L 1817.38,2199.15 L 1820.15,2200.95 L 1840.12,2215.46 L 1842.68,2217.53 L 1845.01,2219.86 L 1861.53,2238.21 L 1863.61,2240.77 L 1865.4,2243.54 L 1877.75,2264.92 L 1880.42,2270.93 L 1888.05,2294.41 L 1889.42,2300.85 L 1892,2325.4 L 1892.17,2328.69 L 1892,2331.98 L 1889.42,2356.53 L 1888.05,2362.97 L 1880.42,2386.45 L 1877.75,2392.46 L 1865.4,2413.84 L 1863.61,2416.61 L 1861.53,2419.17 L 1845.12,2437.4 L 2040.25,2632.52 L 2043.69,2632.34 L 2056.84,2633.03 L 2060.12,2633.37 L 2063.34,2634.06 L 2076.06,2637.47 L 2079.2,2638.49 L 2082.21,2639.83 L 2093.94,2645.81 L 2099.45,2649.39 L 2109.69,2657.67 L 2112.14,2659.88 L 2190.08,2737.82 L 2192.28,2740.27 L 2200.57,2750.5 L 2204.15,2756.02 L 2210.13,2767.75 L 2211.47,2770.76 L 2212.49,2773.9 L 2215.9,2786.62 L 2216.58,2789.84 L 2216.93,2793.12 L 2217.61,2806.27 L 2217.27,2812.84 L 2215.21,2825.84 L 2213.51,2832.2 L 2208.79,2844.49 L 2207.45,2847.51 L 2205.8,2850.36 L 2198.63,2861.41 L 2194.48,2866.52 L 2185.18,2875.83 L 2180.06,2879.97 L 2169.02,2887.15 L 2166.16,2888.8 L 2163.15,2890.14 L 2150.86,2894.85 L 2144.5,2896.56 L 2131.5,2898.62 L 2124.92,2898.96 L 2111.77,2898.27 L 2108.5,2897.93 L 2105.27,2897.24 L 2092.55,2893.83 L 2089.41,2892.81 L 2086.4,2891.47 L 2074.67,2885.49 L 2069.16,2881.91 L 2058.92,2873.63 L 2056.47,2871.42 L 1978.54,2793.49 L 1976.33,2791.03 L 1968.04,2780.8 L 1964.46,2775.29 L 1958.48,2763.56 L 1957.14,2760.54 L 1956.12,2757.4 L 1952.71,2744.69 L 1952.03,2741.46 L 1951.68,2738.18 L 1951,2725.03 L 1951.18,2721.59 L 1701.88,2472.3 z " style="fill-opacity:1.000000;fill:rgb(151,234,220);stroke:rgb(0,0,0);stroke-width:2"/></g>
<g fill-rule="evenodd"><path d="M 1429.41,2304.04 L 1899.27,2773.9 L 1902.29,2773.74 L 1915.44,2774.43 L 1918.72,2774.77 L 1921.94,2775.46 L 1934.66,2778.86 L 1937.8,2779.88 L 1940.81,2781.22 L 1952.54,2787.2 L 1958.06,2790.78 L 1968.29,2799.07 L 1970.74,2801.28 L 2048.68,2879.21 L 2050.89,2881.67 L 2059.17,2891.9 L 2062.75,2897.41 L 2068.73,2909.14 L 2070.07,2912.16 L 2071.09,2915.29 L 2074.5,2928.01 L 2075.19,2931.24 L 2075.53,2934.52 L 2076.22,2947.67 L 2075.88,2954.24 L 2073.82,2967.24 L 2072.11,2973.6 L 2067.39,2985.89 L 2066.05,2988.9 L 2064.41,2991.76 L 2057.23,3002.8 L 2053.09,3007.92 L 2043.78,3017.23 L 2038.67,3021.37 L 2027.62,3028.54 L 2024.76,3030.19 L 2021.75,3031.53 L 2009.46,3036.25 L 2003.1,3037.95 L 1990.1,3040.01 L 1983.53,3040.36 L 1970.38,3039.67 L 1967.1,3039.33 L 1963.87,3038.64 L 1951.16,3035.23 L 1948.02,3034.21 L 1945.01,3032.87 L 1933.28,3026.89 L 1927.76,3023.31 L 1917.53,3015.03 L 1915.08,3012.82 L 1837.14,2934.88 L 1834.93,2932.43 L 1826.64,2922.19 L 1823.07,2916.68 L 1817.09,2904.95 L 1815.74,2901.94 L 1814.72,2898.8 L 1811.32,2886.08 L 1810.63,2882.86 L 1810.29,2879.58 L 1809.6,2866.43 L 1809.6,2863.05 L 1809.67,2862.44 L 1321.89,2374.66 L 1319.82,2372.36 L 1315.9,2367.59 L 1312.47,2362.47 L 1309.56,2357.02 L 1307.2,2351.31 L 1305.41,2345.41 L 1304.2,2339.35 L 1303.6,2333.2 L 1303.45,2330.12 L 1303.45,2109.69 L 1102.43,2109.75 L 1099.34,2109.6 L 1093.2,2108.99 L 1087.14,2107.79 L 1081.23,2106 L 1078.12,2104.87 L 1076.66,2104.16 L 1008.46,2104.33 L 1005.19,2104.17 L 993.115,2102.94 L 986.881,2101.66 L 975.299,2098.02 L 969.442,2095.51 L 958.827,2089.62 L 953.598,2085.98 L 944.39,2078.08 L 939.999,2073.46 L 932.568,2063.86 L 929.199,2058.45 L 923.854,2047.55 L 921.64,2041.58 L 918.596,2029.83 L 917.633,2023.53 L 917.019,2011.41 L 917.341,2005.05 L 919.178,1993.05 L 920.776,1986.88 L 924.991,1975.5 L 927.797,1969.78 L 934.218,1959.48 L 938.119,1954.43 L 946.482,1945.64 L 951.313,1941.49 L 961.275,1934.56 L 966.848,1931.46 L 978.004,1926.67 L 984.083,1924.77 L 995.971,1922.32 L 1002.23,1921.68 L 1124.5,1921.37 L 1127.77,1921.53 L 1139.84,1922.76 L 1146.08,1924.05 L 1157.66,1927.68 L 1163.52,1930.19 L 1174.13,1936.08 L 1179.36,1939.72 L 1188.57,1947.63 L 1192.96,1952.24 L 1200.39,1961.84 L 1203.76,1967.25 L 1209.11,1978.15 L 1211.19,1983.77 L 1366.42,1983.73 L 1369.52,1983.88 L 1375.66,1984.48 L 1381.71,1985.68 L 1387.62,1987.48 L 1393.33,1989.84 L 1398.77,1992.75 L 1403.9,1996.18 L 1408.67,2000.1 L 1413.04,2004.46 L 1416.95,2009.23 L 1420.38,2014.36 L 1423.29,2019.81 L 1425.66,2025.51 L 1427.45,2031.42 L 1428.65,2037.47 L 1429.26,2043.61 L 1429.41,2046.7 L 1429.41,2304.04 z " style="fill-opacity:1.000000;fill:rgb(107,150,143);stroke:rgb(0,0,0);stroke-width:2"/></g>
<g fill-rule="evenodd"><path d="M 1641.97,4860.98 L 2496.15,4860.98 L 2496.15,4844.99 L 2485.03,4841.5 L 2479.18,4838.99 L 2458.28,4827.39 L 2453.05,4823.75 L 2434.92,4808.19 L 2430.54,4803.57 L 2415.91,4784.67 L 2412.54,4779.27 L 2402.02,4757.82 L 2399.8,4751.84 L 2393.82,4728.71 L 2392.85,4722.41 L 2391.64,4698.55 L 2391.96,4692.18 L 2395.58,4668.57 L 2397.18,4662.4 L 2405.48,4639.99 L 2408.28,4634.27 L 2420.92,4614 L 2424.82,4608.96 L 2441.29,4591.64 L 2446.12,4587.49 L 2465.73,4573.84 L 2471.3,4570.75 L 2493.26,4561.32 L 2499.34,4559.42 L 2522.74,4554.61 L 2528.71,4553.96 L 2580.02,4553.36 L 2583.57,4553.52 L 2607.34,4555.93 L 2613.59,4557.22 L 2636.38,4564.37 L 2642.24,4566.88 L 2663.13,4578.48 L 2668.36,4582.12 L 2686.49,4597.68 L 2690.88,4602.3 L 2705.51,4621.2 L 2708.88,4626.6 L 2719.4,4648.05 L 2721.61,4654.03 L 2727.6,4677.16 L 2728.56,4683.46 L 2729.78,4707.32 L 2729.45,4713.69 L 2725.83,4737.3 L 2724.24,4743.47 L 2715.94,4765.88 L 2713.13,4771.6 L 2700.49,4791.87 L 2696.59,4796.91 L 2680.13,4814.23 L 2675.3,4818.38 L 2655.69,4832.03 L 2650.11,4835.12 L 2628.16,4844.55 L 2622.29,4846.39 L 2622.12,4847.23 L 2622.12,4859.64 L 3280.27,4840.85 L 3280.27,4388.74 L 3072.83,4181.3 L 3064.99,4178.4 L 3059.27,4175.59 L 3048.97,4169.17 L 3043.93,4165.27 L 3035.13,4156.91 L 3030.99,4152.08 L 3024.05,4142.11 L 3020.96,4136.54 L 3016.17,4125.38 L 3014.26,4119.31 L 3011.82,4107.42 L 3011.17,4101.16 L 3010.87,3978.89 L 3011.03,3975.62 L 3012.26,3963.54 L 3013.54,3957.31 L 3017.17,3945.73 L 3019.69,3939.87 L 3025.58,3929.26 L 3029.22,3924.03 L 3037.12,3914.82 L 3041.74,3910.43 L 3051.34,3903 L 3056.75,3899.63 L 3067.64,3894.28 L 3073.62,3892.07 L 3085.37,3889.03 L 3091.67,3888.06 L 3103.79,3887.45 L 3110.15,3887.77 L 3122.15,3889.61 L 3128.32,3891.21 L 3139.7,3895.42 L 3145.42,3898.23 L 3155.72,3904.65 L 3160.76,3908.55 L 3169.56,3916.91 L 3173.71,3921.74 L 3180.64,3931.7 L 3183.73,3937.28 L 3188.52,3948.43 L 3190.43,3954.51 L 3192.87,3966.4 L 3193.52,3972.66 L 3193.82,4094.93 L 3193.66,4098.2 L 3192.43,4110.27 L 3191.15,4116.51 L 3189.96,4120.29 L 3387.78,4318.12 L 3389.86,4320.41 L 3393.77,4325.18 L 3397.2,4330.31 L 3400.11,4335.75 L 3402.48,4341.46 L 3404.27,4347.37 L 3405.47,4353.42 L 3406.08,4359.56 L 3406.23,4362.65 L 3406.23,4837.25 L 3742.44,4827.65 L 3744.24,4826.16 L 3803.01,4767.38 L 3803.01,3207.64 L 3231.54,3207.64 L 3228.46,3207.49 L 3222.31,3206.89 L 3216.25,3205.68 L 3210.35,3203.89 L 3204.64,3201.53 L 3199.19,3198.62 L 3194.07,3195.19 L 3189.3,3191.27 L 3187,3189.2 L 3023.98,3026.18 L 2985.02,3065.14 L 2980.24,3069.06 L 2974.8,3071.97 L 2968.89,3073.76 L 2962.75,3074.37 L 2956.6,3073.76 L 2950.7,3071.97 L 2945.25,3069.06 L 2940.48,3065.14 L 2851.41,2976.07 L 2847.5,2971.3 L 2844.59,2965.86 L 2842.79,2959.95 L 2842.19,2953.81 L 2842.79,2947.67 L 2844.59,2941.76 L 2847.49,2936.31 L 2851.41,2931.54 L 3018.42,2764.54 L 3023.19,2760.62 L 3028.63,2757.71 L 3034.54,2755.92 L 3040.68,2755.31 L 3046.83,2755.92 L 3052.74,2757.71 L 3058.18,2760.62 L 3062.95,2764.54 L 3152.02,2853.61 L 3155.94,2858.38 L 3158.85,2863.82 L 3160.64,2869.73 L 3161.24,2875.87 L 3160.64,2882.02 L 3158.85,2887.92 L 3155.94,2893.37 L 3152.02,2898.14 L 3113.05,2937.11 L 3257.62,3081.68 L 3821.29,3081.68 L 4075.96,2827.01 L 4075.13,2825.58 L 4073.63,2822.65 L 4072.45,2819.57 L 4062.28,2788.26 L 4060.91,2781.82 L 4057.47,2749.09 L 4057.3,2745.8 L 4057.47,2742.5 L 4060.91,2709.77 L 4062.28,2703.33 L 4072.45,2672.02 L 4073.63,2668.95 L 4075.13,2666.01 L 4091.59,2637.5 L 4095.46,2632.18 L 4117.48,2607.71 L 4119.81,2605.38 L 4122.38,2603.31 L 4149,2583.96 L 4154.71,2580.67 L 4184.78,2567.28 L 4187.86,2566.1 L 4191.04,2565.25 L 4223.24,2558.41 L 4229.78,2557.72 L 4262.7,2557.72 L 4269.24,2558.41 L 4301.44,2565.25 L 4304.62,2566.1 L 4307.7,2567.28 L 4337.77,2580.67 L 4343.47,2583.96 L 4370.1,2603.31 L 4372.67,2605.38 L 4375,2607.71 L 4397.02,2632.18 L 4400.89,2637.5 L 4417.35,2666.01 L 4418.85,2668.95 L 4420.03,2672.02 L 4430.2,2703.33 L 4431.57,2709.77 L 4435.01,2742.5 L 4435.18,2745.8 L 4435.01,2749.09 L 4431.57,2781.82 L 4430.2,2788.26 L 4420.03,2819.57 L 4418.85,2822.65 L 4417.35,2825.58 L 4400.89,2854.09 L 4397.02,2859.41 L 4375,2883.88 L 4372.67,2886.21 L 4370.11,2888.28 L 4343.48,2907.63 L 4337.78,2910.92 L 4307.7,2924.31 L 4304.62,2925.49 L 4301.44,2926.34 L 4269.24,2933.19 L 4262.7,2933.87 L 4229.78,2933.87 L 4223.24,2933.19 L 4191.04,2926.34 L 4187.86,2925.49 L 4184.78,2924.31 L 4165.42,2915.69 L 3928.97,3152.13 L 3928.97,4793.47 L 3928.82,4796.56 L 3928.22,4802.71 L 3927.01,4808.76 L 3925.22,4814.66 L 3922.86,4820.37 L 3919.94,4825.82 L 3919.55,4826.47 L 3921.14,4840.16 L 3921.35,4844.29 L 3921.01,4848.4 L 3920.57,4851.43 L 3919.71,4855.42 L 3918.35,4859.25 L 3917.53,4861.17 L 3914.31,4866.92 L 3913.11,4868.63 L 3911.01,4871.29 L 3908.63,4873.7 L 3773.32,4997.41 L 3768.67,5000.93 L 3765.55,5002.86 L 3760.35,5005.46 L 3754.76,5007.05 L 3751.15,5007.73 L 3745.37,5008.27 L 1279,5010.9 L 1265.27,5024.63 L 1262.98,5026.71 L 1258.21,5030.62 L 1253.08,5034.05 L 1247.64,5036.96 L 1241.93,5039.32 L 1236.03,5041.12 L 1229.96,5042.32 L 1223.82,5042.92 L 1220.74,5043.07 L 923.304,5043.07 L 921.684,5043.59 L 915.267,5044.9 L 909.124,5045.51 L 906.045,5045.66 L 761.964,5045.66 L 758.882,5045.51 L 752.737,5044.9 L 746.318,5043.59 L 744.701,5043.07 L 530.474,5043.07 L 527.392,5042.92 L 521.248,5042.32 L 515.187,5041.12 L 509.28,5039.32 L 503.573,5036.96 L 498.128,5034.05 L 493,5030.62 L 488.229,5026.71 L 485.938,5024.63 L 393.892,4932.58 L 354.924,4971.55 L 350.151,4975.47 L 344.708,4978.38 L 338.799,4980.17 L 332.656,4980.77 L 326.513,4980.17 L 320.606,4978.38 L 315.161,4975.46 L 310.39,4971.55 L 115.552,4776.71 L 111.637,4771.94 L 108.725,4766.5 L 106.934,4760.59 L 106.33,4754.45 L 106.934,4748.3 L 108.725,4742.39 L 111.635,4736.95 L 115.552,4732.18 L 154.517,4693.21 L 62.4713,4601.16 L 60.3957,4598.87 L 56.4804,4594.1 L 53.0529,4588.97 L 50.1415,4583.53 L 47.7759,4577.82 L 45.9842,4571.91 L 44.7804,4565.85 L 44.1765,4559.71 L 44.0265,4556.63 L 44.0265,4342.41 L 43.5126,4340.79 L 42.1968,4334.37 L 41.5929,4328.22 L 41.443,4325.14 L 41.443,4065.27 L 41.5929,4062.19 L 42.1968,4056.05 L 43.4006,4049.99 L 45.1923,4044.08 L 47.5559,4038.38 L 50.4654,4032.93 L 53.8948,4027.8 L 57.8121,4023.03 L 59.8878,4020.74 L 227.237,3853.39 L 225.881,3850.31 L 224.709,3847.2 L 223.871,3844 L 219.06,3820.59 L 218.418,3814.62 L 217.812,3763.31 L 217.97,3759.76 L 220.388,3735.99 L 221.672,3729.75 L 228.824,3706.95 L 231.336,3701.09 L 242.932,3680.2 L 246.573,3674.97 L 262.139,3656.84 L 266.756,3652.45 L 285.65,3637.83 L 291.058,3634.46 L 304.409,3627.91 L 304.409,2953.75 L 298.728,2950.97 L 278.452,2938.33 L 273.413,2934.43 L 256.094,2917.96 L 251.942,2913.13 L 238.293,2893.52 L 235.201,2887.95 L 225.779,2865.99 L 223.871,2859.91 L 219.06,2836.51 L 218.418,2830.54 L 217.812,2779.23 L 217.97,2775.68 L 220.388,2751.91 L 221.672,2745.66 L 227.271,2727.82 L 94.1738,2594.72 L 92.0982,2592.43 L 88.1828,2587.65 L 84.7554,2582.53 L 81.8439,2577.08 L 79.4784,2571.37 L 77.6867,2565.47 L 76.4829,2559.41 L 75.879,2553.26 L 75.729,2550.18 L 75.729,2266.31 L 75.879,2263.23 L 76.4829,2257.08 L 77.6867,2251.02 L 79.4784,2245.12 L 81.8419,2239.41 L 84.7514,2233.97 L 88.1808,2228.84 L 92.0982,2224.06 L 94.1738,2221.77 L 330.207,1985.74 L 332.498,1983.67 L 337.27,1979.75 L 342.397,1976.32 L 347.842,1973.41 L 353.549,1971.05 L 359.456,1969.26 L 365.507,1968.05 L 371.652,1967.45 L 374.743,1967.29 L 585.788,1967.29 L 588.878,1967.45 L 595.021,1968.05 L 601.072,1969.26 L 606.979,1971.05 L 612.686,1973.41 L 618.131,1976.32 L 623.258,1979.75 L 628.029,1983.67 L 630.321,1985.74 L 790.009,2145.43 L 943.652,2145.43 L 946.482,2142.46 L 951.313,2138.31 L 961.275,2131.37 L 966.848,2128.28 L 978.004,2123.49 L 984.083,2121.59 L 995.971,2119.14 L 1002.23,2118.5 L 1124.5,2118.19 L 1127.77,2118.35 L 1139.84,2119.58 L 1146.08,2120.86 L 1157.66,2124.5 L 1163.52,2127.01 L 1174.13,2132.9 L 1179.36,2136.54 L 1188.57,2144.44 L 1192.96,2149.06 L 1200.39,2158.66 L 1203.76,2164.07 L 1209.11,2174.97 L 1211.32,2180.94 L 1214.36,2192.69 L 1215.33,2198.99 L 1215.94,2211.11 L 1215.62,2217.47 L 1213.78,2229.47 L 1212.18,2235.64 L 1207.97,2247.02 L 1205.16,2252.74 L 1198.74,2263.04 L 1194.84,2268.09 L 1186.48,2276.88 L 1181.65,2281.03 L 1171.68,2287.96 L 1166.11,2291.06 L 1154.96,2295.84 L 1148.88,2297.75 L 1136.99,2300.2 L 1130.73,2300.84 L 1008.46,2301.15 L 1005.19,2300.99 L 993.115,2299.76 L 986.881,2298.47 L 975.299,2294.84 L 969.442,2292.33 L 958.827,2286.44 L 953.598,2282.8 L 944.39,2274.89 L 941.063,2271.39 L 763.925,2271.39 L 760.844,2271.24 L 754.699,2270.64 L 748.638,2269.44 L 742.731,2267.64 L 737.024,2265.28 L 731.579,2262.37 L 726.452,2258.94 L 721.681,2255.02 L 719.389,2252.95 L 559.697,2093.26 L 400.83,2093.26 L 201.691,2292.39 L 201.691,2524.1 L 316.111,2638.52 L 318.483,2637.64 L 341.615,2631.65 L 347.912,2630.69 L 371.774,2629.47 L 378.14,2629.8 L 401.758,2633.42 L 407.925,2635.01 L 430.331,2643.31 L 436.05,2646.12 L 456.327,2658.76 L 461.366,2662.66 L 478.685,2679.12 L 482.836,2683.95 L 496.486,2703.56 L 499.577,2709.14 L 509,2731.1 L 510.907,2737.17 L 515.718,2760.57 L 516.36,2766.54 L 516.966,2817.85 L 516.808,2821.41 L 514.391,2845.18 L 513.107,2851.42 L 505.954,2874.22 L 503.443,2880.07 L 491.847,2900.97 L 488.205,2906.2 L 472.64,2924.33 L 468.023,2928.71 L 449.128,2943.34 L 443.721,2946.71 L 430.371,2953.26 L 430.371,3627.41 L 436.05,3630.2 L 456.327,3642.84 L 461.366,3646.74 L 478.685,3663.2 L 482.836,3668.03 L 496.486,3687.64 L 499.577,3693.22 L 509,3715.18 L 510.907,3721.25 L 515.718,3744.65 L 516.36,3750.63 L 516.966,3801.93 L 516.808,3805.49 L 514.391,3829.26 L 513.107,3835.5 L 505.954,3858.3 L 503.443,3864.15 L 491.847,3885.05 L 488.205,3890.28 L 472.64,3908.41 L 472.324,3908.71 L 542.194,3978.58 L 1042.84,3978.58 L 1579.32,3442.09 L 1579.32,3207.65 L 1579.47,3204.57 L 1580.08,3198.43 L 1581.28,3192.37 L 1583.07,3186.46 L 1585.44,3180.76 L 1588.35,3175.32 L 1591.78,3170.18 L 1595.69,3165.41 L 1597.77,3163.12 L 1690.64,3070.25 L 1685.25,3063.59 L 1681.67,3058.08 L 1675.69,3046.35 L 1674.35,3043.33 L 1673.33,3040.2 L 1669.92,3027.48 L 1669.24,3024.25 L 1668.89,3020.97 L 1668.2,3007.82 L 1668.55,3001.25 L 1670.61,2988.25 L 1672.31,2981.89 L 1677.03,2969.6 L 1678.37,2966.59 L 1680.02,2963.73 L 1687.19,2952.69 L 1691.33,2947.57 L 1700.64,2938.26 L 1705.76,2934.12 L 1716.8,2926.95 L 1719.66,2925.3 L 1722.67,2923.96 L 1734.96,2919.24 L 1741.32,2917.54 L 1754.32,2915.48 L 1760.89,2915.14 L 1774.04,2915.82 L 1777.32,2916.17 L 1780.55,2916.85 L 1793.27,2920.26 L 1796.4,2921.28 L 1799.42,2922.62 L 1811.15,2928.6 L 1816.66,2932.18 L 1826.89,2940.46 L 1829.35,2942.67 L 1907.28,3020.61 L 1909.49,3023.06 L 1917.78,3033.3 L 1921.36,3038.81 L 1927.33,3050.54 L 1928.68,3053.55 L 1929.7,3056.69 L 1933.1,3069.41 L 1933.79,3072.63 L 1934.13,3075.91 L 1934.82,3089.06 L 1934.48,3095.63 L 1932.42,3108.64 L 1930.71,3114.99 L 1926,3127.29 L 1924.66,3130.3 L 1923.01,3133.16 L 1915.83,3144.2 L 1911.69,3149.31 L 1902.38,3158.62 L 1897.27,3162.77 L 1886.22,3169.94 L 1883.37,3171.59 L 1880.36,3172.93 L 1868.06,3177.65 L 1861.71,3179.35 L 1848.7,3181.41 L 1842.13,3181.75 L 1828.98,3181.06 L 1825.7,3180.72 L 1822.48,3180.03 L 1809.76,3176.63 L 1806.62,3175.61 L 1803.61,3174.27 L 1791.88,3168.29 L 1786.37,3164.71 L 1779.71,3159.32 L 1705.29,3233.74 L 1705.29,3468.18 L 1705.13,3471.27 L 1704.53,3477.42 L 1703.32,3483.47 L 1701.53,3489.37 L 1699.17,3495.08 L 1696.26,3500.53 L 1692.83,3505.65 L 1688.91,3510.42 L 1686.84,3512.72 L 1113.46,4086.1 L 1111.17,4088.17 L 1106.39,4092.09 L 1101.26,4095.52 L 1095.82,4098.43 L 1090.11,4100.79 L 1084.21,4102.58 L 1078.15,4103.79 L 1072,4104.39 L 1068.92,4104.54 L 516.11,4104.54 L 513.029,4104.39 L 506.884,4103.79 L 500.823,4102.58 L 494.916,4100.79 L 489.209,4098.43 L 483.764,4095.51 L 478.637,4092.09 L 473.866,4088.17 L 471.574,4086.1 L 333.268,3947.79 L 333.018,3947.75 L 326.853,3946.15 L 316.461,3942.3 L 167.405,4091.36 L 167.405,4161.21 L 168.527,4165.4 L 169.557,4171.9 L 169.901,4178.47 L 169.557,4185.04 L 169.137,4188.78 L 168.273,4192.44 L 167.405,4195.34 L 167.405,4310.46 L 167.917,4312.08 L 169.231,4318.49 L 169.837,4324.63 L 169.989,4327.72 L 169.989,4530.54 L 243.586,4604.14 L 282.555,4565.17 L 287.326,4561.26 L 292.771,4558.35 L 298.678,4556.56 L 304.821,4555.95 L 310.966,4556.56 L 316.873,4558.35 L 322.318,4561.26 L 327.089,4565.17 L 521.927,4760.01 L 525.845,4764.78 L 528.754,4770.23 L 530.546,4776.14 L 531.15,4782.28 L 530.546,4788.42 L 528.754,4794.33 L 525.843,4799.78 L 521.927,4804.55 L 482.96,4843.51 L 556.557,4917.11 L 759.38,4917.11 L 762.47,4917.27 L 768.613,4917.87 L 775.017,4919.19 L 776.629,4919.7 L 891.369,4919.7 L 892.989,4919.18 L 899.392,4917.87 L 905.537,4917.26 L 908.628,4917.11 L 1194.65,4917.11 L 1210.5,4901.26 L 1211.32,4899.42 L 1214.31,4893.55 L 1216.11,4890.45 L 1218.25,4887.58 L 1223.37,4881.48 L 1227.49,4877.4 L 1232.27,4873.47 L 1237.4,4870.03 L 1242.85,4867.11 L 1248.57,4864.74 L 1254.49,4862.95 L 1260.54,4861.74 L 1261.09,4861.69 L 1265.3,4860.46 L 1268.85,4859.64 L 1272.47,4859.24 L 1279.04,4858.9 L 1285.61,4859.24 L 1292.12,4860.27 L 1295.34,4860.96 L 1295.4,4860.98 L 1516.01,4860.98 L 1516.01,4850.52 L 1515.6,4849.19 L 1514.95,4845.89 L 1500.95,4841.5 L 1495.1,4838.99 L 1474.2,4827.39 L 1468.97,4823.75 L 1450.84,4808.19 L 1446.45,4803.57 L 1431.83,4784.67 L 1428.46,4779.27 L 1417.94,4757.82 L 1415.72,4751.84 L 1409.74,4728.71 L 1408.77,4722.41 L 1407.56,4698.55 L 1407.88,4692.18 L 1411.5,4668.57 L 1413.1,4662.4 L 1421.4,4639.99 L 1424.2,4634.27 L 1436.84,4614 L 1440.74,4608.96 L 1457.2,4591.64 L 1462.04,4587.49 L 1481.65,4573.84 L 1487.22,4570.75 L 1509.18,4561.32 L 1515.25,4559.42 L 1538.66,4554.61 L 1544.63,4553.96 L 1595.94,4553.36 L 1599.49,4553.52 L 1623.26,4555.93 L 1629.5,4557.22 L 1652.3,4564.37 L 1658.16,4566.88 L 1679.05,4578.48 L 1684.28,4582.12 L 1702.41,4597.68 L 1706.8,4602.3 L 1721.42,4621.2 L 1724.79,4626.6 L 1735.32,4648.05 L 1737.53,4654.03 L 1743.52,4677.16 L 1744.48,4683.46 L 1745.69,4707.32 L 1745.37,4713.69 L 1741.75,4737.3 L 1740.16,4743.47 L 1731.86,4765.88 L 1729.05,4771.6 L 1716.41,4791.87 L 1712.51,4796.91 L 1696.05,4814.23 L 1691.22,4818.38 L 1671.61,4832.03 L 1666.03,4835.12 L 1644.07,4844.55 L 1641.97,4845.2 L 1641.97,4860.98 z " style="fill-opacity:1.000000;fill:rgb(56,92,42);stroke:rgb(0,0,0);stroke-width:2"/></g>
<g fill-rule="evenodd"><path d="M 2393.19,3696.64 L 2393.19,3463.72 L 2391.29,3463.52 L 2388.06,3462.83 L 2375.35,3459.42 L 2372.21,3458.4 L 2369.2,3457.06 L 2357.47,3451.08 L 2351.95,3447.5 L 2341.72,3439.22 L 2339.27,3437.01 L 2261.33,3359.07 L 2259.12,3356.62 L 2250.83,3346.38 L 2247.26,3340.87 L 2241.28,3329.14 L 2239.93,3326.13 L 2238.91,3322.99 L 2235.51,3310.27 L 2234.82,3307.05 L 2234.48,3303.77 L 2233.79,3290.62 L 2234.13,3284.05 L 2236.19,3271.04 L 2237.9,3264.69 L 2242.61,3252.39 L 2243.95,3249.38 L 2245.6,3246.53 L 2252.78,3235.48 L 2256.92,3230.37 L 2266.23,3221.06 L 2271.34,3216.91 L 2282.39,3209.74 L 2285.24,3208.09 L 2288.26,3206.75 L 2300.55,3202.04 L 2306.9,3200.33 L 2319.91,3198.27 L 2326.48,3197.93 L 2339.63,3198.62 L 2342.91,3198.96 L 2346.13,3199.65 L 2358.85,3203.05 L 2361.99,3204.07 L 2365,3205.41 L 2376.73,3211.39 L 2382.25,3214.97 L 2392.48,3223.26 L 2394.93,3225.47 L 2472.87,3303.4 L 2475.08,3305.86 L 2483.36,3316.09 L 2486.94,3321.6 L 2492.92,3333.33 L 2494.26,3336.35 L 2495.28,3339.49 L 2498.69,3352.2 L 2499.38,3355.43 L 2499.72,3358.71 L 2500.41,3371.86 L 2500.23,3375.3 L 2500.7,3375.77 L 2502.78,3378.06 L 2506.69,3382.84 L 2510.12,3387.96 L 2513.03,3393.41 L 2515.4,3399.11 L 2517.19,3405.02 L 2518.39,3411.07 L 2519,3417.22 L 2519.15,3420.31 L 2519.15,3722.73 L 2519,3725.82 L 2518.39,3731.96 L 2517.19,3738.01 L 2515.4,3743.92 L 2513.03,3749.63 L 2510.12,3755.07 L 2506.69,3760.2 L 2502.78,3764.97 L 2500.7,3767.26 L 2378.61,3889.35 L 2376.32,3891.43 L 2371.55,3895.34 L 2366.42,3898.77 L 2360.97,3901.68 L 2355.27,3904.05 L 2349.36,3905.84 L 2343.3,3907.04 L 2337.16,3907.65 L 2334.08,3907.8 L 2302.58,3907.8 L 2302.23,3908.59 L 2289.88,3929.97 L 2288.09,3932.74 L 2286.01,3935.3 L 2269.5,3953.64 L 2267.16,3955.98 L 2264.6,3958.05 L 2244.63,3972.56 L 2241.86,3974.36 L 2238.93,3975.85 L 2216.37,3985.89 L 2210.11,3987.93 L 2185.97,3993.06 L 2179.42,3993.75 L 2154.74,3993.75 L 2151.44,3993.58 L 2148.19,3993.06 L 2124.04,3987.93 L 2117.78,3985.89 L 2095.23,3975.85 L 2092.29,3974.36 L 2089.52,3972.56 L 2069.55,3958.05 L 2066.99,3955.97 L 2064.66,3953.64 L 2048.14,3935.3 L 2046.06,3932.74 L 2044.27,3929.97 L 2031.92,3908.59 L 2029.25,3902.58 L 2021.62,3879.1 L 2020.25,3872.66 L 2017.67,3848.11 L 2017.5,3844.82 L 2017.67,3841.52 L 2020.25,3816.97 L 2021.62,3810.53 L 2029.25,3787.06 L 2031.92,3781.04 L 2044.27,3759.66 L 2046.06,3756.9 L 2048.14,3754.34 L 2064.66,3735.99 L 2066.99,3733.66 L 2069.55,3731.58 L 2089.52,3717.07 L 2092.29,3715.28 L 2095.23,3713.78 L 2117.78,3703.74 L 2124.04,3701.71 L 2148.19,3696.57 L 2151.44,3696.06 L 2154.74,3695.88 L 2179.42,3695.88 L 2185.97,3696.57 L 2210.11,3701.71 L 2216.37,3703.74 L 2238.93,3713.78 L 2241.86,3715.28 L 2244.63,3717.07 L 2264.6,3731.58 L 2267.16,3733.66 L 2269.5,3735.99 L 2286.01,3754.34 L 2288.09,3756.9 L 2289.88,3759.66 L 2302.23,3781.04 L 2302.63,3781.83 L 2307.99,3781.83 L 2393.19,3696.64 z " style="fill-opacity:1.000000;fill:rgb(236,176,59);stroke:rgb(0,0,0);stroke-width:2"/></g>
<g fill-rule="evenodd"><path d="M 2744.96,2757.17 L 2714.43,2726.64 L 2712.55,2727.48 L 2706.29,2729.51 L 2682.14,2734.64 L 2675.6,2735.33 L 2650.91,2735.33 L 2647.62,2735.16 L 2644.36,2734.64 L 2620.22,2729.51 L 2613.96,2727.48 L 2591.4,2717.44 L 2588.47,2715.94 L 2585.7,2714.14 L 2565.73,2699.63 L 2563.17,2697.56 L 2560.83,2695.23 L 2544.32,2676.88 L 2542.24,2674.32 L 2540.45,2671.55 L 2528.1,2650.17 L 2525.42,2644.16 L 2517.8,2620.68 L 2516.43,2614.24 L 2513.85,2589.69 L 2513.68,2586.4 L 2513.85,2583.11 L 2516.43,2558.56 L 2517.8,2552.12 L 2525.42,2528.64 L 2528.1,2522.63 L 2540.45,2501.25 L 2542.24,2498.48 L 2544.32,2495.92 L 2560.83,2477.57 L 2563.16,2475.24 L 2565.73,2473.17 L 2585.7,2458.65 L 2588.46,2456.86 L 2591.4,2455.36 L 2613.96,2445.32 L 2620.22,2443.29 L 2644.36,2438.16 L 2647.62,2437.64 L 2650.91,2437.47 L 2675.6,2437.47 L 2682.14,2438.16 L 2706.29,2443.29 L 2712.55,2445.32 L 2735.1,2455.36 L 2738.04,2456.86 L 2740.81,2458.65 L 2760.78,2473.17 L 2763.34,2475.24 L 2765.67,2477.57 L 2782.19,2495.92 L 2784.27,2498.48 L 2786.06,2501.25 L 2798.41,2522.63 L 2801.08,2528.64 L 2808.71,2552.12 L 2810.08,2558.56 L 2812.66,2583.11 L 2812.83,2586.4 L 2812.66,2589.69 L 2810.08,2614.24 L 2808.71,2620.68 L 2803.29,2637.37 L 2833.07,2667.15 L 2834.94,2665.47 L 2845.17,2657.18 L 2850.68,2653.6 L 2862.41,2647.62 L 2865.43,2646.28 L 2868.57,2645.26 L 2881.28,2641.85 L 2884.51,2641.17 L 2887.79,2640.82 L 2900.94,2640.13 L 2907.51,2640.48 L 2920.51,2642.54 L 2926.87,2644.24 L 2939.16,2648.96 L 2942.17,2650.3 L 2945.03,2651.95 L 2956.07,2659.12 L 2961.19,2663.26 L 2970.5,2672.57 L 2974.64,2677.69 L 2981.81,2688.73 L 2983.46,2691.59 L 2984.8,2694.6 L 2989.52,2706.89 L 2991.22,2713.25 L 2993.28,2726.25 L 2993.63,2732.82 L 2992.94,2745.97 L 2992.6,2749.26 L 2991.91,2752.48 L 2988.5,2765.2 L 2987.48,2768.34 L 2986.14,2771.35 L 2980.16,2783.08 L 2976.58,2788.59 L 2968.29,2798.83 L 2966.09,2801.28 L 2888.15,2879.21 L 2885.7,2881.42 L 2875.46,2889.71 L 2869.94,2893.29 L 2858.21,2899.27 L 2852.07,2901.63 L 2839.35,2905.03 L 2836.12,2905.72 L 2832.84,2906.06 L 2819.7,2906.75 L 2813.12,2906.41 L 2800.12,2904.35 L 2796.89,2903.66 L 2793.76,2902.64 L 2781.47,2897.92 L 2775.6,2894.94 L 2764.56,2887.77 L 2761.89,2885.83 L 2759.44,2883.62 L 2750.13,2874.31 L 2745.99,2869.19 L 2738.82,2858.15 L 2735.83,2852.29 L 2731.12,2840 L 2730.1,2836.86 L 2729.41,2833.63 L 2727.35,2820.62 L 2727.01,2814.06 L 2727.7,2800.91 L 2728.04,2797.63 L 2728.73,2794.4 L 2732.14,2781.68 L 2734.5,2775.54 L 2740.48,2763.81 L 2744.06,2758.29 L 2744.96,2757.17 z " style="fill-opacity:1.000000;fill:rgb(251,50,175);stroke:rgb(0,0,0);stroke-width:2"/></g>
<g fill-rule="evenodd"><path d="M 3023.62,3466.93 L 3005.4,3466.93 L 3002.32,3466.78 L 2996.17,3466.18 L 2990.11,3464.97 L 2984.21,3463.18 L 2978.5,3460.81 L 2973.05,3457.9 L 2967.93,3454.48 L 2963.15,3450.56 L 2960.86,3448.48 L 2693.95,3181.57 L 2690.51,3181.75 L 2677.36,3181.06 L 2674.08,3180.72 L 2670.86,3180.03 L 2658.14,3176.63 L 2655,3175.61 L 2651.99,3174.27 L 2640.26,3168.29 L 2634.75,3164.71 L 2624.51,3156.42 L 2622.06,3154.21 L 2544.12,3076.28 L 2541.91,3073.83 L 2533.63,3063.59 L 2530.05,3058.08 L 2524.07,3046.35 L 2522.73,3043.33 L 2521.71,3040.2 L 2518.3,3027.48 L 2517.62,3024.25 L 2517.27,3020.97 L 2516.58,3007.82 L 2516.93,3001.25 L 2518.99,2988.25 L 2520.69,2981.89 L 2525.41,2969.6 L 2526.75,2966.59 L 2528.4,2963.73 L 2535.57,2952.69 L 2539.71,2947.57 L 2549.02,2938.26 L 2554.14,2934.12 L 2557.56,2931.9 L 2557.56,2923.04 L 2395.72,2761.2 L 2393.65,2758.91 L 2389.73,2754.14 L 2386.3,2749.01 L 2383.39,2743.57 L 2381.03,2737.86 L 2379.23,2731.95 L 2378.03,2725.89 L 2377.43,2719.75 L 2377.28,2716.67 L 2377.28,2630.58 L 2376.81,2629.08 L 2375.57,2622.9 L 2374.97,2616.75 L 2374.82,2613.67 L 2374.82,2387.03 L 2290.24,2302.45 L 2288.36,2303.29 L 2282.1,2305.32 L 2257.95,2310.45 L 2251.41,2311.14 L 2226.72,2311.14 L 2223.43,2310.97 L 2220.17,2310.45 L 2196.03,2305.32 L 2189.77,2303.29 L 2167.21,2293.25 L 2164.28,2291.75 L 2161.51,2289.95 L 2141.54,2275.44 L 2138.98,2273.37 L 2136.64,2271.04 L 2120.13,2252.69 L 2118.05,2250.13 L 2116.26,2247.36 L 2103.91,2225.98 L 2101.23,2219.97 L 2093.61,2196.49 L 2092.24,2190.05 L 2089.66,2165.5 L 2089.48,2162.21 L 2089.66,2158.92 L 2092.24,2134.36 L 2093.61,2127.93 L 2099.03,2111.24 L 1920.65,1932.87 L 1303.43,1932.87 L 1300.35,1932.72 L 1294.21,1932.11 L 1288.14,1930.91 L 1282.24,1929.12 L 1276.53,1926.75 L 1271.09,1923.84 L 1265.96,1920.41 L 1261.19,1916.5 L 1258.9,1914.42 L 1222.23,1877.76 L 1192.81,1877.76 L 1185.43,1885.52 L 1180.6,1889.67 L 1170.14,1896.95 L 1164.57,1900.04 L 1152.86,1905.07 L 1146.78,1906.97 L 1134.3,1909.54 L 1128.05,1910.18 L 1011.46,1910.51 L 1008.19,1910.35 L 995.507,1909.06 L 989.264,1907.77 L 977.106,1903.96 L 971.251,1901.44 L 960.109,1895.26 L 954.882,1891.62 L 945.212,1883.32 L 940.821,1878.7 L 933.022,1868.62 L 929.652,1863.22 L 924.039,1851.78 L 921.826,1845.8 L 918.632,1833.46 L 917.669,1827.17 L 917.023,1814.44 L 917.345,1808.08 L 919.274,1795.48 L 920.872,1789.31 L 925.297,1777.36 L 928.103,1771.64 L 934.844,1760.83 L 938.745,1755.79 L 947.525,1746.55 L 952.357,1742.4 L 962.815,1735.12 L 968.39,1732.03 L 980.102,1727 L 986.179,1725.1 L 998.66,1722.53 L 1004.91,1721.89 L 1121.5,1721.56 L 1124.77,1721.72 L 1137.45,1723.01 L 1143.7,1724.3 L 1155.85,1728.11 L 1161.71,1730.63 L 1172.85,1736.81 L 1178.08,1740.45 L 1187.75,1748.75 L 1190.16,1751.06 L 1190.79,1751.8 L 1248.32,1751.8 L 1251.41,1751.95 L 1257.56,1752.56 L 1263.61,1753.76 L 1269.51,1755.55 L 1275.22,1757.92 L 1280.67,1760.83 L 1285.79,1764.26 L 1290.56,1768.17 L 1292.86,1770.25 L 1329.51,1806.91 L 1946.75,1806.91 L 1949.84,1807.06 L 1955.98,1807.67 L 1962.03,1808.87 L 1967.94,1810.66 L 1973.64,1813.02 L 1979.09,1815.94 L 1984.22,1819.36 L 1988.99,1823.28 L 1991.28,1825.35 L 2187.89,2021.97 L 2189.77,2021.13 L 2196.03,2019.1 L 2220.17,2013.97 L 2223.43,2013.45 L 2226.72,2013.28 L 2251.41,2013.28 L 2257.95,2013.97 L 2282.1,2019.1 L 2288.36,2021.13 L 2310.91,2031.17 L 2313.85,2032.67 L 2316.62,2034.46 L 2336.59,2048.98 L 2339.15,2051.05 L 2341.48,2053.38 L 2358,2071.73 L 2360.08,2074.29 L 2361.87,2077.05 L 2374.22,2098.44 L 2376.89,2104.45 L 2384.52,2127.93 L 2385.89,2134.36 L 2388.47,2158.92 L 2388.64,2162.21 L 2388.47,2165.5 L 2385.89,2190.05 L 2384.52,2196.49 L 2379.1,2213.18 L 2463.88,2297.96 L 2567.57,2297.96 L 2608.17,2257.36 L 2607.98,2256.17 L 2607.63,2252.89 L 2607.63,2249.59 L 2608.36,2235.62 L 2609.39,2229.12 L 2613.01,2215.61 L 2614.03,2212.47 L 2615.38,2209.46 L 2621.73,2196.99 L 2625.31,2191.47 L 2634.11,2180.6 L 2636.32,2178.16 L 2708.69,2105.79 L 2711.14,2103.58 L 2722.01,2094.78 L 2727.53,2091.19 L 2739.99,2084.84 L 2743,2083.5 L 2746.14,2082.48 L 2759.66,2078.86 L 2766.15,2077.83 L 2780.12,2077.1 L 2783.42,2077.1 L 2786.7,2077.44 L 2800.52,2079.63 L 2806.88,2081.33 L 2819.94,2086.35 L 2825.8,2089.33 L 2837.53,2096.95 L 2840.2,2098.89 L 2842.65,2101.1 L 2852.54,2110.99 L 2856.69,2116.1 L 2864.31,2127.84 L 2865.95,2130.69 L 2867.3,2133.7 L 2872.31,2146.76 L 2874.01,2153.12 L 2876.2,2166.94 L 2876.55,2170.21 L 2876.55,2173.51 L 2875.81,2187.48 L 2875.47,2190.76 L 2874.78,2193.99 L 2871.16,2207.5 L 2868.8,2213.64 L 2862.45,2226.11 L 2860.8,2228.97 L 2858.87,2231.63 L 2850.06,2242.5 L 2847.86,2244.95 L 2775.49,2317.32 L 2773.04,2319.53 L 2762.17,2328.33 L 2759.5,2330.27 L 2756.64,2331.92 L 2744.18,2338.27 L 2738.03,2340.63 L 2724.52,2344.25 L 2721.29,2344.94 L 2718.02,2345.28 L 2704.05,2346.01 L 2700.75,2346.01 L 2697.95,2345.72 L 2638.19,2405.48 L 2635.9,2407.55 L 2631.12,2411.47 L 2625.99,2414.9 L 2620.55,2417.81 L 2614.84,2420.17 L 2608.94,2421.96 L 2602.88,2423.17 L 2596.73,2423.77 L 2593.65,2423.92 L 2500.78,2423.92 L 2500.78,2599.24 L 2501.24,2600.73 L 2502.48,2606.9 L 2503.08,2613.04 L 2503.24,2616.13 L 2503.24,2690.58 L 2665.07,2852.42 L 2667.15,2854.71 L 2671.06,2859.48 L 2674.49,2864.61 L 2677.4,2870.05 L 2679.77,2875.76 L 2681.56,2881.66 L 2682.76,2887.72 L 2683.37,2893.86 L 2683.52,2896.95 L 2683.52,2948.47 L 2755.66,3020.61 L 2757.87,3023.06 L 2766.16,3033.3 L 2769.74,3038.81 L 2775.72,3050.54 L 2777.06,3053.55 L 2778.08,3056.69 L 2781.48,3069.41 L 2782.17,3072.63 L 2782.51,3075.91 L 2783.2,3089.06 L 2783.02,3092.5 L 3031.48,3340.97 L 3240.12,3340.97 L 3243.21,3341.12 L 3249.35,3341.73 L 3255.4,3342.93 L 3261.31,3344.72 L 3267.02,3347.09 L 3272.46,3350 L 3277.59,3353.42 L 3282.36,3357.34 L 3284.65,3359.42 L 3541.3,3616.06 L 3543.37,3618.35 L 3547.29,3623.13 L 3550.72,3628.25 L 3553.63,3633.7 L 3555.99,3639.41 L 3557.79,3645.31 L 3558.99,3651.36 L 3559.59,3657.51 L 3559.75,3660.6 L 3559.75,3893.74 L 3559.53,3897.39 L 3558.96,3902.29 L 3558.96,3912.89 L 3563.19,3916.91 L 3567.34,3921.74 L 3574.27,3931.7 L 3577.37,3937.28 L 3582.16,3948.43 L 3584.06,3954.51 L 3586.51,3966.4 L 3587.15,3972.66 L 3587.46,4094.93 L 3587.3,4098.2 L 3586.07,4110.27 L 3584.78,4116.51 L 3581.15,4128.09 L 3578.64,4133.95 L 3572.75,4144.56 L 3569.11,4149.79 L 3561.2,4159 L 3556.59,4163.39 L 3546.99,4170.82 L 3541.58,4174.19 L 3530.68,4179.54 L 3524.71,4181.75 L 3512.96,4184.79 L 3506.65,4185.76 L 3494.53,4186.37 L 3488.17,4186.05 L 3476.18,4184.21 L 3470.01,4182.61 L 3458.62,4178.4 L 3452.91,4175.59 L 3442.6,4169.17 L 3437.56,4165.27 L 3428.77,4156.91 L 3424.62,4152.08 L 3417.68,4142.11 L 3414.59,4136.54 L 3409.8,4125.38 L 3407.9,4119.31 L 3405.45,4107.42 L 3404.81,4101.16 L 3404.5,3978.89 L 3404.66,3975.62 L 3405.89,3963.54 L 3407.17,3957.31 L 3410.81,3945.73 L 3413.32,3939.87 L 3419.21,3929.26 L 3422.85,3924.03 L 3430.75,3914.82 L 3433,3912.7 L 3433,3894.53 L 3433.21,3890.88 L 3433.78,3885.96 L 3433.78,3686.69 L 3214.03,3466.93 L 3023.62,3466.93 z " style="fill-opacity:1.000000;fill:rgb(60,84,236);stroke:rgb(0,0,0);stroke-width:2"/></g>
<g fill-rule="evenodd"><path d="M 1110.46,4104.61 L 1786.97,3428.1 L 1789.26,3426.02 L 1794.04,3422.11 L 1799.16,3418.68 L 1804.61,3415.77 L 1810.32,3413.4 L 1816.22,3411.61 L 1822.27,3410.41 L 1828.42,3409.8 L 1831.51,3409.65 L 2095.54,3409.65 L 2096.5,3406.08 L 2101.22,3393.79 L 2102.56,3390.78 L 2104.21,3387.92 L 2111.38,3376.88 L 2115.52,3371.76 L 2124.83,3362.46 L 2129.95,3358.31 L 2140.99,3351.14 L 2143.85,3349.49 L 2146.86,3348.15 L 2159.15,3343.43 L 2165.51,3341.73 L 2178.51,3339.67 L 2185.08,3339.33 L 2198.23,3340.01 L 2201.51,3340.36 L 2204.74,3341.04 L 2217.46,3344.45 L 2220.59,3345.47 L 2223.61,3346.81 L 2235.34,3352.79 L 2240.85,3356.37 L 2251.08,3364.65 L 2253.54,3366.86 L 2331.47,3444.8 L 2333.68,3447.25 L 2341.97,3457.49 L 2345.55,3463 L 2351.53,3474.73 L 2352.87,3477.74 L 2353.89,3480.88 L 2357.29,3493.6 L 2357.98,3496.82 L 2358.32,3500.1 L 2359.01,3513.25 L 2358.67,3519.82 L 2356.61,3532.83 L 2354.9,3539.18 L 2350.19,3551.48 L 2348.85,3554.49 L 2347.2,3557.35 L 2340.03,3568.39 L 2335.88,3573.5 L 2326.57,3582.81 L 2321.46,3586.96 L 2310.41,3594.13 L 2307.56,3595.78 L 2304.55,3597.12 L 2292.25,3601.84 L 2285.9,3603.54 L 2272.89,3605.6 L 2266.32,3605.94 L 2253.17,3605.25 L 2249.89,3604.91 L 2246.67,3604.23 L 2233.95,3600.82 L 2230.81,3599.8 L 2227.8,3598.46 L 2216.07,3592.48 L 2210.56,3588.9 L 2200.32,3580.61 L 2197.87,3578.4 L 2155.08,3535.61 L 1857.6,3535.61 L 1199.53,4193.68 L 1199.53,4507.69 L 1199.38,4510.78 L 1198.77,4516.93 L 1197.57,4522.98 L 1195.77,4528.89 L 1193.41,4534.59 L 1190.5,4540.04 L 1187.07,4545.17 L 1183.15,4549.94 L 1181.08,4552.23 L 1017.35,4715.96 L 1018.87,4725.58 L 1019.22,4728.86 L 1019.22,4732.16 L 1018.36,4748.59 L 1017.33,4755.09 L 1013.07,4770.99 L 1012.05,4774.13 L 1010.71,4777.14 L 1003.24,4791.8 L 999.652,4797.32 L 989.294,4810.11 L 987.089,4812.56 L 920.286,4879.37 L 917.837,4881.57 L 905.045,4891.93 L 899.526,4895.51 L 884.862,4902.99 L 881.849,4904.33 L 878.713,4905.35 L 862.816,4909.61 L 856.315,4910.64 L 839.878,4911.5 L 836.579,4911.5 L 833.301,4911.15 L 817.046,4908.58 L 810.687,4906.87 L 795.322,4900.97 L 792.31,4899.63 L 789.455,4897.98 L 775.653,4889.02 L 770.54,4884.88 L 758.902,4873.24 L 754.759,4868.13 L 745.794,4854.32 L 744.147,4851.47 L 742.805,4848.45 L 736.908,4833.09 L 735.204,4826.73 L 732.629,4810.48 L 732.285,4807.2 L 732.285,4803.9 L 733.147,4787.47 L 733.491,4784.19 L 734.176,4780.96 L 738.438,4765.06 L 740.795,4758.92 L 748.266,4744.26 L 749.916,4741.4 L 751.855,4738.73 L 762.214,4725.94 L 764.417,4723.5 L 831.22,4656.69 L 833.665,4654.49 L 846.453,4644.13 L 849.123,4642.19 L 851.98,4640.54 L 866.645,4633.07 L 872.786,4630.71 L 888.684,4626.45 L 891.907,4625.77 L 895.188,4625.42 L 911.624,4624.56 L 914.921,4624.56 L 918.2,4624.91 L 928.455,4626.53 L 929.483,4625.69 L 1073.57,4481.6 L 1073.57,4230.58 L 448.874,4230.58 L 446.561,4235.12 L 444.911,4237.97 L 442.973,4240.64 L 432.615,4253.43 L 430.409,4255.88 L 363.609,4322.68 L 361.159,4324.89 L 348.368,4335.25 L 342.847,4338.83 L 328.181,4346.31 L 325.168,4347.65 L 322.034,4348.67 L 306.137,4352.92 L 299.636,4353.95 L 283.201,4354.82 L 279.901,4354.82 L 276.624,4354.47 L 260.369,4351.9 L 254.01,4350.19 L 238.645,4344.29 L 232.784,4341.31 L 218.98,4332.34 L 216.313,4330.41 L 213.861,4328.2 L 202.223,4316.56 L 200.015,4314.11 L 198.078,4311.44 L 189.115,4297.64 L 186.13,4291.78 L 180.231,4276.41 L 178.527,4270.05 L 175.952,4253.8 L 175.606,4250.52 L 175.606,4247.22 L 176.467,4230.79 L 177.497,4224.29 L 181.757,4208.39 L 182.774,4205.25 L 184.116,4202.24 L 191.589,4187.58 L 195.174,4182.05 L 205.53,4169.26 L 207.736,4166.82 L 274.536,4100.01 L 276.986,4097.81 L 289.776,4087.45 L 295.295,4083.87 L 309.958,4076.39 L 316.103,4074.03 L 332,4069.77 L 335.224,4069.09 L 338.505,4068.74 L 354.942,4067.88 L 358.24,4067.88 L 361.519,4068.23 L 377.774,4070.8 L 384.129,4072.5 L 399.495,4078.4 L 405.36,4081.39 L 419.163,4090.35 L 421.831,4092.29 L 424.282,4094.5 L 434.401,4104.61 L 1110.46,4104.61 z " style="fill-opacity:1.000000;fill:rgb(24,219,92);stroke:rgb(0,0,0);stroke-width:2"/></g>
</svg>
