<?xml version="1.0" standalone="no"?>
<!DOCTYPE svg PUBLIC "-//W3C//DTD SVG 1.1//EN"
"http://www.w3.org/Graphics/SVG/1.1/DTD/svg11.dtd">
<svg width="5275" height="4997" viewBox="0 0 5275 4997" version="1.1"
xmlns="http://www.w3.org/2000/svg"
xmlns:xlink="http://www.w3.org/1999/xlink">
<g fill-rule="evenodd"><path d="M 2782.4,2296.4 L 2826.94,2251.87 L 2837.81,2243.07 L 2850.27,2236.71 L 2863.78,2233.09 L 2877.75,2232.36 L 2891.57,2234.55 L 2904.63,2239.56 L 2916.36,2247.18 L 2926.25,2257.07 L 2933.88,2268.8 L 2938.89,2281.86 L 2941.08,2295.68 L 2940.35,2309.65 L 2936.72,2323.16 L 2930.37,2335.63 L 2921.57,2346.5 L 2877.04,2391.04 L 2866.16,2399.84 L 2853.7,2406.19 L 2840.19,2409.81 L 2826.21,2410.54 L 2812.4,2408.35 L 2799.34,2403.34 L 2787.61,2395.72 L 2777.72,2385.83 L 2770.1,2374.1 L 2765.08,2361.04 L 2762.89,2347.22 L 2763.63,2333.25 L 2767.25,2319.74 L 2773.6,2307.27 L 2782.4,2296.4 z " style="fill-opacity:1.000000;fill:rgb(103,198,105);stroke:rgb(0,0,0);stroke-width:2"/></g>
<g fill-rule="evenodd"><path d="M 4721.77,3158.98 L 4931.71,3158.98 L 4938.25,3159.67 L 4944.51,3161.71 L 4950.22,3165 L 4955.11,3169.4 L 4958.98,3174.73 L 4961.65,3180.74 L 4963.02,3187.18 L 4963.02,3193.77 L 4961.65,3200.21 L 4958.98,3206.22 L 4955.11,3211.55 L 4950.22,3215.95 L 4944.51,3219.24 L 4938.25,3221.28 L 4931.71,3221.97 L 4721.77,3221.97 L 4715.22,3221.28 L 4708.96,3219.24 L 4703.26,3215.95 L 4698.37,3211.55 L 4694.5,3206.22 L 4691.82,3200.21 L 4690.45,3193.77 L 4690.45,3187.18 L 4691.82,3180.74 L 4694.5,3174.73 L 4698.37,3169.4 L 4703.26,3165 L 4708.96,3161.71 L 4715.22,3159.67 L 4721.77,3158.98 z " style="fill-opacity:1.000000;fill:rgb(115,81,255);stroke:rgb(0,0,0);stroke-width:2"/></g>
<g fill-rule="evenodd"><path d="M 2561.39,556.299 L 2515.71,556.371 L 2510.86,555.997 L 2506.13,554.879 L 2501.63,553.048 L 2471.64,538.052 L 2467.31,535.433 L 2463.45,532.153 L 2448.46,517.158 L 2445.18,513.305 L 2442.56,508.974 L 2427.57,478.983 L 2425.73,474.48 L 2424.62,469.749 L 2424.24,464.899 L 2424.24,374.927 L 2424.62,370.082 L 2425.73,365.351 L 2427.57,360.846 L 2442.56,330.855 L 2445.18,326.528 L 2448.46,322.673 L 2463.45,307.675 L 2467.31,304.396 L 2471.64,301.774 L 2501.63,286.779 L 2506.13,284.947 L 2510.86,283.83 L 2515.71,283.454 L 2560.7,283.454 L 2565.55,283.83 L 2570.28,284.947 L 2574.78,286.779 L 2604.77,301.774 L 2609.1,304.394 L 2612.96,307.675 L 2627.95,322.673 L 2631.23,326.526 L 2633.85,330.855 L 2648.85,360.846 L 2650.68,365.349 L 2651.8,370.08 L 2652.17,374.927 L 2652.17,464.899 L 2651.8,469.749 L 2650.68,474.48 L 2648.85,478.983 L 2633.85,508.974 L 2631.23,513.305 L 2627.95,517.158 L 2612.96,532.153 L 2609.1,535.433 L 2604.77,538.052 L 2573.51,553.65 L 2567.25,555.683 L 2561.39,556.299M 2553.27,493.39 L 2572.04,484.006 L 2579.8,476.237 L 2589.19,457.465 L 2589.19,382.364 L 2579.8,363.591 L 2572.04,355.821 L 2553.26,346.434 L 2523.15,346.434 L 2504.38,355.819 L 2496.61,363.589 L 2487.22,382.36 L 2487.22,457.469 L 2496.61,476.237 L 2504.38,484.006 L 2523.14,493.39 L 2553.27,493.39 z " style="fill-opacity:1.000000;fill:rgb(74,236,41);stroke:rgb(0,0,0);stroke-width:2"/></g>
<g fill-rule="evenodd"><path d="M 1368.36,466.399 L 1263.8,466.399 L 1240.98,534.841 L 1238.26,540.836 L 1234.35,546.131 L 1229.42,550.5 L 1223.69,553.748 L 1217.42,555.733 L 1210.87,556.371 L 1204.32,555.633 L 1198.08,553.55 L 1192.4,550.216 L 1187.54,545.773 L 1183.71,540.418 L 1181.08,534.383 L 1179.77,527.932 L 1179.82,521.349 L 1181.23,514.922 L 1286.2,200.018 L 1288.9,194.06 L 1292.78,188.788 L 1297.66,184.431 L 1303.34,181.178 L 1309.57,179.166 L 1316.08,178.488 L 1322.59,179.168 L 1328.81,181.178 L 1334.49,184.431 L 1339.37,188.788 L 1343.25,194.062 L 1345.95,200.02 L 1451.02,515.406 L 1453.75,509.136 L 1457.62,503.81 L 1462.52,499.405 L 1468.22,496.114 L 1474.48,494.08 L 1481.03,493.39 L 1503.59,493.39 L 1517.54,486.416 L 1524.51,472.46 L 1524.51,346.434 L 1481.03,346.434 L 1474.48,345.747 L 1468.22,343.713 L 1462.52,340.422 L 1457.62,336.016 L 1453.75,330.689 L 1451.08,324.676 L 1449.71,318.237 L 1449.71,311.653 L 1451.08,305.214 L 1453.75,299.199 L 1457.62,293.874 L 1462.52,289.469 L 1468.22,286.177 L 1474.48,284.144 L 1481.03,283.454 L 1524.51,283.454 L 1524.51,209.977 L 1525.2,203.43 L 1527.24,197.169 L 1530.53,191.468 L 1534.93,186.575 L 1540.26,182.706 L 1546.27,180.028 L 1552.71,178.66 L 1559.3,178.66 L 1565.73,180.028 L 1571.75,182.706 L 1577.07,186.575 L 1581.48,191.468 L 1584.77,197.169 L 1586.8,203.43 L 1587.49,209.977 L 1587.49,283.454 L 1600.99,283.454 L 1607.54,284.144 L 1613.8,286.177 L 1619.5,289.469 L 1624.39,293.874 L 1628.26,299.199 L 1630.94,305.214 L 1632.31,311.653 L 1632.31,318.237 L 1630.94,324.676 L 1628.26,330.689 L 1624.39,336.016 L 1619.5,340.422 L 1613.8,343.713 L 1607.54,345.747 L 1600.99,346.434 L 1587.49,346.434 L 1587.49,479.895 L 1587.12,484.744 L 1586,489.475 L 1584.17,493.978 L 1569.17,523.969 L 1566.55,528.3 L 1563.27,532.153 L 1559.42,535.433 L 1555.09,538.052 L 1525.1,553.048 L 1520.59,554.879 L 1515.86,555.997 L 1511.02,556.371 L 1481.03,556.371 L 1474.48,555.683 L 1468.22,553.65 L 1462.52,550.358 L 1457.62,545.953 L 1453.75,540.626 L 1451.04,534.441 L 1448.43,540.42 L 1444.6,545.775 L 1439.74,550.218 L 1434.07,553.552 L 1427.82,555.633 L 1421.28,556.371 L 1414.73,555.733 L 1408.45,553.746 L 1402.73,550.496 L 1397.8,546.129 L 1393.89,540.832 L 1391.17,534.839 L 1368.36,466.399M 1347.36,403.418 L 1316.08,309.557 L 1284.79,403.418 L 1347.36,403.418 z " style="fill-opacity:1.000000;fill:rgb(205,186,171);stroke:rgb(0,0,0);stroke-width:2"/></g>
<g fill-rule="evenodd"><path d="M 789.736,493.39 L 789.736,391.422 L 716.257,391.422 L 709.709,390.735 L 703.448,388.701 L 697.747,385.41 L 692.854,381.004 L 688.984,375.677 L 686.307,369.664 L 684.939,363.225 L 684.939,356.641 L 686.307,350.202 L 688.984,344.187 L 692.854,338.862 L 697.747,334.457 L 703.448,331.165 L 709.709,329.132 L 716.257,328.442 L 789.736,328.442 L 789.736,241.467 L 671.271,241.467 L 664.723,240.779 L 658.462,238.746 L 652.761,235.454 L 647.868,231.049 L 643.998,225.722 L 641.321,219.709 L 639.953,213.27 L 639.953,206.685 L 641.321,200.246 L 643.998,194.231 L 647.868,188.906 L 652.761,184.501 L 658.462,181.21 L 664.723,179.176 L 671.271,178.486 L 821.227,178.486 L 827.37,179.092 L 833.277,180.884 L 838.722,183.795 L 843.493,187.711 L 847.408,192.482 L 850.32,197.927 L 852.111,203.834 L 852.717,209.977 L 852.717,524.881 L 852.111,531.026 L 850.32,536.933 L 847.408,542.378 L 843.493,547.149 L 838.722,551.064 L 833.277,553.976 L 827.37,555.767 L 821.227,556.371 L 671.271,556.371 L 664.723,555.683 L 658.462,553.65 L 652.761,550.358 L 647.868,545.953 L 643.998,540.626 L 641.321,534.613 L 639.953,528.174 L 639.953,521.589 L 641.321,515.15 L 643.998,509.136 L 647.868,503.81 L 652.761,499.405 L 658.462,496.114 L 664.723,494.08 L 671.271,493.39 L 789.736,493.39 z " style="fill-opacity:1.000000;fill:rgb(242,251,227);stroke:rgb(0,0,0);stroke-width:2"/></g>
<g fill-rule="evenodd"><path d="M 1074.65,556.371 L 1016.17,556.371 L 1011.32,555.997 L 1006.59,554.879 L 1002.08,553.048 L 972.094,538.052 L 967.765,535.433 L 963.911,532.155 L 948.914,517.16 L 945.633,513.305 L 943.013,508.974 L 928.018,478.983 L 926.186,474.48 L 925.068,469.749 L 924.694,464.899 L 924.694,374.927 L 925.068,370.082 L 926.186,365.351 L 928.018,360.846 L 943.013,330.855 L 945.633,326.526 L 948.912,322.671 L 963.909,307.673 L 967.763,304.394 L 972.094,301.774 L 1002.08,286.779 L 1006.59,284.947 L 1011.32,283.83 L 1016.17,283.454 L 1076.15,283.454 L 1081,283.83 L 1085.73,284.947 L 1091.25,287.291 L 1096.41,284.995 L 1102.85,283.628 L 1109.43,283.628 L 1115.87,284.995 L 1121.89,287.673 L 1127.21,291.542 L 1131.62,296.435 L 1134.91,302.136 L 1136.94,308.397 L 1137.63,314.944 L 1137.63,629.85 L 1136.94,636.399 L 1134.91,642.66 L 1131.62,648.361 L 1127.21,653.254 L 1121.89,657.123 L 1115.87,659.801 L 1109.43,661.169 L 1102.85,661.169 L 1096.41,659.801 L 1090.39,657.123 L 1085.07,653.254 L 1080.66,648.361 L 1077.37,642.66 L 1075.34,636.399 L 1074.65,629.85 L 1074.65,556.371M 997.058,476.235 L 1004.83,484.004 L 1023.6,493.39 L 1068.72,493.39 L 1074.65,490.425 L 1074.65,349.404 L 1068.71,346.434 L 1023.6,346.434 L 1004.83,355.821 L 997.06,363.591 L 987.675,382.36 L 987.675,457.469 L 997.058,476.235 z " style="fill-opacity:1.000000;fill:rgb(70,124,194);stroke:rgb(0,0,0);stroke-width:2"/></g>
<g fill-rule="evenodd"><path d="M 2275.78,431.253 L 2321.11,304.354 L 2323.96,298.421 L 2327.98,293.208 L 2332.99,288.947 L 2338.79,285.819 L 2345.11,283.968 L 2351.67,283.468 L 2358.19,284.343 L 2364.39,286.559 L 2370,290.012 L 2374.76,294.558 L 2378.48,299.993 L 2380.98,306.082 L 2382.16,312.556 L 2381.97,319.137 L 2380.42,325.536 L 2305.44,535.473 L 2302.67,541.28 L 2298.78,546.401 L 2293.93,550.622 L 2288.32,553.772 L 2282.18,555.715 L 2275.78,556.371 L 2269.39,555.715 L 2263.25,553.772 L 2257.65,550.622 L 2252.79,546.399 L 2248.9,541.278 L 2246.13,535.473 L 2171.15,325.536 L 2169.6,319.139 L 2169.41,312.558 L 2170.59,306.084 L 2173.09,299.995 L 2176.81,294.558 L 2181.57,290.014 L 2187.17,286.559 L 2193.37,284.345 L 2199.9,283.468 L 2206.46,283.968 L 2212.78,285.819 L 2218.57,288.945 L 2223.59,293.208 L 2227.61,298.419 L 2230.46,304.354 L 2275.78,431.253 z " style="fill-opacity:1.000000;fill:rgb(84,248,27);stroke:rgb(0,0,0);stroke-width:2"/></g>
<g fill-rule="evenodd"><path d="M 2049.35,493.39 L 2049.35,391.422 L 1975.88,391.422 L 1969.33,390.735 L 1963.07,388.701 L 1957.37,385.41 L 1952.47,381.004 L 1948.6,375.677 L 1945.93,369.664 L 1944.56,363.225 L 1944.56,356.641 L 1945.93,350.202 L 1948.6,344.187 L 1952.47,338.862 L 1957.37,334.457 L 1963.07,331.165 L 1969.33,329.132 L 1975.88,328.442 L 2049.35,328.442 L 2049.35,241.467 L 1930.89,241.467 L 1924.34,240.779 L 1918.08,238.746 L 1912.38,235.454 L 1907.49,231.049 L 1903.62,225.722 L 1900.94,219.709 L 1899.57,213.27 L 1899.57,206.685 L 1900.94,200.246 L 1903.62,194.231 L 1907.49,188.906 L 1912.38,184.501 L 1918.08,181.21 L 1924.34,179.176 L 1930.89,178.486 L 2080.84,178.486 L 2086.99,179.092 L 2092.89,180.884 L 2098.34,183.795 L 2103.11,187.711 L 2107.03,192.482 L 2109.94,197.927 L 2111.73,203.834 L 2112.34,209.977 L 2112.34,524.881 L 2111.73,531.026 L 2109.94,536.933 L 2107.03,542.378 L 2103.11,547.149 L 2098.34,551.064 L 2092.89,553.976 L 2086.99,555.767 L 2080.84,556.371 L 1930.89,556.371 L 1924.34,555.683 L 1918.08,553.65 L 1912.38,550.358 L 1907.49,545.953 L 1903.62,540.626 L 1900.94,534.613 L 1899.57,528.174 L 1899.57,521.589 L 1900.94,515.15 L 1903.62,509.136 L 1907.49,503.81 L 1912.38,499.405 L 1918.08,496.114 L 1924.34,494.08 L 1930.89,493.39 L 2049.35,493.39 z " style="fill-opacity:1.000000;fill:rgb(232,231,141);stroke:rgb(0,0,0);stroke-width:2"/></g>
<g fill-rule="evenodd"><path d="M 4901.72,3789.84 L 4893.99,3797.57 L 4890.14,3800.84 L 4885.81,3803.46 L 4855.82,3818.46 L 4851.31,3820.29 L 4846.58,3821.41 L 4841.73,3821.78 L 4781.75,3821.78 L 4776.9,3821.41 L 4772.17,3820.29 L 4767.67,3818.46 L 4737.68,3803.46 L 4733.35,3800.84 L 4729.49,3797.57 L 4714.5,3782.57 L 4711.22,3778.72 L 4708.6,3774.39 L 4693.6,3744.4 L 4691.77,3739.89 L 4690.65,3735.16 L 4690.28,3730.31 L 4690.28,3670.33 L 4690.65,3665.48 L 4691.77,3660.75 L 4693.6,3656.25 L 4708.6,3626.26 L 4711.22,3621.93 L 4714.5,3618.08 L 4729.49,3603.08 L 4733.35,3599.8 L 4737.68,3597.18 L 4767.67,3582.18 L 4772.17,3580.35 L 4776.9,3579.23 L 4781.75,3578.86 L 4841.73,3578.86 L 4846.58,3579.23 L 4851.31,3580.35 L 4855.82,3582.18 L 4885.81,3597.18 L 4890.14,3599.8 L 4893.99,3603.08 L 4901.71,3610.8 L 4909.44,3603.08 L 4913.29,3599.8 L 4917.62,3597.18 L 4947.61,3582.18 L 4952.12,3580.35 L 4956.85,3579.23 L 4961.7,3578.86 L 4976.69,3578.86 L 4981.54,3579.23 L 4986.27,3580.35 L 4990.78,3582.18 L 5020.77,3597.18 L 5025.1,3599.8 L 5028.95,3603.08 L 5043.95,3618.08 L 5047.23,3621.93 L 5049.85,3626.26 L 5064.84,3656.25 L 5066.67,3660.75 L 5067.79,3665.48 L 5068.17,3670.33 L 5068.17,3730.31 L 5067.79,3735.16 L 5066.67,3739.89 L 5064.84,3744.39 L 5049.85,3774.39 L 5047.23,3778.72 L 5043.95,3782.57 L 5028.95,3797.57 L 5025.1,3800.84 L 5020.77,3803.46 L 4990.78,3818.46 L 4986.27,3820.29 L 4981.54,3821.41 L 4976.69,3821.78 L 4961.7,3821.78 L 4956.85,3821.41 L 4952.12,3820.29 L 4947.61,3818.46 L 4917.62,3803.46 L 4913.29,3800.84 L 4909.44,3797.57 L 4901.72,3789.84M 4753.26,3677.76 L 4753.26,3722.88 L 4762.65,3741.65 L 4770.41,3749.42 L 4789.18,3758.8 L 4834.3,3758.8 L 4853.07,3749.42 L 4860.84,3741.65 L 4870.23,3722.88 L 4870.23,3677.77 L 4860.84,3658.99 L 4853.07,3651.22 L 4834.3,3641.84 L 4789.19,3641.84 L 4770.42,3651.22 L 4762.65,3658.99 L 4753.26,3677.76M 4988.03,3749.42 L 4995.8,3741.65 L 5005.19,3722.88 L 5005.19,3677.77 L 4995.8,3658.99 L 4988.03,3651.22 L 4969.13,3641.84 L 4950.36,3651.22 L 4942.59,3658.99 L 4933.21,3677.76 L 4933.21,3722.88 L 4942.59,3741.65 L 4950.36,3749.42 L 4969.13,3758.8 L 4988.03,3749.42 z " style="fill-opacity:1.000000;fill:rgb(118,90,46);stroke:rgb(0,0,0);stroke-width:2"/></g>
<g fill-rule="evenodd"><path d="M 4975.65,3185.85 L 4976.73,3180.74 L 4977.59,3178.43 L 4980.5,3172.98 L 4984.42,3168.21 L 4999.41,3153.21 L 5004.18,3149.3 L 5009.63,3146.39 L 5015.54,3144.6 L 5021.68,3143.99 L 5027.82,3144.6 L 5033.73,3146.39 L 5039.18,3149.3 L 5043.95,3153.21 L 5058.94,3168.21 L 5062.86,3172.98 L 5065.77,3178.43 L 5067.09,3182.32 L 5067.56,3184.33 L 5068.17,3190.48 L 5067.56,3196.62 L 5066.07,3201.76 L 5063.08,3207.63 L 5058.94,3212.74 L 5043.95,3227.74 L 5039.17,3231.66 L 5033.73,3234.57 L 5027.82,3236.36 L 5021.68,3236.96 L 5015.54,3236.36 L 5009.63,3234.57 L 5004.18,3231.65 L 4999.41,3227.74 L 4983.28,3211.55 L 4979.41,3206.22 L 4976.73,3200.21 L 4975.37,3193.77 L 4975.19,3190.48 L 4975.65,3185.85 z " style="fill-opacity:1.000000;fill:rgb(99,51,159);stroke:rgb(0,0,0);stroke-width:2"/></g>
<g fill-rule="evenodd"><path d="M 4963.2,3443.9 L 5036.68,3443.9 L 5043.22,3444.59 L 5049.48,3446.62 L 5055.18,3449.91 L 5060.08,3454.32 L 5063.95,3459.64 L 5066.62,3465.66 L 5067.99,3472.1 L 5067.99,3478.68 L 5066.62,3485.12 L 5063.95,3491.13 L 5060.08,3496.46 L 5055.18,3500.87 L 5049.48,3504.16 L 5043.22,3506.19 L 5036.68,3506.88 L 4721.77,3506.88 L 4715.22,3506.19 L 4708.96,3504.16 L 4703.26,3500.87 L 4698.37,3496.46 L 4694.5,3491.13 L 4691.82,3485.12 L 4690.45,3478.68 L 4690.45,3472.1 L 4691.82,3465.66 L 4694.11,3460.51 L 4691.77,3454.98 L 4690.65,3450.25 L 4690.28,3445.4 L 4690.28,3385.41 L 4690.65,3380.57 L 4691.77,3375.84 L 4693.6,3371.33 L 4708.6,3341.34 L 4711.22,3337.01 L 4714.5,3333.16 L 4729.49,3318.16 L 4733.35,3314.88 L 4737.68,3312.26 L 4767.67,3297.27 L 4772.17,3295.44 L 4776.9,3294.32 L 4781.75,3293.94 L 4871.72,3293.94 L 4876.57,3294.32 L 4881.3,3295.44 L 4885.81,3297.27 L 4915.8,3312.26 L 4920.13,3314.88 L 4923.98,3318.16 L 4938.98,3333.16 L 4942.26,3337.01 L 4944.88,3341.34 L 4959.87,3371.33 L 4961.7,3375.84 L 4962.82,3380.57 L 4963.2,3385.41 L 4963.2,3443.9M 4756.23,3443.9 L 4897.25,3443.9 L 4900.22,3437.96 L 4900.22,3392.85 L 4890.83,3374.08 L 4883.06,3366.31 L 4864.29,3356.92 L 4789.19,3356.92 L 4770.41,3366.31 L 4762.65,3374.08 L 4753.26,3392.85 L 4753.26,3437.96 L 4756.23,3443.9 z " style="fill-opacity:1.000000;fill:rgb(201,154,102);stroke:rgb(0,0,0);stroke-width:2"/></g>
<g fill-rule="evenodd"><path d="M 4760.24,3002.05 L 4774.19,3009.03 L 4900.22,3009.03 L 4900.22,2965.54 L 4900.9,2959 L 4902.94,2952.74 L 4906.23,2947.03 L 4910.63,2942.14 L 4915.96,2938.27 L 4921.97,2935.59 L 4928.41,2934.23 L 4935,2934.23 L 4941.44,2935.59 L 4947.45,2938.27 L 4952.78,2942.14 L 4957.18,2947.03 L 4960.47,2952.74 L 4962.51,2959 L 4963.2,2965.54 L 4963.2,3009.03 L 5036.68,3009.03 L 5043.22,3009.72 L 5049.48,3011.75 L 5055.18,3015.04 L 5060.08,3019.45 L 5063.95,3024.77 L 5066.62,3030.79 L 5067.99,3037.23 L 5067.99,3043.81 L 5066.62,3050.25 L 5063.95,3056.26 L 5060.08,3061.59 L 5055.18,3066 L 5049.48,3069.29 L 5043.22,3071.32 L 5036.68,3072.01 L 4963.2,3072.01 L 4963.2,3085.51 L 4962.51,3092.05 L 4960.47,3098.32 L 4957.18,3104.02 L 4952.78,3108.91 L 4947.45,3112.78 L 4941.44,3115.46 L 4935,3116.82 L 4928.41,3116.82 L 4921.97,3115.46 L 4915.96,3112.78 L 4910.63,3108.91 L 4906.23,3104.02 L 4902.94,3098.32 L 4900.9,3092.05 L 4900.22,3085.51 L 4900.22,3072.01 L 4766.76,3072.01 L 4761.91,3071.64 L 4757.18,3070.52 L 4752.67,3068.69 L 4722.68,3053.69 L 4718.35,3051.07 L 4714.5,3047.79 L 4711.22,3043.94 L 4708.6,3039.61 L 4693.6,3009.62 L 4691.77,3005.12 L 4690.65,3000.38 L 4690.28,2995.53 L 4690.28,2965.54 L 4690.97,2959 L 4693,2952.74 L 4696.29,2947.03 L 4700.7,2942.14 L 4706.02,2938.27 L 4712.04,2935.59 L 4718.48,2934.23 L 4725.06,2934.23 L 4731.5,2935.59 L 4737.51,2938.27 L 4742.84,2942.14 L 4747.25,2947.03 L 4750.54,2952.74 L 4752.57,2959 L 4753.26,2965.54 L 4753.26,2988.1 L 4760.24,3002.05 z " style="fill-opacity:1.000000;fill:rgb(50,13,183);stroke:rgb(0,0,0);stroke-width:2"/></g>
<g fill-rule="evenodd"><path d="M 2829.12,493.39 L 2829.12,209.977 L 2829.81,203.43 L 2831.84,197.169 L 2835.13,191.468 L 2839.54,186.575 L 2844.86,182.706 L 2850.88,180.028 L 2857.31,178.66 L 2863.9,178.66 L 2870.34,180.028 L 2876.35,182.706 L 2881.68,186.575 L 2886.08,191.468 L 2889.38,197.169 L 2891.41,203.43 L 2892.1,209.977 L 2892.1,524.881 L 2891.49,531.026 L 2889.7,536.933 L 2886.79,542.378 L 2882.87,547.149 L 2878.1,551.064 L 2872.66,553.976 L 2866.75,555.767 L 2860.61,556.371 L 2710.65,556.371 L 2704.11,555.683 L 2697.85,553.65 L 2692.14,550.358 L 2687.25,545.953 L 2683.38,540.626 L 2680.7,534.613 L 2679.34,528.174 L 2679.34,521.589 L 2680.7,515.15 L 2683.38,509.136 L 2687.25,503.81 L 2692.14,499.405 L 2697.85,496.114 L 2704.11,494.08 L 2710.65,493.39 L 2829.12,493.39 z " style="fill-opacity:1.000000;fill:rgb(49,88,163);stroke:rgb(0,0,0);stroke-width:2"/></g>
<g fill-rule="evenodd"><path d="M 2099.57,2576.05 L 2177.51,2498.12 L 2288.84,2609.45 L 2210.91,2687.39 L 2099.57,2576.05 z " style="fill-opacity:1.000000;fill:rgb(90,37,93);stroke:rgb(0,0,0);stroke-width:2"/></g>
<g fill-rule="evenodd"><path d="M 473.988,4319.01 L 472.955,4328.83 L 469.903,4338.22 L 464.966,4346.77 L 458.359,4354.11 L 450.371,4359.92 L 441.348,4363.93 L 431.69,4365.99 L 421.816,4365.99 L 412.157,4363.93 L 403.137,4359.92 L 395.146,4354.11 L 388.54,4346.77 L 383.603,4338.22 L 380.551,4328.83 L 379.517,4319.01 L 380.551,4309.19 L 383.603,4299.8 L 388.54,4291.25 L 395.146,4283.91 L 403.135,4278.1 L 412.157,4274.09 L 421.816,4272.03 L 431.69,4272.03 L 441.348,4274.09 L 450.369,4278.1 L 458.359,4283.91 L 464.966,4291.25 L 469.903,4299.8 L 472.955,4309.19 L 473.988,4319.01 z " style="fill-opacity:1.000000;fill:rgb(5,23,88);stroke:rgb(0,0,0);stroke-width:2"/></g>
<g fill-rule="evenodd"><path d="M 752.329,4597.35 L 751.295,4607.17 L 748.244,4616.56 L 743.307,4625.11 L 736.7,4632.45 L 728.711,4638.26 L 719.689,4642.27 L 710.031,4644.32 L 700.156,4644.32 L 690.498,4642.27 L 681.478,4638.26 L 673.487,4632.45 L 666.88,4625.11 L 661.943,4616.56 L 658.892,4607.17 L 657.858,4597.35 L 658.892,4587.53 L 661.943,4578.14 L 666.88,4569.59 L 673.487,4562.25 L 681.476,4556.44 L 690.498,4552.43 L 700.156,4550.37 L 710.031,4550.37 L 719.689,4552.43 L 728.709,4556.44 L 736.7,4562.25 L 743.307,4569.59 L 748.244,4578.14 L 751.295,4587.53 L 752.329,4597.35 z " style="fill-opacity:1.000000;fill:rgb(233,94,212);stroke:rgb(0,0,0);stroke-width:2"/></g>
<g fill-rule="evenodd"><path d="M 354.006,2453.71 L 354.006,2193.91 L 613.8,2193.91 L 613.8,2453.71 L 354.006,2453.71 z " style="fill-opacity:1.000000;fill:rgb(171,178,205);stroke:rgb(0,0,0);stroke-width:2"/></g>
<g fill-rule="evenodd"><path d="M 354.006,1768.79 L 354.006,1509 L 613.8,1509 L 613.8,1768.79 L 354.006,1768.79 z " style="fill-opacity:1.000000;fill:rgb(198,155,180);stroke:rgb(0,0,0);stroke-width:2"/></g>
<g fill-rule="evenodd"><path d="M 3480.22,4686.38 L 3480.22,4426.59 L 3740.02,4426.59 L 3740.02,4686.38 L 3480.22,4686.38 z " style="fill-opacity:1.000000;fill:rgb(84,17,14);stroke:rgb(0,0,0);stroke-width:2"/></g>
<g fill-rule="evenodd"><path d="M 2795.31,4686.38 L 2795.31,4426.59 L 3055.1,4426.59 L 3055.1,4686.38 L 2795.31,4686.38 z " style="fill-opacity:1.000000;fill:rgb(130,116,65);stroke:rgb(0,0,0);stroke-width:2"/></g>
<g fill-rule="evenodd"><path d="M 2593.73,4168.74 L 2703.98,4058.49 L 2703.98,3926.68 L 2698.98,3925.62 L 2676.43,3915.58 L 2656.46,3901.07 L 2639.94,3882.72 L 2627.59,3861.34 L 2619.97,3837.86 L 2617.38,3813.31 L 2619.97,3788.76 L 2627.59,3765.28 L 2639.94,3743.9 L 2656.46,3725.55 L 2676.43,3711.04 L 2698.98,3701 L 2723.13,3695.87 L 2747.81,3695.87 L 2771.96,3701 L 2794.52,3711.04 L 2814.49,3725.55 L 2831.01,3743.9 L 2843.35,3765.28 L 2850.98,3788.76 L 2853.56,3813.31 L 2850.98,3837.86 L 2843.35,3861.34 L 2831.01,3882.72 L 2814.49,3901.07 L 2794.52,3915.58 L 2771.96,3925.62 L 2766.96,3926.68 L 2766.96,4071.53 L 2766.36,4077.68 L 2764.57,4083.58 L 2761.65,4089.03 L 2757.74,4093.8 L 2643.47,4208.06 L 2649.1,4215.33 L 2659.63,4236.78 L 2665.62,4259.91 L 2666.83,4283.78 L 2663.21,4307.39 L 2654.91,4329.8 L 2642.27,4350.08 L 2625.81,4367.4 L 2606.2,4381.05 L 2584.24,4390.47 L 2560.84,4395.28 L 2509.53,4395.88 L 2485.76,4393.47 L 2462.96,4386.31 L 2442.07,4374.72 L 2423.94,4359.15 L 2409.31,4340.26 L 2398.79,4318.81 L 2396.33,4309.29 L 1678.43,4309.29 L 1670.83,4329.8 L 1658.19,4350.08 L 1641.73,4367.4 L 1622.12,4381.05 L 1600.16,4390.47 L 1576.76,4395.28 L 1525.45,4395.88 L 1501.68,4393.47 L 1478.88,4386.31 L 1457.99,4374.72 L 1439.86,4359.15 L 1425.24,4340.26 L 1414.72,4318.81 L 1408.73,4295.68 L 1407.51,4271.81 L 1411.13,4248.2 L 1419.43,4225.79 L 1432.07,4205.51 L 1448.53,4188.2 L 1468.14,4174.55 L 1490.1,4165.12 L 1513.51,4160.31 L 1564.81,4159.71 L 1588.58,4162.12 L 1611.38,4169.28 L 1632.27,4180.87 L 1650.4,4196.44 L 1665.03,4215.33 L 1675.55,4236.78 L 1678.01,4246.31 L 2395.91,4246.31 L 2403.51,4225.79 L 2416.15,4205.51 L 2432.61,4188.2 L 2452.22,4174.55 L 2474.18,4165.12 L 2497.58,4160.31 L 2548.89,4159.71 L 2572.66,4162.12 L 2593.73,4168.74 z " style="fill-opacity:1.000000;fill:rgb(33,61,220);stroke:rgb(0,0,0);stroke-width:2"/></g>
<g fill-rule="evenodd"><path d="M 2544.14,1969.07 L 2605.38,1907.84 L 2700.01,2002.47 L 2533.01,2169.48 L 2438.38,2074.84 L 2499.61,2013.61 L 2223.53,1737.53 L 2219.92,1733.14 L 2127.26,1640.47 L 1426.26,1640.47 L 1420.11,1639.86 L 1414.2,1638.07 L 1408.76,1635.16 L 1403.99,1631.25 L 790.486,1017.75 L 779.914,1017.75 L 779.914,1143.71 L 465.01,1143.71 L 465.01,828.803 L 779.914,828.803 L 779.914,954.764 L 803.532,954.764 L 809.675,955.37 L 815.582,957.162 L 821.027,960.073 L 825.798,963.989 L 1439.3,1577.49 L 2140.3,1577.49 L 2146.45,1578.09 L 2152.35,1579.89 L 2157.8,1582.8 L 2162.57,1586.71 L 2268.06,1692.21 L 2271.67,1696.6 L 2544.14,1969.07 z " style="fill-opacity:1.000000;fill:rgb(135,112,233);stroke:rgb(0,0,0);stroke-width:2"/></g>
<g fill-rule="evenodd"><path d="M 761.019,2899.92 L 761.019,3617.82 L 781.534,3625.42 L 801.81,3638.06 L 819.129,3654.52 L 832.779,3674.13 L 842.201,3696.09 L 847.012,3719.49 L 847.618,3770.8 L 845.201,3794.57 L 838.048,3817.37 L 826.452,3838.26 L 810.887,3856.39 L 791.992,3871.01 L 770.542,3881.53 L 747.41,3887.52 L 723.548,3888.73 L 699.93,3885.12 L 677.524,3876.82 L 657.248,3864.18 L 639.929,3847.72 L 626.279,3828.11 L 616.857,3806.15 L 612.046,3782.74 L 611.44,3731.44 L 613.858,3707.67 L 621.01,3684.87 L 632.606,3663.98 L 648.172,3645.85 L 667.066,3631.22 L 688.516,3620.7 L 698.039,3618.24 L 698.039,2900.34 L 677.524,2892.74 L 657.248,2880.1 L 639.929,2863.64 L 626.279,2844.03 L 616.857,2822.07 L 612.046,2798.67 L 611.44,2747.36 L 613.858,2723.59 L 621.01,2700.79 L 632.606,2679.9 L 648.172,2661.77 L 667.066,2647.15 L 688.516,2636.62 L 711.648,2630.63 L 735.51,2629.42 L 759.128,2633.04 L 781.534,2641.34 L 801.81,2653.98 L 819.129,2670.44 L 832.663,2689.89 L 1173.66,2689.89 L 1179.03,2673.35 L 1191.37,2651.97 L 1207.89,2633.62 L 1227.87,2619.11 L 1250.42,2609.07 L 1274.57,2603.94 L 1299.25,2603.94 L 1323.4,2609.07 L 1345.95,2619.11 L 1365.93,2633.62 L 1382.45,2651.97 L 1394.79,2673.35 L 1402.42,2696.83 L 1405,2721.38 L 1402.42,2745.93 L 1394.79,2769.41 L 1382.45,2790.79 L 1365.93,2809.13 L 1345.95,2823.65 L 1323.4,2833.69 L 1299.25,2838.82 L 1274.57,2838.82 L 1250.42,2833.69 L 1227.87,2823.65 L 1207.89,2809.13 L 1191.37,2790.79 L 1179.03,2769.41 L 1173.66,2752.87 L 847.218,2752.87 L 847.618,2786.72 L 845.201,2810.49 L 838.048,2833.29 L 826.452,2854.18 L 810.887,2872.31 L 791.992,2886.93 L 770.542,2897.46 L 761.019,2899.92 z " style="fill-opacity:1.000000;fill:rgb(62,161,65);stroke:rgb(0,0,0);stroke-width:2"/></g>
<g fill-rule="evenodd"><path d="M 2204.07,1139.65 L 2186.91,1136 L 2156.84,1122.61 L 2130.21,1103.26 L 2108.18,1078.8 L 2091.72,1050.3 L 2081.55,1018.99 L 2078.11,986.255 L 2081.55,953.521 L 2091.72,922.214 L 2108.18,893.707 L 2130.21,869.246 L 2156.84,849.899 L 2186.91,836.509 L 2219.1,829.667 L 2252.02,829.667 L 2284.21,836.509 L 2314.29,849.899 L 2340.92,869.246 L 2362.94,893.707 L 2379.4,922.214 L 2389.57,953.521 L 2393.01,986.255 L 2389.57,1018.99 L 2379.4,1050.3 L 2362.94,1078.8 L 2340.92,1103.26 L 2314.29,1122.61 L 2284.21,1136 L 2267.05,1139.65 L 2267.05,1385.74 L 2928.57,2047.26 L 2932.49,2052.03 L 2935.4,2057.48 L 2937.19,2063.38 L 2937.8,2069.53 L 2937.8,2089.95 L 3174.01,2326.17 L 4247.8,2326.17 L 4253.94,2326.78 L 4259.85,2328.57 L 4265.3,2331.48 L 4270.07,2335.4 L 4525.14,2590.47 L 4529.06,2595.24 L 4531.97,2600.69 L 4533.76,2606.59 L 4534.36,2612.74 L 4534.36,3477.15 L 4533.76,3483.29 L 4531.97,3489.2 L 4529.06,3494.65 L 4525.14,3499.42 L 4246.23,3778.33 L 4246.23,4169.94 L 4372.19,4169.94 L 4372.19,4484.85 L 4057.28,4484.85 L 4057.28,4169.94 L 4183.25,4169.94 L 4183.25,3765.29 L 4183.85,3759.14 L 4185.64,3753.24 L 4188.55,3747.79 L 4192.47,3743.02 L 4471.38,3464.11 L 4471.38,2625.78 L 4234.76,2389.15 L 3160.97,2389.15 L 3154.83,2388.55 L 3148.92,2386.76 L 3143.48,2383.85 L 3138.71,2379.93 L 2884.04,2125.27 L 2880.12,2120.5 L 2877.21,2115.05 L 2875.42,2109.14 L 2874.82,2103 L 2874.82,2082.57 L 2213.29,1421.05 L 2209.38,1416.28 L 2206.47,1410.83 L 2204.67,1404.92 L 2204.07,1398.78 L 2204.07,1139.65 z " style="fill-opacity:1.000000;fill:rgb(225,252,103);stroke:rgb(0,0,0);stroke-width:2"/></g>
<g fill-rule="evenodd"><path d="M 2532.27,3258.14 L 2519.26,3260.2 L 2506.11,3259.51 L 2493.39,3256.1 L 2481.66,3250.12 L 2471.43,3241.84 L 2393.5,3163.91 L 2385.21,3153.67 L 2379.23,3141.94 L 2375.82,3129.22 L 2375.14,3116.07 L 2377.2,3103.07 L 2381.91,3090.78 L 2389.09,3079.73 L 2398.39,3070.43 L 2409.44,3063.25 L 2421.73,3058.54 L 2434.73,3056.48 L 2447.88,3057.16 L 2460.6,3060.57 L 2472.33,3066.55 L 2482.57,3074.84 L 2560.5,3152.77 L 2568.78,3163 L 2574.76,3174.73 L 2578.17,3187.45 L 2578.86,3200.6 L 2576.8,3213.6 L 2830.11,3466.92 L 2992.12,3466.92 L 2998.26,3467.52 L 3004.17,3469.31 L 3009.61,3472.22 L 3014.39,3476.14 L 3289.93,3751.68 L 3293.84,3756.45 L 3296.75,3761.9 L 3298.54,3767.8 L 3299.15,3773.95 L 3299.15,3896.61 L 3304.38,3899.86 L 3313.18,3908.23 L 3320.11,3918.19 L 3324.9,3929.35 L 3327.34,3941.23 L 3327.65,4063.5 L 3326.42,4075.58 L 3322.79,4087.16 L 3316.9,4097.77 L 3308.99,4106.98 L 3299.39,4114.41 L 3288.49,4119.76 L 3276.74,4122.8 L 3264.62,4123.41 L 3252.62,4121.58 L 3241.24,4117.36 L 3230.94,4110.94 L 3222.14,4102.58 L 3215.21,4092.61 L 3210.42,4081.46 L 3207.98,4069.57 L 3207.67,3947.3 L 3208.9,3935.23 L 3212.53,3923.65 L 3218.42,3913.03 L 3226.33,3903.82 L 3236.17,3896.28 L 3236.17,3786.99 L 2979.07,3529.9 L 2817.07,3529.9 L 2810.93,3529.29 L 2805.02,3527.5 L 2799.57,3524.59 L 2794.8,3520.67 L 2532.27,3258.14 z " style="fill-opacity:1.000000;fill:rgb(62,1,126);stroke:rgb(0,0,0);stroke-width:2"/></g>
<g fill-rule="evenodd"><path d="M 1997.54,2634.35 L 2010.55,2632.29 L 2023.7,2632.98 L 2036.41,2636.38 L 2048.14,2642.36 L 2058.38,2650.65 L 2136.31,2728.58 L 2144.6,2738.82 L 2150.57,2750.55 L 2153.98,2763.26 L 2154.67,2776.41 L 2152.61,2789.42 L 2147.89,2801.71 L 2140.72,2812.75 L 2131.41,2822.06 L 2120.37,2829.23 L 2108.08,2833.95 L 2095.07,2836.01 L 2081.92,2835.32 L 2069.2,2831.91 L 2057.48,2825.94 L 2047.24,2817.65 L 1969.31,2739.72 L 1961.02,2729.48 L 1955.04,2717.75 L 1951.64,2705.04 L 1950.95,2691.89 L 1953.01,2678.88 L 1688.83,2414.7 L 1686.66,2412.06 L 1674.61,2409.5 L 1652.06,2399.46 L 1632.08,2384.95 L 1615.56,2366.6 L 1603.22,2345.22 L 1595.59,2321.74 L 1593.01,2297.19 L 1595.59,2272.64 L 1603.22,2249.16 L 1615.56,2227.78 L 1632.08,2209.43 L 1652.06,2194.92 L 1674.61,2184.88 L 1698.76,2179.75 L 1723.44,2179.75 L 1747.59,2184.88 L 1770.14,2194.92 L 1790.11,2209.43 L 1806.63,2227.78 L 1818.98,2249.16 L 1826.61,2272.64 L 1829.19,2297.19 L 1826.61,2321.74 L 1818.98,2345.22 L 1806.63,2366.6 L 1790.11,2384.95 L 1770.14,2399.46 L 1764.96,2401.76 L 1997.54,2634.35 z " style="fill-opacity:1.000000;fill:rgb(151,234,220);stroke:rgb(0,0,0);stroke-width:2"/></g>
<g fill-rule="evenodd"><path d="M 1856.53,2775.68 L 1869.15,2773.68 L 1882.3,2774.37 L 1895.02,2777.78 L 1906.75,2783.76 L 1916.98,2792.04 L 1994.92,2869.98 L 2003.2,2880.21 L 2009.18,2891.94 L 2012.59,2904.66 L 2013.27,2917.81 L 2011.22,2930.81 L 2006.5,2943.1 L 1999.33,2954.15 L 1990.02,2963.46 L 1978.97,2970.63 L 1966.68,2975.35 L 1953.68,2977.41 L 1940.53,2976.72 L 1927.81,2973.31 L 1916.08,2967.33 L 1905.85,2959.05 L 1827.91,2881.11 L 1819.63,2870.88 L 1813.65,2859.15 L 1810.24,2846.43 L 1809.55,2833.28 L 1811.73,2819.96 L 1312.67,2320.89 L 1308.75,2316.12 L 1305.84,2310.67 L 1304.05,2304.76 L 1303.44,2298.62 L 1303.44,2046.7 L 1070.93,2046.76 L 1064.78,2046.15 L 1058.88,2044.36 L 1053.07,2041.15 L 976.889,2041.34 L 964.813,2040.11 L 953.231,2036.48 L 942.617,2030.59 L 933.409,2022.68 L 925.978,2013.08 L 920.633,2002.19 L 917.59,1990.43 L 916.976,1978.31 L 918.813,1966.32 L 923.029,1954.93 L 929.45,1944.63 L 937.812,1935.84 L 947.774,1928.9 L 958.93,1924.11 L 970.818,1921.67 L 1093.09,1921.36 L 1105.16,1922.59 L 1116.74,1926.23 L 1127.36,1932.12 L 1136.56,1940.02 L 1144,1949.62 L 1149.34,1960.52 L 1152.38,1972.27 L 1152.97,1983.78 L 1334.93,1983.72 L 1341.08,1984.32 L 1346.98,1986.11 L 1352.43,1989.02 L 1357.2,1992.94 L 1361.11,1997.71 L 1364.03,2003.16 L 1365.82,2009.06 L 1366.42,2015.21 L 1366.42,2285.58 L 1856.53,2775.68 z " style="fill-opacity:1.000000;fill:rgb(107,150,143);stroke:rgb(0,0,0);stroke-width:2"/></g>
<g fill-rule="evenodd"><path d="M 1703.22,3039.21 L 1686.51,3022.51 L 1678.23,3012.27 L 1672.25,3000.54 L 1668.84,2987.83 L 1668.16,2974.68 L 1670.22,2961.67 L 1674.93,2949.38 L 1682.11,2938.34 L 1691.41,2929.03 L 1702.46,2921.86 L 1714.75,2917.14 L 1727.75,2915.08 L 1740.9,2915.77 L 1753.62,2919.18 L 1765.35,2925.15 L 1775.59,2933.44 L 1853.52,3011.37 L 1861.8,3021.61 L 1867.78,3033.34 L 1871.19,3046.05 L 1871.88,3059.2 L 1869.82,3072.21 L 1865.1,3084.5 L 1857.93,3095.54 L 1848.62,3104.85 L 1837.58,3112.02 L 1825.28,3116.74 L 1812.28,3118.8 L 1799.13,3118.11 L 1786.41,3114.71 L 1774.68,3108.73 L 1764.45,3100.44 L 1747.75,3083.74 L 1642.3,3189.19 L 1642.3,3436.68 L 1641.69,3442.82 L 1639.9,3448.73 L 1636.99,3454.17 L 1633.07,3458.94 L 1059.7,4032.32 L 1054.92,4036.24 L 1049.48,4039.15 L 1043.57,4040.94 L 1037.43,4041.54 L 484.619,4041.54 L 478.474,4040.94 L 472.567,4039.15 L 467.122,4036.24 L 462.351,4032.32 L 316.746,3886.72 L 306.3,3885.12 L 283.894,3876.82 L 278.055,3873.18 L 104.424,4046.81 L 104.424,4134.88 L 105.934,4138.82 L 106.964,4145.32 L 106.62,4151.89 L 104.424,4159.21 L 104.424,4283.81 L 106.402,4290.07 L 107.008,4296.21 L 107.008,4512.08 L 212.097,4617.17 L 273.332,4555.93 L 468.17,4750.77 L 406.934,4812 L 512.024,4917.09 L 727.887,4917.09 L 734.03,4917.7 L 740.283,4919.68 L 864.735,4919.68 L 870.99,4917.7 L 877.135,4917.09 L 1176.2,4917.09 L 1206.73,4886.57 L 1207.9,4882.18 L 1210.89,4876.31 L 1216,4870.21 L 1220.78,4866.28 L 1226.22,4863.37 L 1232.14,4861.57 L 1235.59,4861.23 L 1242.62,4859.18 L 1249.19,4858.84 L 1255.7,4859.87 L 1258.54,4860.96 L 1516,4860.96 L 1516,4814.33 L 1514.25,4808.54 L 1513.64,4802.39 L 1513.64,4788.32 L 1501.68,4787.1 L 1478.88,4779.94 L 1457.99,4768.35 L 1439.86,4752.78 L 1425.24,4733.89 L 1414.72,4712.44 L 1408.73,4689.31 L 1407.51,4665.44 L 1411.13,4641.83 L 1419.43,4619.42 L 1432.07,4599.14 L 1448.53,4581.83 L 1468.14,4568.18 L 1490.1,4558.75 L 1513.51,4553.94 L 1564.81,4553.34 L 1588.58,4555.75 L 1611.38,4562.91 L 1632.27,4574.5 L 1650.4,4590.07 L 1665.03,4608.96 L 1675.55,4630.41 L 1681.54,4653.55 L 1682.75,4677.41 L 1679.13,4701.02 L 1670.83,4723.43 L 1658.19,4743.71 L 1641.73,4761.03 L 1622.12,4774.68 L 1600.16,4784.1 L 1576.62,4788.91 L 1576.62,4792.82 L 1578.38,4798.61 L 1578.98,4804.76 L 1578.98,4860.96 L 2496.15,4860.96 L 2496.15,4803.97 L 2496.75,4797.83 L 2497.72,4794.63 L 2497.72,4788.32 L 2485.76,4787.1 L 2462.96,4779.94 L 2442.07,4768.35 L 2423.94,4752.78 L 2409.31,4733.89 L 2398.79,4712.44 L 2392.8,4689.31 L 2391.59,4665.44 L 2395.21,4641.83 L 2403.51,4619.42 L 2416.15,4599.14 L 2432.61,4581.83 L 2452.22,4568.18 L 2474.18,4558.75 L 2497.58,4553.94 L 2548.89,4553.34 L 2572.66,4555.75 L 2595.46,4562.91 L 2616.35,4574.5 L 2634.48,4590.07 L 2649.1,4608.96 L 2659.63,4630.41 L 2665.62,4653.55 L 2666.83,4677.41 L 2663.21,4701.02 L 2654.91,4723.43 L 2642.27,4743.71 L 2625.81,4761.03 L 2606.2,4774.68 L 2584.24,4784.1 L 2560.7,4788.91 L 2560.7,4802.39 L 2560.09,4808.54 L 2559.13,4811.73 L 2559.13,4860.53 L 3280.26,4839.94 L 3280.26,4344.19 L 3057.98,4121.91 L 3055.81,4121.58 L 3044.43,4117.36 L 3034.13,4110.94 L 3025.33,4102.58 L 3018.39,4092.61 L 3013.61,4081.46 L 3011.16,4069.57 L 3010.86,3947.3 L 3012.09,3935.23 L 3015.72,3923.65 L 3021.61,3913.03 L 3029.51,3903.82 L 3039.11,3896.39 L 3050.01,3891.05 L 3061.76,3888.01 L 3073.88,3887.39 L 3085.88,3889.23 L 3097.26,3893.44 L 3107.56,3899.86 L 3116.36,3908.23 L 3123.3,3918.19 L 3128.08,3929.35 L 3130.53,3941.23 L 3130.83,4063.5 L 3129.6,4075.58 L 3125.97,4087.16 L 3121.09,4095.95 L 3334.01,4308.88 L 3337.93,4313.65 L 3340.84,4319.09 L 3342.63,4325 L 3343.24,4331.14 L 3343.24,4838.14 L 3721.69,4827.34 L 3723.21,4826.88 L 3733.97,4817.95 L 3803,4748.92 L 3803,3144.65 L 3200.04,3144.65 L 3193.89,3144.05 L 3187.99,3142.25 L 3182.54,3139.34 L 3177.77,3135.43 L 2992.48,2950.14 L 2931.25,3011.37 L 2842.18,2922.3 L 3009.18,2755.3 L 3098.25,2844.37 L 3037.02,2905.61 L 3213.08,3081.67 L 3802.83,3081.67 L 4083.81,2800.69 L 4070.9,2778.33 L 4060.73,2747.03 L 4057.28,2714.29 L 4060.73,2681.56 L 4070.9,2650.25 L 4087.36,2621.75 L 4109.38,2597.28 L 4136.01,2577.94 L 4166.08,2564.55 L 4198.28,2557.71 L 4231.19,2557.71 L 4263.39,2564.55 L 4293.46,2577.94 L 4320.09,2597.28 L 4342.12,2621.75 L 4358.57,2650.25 L 4368.75,2681.56 L 4372.19,2714.29 L 4368.75,2747.03 L 4358.57,2778.33 L 4342.12,2806.84 L 4320.09,2831.3 L 4293.46,2850.65 L 4263.39,2864.04 L 4231.19,2870.88 L 4198.28,2870.88 L 4166.08,2864.04 L 4136.01,2850.65 L 4128.43,2845.14 L 3865.98,3107.58 L 3865.98,4761.96 L 3865.37,4768.11 L 3863.58,4774.01 L 3860.67,4779.46 L 3855.27,4785.72 L 3858.36,4812.29 L 3857.91,4815.33 L 3857.09,4817.25 L 3855.88,4818.95 L 3720.57,4942.66 L 3717.44,4944.59 L 3713.83,4945.27 L 1234.45,4947.92 L 1211.51,4970.85 L 1206.74,4974.77 L 1201.3,4977.68 L 1195.39,4979.47 L 1189.25,4980.08 L 886.953,4980.08 L 880.694,4982.05 L 874.551,4982.66 L 730.471,4982.66 L 724.326,4982.05 L 718.069,4980.08 L 498.982,4980.08 L 492.837,4979.47 L 486.93,4977.68 L 481.485,4974.77 L 476.714,4970.85 L 362.4,4856.54 L 301.167,4917.77 L 106.33,4722.93 L 167.563,4661.7 L 53.2492,4547.39 L 49.3339,4542.62 L 46.4225,4537.17 L 44.6308,4531.26 L 44.0269,4525.12 L 44.0269,4306.04 L 42.0472,4299.78 L 41.4433,4293.63 L 41.4433,4033.76 L 42.0472,4027.62 L 43.8389,4021.71 L 46.7484,4016.27 L 50.6657,4011.5 L 233.227,3828.94 L 223.227,3806.15 L 218.416,3782.74 L 217.81,3731.44 L 220.228,3707.67 L 227.38,3684.87 L 238.976,3663.98 L 254.541,3645.85 L 273.436,3631.22 L 294.886,3620.7 L 304.409,3618.24 L 304.409,2900.34 L 283.894,2892.74 L 263.618,2880.1 L 246.299,2863.64 L 232.649,2844.03 L 223.227,2822.07 L 218.416,2798.67 L 217.81,2747.36 L 220.228,2723.59 L 227.38,2700.79 L 233.595,2689.59 L 84.9516,2540.95 L 81.0363,2536.18 L 78.1248,2530.73 L 76.3331,2524.83 L 75.7292,2518.68 L 75.7292,2234.81 L 76.3331,2228.66 L 78.1248,2222.76 L 81.0343,2217.31 L 84.9516,2212.54 L 320.984,1976.51 L 325.755,1972.6 L 331.2,1969.68 L 337.107,1967.89 L 343.252,1967.29 L 554.296,1967.29 L 560.439,1967.89 L 566.346,1969.68 L 571.791,1972.6 L 576.562,1976.51 L 745.474,2145.42 L 926.972,2145.42 L 929.45,2141.45 L 937.812,2132.65 L 947.774,2125.72 L 958.93,2120.93 L 970.818,2118.49 L 1093.09,2118.18 L 1105.16,2119.41 L 1116.74,2123.04 L 1127.36,2128.93 L 1136.56,2136.84 L 1144,2146.44 L 1149.34,2157.33 L 1152.38,2169.09 L 1153,2181.21 L 1151.16,2193.2 L 1146.94,2204.59 L 1140.52,2214.89 L 1132.16,2223.68 L 1122.2,2230.62 L 1111.04,2235.41 L 1099.16,2237.85 L 976.889,2238.16 L 964.813,2236.93 L 953.231,2233.3 L 942.617,2227.4 L 933.409,2219.5 L 925.978,2209.9 L 925.246,2208.4 L 732.433,2208.4 L 726.288,2207.8 L 720.381,2206.01 L 714.936,2203.1 L 710.165,2199.18 L 541.251,2030.27 L 356.295,2030.27 L 138.71,2247.85 L 138.71,2505.64 L 277.985,2644.91 L 294.886,2636.62 L 318.018,2630.63 L 341.88,2629.42 L 365.498,2633.04 L 387.904,2641.34 L 408.18,2653.98 L 425.499,2670.44 L 439.149,2690.05 L 448.571,2712.01 L 453.382,2735.41 L 453.988,2786.72 L 451.57,2810.49 L 444.418,2833.29 L 432.822,2854.18 L 417.257,2872.31 L 398.362,2886.93 L 376.912,2897.46 L 367.389,2899.92 L 367.389,3617.82 L 387.904,3625.42 L 408.18,3638.06 L 425.499,3654.52 L 439.149,3674.13 L 448.571,3696.09 L 453.382,3719.49 L 453.988,3770.8 L 451.57,3794.57 L 444.418,3817.37 L 432.822,3838.26 L 417.257,3856.39 L 398.362,3871.01 L 392.827,3873.73 L 497.66,3978.56 L 1024.39,3978.56 L 1579.32,3423.63 L 1579.32,3176.15 L 1579.92,3170.01 L 1581.71,3164.1 L 1584.62,3158.66 L 1588.54,3153.88 L 1703.22,3039.21 z " style="fill-opacity:1.000000;fill:rgb(56,92,42);stroke:rgb(0,0,0);stroke-width:2"/></g>
<g fill-rule="evenodd"><path d="M 2390.87,3399.54 L 2377.87,3401.6 L 2364.72,3400.91 L 2352,3397.5 L 2340.27,3391.52 L 2330.03,3383.24 L 2252.1,3305.3 L 2243.81,3295.07 L 2237.84,3283.34 L 2234.43,3270.62 L 2233.74,3257.47 L 2235.8,3244.47 L 2240.52,3232.17 L 2247.69,3221.13 L 2257,3211.82 L 2268.04,3204.65 L 2280.33,3199.93 L 2293.34,3197.87 L 2306.49,3198.56 L 2319.2,3201.97 L 2330.93,3207.95 L 2341.17,3216.23 L 2419.1,3294.17 L 2427.39,3304.4 L 2433.37,3316.13 L 2436.78,3328.85 L 2437.46,3342 L 2435.4,3355 L 2446.94,3366.54 L 2450.85,3371.31 L 2453.76,3376.75 L 2455.56,3382.66 L 2456.16,3388.8 L 2456.16,3691.22 L 2455.56,3697.37 L 2453.76,3703.27 L 2450.85,3708.72 L 2446.94,3713.49 L 2324.85,3835.58 L 2320.07,3839.5 L 2314.63,3842.41 L 2308.72,3844.2 L 2302.58,3844.8 L 2248.83,3844.8 L 2243.46,3861.34 L 2231.11,3882.72 L 2214.6,3901.07 L 2194.62,3915.58 L 2172.07,3925.62 L 2147.92,3930.75 L 2123.24,3930.75 L 2099.09,3925.62 L 2076.54,3915.58 L 2056.56,3901.07 L 2040.04,3882.72 L 2027.7,3861.34 L 2020.07,3837.86 L 2017.49,3813.31 L 2020.07,3788.76 L 2027.7,3765.28 L 2040.04,3743.9 L 2056.56,3725.55 L 2076.54,3711.04 L 2099.09,3701 L 2123.24,3695.87 L 2147.92,3695.87 L 2172.07,3701 L 2194.62,3711.04 L 2214.6,3725.55 L 2231.11,3743.9 L 2243.46,3765.28 L 2248.83,3781.82 L 2289.54,3781.82 L 2393.18,3678.18 L 2393.18,3401.85 L 2390.87,3399.54 z " style="fill-opacity:1.000000;fill:rgb(236,176,59);stroke:rgb(0,0,0);stroke-width:2"/></g>
<g fill-rule="evenodd"><path d="M 2801.54,2680.15 L 2823.25,2658.44 L 2833.49,2650.16 L 2845.22,2644.18 L 2857.93,2640.77 L 2871.08,2640.08 L 2884.09,2642.14 L 2896.38,2646.86 L 2907.42,2654.03 L 2916.73,2663.34 L 2923.9,2674.38 L 2928.62,2686.67 L 2930.68,2699.68 L 2929.99,2712.83 L 2926.58,2725.55 L 2920.61,2737.28 L 2912.32,2747.51 L 2834.38,2825.44 L 2824.15,2833.73 L 2812.42,2839.71 L 2799.7,2843.11 L 2786.55,2843.8 L 2773.55,2841.74 L 2761.25,2837.02 L 2750.21,2829.85 L 2740.9,2820.54 L 2733.73,2809.5 L 2729.01,2797.21 L 2726.96,2784.2 L 2727.64,2771.05 L 2731.05,2758.34 L 2737.03,2746.6 L 2745.32,2736.37 L 2757.01,2724.68 L 2689.89,2657.57 L 2668.24,2667.21 L 2644.1,2672.34 L 2619.41,2672.34 L 2595.27,2667.21 L 2572.71,2657.17 L 2552.74,2642.65 L 2536.22,2624.31 L 2523.88,2602.93 L 2516.25,2579.45 L 2513.67,2554.9 L 2516.25,2530.35 L 2523.88,2506.87 L 2536.22,2485.49 L 2552.74,2467.14 L 2572.71,2452.63 L 2595.27,2442.59 L 2619.41,2437.46 L 2644.1,2437.46 L 2668.24,2442.59 L 2690.8,2452.63 L 2710.77,2467.14 L 2727.29,2485.49 L 2739.63,2506.87 L 2747.26,2530.35 L 2749.84,2554.9 L 2747.26,2579.45 L 2739.63,2602.93 L 2734.03,2612.64 L 2801.54,2680.15 z " style="fill-opacity:1.000000;fill:rgb(251,50,175);stroke:rgb(0,0,0);stroke-width:2"/></g>
<g fill-rule="evenodd"><path d="M 2610.81,2236.26 L 2609.77,2233.56 L 2607.58,2219.74 L 2608.31,2205.77 L 2611.93,2192.26 L 2618.29,2179.79 L 2627.09,2168.92 L 2699.46,2096.55 L 2710.33,2087.75 L 2722.79,2081.4 L 2736.3,2077.78 L 2750.27,2077.04 L 2764.09,2079.23 L 2777.15,2084.25 L 2788.89,2091.87 L 2798.78,2101.76 L 2806.4,2113.49 L 2811.41,2126.55 L 2813.6,2140.37 L 2812.87,2154.34 L 2809.25,2167.85 L 2802.89,2180.31 L 2794.09,2191.19 L 2721.72,2263.56 L 2710.85,2272.36 L 2698.38,2278.71 L 2684.87,2282.33 L 2670.9,2283.06 L 2657.08,2280.87 L 2655.76,2280.37 L 2584.42,2351.71 L 2579.65,2355.63 L 2574.2,2358.54 L 2568.3,2360.33 L 2562.15,2360.93 L 2437.79,2360.93 L 2437.79,2572.47 L 2439.64,2578.49 L 2440.25,2584.63 L 2440.25,2672.12 L 2611.31,2843.18 L 2615.22,2847.95 L 2618.13,2853.4 L 2619.93,2859.3 L 2620.53,2865.45 L 2620.53,2930.66 L 2623.96,2933.44 L 2701.9,3011.37 L 2710.18,3021.61 L 2716.16,3033.34 L 2719.57,3046.05 L 2720.26,3059.2 L 2718.2,3072.21 L 2986.94,3340.95 L 3208.62,3340.95 L 3214.76,3341.56 L 3220.67,3343.35 L 3226.11,3346.26 L 3230.88,3350.18 L 3487.53,3606.83 L 3491.44,3611.6 L 3494.36,3617.04 L 3496.15,3622.95 L 3496.75,3629.09 L 3496.75,3862.23 L 3495.97,3868.97 L 3495.97,3896.61 L 3501.2,3899.86 L 3509.99,3908.23 L 3516.93,3918.19 L 3521.71,3929.35 L 3524.16,3941.23 L 3524.47,4063.5 L 3523.24,4075.58 L 3519.6,4087.16 L 3513.71,4097.77 L 3505.81,4106.98 L 3496.21,4114.41 L 3485.31,4119.76 L 3473.56,4122.8 L 3461.44,4123.41 L 3449.44,4121.58 L 3438.06,4117.36 L 3427.76,4110.94 L 3418.96,4102.58 L 3412.03,4092.61 L 3407.24,4081.46 L 3404.8,4069.57 L 3404.49,3947.3 L 3405.72,3935.23 L 3409.35,3923.65 L 3415.24,3913.03 L 3423.15,3903.82 L 3432.99,3896.28 L 3432.99,3863.02 L 3433.77,3856.28 L 3433.77,3642.14 L 3195.57,3403.94 L 2973.9,3403.94 L 2967.75,3403.33 L 2961.85,3401.54 L 2956.4,3398.63 L 2951.63,3394.71 L 2673.66,3116.74 L 2660.66,3118.8 L 2647.51,3118.11 L 2634.79,3114.71 L 2623.06,3108.73 L 2612.83,3100.44 L 2534.89,3022.51 L 2526.61,3012.27 L 2520.63,3000.54 L 2517.22,2987.83 L 2516.53,2974.68 L 2518.59,2961.67 L 2523.31,2949.38 L 2530.48,2938.34 L 2539.79,2929.03 L 2550.84,2921.86 L 2557.55,2919.28 L 2557.55,2878.49 L 2386.49,2707.43 L 2382.58,2702.66 L 2379.66,2697.22 L 2377.87,2691.31 L 2377.27,2685.16 L 2377.27,2594.34 L 2375.41,2588.32 L 2374.81,2582.17 L 2374.81,2342.49 L 2265.7,2233.38 L 2244.06,2243.02 L 2219.91,2248.15 L 2195.22,2248.15 L 2171.08,2243.02 L 2148.52,2232.98 L 2128.55,2218.47 L 2112.03,2200.12 L 2099.69,2178.74 L 2092.06,2155.26 L 2089.48,2130.71 L 2092.06,2106.16 L 2099.69,2082.68 L 2105.29,2072.97 L 1902.2,1869.88 L 1271.94,1869.88 L 1265.79,1869.28 L 1259.88,1867.48 L 1254.44,1864.57 L 1249.67,1860.66 L 1203.78,1814.77 L 1145.08,1814.77 L 1139.9,1823.09 L 1131.12,1832.32 L 1120.66,1839.6 L 1108.95,1844.63 L 1096.47,1847.19 L 979.881,1847.52 L 967.201,1846.23 L 955.043,1842.41 L 943.901,1836.23 L 934.231,1827.93 L 926.432,1817.85 L 920.819,1806.41 L 917.626,1794.07 L 916.98,1781.35 L 918.909,1768.75 L 923.335,1756.8 L 930.075,1745.99 L 938.856,1736.75 L 949.314,1729.47 L 961.026,1724.45 L 973.508,1721.88 L 1090.09,1721.56 L 1102.77,1722.85 L 1114.93,1726.66 L 1126.07,1732.85 L 1135.74,1741.15 L 1143.82,1751.79 L 1216.83,1751.79 L 1222.97,1752.4 L 1228.88,1754.19 L 1234.32,1757.1 L 1239.09,1761.02 L 1284.98,1806.9 L 1915.25,1806.9 L 1921.39,1807.5 L 1927.3,1809.3 L 1932.74,1812.21 L 1937.51,1816.12 L 2149.43,2028.04 L 2171.08,2018.4 L 2195.22,2013.27 L 2219.91,2013.27 L 2244.06,2018.4 L 2266.61,2028.44 L 2286.58,2042.95 L 2303.1,2061.3 L 2315.45,2082.68 L 2323.07,2106.16 L 2325.66,2130.71 L 2323.07,2155.26 L 2315.45,2178.74 L 2309.84,2188.45 L 2419.34,2297.95 L 2549.11,2297.95 L 2610.81,2236.26 z " style="fill-opacity:1.000000;fill:rgb(60,84,236);stroke:rgb(0,0,0);stroke-width:2"/></g>
<g fill-rule="evenodd"><path d="M 387.166,4104.6 L 1092.01,4104.6 L 1777.74,3418.86 L 1782.52,3414.95 L 1787.96,3412.04 L 1793.87,3410.24 L 1800.01,3409.64 L 2092.91,3409.64 L 2092.34,3398.87 L 2094.4,3385.86 L 2099.12,3373.57 L 2106.29,3362.53 L 2115.6,3353.22 L 2126.65,3346.05 L 2138.94,3341.33 L 2151.94,3339.27 L 2165.09,3339.96 L 2177.81,3343.36 L 2189.54,3349.34 L 2199.77,3357.63 L 2277.71,3435.56 L 2285.99,3445.8 L 2291.97,3457.53 L 2295.38,3470.24 L 2296.07,3483.39 L 2294.01,3496.4 L 2289.29,3508.69 L 2282.12,3519.73 L 2272.81,3529.04 L 2261.76,3536.21 L 2249.47,3540.93 L 2236.47,3542.99 L 2223.32,3542.3 L 2210.6,3538.9 L 2198.87,3532.92 L 2188.64,3524.63 L 2136.63,3472.62 L 1813.06,3472.62 L 1136.54,4149.13 L 1136.54,4476.18 L 1135.94,4482.33 L 1134.15,4488.24 L 1131.23,4493.68 L 1127.32,4498.45 L 961.62,4664.15 L 959.078,4666.24 L 950.616,4674.7 L 953.705,4682.74 L 956.281,4699 L 955.419,4715.43 L 951.16,4731.33 L 943.687,4745.99 L 933.329,4758.79 L 866.527,4825.59 L 853.735,4835.95 L 839.072,4843.42 L 823.174,4847.68 L 806.737,4848.54 L 790.482,4845.96 L 775.117,4840.07 L 761.315,4831.1 L 749.677,4819.46 L 740.713,4805.66 L 734.816,4790.3 L 732.241,4774.04 L 733.102,4757.6 L 737.364,4741.71 L 744.834,4727.04 L 755.192,4714.25 L 821.995,4647.45 L 834.782,4637.09 L 849.448,4629.62 L 865.345,4625.36 L 881.78,4624.5 L 898.037,4627.08 L 906.082,4630.16 L 916.63,4619.62 L 919.171,4617.53 L 1073.56,4463.14 L 1073.56,4167.58 L 396.376,4167.58 L 394.481,4174.65 L 387.01,4189.32 L 376.652,4202.11 L 309.852,4268.91 L 297.06,4279.27 L 282.395,4286.74 L 266.497,4291 L 250.062,4291.86 L 233.807,4289.29 L 218.442,4283.39 L 204.638,4274.42 L 193,4262.79 L 184.038,4248.98 L 178.139,4233.62 L 175.564,4217.36 L 176.425,4200.93 L 180.685,4185.03 L 188.157,4170.36 L 198.513,4157.58 L 265.314,4090.77 L 278.103,4080.42 L 292.767,4072.94 L 308.664,4068.68 L 325.101,4067.82 L 341.356,4070.4 L 356.721,4076.29 L 370.525,4085.26 L 382.163,4096.89 L 387.166,4104.6 z " style="fill-opacity:1.000000;fill:rgb(24,219,92);stroke:rgb(0,0,0);stroke-width:2"/></g>
</svg>
