<?xml version="1.0" standalone="no"?>
<!DOCTYPE svg PUBLIC "-//W3C//DTD SVG 1.1//EN"
"http://www.w3.org/Graphics/SVG/1.1/DTD/svg11.dtd">
<svg width="5511" height="5234" viewBox="0 0 5511 5234" version="1.1"
xmlns="http://www.w3.org/2000/svg"
xmlns:xlink="http://www.w3.org/1999/xlink">
<g fill-rule="evenodd"><path d="M 0.000999889,5233.76 L 0.000999889,0.237543 L 5511,0.237543 L 5511,5233.76 L 0.000999889,5233.76 z " style="fill-opacity:0.300000;fill:rgb(103,198,105);"/></g>
<g fill-rule="evenodd"><path d="M 3335.26,2137.19 L 5262.81,2125.17 L 5271.35,2125.43 L 5283.1,2126.2 L 5297.91,2128.13 L 5309.72,2130.43 L 5322.4,2133.65 L 5333.78,2137.21 L 5344.96,2141.34 L 5356.91,2146.46 L 5366.83,2151.26 L 5378.13,2157.4 L 5386.65,2162.5 L 5397.29,2169.51 L 5405.08,2175.1 L 5415.73,2183.41 L 5422.91,2189.5 L 5432.66,2198.45 L 5439.28,2205.03 L 5448.27,2214.71 L 5454.44,2221.9 L 5462.36,2231.92 L 5468.2,2240 L 5475.33,2250.77 L 5480.85,2260.02 L 5486.86,2271.2 L 5492.05,2282.17 L 5496.93,2294.07 L 5501.35,2306.86 L 5504.67,2318.6 L 5507.77,2332.86 L 5509.49,2344.15 L 5510.84,2360.51 L 5510.99,2372.57 L 5510.75,2381.8 L 5376.5,4423.43 L 5376.32,4425.78 L 5375.42,4436.31 L 5374.94,4440.86 L 5373.65,4451.19 L 5373,4455.68 L 5371.25,4466.32 L 5370.42,4470.83 L 5368.31,4481.14 L 5367.32,4485.56 L 5364.74,4496.11 L 5363.56,4500.55 L 5360.65,4510.73 L 5359.29,4515.15 L 5355.88,4525.52 L 5354.32,4529.94 L 5350.61,4539.87 L 5348.83,4544.36 L 5344.6,4554.41 L 5342.6,4558.89 L 5338.1,4568.44 L 5335.86,4572.95 L 5330.89,4582.43 L 5328.34,4587.05 L 5322.88,4596.42 L 5320.05,4601.03 L 5314.38,4609.81 L 5311.23,4614.45 L 5305.07,4623.07 L 5301.52,4627.77 L 5294.84,4636.2 L 5290.93,4640.87 L 5284.04,4648.69 L 5281.94,4651.01 L 4843.12,5123.27 L 4839.91,5126.58 L 4830.93,5135.52 L 4824.33,5141.61 L 4814.8,5149.75 L 4808.33,5154.9 L 4798.44,5162.22 L 4792.05,5166.63 L 4781.41,5173.47 L 4775.04,5177.28 L 4763.73,5183.58 L 4757.62,5186.76 L 4746.11,5192.32 L 4740.32,5194.92 L 4728.66,5199.8 L 4723.08,5201.97 L 4710.75,5206.41 L 4705.4,5208.19 L 4693.19,5211.94 L 4688.11,5213.38 L 4675.54,5216.63 L 4670.6,5217.8 L 4657.75,5220.54 L 4653.02,5221.45 L 4640.26,5223.63 L 4635.69,5224.32 L 4622.92,5225.99 L 4618.49,5226.49 L 4605.77,5227.67 L 4601.42,5227.99 L 4588.79,5228.69 L 4584.5,5228.85 L 4572.17,5229.09 L 4570.04,5229.11 L 212.563,5233.76 L 204.214,5233.47 L 195.389,5232.86 L 180.477,5230.86 L 171.938,5229.15 L 159.235,5225.87 L 151.166,5223.3 L 139.873,5219.06 L 131.212,5215.29 L 121.319,5210.42 L 113.556,5206.14 L 105.023,5200.95 L 97.2382,5195.76 L 89.345,5190 L 81.7059,5183.94 L 74.5967,5177.81 L 67.6575,5171.34 L 61.3102,5164.95 L 55.0909,5158.19 L 49.0915,5151.14 L 43.0682,5143.46 L 37.3708,5135.55 L 32.2194,5127.73 L 27.088,5119.18 L 22.8485,5111.39 L 18.135,5101.71 L 14.5534,5093.4 L 10.3718,5082.16 L 7.70414,5073.7 L 4.32452,5060.29 L 2.60071,5051.24 L 0.732918,5036.35 L 0.222975,5028.02 L 0.00499944,5020.1 L 24.5103,935.703 L 26.2241,916.347 L 26.4441,915.072 L 31.7195,895.102 L 35.491,884.635 L 36.4949,881.955 L 46.8438,855.28 L 48.1556,852.041 L 57.9745,828.795 L 59.6044,825.112 L 71.2751,799.916 L 72.9929,796.365 L 79.3402,783.782 L 80.924,780.755 L 87.6872,768.26 L 89.751,764.604 L 96.6342,752.902 L 99.4219,748.394 L 106.587,737.375 L 110.487,731.744 L 117.818,721.785 L 123.583,714.562 L 131.188,705.765 L 135.126,701.431 L 701.051,108.909 L 703.181,106.736 L 711.032,98.9285 L 715.343,94.851 L 723.866,87.1879 L 728.324,83.3763 L 737.129,76.2171 L 741.576,72.7735 L 750.771,65.9982 L 755.343,62.7946 L 764.89,56.4333 L 769.505,53.5076 L 779.214,47.6683 L 783.99,44.9466 L 794.305,39.3792 L 799.244,36.8615 L 809.481,31.942 L 814.516,29.6643 L 825.133,25.1608 L 830.43,23.063 L 841.413,19.0175 L 847.007,17.1157 L 857.961,13.692 L 863.651,12.0682 L 874.52,9.26054 L 880.485,7.88469 L 891.628,5.61494 L 897.949,4.50507 L 909.136,2.85325 L 915.895,2.05334 L 927.33,1.03345 L 934.283,0.6195 L 945.226,0.291537 L 948.847,0.239543 L 3027.97,1.71738 L 3036.86,2.05734 L 3045.68,2.72927 L 3058.18,4.35908 L 3062.47,5.153 L 3073.49,7.74271 L 3081.73,10.1024 L 3094.95,14.7499 L 3103.42,18.3055 L 3114.74,23.7889 L 3122.56,28.1024 L 3129.97,32.5479 L 3134,35.1737 L 3142.57,41.319 L 3153.51,49.922 L 3162.74,57.9971 L 3169.7,64.7484 L 3177.58,73.1854 L 3186.87,84.1682 L 3194.94,94.875 L 3202.84,106.698 L 3209.8,118.56 L 3216.24,131.171 L 3220.35,140.108 L 3222.18,144.571 L 3224.91,151.919 L 3227.76,160.454 L 3230.14,168.483 L 3231.31,173.046 L 3233.23,181.935 L 3234.74,190.476 L 3236.3,203.495 L 3236.85,212.154 L 3237.09,219.601 L 3238.1,2055.16 L 3238.71,2062.1 L 3239.56,2067.55 L 3241.23,2075.31 L 3243.68,2083.88 L 3246.88,2092.47 L 3250.74,2100.56 L 3255.14,2107.73 L 3260.01,2113.91 L 3265.44,2119.18 L 3271.92,2123.89 L 3280.48,2128.34 L 3292.46,2132.46 L 3309.28,2135.67 L 3335.26,2137.19 z " style="fill-opacity:0.600000;fill:rgb(103,198,105);stroke:rgb(0,0,0);stroke-width:2"/></g>
<g fill-rule="evenodd"><path d="M 146.595,924.669 L 156.944,897.994 L 166.762,874.748 L 178.433,849.553 L 184.78,836.97 L 191.544,824.476 L 198.427,812.773 L 205.592,801.754 L 212.923,791.795 L 220.528,782.998 L 786.453,190.476 L 794.305,182.669 L 802.828,175.006 L 811.633,167.847 L 820.828,161.072 L 830.374,154.71 L 840.083,148.871 L 850.398,143.304 L 860.635,138.384 L 871.252,133.881 L 882.235,129.835 L 893.189,126.411 L 904.058,123.604 L 915.201,121.334 L 926.388,119.682 L 937.823,118.662 L 948.765,118.334 L 3027.89,119.812 L 3036.7,120.484 L 3040.99,121.278 L 3049.23,123.638 L 3057.7,127.193 L 3065.52,131.507 L 3069.55,134.133 L 3080.49,142.736 L 3087.44,149.487 L 3096.74,160.47 L 3104.64,172.292 L 3111.08,184.903 L 3112.91,189.366 L 3115.76,197.902 L 3116.94,202.465 L 3118.44,211.006 L 3119,219.665 L 3120.01,2060.42 L 3121.42,2076.41 L 3123.39,2089.07 L 3126.61,2104.01 L 3131.4,2120.76 L 3138.04,2138.62 L 3146.83,2157.01 L 3158.1,2175.4 L 3172.11,2193.16 L 3189.18,2209.76 L 3209.64,2224.62 L 3233.81,2237.18 L 3262.04,2246.88 L 3294.7,2253.12 L 3332.19,2255.3 L 5263.55,2243.26 L 5275.3,2244.04 L 5287.11,2246.35 L 5298.49,2249.91 L 5310.45,2255.03 L 5321.75,2261.17 L 5332.39,2268.17 L 5343.03,2276.48 L 5352.78,2285.43 L 5361.78,2295.11 L 5369.69,2305.13 L 5376.82,2315.91 L 5382.82,2327.08 L 5387.71,2338.97 L 5391.03,2350.71 L 5392.75,2362 L 5392.9,2374.06 L 5258.66,4415.68 L 5257.76,4426.21 L 5256.46,4436.54 L 5254.72,4447.18 L 5252.61,4457.5 L 5250.03,4468.05 L 5247.11,4478.23 L 5243.7,4488.6 L 5239.99,4498.52 L 5235.76,4508.57 L 5231.26,4518.13 L 5226.29,4527.61 L 5220.83,4536.98 L 5215.16,4545.76 L 5209,4554.38 L 5202.32,4562.8 L 5195.43,4570.62 L 4756.6,5042.88 L 4747.62,5051.82 L 4738.09,5059.96 L 4728.2,5067.28 L 4717.56,5074.12 L 4706.25,5080.42 L 4694.75,5085.98 L 4683.08,5090.86 L 4670.75,5095.3 L 4658.53,5099.05 L 4645.96,5102.3 L 4633.11,5105.04 L 4620.35,5107.22 L 4607.59,5108.89 L 4594.86,5110.07 L 4582.24,5110.78 L 4569.91,5111.01 L 212.437,5115.67 L 203.612,5115.05 L 195.073,5113.34 L 187.004,5110.77 L 178.343,5107 L 170.578,5102.72 L 162.793,5097.53 L 155.154,5091.46 L 148.214,5084.99 L 141.995,5078.23 L 135.972,5070.55 L 130.82,5062.74 L 126.581,5054.95 L 122.999,5046.64 L 120.332,5038.18 L 118.608,5029.14 L 118.098,5020.8 L 142.603,936.411 L 142.823,935.135 L 146.595,924.669 z " style="fill-opacity:1.000000;fill:rgb(103,198,105);stroke:rgb(0,0,0);stroke-width:2"/></g>
</svg>
