<?xml version="1.0" standalone="no"?>
 <!DOCTYPE svg PUBLIC "-//W3C//DTD SVG 1.1//EN" 
 "http://www.w3.org/Graphics/SVG/1.1/DTD/svg11.dtd"> 
<svg xmlns="http://www.w3.org/2000/svg" version="1.1" 
    width="9.4742cm" height="8.60298cm" viewBox="0 0 37300 33870 ">
<title>SVG Picture created as LoveTape-2-2-brd.svg date 2018/02/21 11:41:59 </title>
  <desc>Picture generated by PCBNEW </desc>
<g style="fill:#000000; fill-opacity:1;stroke:#000000; stroke-opacity:1;
stroke-linecap:round; stroke-linejoin:round; "
 transform="translate(0 0) scale(1 1)">
</g>
<g style="fill:#000000; fill-opacity:0.0; 
stroke:#000000; stroke-width:-0.000393701; stroke-opacity:1; 
stroke-linecap:round; stroke-linejoin:round;">
</g>
<g style="fill:#840000; fill-opacity:0.0; 
stroke:#840000; stroke-width:-0.000393701; stroke-opacity:1; 
stroke-linecap:round; stroke-linejoin:round;">
</g>
<g style="fill:#840000; fill-opacity:1.0; 
stroke:#840000; stroke-width:0; stroke-opacity:1; 
stroke-linecap:round; stroke-linejoin:round;">
<circle cx="19482.7" cy="11506.7" r="590.551" /> 
</g>
<g style="fill:#840000; fill-opacity:1.0; 
stroke:#840000; stroke-width:393.701; stroke-opacity:1; 
stroke-linecap:round; stroke-linejoin:round;">
</g>
<g style="fill:#840000; fill-opacity:1.0; 
stroke:#840000; stroke-width:0; stroke-opacity:1; 
stroke-linecap:round; stroke-linejoin:round;">
<circle cx="17361.4" cy="13628" r="590.551" /> 
</g>
<g style="fill:#840000; fill-opacity:1.0; 
stroke:#840000; stroke-width:393.701; stroke-opacity:1; 
stroke-linecap:round; stroke-linejoin:round;">
</g>
<g style="fill:#840000; fill-opacity:1.0; 
stroke:#840000; stroke-width:0; stroke-opacity:1; 
stroke-linecap:round; stroke-linejoin:round;">
<polyline style="fill-rule:evenodd;"
points="21425,12901
21815,12511
22371,13068
21982,13457
21425,12901
" /> 
</g>
<g style="fill:#840000; fill-opacity:1.0; 
stroke:#840000; stroke-width:629.921; stroke-opacity:1; 
stroke-linecap:round; stroke-linejoin:round;">
</g>
<g style="fill:#840000; fill-opacity:0.0; 
stroke:#840000; stroke-width:629.921; stroke-opacity:1; 
stroke-linecap:round; stroke-linejoin:round;">
<path d="M21703 17032
L22093 17422
" />
<path d="M20996 13496
L21386 13886
" />
<path d="M22410 16325
L22800 16715
" />
<path d="M20289 14204
L20679 14593
" />
<path d="M23118 15618
L23507 16008
" />
<path d="M19582 14911
L19972 15300
" />
<path d="M23825 14911
L24214 15300
" />
</g>
<g style="fill:#840000; fill-opacity:0.0; 
stroke:#840000; stroke-width:0; stroke-opacity:1; 
stroke-linecap:round; stroke-linejoin:round;">
</g>
<g style="fill:#840000; fill-opacity:1.0; 
stroke:#840000; stroke-width:0; stroke-opacity:1; 
stroke-linecap:round; stroke-linejoin:round;">
<polyline style="fill-rule:evenodd;"
points="13266,23776
12431,24611
11457,23637
12292,22802
13266,23776
" /> 
</g>
<g style="fill:#840000; fill-opacity:1.0; 
stroke:#840000; stroke-width:787.402; stroke-opacity:1; 
stroke-linecap:round; stroke-linejoin:round;">
</g>
<g style="fill:#840000; fill-opacity:0.0; 
stroke:#840000; stroke-width:787.402; stroke-opacity:1; 
stroke-linecap:round; stroke-linejoin:round;">
<path d="M12196 21088
L12530 20754
" />
<path d="M14980 23872
L15314 23538
" />
</g>
<g style="fill:#840000; fill-opacity:1.0; 
stroke:#840000; stroke-width:0; stroke-opacity:1; 
stroke-linecap:round; stroke-linejoin:round;">
<circle cx="13059.8" cy="21617.6" r="236.22" /> 
</g>
<g style="fill:#840000; fill-opacity:1.0; 
stroke:#840000; stroke-width:393.701; stroke-opacity:1; 
stroke-linecap:round; stroke-linejoin:round;">
</g>
<g style="fill:#840000; fill-opacity:1.0; 
stroke:#840000; stroke-width:0; stroke-opacity:1; 
stroke-linecap:round; stroke-linejoin:round;">
<circle cx="14451.8" cy="23009.5" r="236.22" /> 
</g>
<g style="fill:#840000; fill-opacity:1.0; 
stroke:#840000; stroke-width:393.701; stroke-opacity:1; 
stroke-linecap:round; stroke-linejoin:round;">
</g>
<g style="fill:#840000; fill-opacity:1.0; 
stroke:#840000; stroke-width:0; stroke-opacity:1; 
stroke-linecap:round; stroke-linejoin:round;">
<circle cx="21605.5" cy="19088.6" r="590.551" /> 
</g>
<g style="fill:#840000; fill-opacity:1.0; 
stroke:#840000; stroke-width:393.701; stroke-opacity:1; 
stroke-linecap:round; stroke-linejoin:round;">
</g>
<g style="fill:#840000; fill-opacity:1.0; 
stroke:#840000; stroke-width:0; stroke-opacity:1; 
stroke-linecap:round; stroke-linejoin:round;">
<circle cx="24605.5" cy="19088.6" r="590.551" /> 
</g>
<g style="fill:#840000; fill-opacity:1.0; 
stroke:#840000; stroke-width:393.701; stroke-opacity:1; 
stroke-linecap:round; stroke-linejoin:round;">
</g>
<g style="fill:#840000; fill-opacity:1.0; 
stroke:#840000; stroke-width:0; stroke-opacity:1; 
stroke-linecap:round; stroke-linejoin:round;">
<circle cx="24086.8" cy="12795.4" r="590.551" /> 
</g>
<g style="fill:#840000; fill-opacity:1.0; 
stroke:#840000; stroke-width:393.701; stroke-opacity:1; 
stroke-linecap:round; stroke-linejoin:round;">
</g>
<g style="fill:#840000; fill-opacity:1.0; 
stroke:#840000; stroke-width:0; stroke-opacity:1; 
stroke-linecap:round; stroke-linejoin:round;">
<circle cx="21965.5" cy="10674.1" r="590.551" /> 
</g>
<g style="fill:#840000; fill-opacity:1.0; 
stroke:#840000; stroke-width:393.701; stroke-opacity:1; 
stroke-linecap:round; stroke-linejoin:round;">
</g>
<g style="fill:#840000; fill-opacity:1.0; 
stroke:#840000; stroke-width:0; stroke-opacity:1; 
stroke-linecap:round; stroke-linejoin:round;">
<polyline style="fill-rule:evenodd;"
points="26419,14243
25584,15078
25139,14632
25974,13797
26419,14243
" /> 
</g>
<g style="fill:#840000; fill-opacity:1.0; 
stroke:#840000; stroke-width:629.921; stroke-opacity:1; 
stroke-linecap:round; stroke-linejoin:round;">
</g>
<g style="fill:#840000; fill-opacity:0.0; 
stroke:#840000; stroke-width:629.921; stroke-opacity:1; 
stroke-linecap:round; stroke-linejoin:round;">
<path d="M24877 13925
L25267 13535
" />
</g>
<g style="fill:#840000; fill-opacity:1.0; 
stroke:#840000; stroke-width:0; stroke-opacity:1; 
stroke-linecap:round; stroke-linejoin:round;">
<circle cx="22105.5" cy="4950.82" r="787.402" /> 
</g>
<g style="fill:#840000; fill-opacity:1.0; 
stroke:#840000; stroke-width:393.701; stroke-opacity:1; 
stroke-linecap:round; stroke-linejoin:round;">
</g>
<g style="fill:#840000; fill-opacity:1.0; 
stroke:#840000; stroke-width:0; stroke-opacity:1; 
stroke-linecap:round; stroke-linejoin:round;">
<polyline style="fill-rule:evenodd;"
points="13251,5738
13251,4163
14825,4163
14825,5738
13251,5738
" /> 
<circle cx="32003.1" cy="13592.5" r="787.402" /> 
</g>
<g style="fill:#840000; fill-opacity:1.0; 
stroke:#840000; stroke-width:393.701; stroke-opacity:1; 
stroke-linecap:round; stroke-linejoin:round;">
</g>
<g style="fill:#840000; fill-opacity:1.0; 
stroke:#840000; stroke-width:0; stroke-opacity:1; 
stroke-linecap:round; stroke-linejoin:round;">
<polyline style="fill-rule:evenodd;"
points="32790,22446
31215,22446
31215,20872
32790,20872
32790,22446
" /> 
<polyline style="fill-rule:evenodd;"
points="23592,10867
23119,10394
23954,9559
24428,10032
23592,10867
" /> 
</g>
<g style="fill:#840000; fill-opacity:1.0; 
stroke:#840000; stroke-width:669.291; stroke-opacity:1; 
stroke-linecap:round; stroke-linejoin:round;">
</g>
<g style="fill:#840000; fill-opacity:0.0; 
stroke:#840000; stroke-width:669.291; stroke-opacity:1; 
stroke-linecap:round; stroke-linejoin:round;">
<path d="M24300 11101
L24661 10739
" />
<path d="M25076 11739
L25299 11516
" />
</g>
<g style="fill:#840000; fill-opacity:0.0; 
stroke:#840000; stroke-width:1181.1; stroke-opacity:1; 
stroke-linecap:round; stroke-linejoin:round;">
<path d="M12605 13954
L12605 13757
" />
<path d="M14573 13954
L14573 13757
" />
<path d="M12605 18876
L12605 18679
" />
<path d="M14573 18876
L14573 18679
" />
<path d="M18751 23379
L18554 23379
" />
<path d="M18751 21411
L18554 21411
" />
<path d="M23672 23379
L23475 23379
" />
<path d="M23672 21411
L23475 21411
" />
</g>
<g style="fill:#840000; fill-opacity:0.0; 
stroke:#840000; stroke-width:600; stroke-opacity:1; 
stroke-linecap:round; stroke-linejoin:round;">
<path d="M15810 10911
L16392 10911
" />
<path d="M15810 9927
L16392 9927
" />
</g>
<g style="fill:#840000; fill-opacity:0.0; 
stroke:#840000; stroke-width:629.921; stroke-opacity:1; 
stroke-linecap:round; stroke-linejoin:round;">
<path d="M15825 8942
L16377 8942
" />
</g>
<g style="fill:#840000; fill-opacity:0.0; 
stroke:#840000; stroke-width:0; stroke-opacity:1; 
stroke-linecap:round; stroke-linejoin:round;">
</g>
<g style="fill:#840000; fill-opacity:1.0; 
stroke:#840000; stroke-width:0; stroke-opacity:1; 
stroke-linecap:round; stroke-linejoin:round;">
<polyline style="fill-rule:evenodd;"
points="13995,12289
12696,12289
12696,10990
13995,10990
13995,12289
" /> 
<polyline style="fill-rule:evenodd;"
points="13995,8864
12696,8864
12696,7564
13995,7564
13995,8864
" /> 
</g>
<g style="fill:#840000; fill-opacity:1.0; 
stroke:#840000; stroke-width:600; stroke-opacity:1; 
stroke-linecap:round; stroke-linejoin:round;">
</g>
<g style="fill:#840000; fill-opacity:0.0; 
stroke:#840000; stroke-width:600; stroke-opacity:1; 
stroke-linecap:round; stroke-linejoin:round;">
<path d="M28251 20339
L28251 19758
" />
<path d="M27266 20339
L27266 19758
" />
<path d="M26282 20339
L26282 19758
" />
</g>
<g style="fill:#840000; fill-opacity:0.0; 
stroke:#840000; stroke-width:0; stroke-opacity:1; 
stroke-linecap:round; stroke-linejoin:round;">
</g>
<g style="fill:#840000; fill-opacity:1.0; 
stroke:#840000; stroke-width:0; stroke-opacity:1; 
stroke-linecap:round; stroke-linejoin:round;">
<polyline style="fill-rule:evenodd;"
points="29629,22155
29629,23454
28329,23454
28329,22155
29629,22155
" /> 
<polyline style="fill-rule:evenodd;"
points="26203,22155
26203,23454
24904,23454
24904,22155
26203,22155
" /> 
</g>
<g style="fill:#FFFFFF; fill-opacity:1.0; 
stroke:#FFFFFF; stroke-width:0; stroke-opacity:1; 
stroke-linecap:round; stroke-linejoin:round;">
<circle cx="19482.7" cy="11506.7" r="157.48" /> 
</g>
<g style="fill:#FFFFFF; fill-opacity:1.0; 
stroke:#FFFFFF; stroke-width:393.701; stroke-opacity:1; 
stroke-linecap:round; stroke-linejoin:round;">
</g>
<g style="fill:#FFFFFF; fill-opacity:1.0; 
stroke:#FFFFFF; stroke-width:0; stroke-opacity:1; 
stroke-linecap:round; stroke-linejoin:round;">
<circle cx="17361.4" cy="13628" r="157.48" /> 
</g>
<g style="fill:#FFFFFF; fill-opacity:1.0; 
stroke:#FFFFFF; stroke-width:393.701; stroke-opacity:1; 
stroke-linecap:round; stroke-linejoin:round;">
</g>
<g style="fill:#FFFFFF; fill-opacity:1.0; 
stroke:#FFFFFF; stroke-width:0; stroke-opacity:1; 
stroke-linecap:round; stroke-linejoin:round;">
<circle cx="21898.7" cy="12984.7" r="157.48" /> 
</g>
<g style="fill:#FFFFFF; fill-opacity:1.0; 
stroke:#FFFFFF; stroke-width:393.701; stroke-opacity:1; 
stroke-linecap:round; stroke-linejoin:round;">
</g>
<g style="fill:#FFFFFF; fill-opacity:1.0; 
stroke:#FFFFFF; stroke-width:0; stroke-opacity:1; 
stroke-linecap:round; stroke-linejoin:round;">
<circle cx="21898.7" cy="17227.4" r="157.48" /> 
</g>
<g style="fill:#FFFFFF; fill-opacity:1.0; 
stroke:#FFFFFF; stroke-width:393.701; stroke-opacity:1; 
stroke-linecap:round; stroke-linejoin:round;">
</g>
<g style="fill:#FFFFFF; fill-opacity:1.0; 
stroke:#FFFFFF; stroke-width:0; stroke-opacity:1; 
stroke-linecap:round; stroke-linejoin:round;">
<circle cx="21191.6" cy="13691.8" r="157.48" /> 
</g>
<g style="fill:#FFFFFF; fill-opacity:1.0; 
stroke:#FFFFFF; stroke-width:393.701; stroke-opacity:1; 
stroke-linecap:round; stroke-linejoin:round;">
</g>
<g style="fill:#FFFFFF; fill-opacity:1.0; 
stroke:#FFFFFF; stroke-width:0; stroke-opacity:1; 
stroke-linecap:round; stroke-linejoin:round;">
<circle cx="22605.8" cy="16520.3" r="157.48" /> 
</g>
<g style="fill:#FFFFFF; fill-opacity:1.0; 
stroke:#FFFFFF; stroke-width:393.701; stroke-opacity:1; 
stroke-linecap:round; stroke-linejoin:round;">
</g>
<g style="fill:#FFFFFF; fill-opacity:1.0; 
stroke:#FFFFFF; stroke-width:0; stroke-opacity:1; 
stroke-linecap:round; stroke-linejoin:round;">
<circle cx="20484.5" cy="14398.9" r="157.48" /> 
</g>
<g style="fill:#FFFFFF; fill-opacity:1.0; 
stroke:#FFFFFF; stroke-width:393.701; stroke-opacity:1; 
stroke-linecap:round; stroke-linejoin:round;">
</g>
<g style="fill:#FFFFFF; fill-opacity:1.0; 
stroke:#FFFFFF; stroke-width:0; stroke-opacity:1; 
stroke-linecap:round; stroke-linejoin:round;">
<circle cx="23312.9" cy="15813.2" r="157.48" /> 
</g>
<g style="fill:#FFFFFF; fill-opacity:1.0; 
stroke:#FFFFFF; stroke-width:393.701; stroke-opacity:1; 
stroke-linecap:round; stroke-linejoin:round;">
</g>
<g style="fill:#FFFFFF; fill-opacity:1.0; 
stroke:#FFFFFF; stroke-width:0; stroke-opacity:1; 
stroke-linecap:round; stroke-linejoin:round;">
<circle cx="19777.3" cy="15106.1" r="157.48" /> 
</g>
<g style="fill:#FFFFFF; fill-opacity:1.0; 
stroke:#FFFFFF; stroke-width:393.701; stroke-opacity:1; 
stroke-linecap:round; stroke-linejoin:round;">
</g>
<g style="fill:#FFFFFF; fill-opacity:1.0; 
stroke:#FFFFFF; stroke-width:0; stroke-opacity:1; 
stroke-linecap:round; stroke-linejoin:round;">
<circle cx="24020" cy="15106.1" r="157.48" /> 
</g>
<g style="fill:#FFFFFF; fill-opacity:1.0; 
stroke:#FFFFFF; stroke-width:393.701; stroke-opacity:1; 
stroke-linecap:round; stroke-linejoin:round;">
</g>
<g style="fill:#FFFFFF; fill-opacity:1.0; 
stroke:#FFFFFF; stroke-width:0; stroke-opacity:1; 
stroke-linecap:round; stroke-linejoin:round;">
<circle cx="12362.2" cy="23707.1" r="236.22" /> 
</g>
<g style="fill:#FFFFFF; fill-opacity:1.0; 
stroke:#FFFFFF; stroke-width:393.701; stroke-opacity:1; 
stroke-linecap:round; stroke-linejoin:round;">
</g>
<g style="fill:#FFFFFF; fill-opacity:1.0; 
stroke:#FFFFFF; stroke-width:0; stroke-opacity:1; 
stroke-linecap:round; stroke-linejoin:round;">
<circle cx="12363.9" cy="20921.6" r="236.22" /> 
</g>
<g style="fill:#FFFFFF; fill-opacity:1.0; 
stroke:#FFFFFF; stroke-width:393.701; stroke-opacity:1; 
stroke-linecap:round; stroke-linejoin:round;">
</g>
<g style="fill:#FFFFFF; fill-opacity:1.0; 
stroke:#FFFFFF; stroke-width:0; stroke-opacity:1; 
stroke-linecap:round; stroke-linejoin:round;">
<circle cx="15147.7" cy="23705.5" r="236.22" /> 
</g>
<g style="fill:#FFFFFF; fill-opacity:1.0; 
stroke:#FFFFFF; stroke-width:393.701; stroke-opacity:1; 
stroke-linecap:round; stroke-linejoin:round;">
</g>
<g style="fill:#FFFFFF; fill-opacity:1.0; 
stroke:#FFFFFF; stroke-width:0; stroke-opacity:1; 
stroke-linecap:round; stroke-linejoin:round;">
<circle cx="13059.8" cy="21617.6" r="236.22" /> 
</g>
<g style="fill:#FFFFFF; fill-opacity:1.0; 
stroke:#FFFFFF; stroke-width:393.701; stroke-opacity:1; 
stroke-linecap:round; stroke-linejoin:round;">
</g>
<g style="fill:#FFFFFF; fill-opacity:1.0; 
stroke:#FFFFFF; stroke-width:0; stroke-opacity:1; 
stroke-linecap:round; stroke-linejoin:round;">
<circle cx="14451.8" cy="23009.5" r="236.22" /> 
</g>
<g style="fill:#FFFFFF; fill-opacity:1.0; 
stroke:#FFFFFF; stroke-width:393.701; stroke-opacity:1; 
stroke-linecap:round; stroke-linejoin:round;">
</g>
<g style="fill:#FFFFFF; fill-opacity:1.0; 
stroke:#FFFFFF; stroke-width:0; stroke-opacity:1; 
stroke-linecap:round; stroke-linejoin:round;">
<circle cx="21605.5" cy="19088.6" r="157.48" /> 
</g>
<g style="fill:#FFFFFF; fill-opacity:1.0; 
stroke:#FFFFFF; stroke-width:393.701; stroke-opacity:1; 
stroke-linecap:round; stroke-linejoin:round;">
</g>
<g style="fill:#FFFFFF; fill-opacity:1.0; 
stroke:#FFFFFF; stroke-width:0; stroke-opacity:1; 
stroke-linecap:round; stroke-linejoin:round;">
<circle cx="24605.5" cy="19088.6" r="157.48" /> 
</g>
<g style="fill:#FFFFFF; fill-opacity:1.0; 
stroke:#FFFFFF; stroke-width:393.701; stroke-opacity:1; 
stroke-linecap:round; stroke-linejoin:round;">
</g>
<g style="fill:#FFFFFF; fill-opacity:1.0; 
stroke:#FFFFFF; stroke-width:0; stroke-opacity:1; 
stroke-linecap:round; stroke-linejoin:round;">
<circle cx="24086.8" cy="12795.4" r="157.48" /> 
</g>
<g style="fill:#FFFFFF; fill-opacity:1.0; 
stroke:#FFFFFF; stroke-width:393.701; stroke-opacity:1; 
stroke-linecap:round; stroke-linejoin:round;">
</g>
<g style="fill:#FFFFFF; fill-opacity:1.0; 
stroke:#FFFFFF; stroke-width:0; stroke-opacity:1; 
stroke-linecap:round; stroke-linejoin:round;">
<circle cx="21965.5" cy="10674.1" r="157.48" /> 
</g>
<g style="fill:#FFFFFF; fill-opacity:1.0; 
stroke:#FFFFFF; stroke-width:393.701; stroke-opacity:1; 
stroke-linecap:round; stroke-linejoin:round;">
</g>
<g style="fill:#FFFFFF; fill-opacity:1.0; 
stroke:#FFFFFF; stroke-width:0; stroke-opacity:1; 
stroke-linecap:round; stroke-linejoin:round;">
<circle cx="25779.4" cy="14437.9" r="177.165" /> 
</g>
<g style="fill:#FFFFFF; fill-opacity:1.0; 
stroke:#FFFFFF; stroke-width:393.701; stroke-opacity:1; 
stroke-linecap:round; stroke-linejoin:round;">
</g>
<g style="fill:#FFFFFF; fill-opacity:1.0; 
stroke:#FFFFFF; stroke-width:0; stroke-opacity:1; 
stroke-linecap:round; stroke-linejoin:round;">
<circle cx="25072.3" cy="13730.8" r="177.165" /> 
</g>
<g style="fill:#FFFFFF; fill-opacity:1.0; 
stroke:#FFFFFF; stroke-width:393.701; stroke-opacity:1; 
stroke-linecap:round; stroke-linejoin:round;">
</g>
<g style="fill:#FFFFFF; fill-opacity:1.0; 
stroke:#FFFFFF; stroke-width:0; stroke-opacity:1; 
stroke-linecap:round; stroke-linejoin:round;">
<circle cx="22105.5" cy="4950.82" r="295.276" /> 
</g>
<g style="fill:#FFFFFF; fill-opacity:1.0; 
stroke:#FFFFFF; stroke-width:393.701; stroke-opacity:1; 
stroke-linecap:round; stroke-linejoin:round;">
</g>
<g style="fill:#FFFFFF; fill-opacity:1.0; 
stroke:#FFFFFF; stroke-width:0; stroke-opacity:1; 
stroke-linecap:round; stroke-linejoin:round;">
<circle cx="14038.5" cy="4950.82" r="295.276" /> 
</g>
<g style="fill:#FFFFFF; fill-opacity:1.0; 
stroke:#FFFFFF; stroke-width:393.701; stroke-opacity:1; 
stroke-linecap:round; stroke-linejoin:round;">
</g>
<g style="fill:#FFFFFF; fill-opacity:1.0; 
stroke:#FFFFFF; stroke-width:0; stroke-opacity:1; 
stroke-linecap:round; stroke-linejoin:round;">
<circle cx="32003.1" cy="13592.5" r="295.276" /> 
</g>
<g style="fill:#FFFFFF; fill-opacity:1.0; 
stroke:#FFFFFF; stroke-width:393.701; stroke-opacity:1; 
stroke-linecap:round; stroke-linejoin:round;">
</g>
<g style="fill:#FFFFFF; fill-opacity:1.0; 
stroke:#FFFFFF; stroke-width:0; stroke-opacity:1; 
stroke-linecap:round; stroke-linejoin:round;">
<circle cx="32003.1" cy="21659.5" r="295.276" /> 
</g>
<g style="fill:#FFFFFF; fill-opacity:1.0; 
stroke:#FFFFFF; stroke-width:393.701; stroke-opacity:1; 
stroke-linecap:round; stroke-linejoin:round;">
</g>
<g style="fill:#FFFFFF; fill-opacity:1.0; 
stroke:#FFFFFF; stroke-width:0; stroke-opacity:1; 
stroke-linecap:round; stroke-linejoin:round;">
<circle cx="23773.9" cy="10213.8" r="196.85" /> 
</g>
<g style="fill:#FFFFFF; fill-opacity:1.0; 
stroke:#FFFFFF; stroke-width:393.701; stroke-opacity:1; 
stroke-linecap:round; stroke-linejoin:round;">
</g>
<g style="fill:#FFFFFF; fill-opacity:1.0; 
stroke:#FFFFFF; stroke-width:0; stroke-opacity:1; 
stroke-linecap:round; stroke-linejoin:round;">
<circle cx="24481" cy="10920.9" r="196.85" /> 
</g>
<g style="fill:#FFFFFF; fill-opacity:1.0; 
stroke:#FFFFFF; stroke-width:393.701; stroke-opacity:1; 
stroke-linecap:round; stroke-linejoin:round;">
</g>
<g style="fill:#FFFFFF; fill-opacity:1.0; 
stroke:#FFFFFF; stroke-width:0; stroke-opacity:1; 
stroke-linecap:round; stroke-linejoin:round;">
<circle cx="25188.2" cy="11628" r="196.85" /> 
</g>
<g style="fill:#FFFFFF; fill-opacity:1.0; 
stroke:#FFFFFF; stroke-width:393.701; stroke-opacity:1; 
stroke-linecap:round; stroke-linejoin:round;">
</g>
<g style="fill:#FFFFFF; fill-opacity:1.0; 
stroke:#FFFFFF; stroke-width:0; stroke-opacity:1; 
stroke-linecap:round; stroke-linejoin:round;">
<circle cx="12605.5" cy="13856.3" r="160" /> 
</g>
<g style="fill:#FFFFFF; fill-opacity:1.0; 
stroke:#FFFFFF; stroke-width:393.701; stroke-opacity:1; 
stroke-linecap:round; stroke-linejoin:round;">
</g>
<g style="fill:#FFFFFF; fill-opacity:1.0; 
stroke:#FFFFFF; stroke-width:0; stroke-opacity:1; 
stroke-linecap:round; stroke-linejoin:round;">
<circle cx="14574" cy="13856.3" r="160" /> 
</g>
<g style="fill:#FFFFFF; fill-opacity:1.0; 
stroke:#FFFFFF; stroke-width:393.701; stroke-opacity:1; 
stroke-linecap:round; stroke-linejoin:round;">
</g>
<g style="fill:#FFFFFF; fill-opacity:1.0; 
stroke:#FFFFFF; stroke-width:0; stroke-opacity:1; 
stroke-linecap:round; stroke-linejoin:round;">
<circle cx="12605.5" cy="18777.6" r="160" /> 
</g>
<g style="fill:#FFFFFF; fill-opacity:1.0; 
stroke:#FFFFFF; stroke-width:393.701; stroke-opacity:1; 
stroke-linecap:round; stroke-linejoin:round;">
</g>
<g style="fill:#FFFFFF; fill-opacity:1.0; 
stroke:#FFFFFF; stroke-width:0; stroke-opacity:1; 
stroke-linecap:round; stroke-linejoin:round;">
<circle cx="14574" cy="18777.6" r="160" /> 
</g>
<g style="fill:#FFFFFF; fill-opacity:1.0; 
stroke:#FFFFFF; stroke-width:393.701; stroke-opacity:1; 
stroke-linecap:round; stroke-linejoin:round;">
</g>
<g style="fill:#FFFFFF; fill-opacity:1.0; 
stroke:#FFFFFF; stroke-width:0; stroke-opacity:1; 
stroke-linecap:round; stroke-linejoin:round;">
<circle cx="18652.7" cy="23380" r="160" /> 
</g>
<g style="fill:#FFFFFF; fill-opacity:1.0; 
stroke:#FFFFFF; stroke-width:393.701; stroke-opacity:1; 
stroke-linecap:round; stroke-linejoin:round;">
</g>
<g style="fill:#FFFFFF; fill-opacity:1.0; 
stroke:#FFFFFF; stroke-width:0; stroke-opacity:1; 
stroke-linecap:round; stroke-linejoin:round;">
<circle cx="18652.7" cy="21411.4" r="160" /> 
</g>
<g style="fill:#FFFFFF; fill-opacity:1.0; 
stroke:#FFFFFF; stroke-width:393.701; stroke-opacity:1; 
stroke-linecap:round; stroke-linejoin:round;">
</g>
<g style="fill:#FFFFFF; fill-opacity:1.0; 
stroke:#FFFFFF; stroke-width:0; stroke-opacity:1; 
stroke-linecap:round; stroke-linejoin:round;">
<circle cx="23574" cy="23380" r="160" /> 
</g>
<g style="fill:#FFFFFF; fill-opacity:1.0; 
stroke:#FFFFFF; stroke-width:393.701; stroke-opacity:1; 
stroke-linecap:round; stroke-linejoin:round;">
</g>
<g style="fill:#FFFFFF; fill-opacity:1.0; 
stroke:#FFFFFF; stroke-width:0; stroke-opacity:1; 
stroke-linecap:round; stroke-linejoin:round;">
<circle cx="23574" cy="21411.4" r="160" /> 
</g>
<g style="fill:#FFFFFF; fill-opacity:1.0; 
stroke:#FFFFFF; stroke-width:393.701; stroke-opacity:1; 
stroke-linecap:round; stroke-linejoin:round;">
</g>
<g style="fill:#FFFFFF; fill-opacity:1.0; 
stroke:#FFFFFF; stroke-width:0; stroke-opacity:1; 
stroke-linecap:round; stroke-linejoin:round;">
<circle cx="16101.5" cy="10911.4" r="196.85" /> 
</g>
<g style="fill:#FFFFFF; fill-opacity:1.0; 
stroke:#FFFFFF; stroke-width:393.701; stroke-opacity:1; 
stroke-linecap:round; stroke-linejoin:round;">
</g>
<g style="fill:#FFFFFF; fill-opacity:1.0; 
stroke:#FFFFFF; stroke-width:0; stroke-opacity:1; 
stroke-linecap:round; stroke-linejoin:round;">
<circle cx="16101.5" cy="9927.19" r="196.85" /> 
</g>
<g style="fill:#FFFFFF; fill-opacity:1.0; 
stroke:#FFFFFF; stroke-width:393.701; stroke-opacity:1; 
stroke-linecap:round; stroke-linejoin:round;">
</g>
<g style="fill:#FFFFFF; fill-opacity:1.0; 
stroke:#FFFFFF; stroke-width:0; stroke-opacity:1; 
stroke-linecap:round; stroke-linejoin:round;">
<circle cx="16101.5" cy="8942.94" r="196.85" /> 
</g>
<g style="fill:#FFFFFF; fill-opacity:1.0; 
stroke:#FFFFFF; stroke-width:393.701; stroke-opacity:1; 
stroke-linecap:round; stroke-linejoin:round;">
</g>
<g style="fill:#FFFFFF; fill-opacity:1.0; 
stroke:#FFFFFF; stroke-width:0; stroke-opacity:1; 
stroke-linecap:round; stroke-linejoin:round;">
<circle cx="13345.6" cy="11639.8" r="551.181" /> 
</g>
<g style="fill:#FFFFFF; fill-opacity:1.0; 
stroke:#FFFFFF; stroke-width:393.701; stroke-opacity:1; 
stroke-linecap:round; stroke-linejoin:round;">
</g>
<g style="fill:#FFFFFF; fill-opacity:1.0; 
stroke:#FFFFFF; stroke-width:0; stroke-opacity:1; 
stroke-linecap:round; stroke-linejoin:round;">
<circle cx="13345.6" cy="8214.6" r="551.181" /> 
</g>
<g style="fill:#FFFFFF; fill-opacity:1.0; 
stroke:#FFFFFF; stroke-width:393.701; stroke-opacity:1; 
stroke-linecap:round; stroke-linejoin:round;">
</g>
<g style="fill:#FFFFFF; fill-opacity:1.0; 
stroke:#FFFFFF; stroke-width:0; stroke-opacity:1; 
stroke-linecap:round; stroke-linejoin:round;">
<circle cx="28251.1" cy="20049.2" r="196.85" /> 
</g>
<g style="fill:#FFFFFF; fill-opacity:1.0; 
stroke:#FFFFFF; stroke-width:393.701; stroke-opacity:1; 
stroke-linecap:round; stroke-linejoin:round;">
</g>
<g style="fill:#FFFFFF; fill-opacity:1.0; 
stroke:#FFFFFF; stroke-width:0; stroke-opacity:1; 
stroke-linecap:round; stroke-linejoin:round;">
<circle cx="27266.9" cy="20049.2" r="196.85" /> 
</g>
<g style="fill:#FFFFFF; fill-opacity:1.0; 
stroke:#FFFFFF; stroke-width:393.701; stroke-opacity:1; 
stroke-linecap:round; stroke-linejoin:round;">
</g>
<g style="fill:#FFFFFF; fill-opacity:1.0; 
stroke:#FFFFFF; stroke-width:0; stroke-opacity:1; 
stroke-linecap:round; stroke-linejoin:round;">
<circle cx="26282.6" cy="20049.2" r="196.85" /> 
</g>
<g style="fill:#FFFFFF; fill-opacity:1.0; 
stroke:#FFFFFF; stroke-width:393.701; stroke-opacity:1; 
stroke-linecap:round; stroke-linejoin:round;">
</g>
<g style="fill:#FFFFFF; fill-opacity:1.0; 
stroke:#FFFFFF; stroke-width:0; stroke-opacity:1; 
stroke-linecap:round; stroke-linejoin:round;">
<circle cx="28979.5" cy="22805.1" r="551.181" /> 
</g>
<g style="fill:#FFFFFF; fill-opacity:1.0; 
stroke:#FFFFFF; stroke-width:393.701; stroke-opacity:1; 
stroke-linecap:round; stroke-linejoin:round;">
</g>
<g style="fill:#FFFFFF; fill-opacity:1.0; 
stroke:#FFFFFF; stroke-width:0; stroke-opacity:1; 
stroke-linecap:round; stroke-linejoin:round;">
<circle cx="25554.3" cy="22805.1" r="551.181" /> 
</g>
<g style="fill:#FFFFFF; fill-opacity:1.0; 
stroke:#FFFFFF; stroke-width:393.701; stroke-opacity:1; 
stroke-linecap:round; stroke-linejoin:round;">
</g>
<g style="fill:#000000; fill-opacity:1.0; 
stroke:#000000; stroke-width:393.701; stroke-opacity:1; 
stroke-linecap:round; stroke-linejoin:round;">
</g>
<g style="fill:#840000; fill-opacity:1.0; 
stroke:#840000; stroke-width:393.701; stroke-opacity:1; 
stroke-linecap:round; stroke-linejoin:round;">
</g>
<g style="fill:#840000; fill-opacity:1.0; 
stroke:#840000; stroke-width:0; stroke-opacity:1; 
stroke-linecap:round; stroke-linejoin:round;">
<circle cx="19482.7" cy="11506.7" r="590.551" /> 
</g>
<g style="fill:#840000; fill-opacity:1.0; 
stroke:#840000; stroke-width:393.701; stroke-opacity:1; 
stroke-linecap:round; stroke-linejoin:round;">
</g>
<g style="fill:#840000; fill-opacity:1.0; 
stroke:#840000; stroke-width:0; stroke-opacity:1; 
stroke-linecap:round; stroke-linejoin:round;">
<circle cx="17361.4" cy="13628" r="590.551" /> 
</g>
<g style="fill:#840000; fill-opacity:1.0; 
stroke:#840000; stroke-width:393.701; stroke-opacity:1; 
stroke-linecap:round; stroke-linejoin:round;">
</g>
<g style="fill:#840000; fill-opacity:1.0; 
stroke:#840000; stroke-width:0; stroke-opacity:1; 
stroke-linecap:round; stroke-linejoin:round;">
<polyline style="fill-rule:evenodd;"
points="21425,12901
21815,12511
22371,13068
21982,13457
21425,12901
" /> 
</g>
<g style="fill:#840000; fill-opacity:1.0; 
stroke:#840000; stroke-width:629.921; stroke-opacity:1; 
stroke-linecap:round; stroke-linejoin:round;">
</g>
<g style="fill:#840000; fill-opacity:0.0; 
stroke:#840000; stroke-width:629.921; stroke-opacity:1; 
stroke-linecap:round; stroke-linejoin:round;">
<path d="M21703 17032
L22093 17422
" />
<path d="M20996 13496
L21386 13886
" />
<path d="M22410 16325
L22800 16715
" />
<path d="M20289 14204
L20679 14593
" />
<path d="M23118 15618
L23507 16008
" />
<path d="M19582 14911
L19972 15300
" />
<path d="M23825 14911
L24214 15300
" />
</g>
<g style="fill:#840000; fill-opacity:0.0; 
stroke:#840000; stroke-width:0; stroke-opacity:1; 
stroke-linecap:round; stroke-linejoin:round;">
</g>
<g style="fill:#840000; fill-opacity:1.0; 
stroke:#840000; stroke-width:0; stroke-opacity:1; 
stroke-linecap:round; stroke-linejoin:round;">
<polyline style="fill-rule:evenodd;"
points="13266,23776
12431,24611
11457,23637
12292,22802
13266,23776
" /> 
</g>
<g style="fill:#840000; fill-opacity:1.0; 
stroke:#840000; stroke-width:787.402; stroke-opacity:1; 
stroke-linecap:round; stroke-linejoin:round;">
</g>
<g style="fill:#840000; fill-opacity:0.0; 
stroke:#840000; stroke-width:787.402; stroke-opacity:1; 
stroke-linecap:round; stroke-linejoin:round;">
<path d="M12196 21088
L12530 20754
" />
<path d="M14980 23872
L15314 23538
" />
</g>
<g style="fill:#840000; fill-opacity:1.0; 
stroke:#840000; stroke-width:0; stroke-opacity:1; 
stroke-linecap:round; stroke-linejoin:round;">
<circle cx="13059.8" cy="21617.6" r="236.22" /> 
</g>
<g style="fill:#840000; fill-opacity:1.0; 
stroke:#840000; stroke-width:393.701; stroke-opacity:1; 
stroke-linecap:round; stroke-linejoin:round;">
</g>
<g style="fill:#840000; fill-opacity:1.0; 
stroke:#840000; stroke-width:0; stroke-opacity:1; 
stroke-linecap:round; stroke-linejoin:round;">
<circle cx="14451.8" cy="23009.5" r="236.22" /> 
</g>
<g style="fill:#840000; fill-opacity:1.0; 
stroke:#840000; stroke-width:393.701; stroke-opacity:1; 
stroke-linecap:round; stroke-linejoin:round;">
</g>
<g style="fill:#840000; fill-opacity:1.0; 
stroke:#840000; stroke-width:0; stroke-opacity:1; 
stroke-linecap:round; stroke-linejoin:round;">
<circle cx="21605.5" cy="19088.6" r="590.551" /> 
</g>
<g style="fill:#840000; fill-opacity:1.0; 
stroke:#840000; stroke-width:393.701; stroke-opacity:1; 
stroke-linecap:round; stroke-linejoin:round;">
</g>
<g style="fill:#840000; fill-opacity:1.0; 
stroke:#840000; stroke-width:0; stroke-opacity:1; 
stroke-linecap:round; stroke-linejoin:round;">
<circle cx="24605.5" cy="19088.6" r="590.551" /> 
</g>
<g style="fill:#840000; fill-opacity:1.0; 
stroke:#840000; stroke-width:393.701; stroke-opacity:1; 
stroke-linecap:round; stroke-linejoin:round;">
</g>
<g style="fill:#840000; fill-opacity:1.0; 
stroke:#840000; stroke-width:0; stroke-opacity:1; 
stroke-linecap:round; stroke-linejoin:round;">
<circle cx="24086.8" cy="12795.4" r="590.551" /> 
</g>
<g style="fill:#840000; fill-opacity:1.0; 
stroke:#840000; stroke-width:393.701; stroke-opacity:1; 
stroke-linecap:round; stroke-linejoin:round;">
</g>
<g style="fill:#840000; fill-opacity:1.0; 
stroke:#840000; stroke-width:0; stroke-opacity:1; 
stroke-linecap:round; stroke-linejoin:round;">
<circle cx="21965.5" cy="10674.1" r="590.551" /> 
</g>
<g style="fill:#840000; fill-opacity:1.0; 
stroke:#840000; stroke-width:393.701; stroke-opacity:1; 
stroke-linecap:round; stroke-linejoin:round;">
</g>
<g style="fill:#840000; fill-opacity:1.0; 
stroke:#840000; stroke-width:0; stroke-opacity:1; 
stroke-linecap:round; stroke-linejoin:round;">
<polyline style="fill-rule:evenodd;"
points="26419,14243
25584,15078
25139,14632
25974,13797
26419,14243
" /> 
</g>
<g style="fill:#840000; fill-opacity:1.0; 
stroke:#840000; stroke-width:629.921; stroke-opacity:1; 
stroke-linecap:round; stroke-linejoin:round;">
</g>
<g style="fill:#840000; fill-opacity:0.0; 
stroke:#840000; stroke-width:629.921; stroke-opacity:1; 
stroke-linecap:round; stroke-linejoin:round;">
<path d="M24877 13925
L25267 13535
" />
</g>
<g style="fill:#840000; fill-opacity:1.0; 
stroke:#840000; stroke-width:0; stroke-opacity:1; 
stroke-linecap:round; stroke-linejoin:round;">
<circle cx="22105.5" cy="4950.82" r="787.402" /> 
</g>
<g style="fill:#840000; fill-opacity:1.0; 
stroke:#840000; stroke-width:393.701; stroke-opacity:1; 
stroke-linecap:round; stroke-linejoin:round;">
</g>
<g style="fill:#840000; fill-opacity:1.0; 
stroke:#840000; stroke-width:0; stroke-opacity:1; 
stroke-linecap:round; stroke-linejoin:round;">
<polyline style="fill-rule:evenodd;"
points="13251,5738
13251,4163
14825,4163
14825,5738
13251,5738
" /> 
<circle cx="32003.1" cy="13592.5" r="787.402" /> 
</g>
<g style="fill:#840000; fill-opacity:1.0; 
stroke:#840000; stroke-width:393.701; stroke-opacity:1; 
stroke-linecap:round; stroke-linejoin:round;">
</g>
<g style="fill:#840000; fill-opacity:1.0; 
stroke:#840000; stroke-width:0; stroke-opacity:1; 
stroke-linecap:round; stroke-linejoin:round;">
<polyline style="fill-rule:evenodd;"
points="32790,22446
31215,22446
31215,20872
32790,20872
32790,22446
" /> 
<polyline style="fill-rule:evenodd;"
points="23592,10867
23119,10394
23954,9559
24428,10032
23592,10867
" /> 
</g>
<g style="fill:#840000; fill-opacity:1.0; 
stroke:#840000; stroke-width:669.291; stroke-opacity:1; 
stroke-linecap:round; stroke-linejoin:round;">
</g>
<g style="fill:#840000; fill-opacity:0.0; 
stroke:#840000; stroke-width:669.291; stroke-opacity:1; 
stroke-linecap:round; stroke-linejoin:round;">
<path d="M24300 11101
L24661 10739
" />
<path d="M25076 11739
L25299 11516
" />
</g>
<g style="fill:#840000; fill-opacity:0.0; 
stroke:#840000; stroke-width:1181.1; stroke-opacity:1; 
stroke-linecap:round; stroke-linejoin:round;">
<path d="M12605 13954
L12605 13757
" />
<path d="M14573 13954
L14573 13757
" />
<path d="M12605 18876
L12605 18679
" />
<path d="M14573 18876
L14573 18679
" />
<path d="M18751 23379
L18554 23379
" />
<path d="M18751 21411
L18554 21411
" />
<path d="M23672 23379
L23475 23379
" />
<path d="M23672 21411
L23475 21411
" />
</g>
<g style="fill:#840000; fill-opacity:0.0; 
stroke:#840000; stroke-width:600; stroke-opacity:1; 
stroke-linecap:round; stroke-linejoin:round;">
<path d="M15810 10911
L16392 10911
" />
<path d="M15810 9927
L16392 9927
" />
</g>
<g style="fill:#840000; fill-opacity:0.0; 
stroke:#840000; stroke-width:629.921; stroke-opacity:1; 
stroke-linecap:round; stroke-linejoin:round;">
<path d="M15825 8942
L16377 8942
" />
</g>
<g style="fill:#840000; fill-opacity:0.0; 
stroke:#840000; stroke-width:0; stroke-opacity:1; 
stroke-linecap:round; stroke-linejoin:round;">
</g>
<g style="fill:#840000; fill-opacity:1.0; 
stroke:#840000; stroke-width:0; stroke-opacity:1; 
stroke-linecap:round; stroke-linejoin:round;">
<polyline style="fill-rule:evenodd;"
points="13995,12289
12696,12289
12696,10990
13995,10990
13995,12289
" /> 
<polyline style="fill-rule:evenodd;"
points="13995,8864
12696,8864
12696,7564
13995,7564
13995,8864
" /> 
</g>
<g style="fill:#840000; fill-opacity:1.0; 
stroke:#840000; stroke-width:600; stroke-opacity:1; 
stroke-linecap:round; stroke-linejoin:round;">
</g>
<g style="fill:#840000; fill-opacity:0.0; 
stroke:#840000; stroke-width:600; stroke-opacity:1; 
stroke-linecap:round; stroke-linejoin:round;">
<path d="M28251 20339
L28251 19758
" />
<path d="M27266 20339
L27266 19758
" />
<path d="M26282 20339
L26282 19758
" />
</g>
<g style="fill:#840000; fill-opacity:0.0; 
stroke:#840000; stroke-width:0; stroke-opacity:1; 
stroke-linecap:round; stroke-linejoin:round;">
</g>
<g style="fill:#840000; fill-opacity:1.0; 
stroke:#840000; stroke-width:0; stroke-opacity:1; 
stroke-linecap:round; stroke-linejoin:round;">
<polyline style="fill-rule:evenodd;"
points="29629,22155
29629,23454
28329,23454
28329,22155
29629,22155
" /> 
<polyline style="fill-rule:evenodd;"
points="26203,22155
26203,23454
24904,23454
24904,22155
26203,22155
" /> 
</g>
<g style="fill:#000000; fill-opacity:1.0; 
stroke:#000000; stroke-width:0; stroke-opacity:1; 
stroke-linecap:round; stroke-linejoin:round;">
</g>
<g style="fill:#008484; fill-opacity:1.0; 
stroke:#008484; stroke-width:0; stroke-opacity:1; 
stroke-linecap:round; stroke-linejoin:round;">
</g>
<g style="fill:#008484; fill-opacity:1.0; 
stroke:#008484; stroke-width:47.2441; stroke-opacity:1; 
stroke-linecap:round; stroke-linejoin:round;">
</g>
<g style="fill:#008484; fill-opacity:0.0; 
stroke:#008484; stroke-width:47.2441; stroke-opacity:1; 
stroke-linecap:round; stroke-linejoin:round;">
<path d="M19588 11946
L19680 12038
" />
<path d="M19680 12038
L17893 13825
" />
<path d="M17893 13825
L17801 13733
" />
<path d="M19042 11400
L18950 11309
" />
<path d="M18950 11309
L17163 13096
" />
<path d="M17163 13096
L17255 13188
" />
<path d="M23067 13380
L22575 12887
" />
<path d="M22575 12887
L19679 15782
" />
<path d="M19679 15782
L21222 17324
" />
<path d="M21222 17324
L24117 14429
" />
<path d="M24117 14429
L23624 13936
" />
<path d="M23067.9 13380 A393.701 393.701 0.0 0 0 23624.7 13936.8 " />
</g>
<g style="fill:#008484; fill-opacity:0.0; 
stroke:#008484; stroke-width:59.0551; stroke-opacity:1; 
stroke-linecap:round; stroke-linejoin:round;">
<path d="M12877 24182
L13442 24747
" />
<path d="M13442 24747
L12452 25737
" />
<path d="M12452 25737
L10331 23616
" />
<path d="M10331 23616
L11321 22626
" />
<path d="M11321 22626
L11887 23192
" />
<path d="M12523 26374
L12806 26656
" />
<path d="M9412 23262
L9695 23545
" />
<path d="M11250 26232
L11675 25808
" />
<path d="M10260 24394
L9836 24818
" />
<path d="M11462 26020
L10048 24606
" />
<path d="M12523 26374
L12452 26444
" />
<path d="M12452 26444
L12382 26515
" />
<path d="M12382 26515
L9553 23687
" />
<path d="M9553 23687
L9695 23545
" />
<path d="M11250 26232
L9836 24818
" />
<path d="M16200 23262
L12806 26656
" />
<path d="M9412 23262
L12806 19868
" />
<path d="M12806 19868
L16200 23262
" />
</g>
<g style="fill:#008484; fill-opacity:0.0; 
stroke:#008484; stroke-width:47.2441; stroke-opacity:1; 
stroke-linecap:round; stroke-linejoin:round;">
<path d="M21841 18702
L21841 18572
" />
<path d="M21841 18572
L24369 18572
" />
<path d="M24369 18572
L24369 18702
" />
<path d="M21841 19474
L21841 19604
" />
<path d="M21841 19604
L24369 19604
" />
<path d="M24369 19604
L24369 19474
" />
<path d="M23646 12901
L23555 12993
" />
<path d="M23555 12993
L21767 11205
" />
<path d="M21767 11205
L21859 11113
" />
<path d="M24192 12355
L24284 12263
" />
<path d="M24284 12263
L22497 10476
" />
<path d="M22497 10476
L22405 10568
" />
<path d="M24660 13919.1 A783.465 783.465 0.0 0 0 25516.2 14862.6 " />
<path d="M26204.1 14174.7 A783.465 783.465 0.0 0 0 25260.6 13318.5 " />
<path d="M24835.4 14095.1 A590.551 590.551 0.0 0 0 25415 14674.8 " />
<path d="M26016.3 14073.5 A590.551 590.551 0.0 0 0 25436.6 13493.9 " />
<path d="M25516 14862
L25559 14819
" />
<path d="M26160 14217
L26204 14174
" />
<path d="M15711.8 6328.77 A4525.89 4525.89 0.0 0 0 24548.7 4932.99 " />
<path d="M15712.5 6339.16 A314.961 314.961 0.0 0 0 15416.5 6131.92 " />
<path d="M24548.7 4968.64 A4525.89 4525.89 0.0 0 0 15711.8 3572.86 " />
<path d="M15416.5 3769.71 A314.961 314.961 0.0 0 0 15712.5 3562.48 " />
<path d="M13172 3769
L15416 3769
" />
<path d="M13172 6131
L13172 3769
" />
<path d="M13172 6131
L15416 6131
" />
<path d="M33381.1 19986.2 A4525.89 4525.89 0.0 0 0 31985.3 11149.4 " />
<path d="M33391.5 19985.6 A314.961 314.961 0.0 0 0 33184.2 20281.5 " />
<path d="M32020.9 11149.4 A4525.89 4525.89 0.0 0 0 30625.2 19986.2 " />
<path d="M30822 20281.5 A314.961 314.961 0.0 0 0 30614.8 19985.6 " />
<path d="M30822 22525
L30822 20281
" />
<path d="M33184 22525
L30822 22525
" />
<path d="M33184 22525
L33184 20281
" />
<path d="M25188 12368
L25928 11627
" />
<path d="M23757 10937
L25188 12368
" />
<path d="M24497 10197
L25928 11627
" />
<path d="M23757 10937
L24497 10197
" />
<path d="M23403 10584
L23033 10213
" />
<path d="M23033 10213
L23403 9843
" />
<path d="M11168 18738
L11168 13895
" />
<path d="M12971 13895
L14207 13895
" />
<path d="M16010 13895
L16010 18738
" />
<path d="M12239 18738
L11168 18738
" />
<circle cx="13605.5" cy="16277.6" r="1802.78" /> 
<path d="M16010 18738
L14940 18738
" />
<path d="M14207 18738
L12971 18738
" />
<path d="M14940 13895
L16010 13895
" />
<path d="M11168 13895
L12239 13895
" />
<path d="M23534 24816
L18692 24816
" />
<path d="M18692 23013
L18692 21777
" />
<path d="M18692 19974
L23534 19974
" />
<path d="M23534 23746
L23534 24816
" />
<circle cx="21074" cy="22380" r="1802.78" /> 
<path d="M23534 19974
L23534 21045
" />
<path d="M23534 21777
L23534 23013
" />
<path d="M18692 21045
L18692 19974
" />
<path d="M18692 24816
L18692 23746
" />
</g>
<g style="fill:#008484; fill-opacity:0.0; 
stroke:#008484; stroke-width:59.0551; stroke-opacity:1; 
stroke-linecap:round; stroke-linejoin:round;">
<path d="M11573 8155
L12558 8155
" />
<path d="M14133 8155
L15117 8155
" />
<path d="M14133 11698
L15117 11698
" />
<path d="M11573 11698
L12558 11698
" />
<path d="M15117 11698
L15117 8155
" />
<path d="M11573 11698
L11573 8155
" />
<circle cx="13345.6" cy="9927.19" r="787.402" /> 
<path d="M25495 24576
L25495 23592
" />
<path d="M25495 22017
L25495 21033
" />
<path d="M29038 22017
L29038 21033
" />
<path d="M29038 24576
L29038 23592
" />
<path d="M29038 21033
L25495 21033
" />
<path d="M29038 24576
L25495 24576
" />
<circle cx="27266.9" cy="22805.1" r="787.402" /> 
</g>
<g style="fill:#C2C200; fill-opacity:0.0; 
stroke:#C2C200; stroke-width:59.0551; stroke-opacity:1; 
stroke-linecap:round; stroke-linejoin:round;">
<path d="M19144 13382
L18919 13342
" />
<path d="M18985 13541
L18707 13263
L18813 13157
L18853 13144
L18879 13144
L18919 13157
L18959 13197
L18972 13236
L18972 13263
L18959 13303
L18853 13409
" />
<path d="M19409 13117
L19250 13276
" />
<path d="M19330 13197
L19051 12918
L19065 12985
L19065 13038
L19051 13077
" />
<path d="M23565 13015
L23339 13240
L23326 13280
L23326 13307
L23339 13346
L23392 13399
L23432 13413
L23458 13413
L23498 13399
L23724 13174
" />
<path d="M23724 13731
L23565 13572
" />
<path d="M23644 13651
L23922 13373
L23856 13386
L23803 13386
L23763 13373
" />
</g>
<g style="fill:#008484; fill-opacity:0.0; 
stroke:#008484; stroke-width:59.0551; stroke-opacity:1; 
stroke-linecap:round; stroke-linejoin:round;">
<path d="M16036 22288
L15877 22447
L15834 22469
L15792 22469
L15749 22447
L15728 22426
" />
<path d="M16036 22734
L15908 22606
" />
<path d="M15972 22670
L16195 22447
L16142 22458
L16099 22458
L16068 22447
" />
</g>
<g style="fill:#008484; fill-opacity:0.0; 
stroke:#008484; stroke-width:39.3701; stroke-opacity:1; 
stroke-linecap:round; stroke-linejoin:round;">
<path d="M12379 22703
L12466 22616
L12474 22592
L12466 22568
L12434 22536
L12411 22528
" />
<path d="M12387 22695
L12363 22687
L12323 22648
L12315 22624
L12323 22600
L12339 22584
L12363 22576
L12387 22584
L12426 22624
L12450 22632
" />
<path d="M12641 22743
L12530 22854
" />
<path d="M12570 22672
L12482 22759
L12474 22783
L12482 22807
L12506 22831
L12530 22839
L12546 22839
" />
<path d="M12681 23006
L12848 22839
" />
<path d="M12689 22998
L12665 22990
L12633 22958
L12625 22934
L12625 22918
L12633 22894
L12681 22847
L12705 22839
L12721 22839
L12745 22847
L12776 22878
L12784 22902
" />
<path d="M12760 23085
L12872 22974
" />
<path d="M12928 22918
L12912 22918
L12912 22934
L12928 22934
L12928 22918
L12912 22934
" />
<path d="M12864 23189
L12856 23165
L12856 23149
L12864 23125
L12912 23077
L12935 23069
L12951 23069
L12975 23077
L12999 23101
L13007 23125
L13007 23141
L12999 23165
L12951 23212
L12928 23220
L12912 23220
L12888 23212
L12864 23189
" />
<path d="M13142 23467
L13134 23443
L13134 23427
L13142 23403
L13190 23356
L13214 23348
L13230 23348
L13254 23356
L13278 23379
L13285 23403
L13285 23419
L13278 23443
L13230 23491
L13206 23499
L13190 23499
L13166 23491
L13142 23467
" />
<path d="M13452 23554
L13341 23666
" />
<path d="M13381 23483
L13293 23570
L13285 23594
L13293 23618
L13317 23642
L13341 23650
L13357 23650
" />
<path d="M13508 23610
L13572 23674
" />
<path d="M13588 23578
L13445 23721
L13437 23745
L13445 23769
L13460 23785
" />
</g>
<g style="fill:#C2C200; fill-opacity:0.0; 
stroke:#C2C200; stroke-width:39.3701; stroke-opacity:1; 
stroke-linecap:round; stroke-linejoin:round;">
</g>
<g style="fill:#C2C200; fill-opacity:0.0; 
stroke:#C2C200; stroke-width:59.0551; stroke-opacity:1; 
stroke-linecap:round; stroke-linejoin:round;">
<path d="M23846 18223
L23715 18035
" />
<path d="M23621 18223
L23621 17829
L23771 17829
L23809 17848
L23828 17867
L23846 17904
L23846 17960
L23828 17998
L23809 18017
L23771 18035
L23621 18035
" />
<path d="M23996 17867
L24015 17848
L24053 17829
L24146 17829
L24184 17848
L24203 17867
L24221 17904
L24221 17942
L24203 17998
L23978 18223
L24221 18223
" />
<path d="M22210 12457
L22250 12232
" />
<path d="M22051 12298
L22330 12019
L22436 12125
L22449 12165
L22449 12192
L22436 12232
L22396 12271
L22356 12285
L22330 12285
L22290 12271
L22184 12165
" />
<path d="M22581 12271
L22754 12444
L22555 12457
L22595 12497
L22608 12536
L22608 12563
L22595 12603
L22528 12669
L22489 12682
L22462 12682
L22422 12669
L22343 12589
L22330 12550
L22330 12523
" />
<path d="M24270 14828
L24548 14550
L24615 14616
L24641 14669
L24641 14722
L24628 14762
L24588 14828
L24548 14868
L24482 14908
L24442 14921
L24389 14921
L24336 14895
L24270 14828
" />
<path d="M24694 15253
L24535 15093
" />
<path d="M24615 15173
L24893 14895
L24827 14908
L24774 14908
L24734 14895
" />
<path d="M13729 3229
L13785 3248
L13804 3267
L13822 3304
L13822 3361
L13804 3398
L13785 3417
L13747 3436
L13597 3436
L13597 3042
L13729 3042
L13766 3061
L13785 3079
L13804 3117
L13804 3154
L13785 3192
L13766 3211
L13729 3229
L13597 3229
" />
<path d="M13935 3042
L14160 3042
" />
<path d="M14047 3436
L14047 3042
" />
<path d="M14497 3436
L14272 3436
" />
<path d="M14385 3436
L14385 3042
L14347 3098
L14310 3136
L14272 3154
" />
</g>
<g style="fill:#008484; fill-opacity:0.0; 
stroke:#008484; stroke-width:59.0551; stroke-opacity:1; 
stroke-linecap:round; stroke-linejoin:round;">
<path d="M14896 4992
L15346 4992
" />
<path d="M15121 5217
L15121 4768
" />
</g>
<g style="fill:#C2C200; fill-opacity:0.0; 
stroke:#C2C200; stroke-width:59.0551; stroke-opacity:1; 
stroke-linecap:round; stroke-linejoin:round;">
<path d="M33982 20949
L34001 20892
L34020 20874
L34057 20855
L34114 20855
L34151 20874
L34170 20892
L34189 20930
L34189 21080
L33795 21080
L33795 20949
L33814 20911
L33832 20892
L33870 20874
L33907 20874
L33945 20892
L33964 20911
L33982 20949
L33982 21080
" />
<path d="M33795 20742
L33795 20517
" />
<path d="M34189 20630
L33795 20630
" />
<path d="M33832 20405
L33814 20386
L33795 20349
L33795 20255
L33814 20217
L33832 20199
L33870 20180
L33907 20180
L33964 20199
L34189 20424
L34189 20180
" />
</g>
<g style="fill:#008484; fill-opacity:0.0; 
stroke:#008484; stroke-width:59.0551; stroke-opacity:1; 
stroke-linecap:round; stroke-linejoin:round;">
<path d="M32045 20801
L32045 20351
" />
<path d="M32270 20576
L31820 20576
" />
</g>
<g style="fill:#C2C200; fill-opacity:0.0; 
stroke:#C2C200; stroke-width:59.0551; stroke-opacity:1; 
stroke-linecap:round; stroke-linejoin:round;">
<path d="M22866 10048
L22919 10022
L22986 9956
L22999 9916
L22999 9889
L22986 9850
L22959 9823
L22919 9810
L22893 9810
L22853 9823
L22787 9863
L22747 9876
L22720 9876
L22681 9863
L22654 9836
L22641 9797
L22641 9770
L22654 9730
L22720 9664
L22773 9638
" />
<path d="M22853 9531
L23198 9744
L23052 9492
L23304 9638
L23092 9293
" />
<path d="M23171 9213
L23344 9041
L23357 9240
L23397 9200
L23436 9187
L23463 9187
L23503 9200
L23569 9266
L23582 9306
L23582 9333
L23569 9372
L23489 9452
L23450 9465
L23423 9465
" />
<path d="M14716 20109
L14716 19715
" />
<path d="M14716 19865
L14753 19846
L14828 19846
L14866 19865
L14885 19884
L14903 19921
L14903 20034
L14885 20071
L14866 20090
L14828 20109
L14753 20109
L14716 20090
" />
<path d="M15016 19846
L15166 19846
" />
<path d="M15072 19715
L15072 20052
L15091 20090
L15128 20109
L15166 20109
" />
<path d="M15297 19846
L15297 20109
" />
<path d="M15297 19884
L15316 19865
L15353 19846
L15409 19846
L15447 19865
L15466 19903
L15466 20109
" />
<path d="M15859 20109
L15634 20109
" />
<path d="M15747 20109
L15747 19715
L15709 19771
L15672 19809
L15634 19828
" />
<path d="M20554 23412
L20554 23018
" />
<path d="M20554 23168
L20592 23149
L20667 23149
L20704 23168
L20723 23187
L20742 23224
L20742 23337
L20723 23374
L20704 23393
L20667 23412
L20592 23412
L20554 23393
" />
<path d="M20854 23149
L21004 23149
" />
<path d="M20911 23018
L20911 23356
L20929 23393
L20967 23412
L21004 23412
" />
<path d="M21136 23149
L21136 23412
" />
<path d="M21136 23187
L21154 23168
L21192 23149
L21248 23149
L21286 23168
L21304 23206
L21304 23412
" />
<path d="M21473 23056
L21492 23037
L21529 23018
L21623 23018
L21660 23037
L21679 23056
L21698 23093
L21698 23131
L21679 23187
L21454 23412
L21698 23412
" />
<path d="M11480 6971
L11480 6577
L11630 6577
L11668 6596
L11687 6615
L11705 6652
L11705 6708
L11687 6746
L11668 6765
L11630 6783
L11480 6783
" />
<path d="M11930 6971
L11893 6952
L11874 6933
L11855 6896
L11855 6783
L11874 6746
L11893 6727
L11930 6708
L11987 6708
L12024 6727
L12043 6746
L12062 6783
L12062 6896
L12043 6933
L12024 6952
L11987 6971
L11930 6971
" />
<path d="M12174 6708
L12324 6708
" />
<path d="M12230 6577
L12230 6915
L12249 6952
L12287 6971
L12324 6971
" />
<path d="M12662 6971
L12437 6971
" />
<path d="M12549 6971
L12549 6577
L12512 6633
L12474 6671
L12437 6690
" />
<path d="M25886 24144
L25886 23750
L26036 23750
L26073 23769
L26092 23788
L26111 23825
L26111 23882
L26092 23919
L26073 23938
L26036 23957
L25886 23957
" />
<path d="M26336 24144
L26298 24125
L26280 24107
L26261 24069
L26261 23957
L26280 23919
L26298 23900
L26336 23882
L26392 23882
L26430 23900
L26448 23919
L26467 23957
L26467 24069
L26448 24107
L26430 24125
L26392 24144
L26336 24144
" />
<path d="M26580 23882
L26730 23882
" />
<path d="M26636 23750
L26636 24088
L26655 24125
L26692 24144
L26730 24144
" />
<path d="M26842 23788
L26861 23769
L26898 23750
L26992 23750
L27030 23769
L27048 23788
L27067 23825
L27067 23863
L27048 23919
L26823 24144
L27067 24144
" />
</g>
<g style="fill:#000000; fill-opacity:0.0; 
stroke:#000000; stroke-width:59.0551; stroke-opacity:1; 
stroke-linecap:round; stroke-linejoin:round;">
</g>
<g style="fill:#848484; fill-opacity:0.0; 
stroke:#848484; stroke-width:59.0551; stroke-opacity:1; 
stroke-linecap:round; stroke-linejoin:round;">
</g>
<g style="fill:#848484; fill-opacity:0.0; 
stroke:#848484; stroke-width:19.685; stroke-opacity:1; 
stroke-linecap:round; stroke-linejoin:round;">
<path d="M20220 11659
L19329 10768
" />
<path d="M19329 10768
L16615 13483
" />
<path d="M16615 13483
L17506 14374
" />
<path d="M17506 14374
L20220 11659
" />
<path d="M22037 12233
L19031 15239
" />
<path d="M19031 15239
L21759 17967
" />
<path d="M21759 17967
L24766 14961
" />
<path d="M24766 14961
L22037 12233
" />
<path d="M21192 18458
L21192 19718
" />
<path d="M21192 19718
L25030 19718
" />
<path d="M25030 19718
L25030 18458
" />
<path d="M25030 18458
L21192 18458
" />
<path d="M23933 13533
L24824 12642
" />
<path d="M24824 12642
L22110 9928
" />
<path d="M22110 9928
L21219 10818
" />
<path d="M21219 10818
L23933 13533
" />
<path d="M25473 15384
L26725 14131
" />
<path d="M26725 14131
L25375 12781
" />
<path d="M25375 12781
L24122 14034
" />
<path d="M24122 14034
L25473 15384
" />
<path d="M15619.3 6368.14 A4626.01 4626.01 0.0 0 0 24648.7 4923.26 " />
<path d="M24648.7 4978.37 A4626.01 4626.01 0.0 0 0 15619.3 3533.49 " />
<path d="M15620 6372.82 A216.535 216.535 0.0 0 0 15416.5 6230.34 " />
<path d="M15416.5 3671.29 A216.535 216.535 0.0 0 0 15620 3528.81 " />
<path d="M13073 3671
L15416 3671
" />
<path d="M13073 6230
L15416 6230
" />
<path d="M13073 6230
L13073 3671
" />
<path d="M33420.4 20078.8 A4626.01 4626.01 0.0 0 0 31975.6 11049.3 " />
<path d="M32030.7 11049.3 A4626.01 4626.01 0.0 0 0 30585.8 20078.8 " />
<path d="M33425.1 20078 A216.535 216.535 0.0 0 0 33282.6 20281.5 " />
<path d="M30723.6 20281.5 A216.535 216.535 0.0 0 0 30581.1 20078 " />
<path d="M30723 22624
L30723 20281
" />
<path d="M33282 22624
L33282 20281
" />
<path d="M33282 22624
L30723 22624
" />
<path d="M22771 10213
L25179 12621
" />
<path d="M25179 12621
L26181 11619
" />
<path d="M26181 11619
L23773 9211
" />
<path d="M23773 9211
L22771 10213
" />
<path d="M11129 19474
L11129 13167
" />
<path d="M11129 19474
L16050 19474
" />
<path d="M16050 13167
L11129 13167
" />
<path d="M16050 13167
L16050 19474
" />
<path d="M24270 24856
L17963 24856
" />
<path d="M24270 24856
L24270 19935
" />
<path d="M17963 19935
L17963 24856
" />
<path d="M17963 19935
L24270 19935
" />
<path d="M15314 11895
L15314 11305
" />
<path d="M14133 12486
L12558 12486
" />
<path d="M14133 12486
L14133 11895
" />
<path d="M14133 11895
L15314 11895
" />
<path d="M16495 11305
L15314 11305
" />
<path d="M12558 12486
L12558 11895
" />
<path d="M12558 11895
L11377 11895
" />
<path d="M11377 11895
L11377 7958
" />
<path d="M11377 7958
L12558 7958
" />
<path d="M12558 7958
L12558 7368
" />
<path d="M12558 7368
L14133 7368
" />
<path d="M14133 7368
L14133 7958
" />
<path d="M14133 7958
L15314 7958
" />
<path d="M15314 7958
L15314 8549
" />
<path d="M15314 8549
L16495 8549
" />
<path d="M16495 8549
L16495 11305
" />
<path d="M29235 20836
L28644 20836
" />
<path d="M29825 22017
L29825 23592
" />
<path d="M29825 22017
L29235 22017
" />
<path d="M29235 22017
L29235 20836
" />
<path d="M28644 19655
L28644 20836
" />
<path d="M29825 23592
L29235 23592
" />
<path d="M29235 23592
L29235 24773
" />
<path d="M29235 24773
L25298 24773
" />
<path d="M25298 24773
L25298 23592
" />
<path d="M25298 23592
L24707 23592
" />
<path d="M24707 23592
L24707 22017
" />
<path d="M24707 22017
L25298 22017
" />
<path d="M25298 22017
L25298 20836
" />
<path d="M25298 20836
L25888 20836
" />
<path d="M25888 20836
L25888 19655
" />
<path d="M25888 19655
L28644 19655
" />
</g>
<g style="fill:#000000; fill-opacity:0.0; 
stroke:#000000; stroke-width:19.685; stroke-opacity:1; 
stroke-linecap:round; stroke-linejoin:round;">
</g>
<g style="fill:#C2C200; fill-opacity:0.0; 
stroke:#C2C200; stroke-width:19.685; stroke-opacity:1; 
stroke-linecap:round; stroke-linejoin:round;">
</g>
<g style="fill:#C2C200; fill-opacity:0.0; 
stroke:#C2C200; stroke-width:118.11; stroke-opacity:1; 
stroke-linecap:round; stroke-linejoin:round;">
<path d="M25853 12749
L25535 12431
" />
<path d="M25853 12431
L25535 12749
" />
<path d="M27176 14060
L26858 13742
" />
</g>
<g style="fill:#C2C200; fill-opacity:0.0; 
stroke:#C2C200; stroke-width:39.3701; stroke-opacity:1; 
stroke-linecap:round; stroke-linejoin:round;">
<path d="M19646 12038
L18950 11342
" />
<path d="M18950 11342
L17197 13096
" />
<path d="M17197 13096
L17893 13792
" />
<path d="M17893 13792
L19646 12038
" />
<path d="M19482 11506
L19298 11690
" />
<path d="M17361 13627
L17545 13444
" />
<path d="M22707 13086
L24196 14575
" />
<path d="M24196 14575
L21368 17404
" />
<path d="M21368 17404
L19600 15636
" />
<path d="M19600 15636
L22150 13086
" />
<path d="M22150 13086
L22707 13086
" />
<path d="M21865 18596
L21865 19580
" />
<path d="M21865 19580
L24345 19580
" />
<path d="M24345 19580
L24345 18596
" />
<path d="M24345 18596
L21865 18596
" />
<path d="M21605 19088
L21865 19088
" />
<path d="M24605 19088
L24345 19088
" />
<path d="M23555 12959
L24251 12263
" />
<path d="M24251 12263
L22497 10509
" />
<path d="M22497 10509
L21801 11205
" />
<path d="M21801 11205
L23555 12959
" />
<path d="M24086 12795
L23903 12611
" />
<path d="M21965 10674
L22149 10857
" />
<path d="M26168 14177.6 A748.031 748.031 0.0 1 0 25518.8 14826.6 " />
<circle cx="25425.8" cy="14084.4" r="590.551" /> 
<path d="M25518 14826
L26168 14177
" />
<path d="M15749.5 6325.69 A354.331 354.331 0.0 0 0 15416.5 6092.55 " />
<path d="M15751.1 6328.77 A4488.4 4488.4 0.0 0 0 24511.1 4921.15 " />
<path d="M24511.1 4980.48 A4488.4 4488.4 0.0 0 0 15751.1 3572.86 " />
<path d="M16085.8 5462.63 A3970.14 3970.14 0.0 0 0 23959.8 4439.01 " />
<path d="M17581.9 5462.63 A2494.03 2494.03 0.0 0 0 22515.5 4870.65 " />
<path d="M19274.8 5462.63 A906.367 906.367 0.0 0 0 20926.5 4881.59 " />
<path d="M23318 7990
L22958 7660
" />
<path d="M23318 1910
L22948 2250
" />
<path d="M20926.5 5020.04 A906.367 906.367 0.0 0 0 19274.8 4439.01 " />
<path d="M22515.5 5030.99 A2494.03 2494.03 0.0 0 0 17581.9 4439.01 " />
<path d="M23959.8 5462.63 A3970.14 3970.14 0.0 0 0 16085.8 4439.01 " />
<path d="M15428 3809
L13369 3809
" />
<path d="M13369 6092
L15428 6092
" />
<path d="M13211 3966
L13211 5935
" />
<path d="M14038 5462
L20416 5462
" />
<path d="M20416 4439
L14038 4439
" />
<path d="M15416.5 3809.08 A354.331 354.331 0.0 0 0 15749.5 3575.94 " />
<path d="M20416.5 5462.63 A511.811 511.811 0.0 0 0 20416.5 4439.01 " />
<path d="M14038 4439
L14038 5462
" />
<path d="M13211.8 5935.07 A157.48 157.48 0.0 0 0 13369.3 6092.55 " />
<path d="M13369.3 3809.08 A157.48 157.48 0.0 0 0 13211.8 3966.56 " />
<path d="M33378 19948.6 A354.331 354.331 0.0 0 0 33144.8 20281.5 " />
<path d="M33381.1 19946.9 A4488.4 4488.4 0.0 0 0 31973.4 11186.9 " />
<path d="M32032.8 11186.9 A4488.4 4488.4 0.0 0 0 30625.2 19946.9 " />
<path d="M32514.9 19612.2 A3970.14 3970.14 0.0 0 0 31491.3 11738.2 " />
<path d="M32514.9 18116.2 A2494.03 2494.03 0.0 0 0 31922.9 13182.5 " />
<path d="M32514.9 16423.3 A906.367 906.367 0.0 0 0 31933.9 14771.5 " />
<path d="M35043 12379
L34713 12739
" />
<path d="M28963 12379
L29303 12749
" />
<path d="M32072.3 14771.5 A906.367 906.367 0.0 0 0 31491.3 16423.3 " />
<path d="M32083.3 13182.5 A2494.03 2494.03 0.0 0 0 31491.3 18116.2 " />
<path d="M32514.9 11738.2 A3970.14 3970.14 0.0 0 0 31491.3 19612.2 " />
<path d="M30861 20269
L30861 22328
" />
<path d="M33144 22328
L33144 20269
" />
<path d="M31018 22486
L32987 22486
" />
<path d="M32514 21659
L32514 15281
" />
<path d="M31491 15281
L31491 21659
" />
<path d="M30861.4 20281.5 A354.331 354.331 0.0 0 0 30628.2 19948.6 " />
<path d="M32514.9 15281.5 A511.811 511.811 0.0 0 0 31491.3 15281.5 " />
<path d="M31491 21659
L32514 21659
" />
<path d="M32987.4 22486.2 A157.48 157.48 0.0 0 0 33144.8 22328.8 " />
<path d="M30861.4 22328.8 A157.48 157.48 0.0 0 0 31018.9 22486.2 " />
<path d="M23243 10036
L23773 9506
" />
<path d="M23773 9506
L25895 11627
" />
<path d="M25895 11627
L25188 12335
" />
<path d="M25188 12335
L23243 10390
" />
<path d="M23243 10390
L23243 10036
" />
<path d="M15951 18679
L15951 13954
" />
<path d="M11227 18679
L11227 13954
" />
<path d="M11227 13954
L15951 13954
" />
<path d="M11227 18679
L15951 18679
" />
<path d="M23475 20033
L18751 20033
" />
<path d="M23475 24757
L18751 24757
" />
<path d="M18751 24757
L18751 20033
" />
<path d="M23475 24757
L23475 20033
" />
</g>
<g style="fill:#C2C200; fill-opacity:0.0; 
stroke:#C2C200; stroke-width:59.0551; stroke-opacity:1; 
stroke-linecap:round; stroke-linejoin:round;">
<path d="M18368 12818
L18209 12977
" />
<path d="M18288 12898
L18010 12619
L18023 12686
L18023 12739
L18010 12779
" />
<path d="M18222 12460
L18222 12434
L18235 12394
L18301 12328
L18341 12315
L18368 12315
L18407 12328
L18434 12354
L18461 12407
L18461 12725
L18633 12553
" />
<path d="M18752 12434
L18474 12155
" />
<path d="M18911 12275
L18633 12235
" />
<path d="M18633 11996
L18633 12315
" />
<path d="M20058 17067
L20190 16934
" />
<path d="M20111 17173
L19925 16802
L20296 16987
" />
<path d="M20071 16656
L20230 16497
" />
<path d="M20429 16855
L20150 16576
" />
<path d="M20283 16444
L20442 16285
" />
<path d="M20641 16643
L20363 16364
" />
<path d="M20813 16470
L20535 16192
" />
<path d="M20946 16338
L20667 16059
L21105 16179
L20827 15900
" />
<path d="M21158 15860
L21290 15993
" />
<path d="M20919 15807
L21158 15860
L21105 15622
" />
<path d="M21357 15609
L21317 15622
L21290 15622
L21251 15609
L21237 15595
L21224 15555
L21224 15529
L21237 15489
L21290 15436
L21330 15423
L21357 15423
L21397 15436
L21410 15449
L21423 15489
L21423 15516
L21410 15555
L21357 15609
L21344 15648
L21344 15675
L21357 15715
L21410 15768
L21450 15781
L21476 15781
L21516 15768
L21569 15715
L21582 15675
L21582 15648
L21569 15609
L21516 15555
L21476 15542
L21450 15542
L21410 15555
" />
<path d="M21595 15131
L21463 15264
L21582 15410
L21582 15383
L21595 15343
L21662 15277
L21701 15264
L21728 15264
L21768 15277
L21834 15343
L21847 15383
L21847 15410
L21834 15449
L21768 15516
L21728 15529
L21701 15529
" />
<path d="M21900 15171
L22112 14959
" />
<path d="M22086 14694
L22086 14667
L22099 14628
L22165 14561
L22205 14548
L22232 14548
L22271 14561
L22298 14588
L22324 14641
L22324 14959
L22497 14787
" />
<path d="M22391 14336
L22417 14309
L22457 14296
L22484 14296
L22523 14309
L22590 14349
L22656 14415
L22696 14482
L22709 14521
L22709 14548
L22696 14588
L22669 14614
L22629 14628
L22603 14628
L22563 14614
L22497 14574
L22431 14508
L22391 14442
L22378 14402
L22378 14376
L22391 14336
" />
<path d="M22881 14402
L22603 14124
L22709 14018
L22749 14004
L22775 14004
L22815 14018
L22855 14057
L22868 14097
L22868 14124
L22855 14164
L22749 14270
" />
<path d="M22881 13845
L23107 14071
L23146 14084
L23173 14084
L23213 14071
L23266 14018
L23279 13978
L23279 13951
L23266 13912
L23040 13686
" />
<path d="M22930 15738
L22704 15963
L22691 16003
L22691 16029
L22704 16069
L22757 16122
L22797 16135
L22824 16135
L22864 16122
L23089 15897
" />
<path d="M23089 16453
L22930 16294
" />
<path d="M23009 16374
L23288 16096
L23221 16109
L23168 16109
L23129 16096
" />
<path d="M22785 19350
L22560 19350
" />
<path d="M22673 19350
L22673 18956
L22635 19012
L22598 19050
L22560 19068
" />
<path d="M22935 18993
L22954 18975
L22991 18956
L23085 18956
L23123 18975
L23141 18993
L23160 19031
L23160 19068
L23141 19125
L22916 19350
L23160 19350
" />
<path d="M23329 19350
L23329 18956
" />
<path d="M23366 19200
L23479 19350
" />
<path d="M23479 19087
L23329 19237
" />
<path d="M22742 11761
L22782 11535
" />
<path d="M22583 11602
L22862 11323
L22968 11429
L22981 11469
L22981 11496
L22968 11535
L22928 11575
L22888 11589
L22862 11589
L22822 11575
L22716 11469
" />
<path d="M25944 13207
L25812 13074
L26090 12796
" />
<path d="M26183 13154
L26276 13247
" />
<path d="M26170 13432
L26037 13300
L26316 13021
L26448 13154
" />
<path d="M26289 13551
L26568 13273
L26634 13339
L26660 13392
L26660 13445
L26647 13485
L26607 13551
L26568 13591
L26501 13631
L26461 13644
L26408 13644
L26355 13618
L26289 13551
" />
<path d="M18536 6304
L18592 6323
L18611 6342
L18630 6379
L18630 6435
L18611 6473
L18592 6492
L18555 6510
L18405 6510
L18405 6117
L18536 6117
L18574 6135
L18592 6154
L18611 6192
L18611 6229
L18592 6267
L18574 6285
L18536 6304
L18405 6304
" />
<path d="M18967 6510
L18967 6304
L18949 6267
L18911 6248
L18836 6248
L18799 6267
" />
<path d="M18967 6492
L18930 6510
L18836 6510
L18799 6492
L18780 6454
L18780 6417
L18799 6379
L18836 6360
L18930 6360
L18967 6342
" />
<path d="M19099 6248
L19249 6248
" />
<path d="M19155 6117
L19155 6454
L19174 6492
L19211 6510
L19249 6510
" />
<path d="M19324 6248
L19474 6248
" />
<path d="M19380 6117
L19380 6454
L19399 6492
L19436 6510
L19474 6510
" />
<path d="M19755 6492
L19717 6510
L19642 6510
L19605 6492
L19586 6454
L19586 6304
L19605 6267
L19642 6248
L19717 6248
L19755 6267
L19774 6304
L19774 6342
L19586 6379
" />
<path d="M19942 6510
L19942 6248
" />
<path d="M19942 6323
L19961 6285
L19980 6267
L20017 6248
L20055 6248
" />
<path d="M20148 6248
L20242 6510
" />
<path d="M20336 6248
L20242 6510
L20205 6604
L20186 6623
L20148 6642
" />
<path d="M20392 6548
L20692 6548
" />
<path d="M21011 6473
L20992 6492
L20936 6510
L20898 6510
L20842 6492
L20805 6454
L20786 6417
L20767 6342
L20767 6285
L20786 6210
L20805 6173
L20842 6135
L20898 6117
L20936 6117
L20992 6135
L21011 6154
" />
<path d="M21330 6492
L21292 6510
L21217 6510
L21180 6492
L21161 6454
L21161 6304
L21180 6267
L21217 6248
L21292 6248
L21330 6267
L21348 6304
L21348 6342
L21161 6379
" />
<path d="M21573 6510
L21536 6492
L21517 6454
L21517 6117
" />
<path d="M21780 6510
L21742 6492
L21723 6454
L21723 6117
" />
<path d="M35030 17436
L35048 17380
L35067 17361
L35105 17343
L35161 17343
L35198 17361
L35217 17380
L35236 17418
L35236 17568
L34842 17568
L34842 17436
L34861 17399
L34880 17380
L34917 17361
L34955 17361
L34992 17380
L35011 17399
L35030 17436
L35030 17568
" />
<path d="M35236 17005
L35030 17005
L34992 17024
L34973 17061
L34973 17136
L34992 17174
" />
<path d="M35217 17005
L35236 17043
L35236 17136
L35217 17174
L35180 17193
L35142 17193
L35105 17174
L35086 17136
L35086 17043
L35067 17005
" />
<path d="M34973 16874
L34973 16724
" />
<path d="M34842 16818
L35180 16818
L35217 16799
L35236 16762
L35236 16724
" />
<path d="M34973 16649
L34973 16499
" />
<path d="M34842 16593
L35180 16593
L35217 16574
L35236 16537
L35236 16499
" />
<path d="M35217 16218
L35236 16255
L35236 16330
L35217 16368
L35180 16387
L35030 16387
L34992 16368
L34973 16330
L34973 16255
L34992 16218
L35030 16199
L35067 16199
L35105 16387
" />
<path d="M35236 16030
L34973 16030
" />
<path d="M35048 16030
L35011 16012
L34992 15993
L34973 15955
L34973 15918
" />
<path d="M34973 15824
L35236 15730
" />
<path d="M34973 15637
L35236 15730
L35330 15768
L35348 15787
L35367 15824
" />
<path d="M35273 15580
L35273 15280
" />
<path d="M35198 14962
L35217 14981
L35236 15037
L35236 15074
L35217 15130
L35180 15168
L35142 15187
L35067 15205
L35011 15205
L34936 15187
L34898 15168
L34861 15130
L34842 15074
L34842 15037
L34861 14981
L34880 14962
" />
<path d="M35217 14643
L35236 14681
L35236 14756
L35217 14793
L35180 14812
L35030 14812
L34992 14793
L34973 14756
L34973 14681
L34992 14643
L35030 14624
L35067 14624
L35105 14812
" />
<path d="M35236 14399
L35217 14437
L35180 14456
L34842 14456
" />
<path d="M35236 14193
L35217 14231
L35180 14249
L34842 14249
" />
<path d="M24360 8991
L24413 9044
L24426 9084
L24426 9137
L24387 9203
L24294 9296
L24227 9336
L24174 9336
L24135 9322
L24082 9269
L24068 9230
L24068 9177
L24108 9110
L24201 9018
L24267 8978
L24320 8978
L24360 8991
" />
<path d="M24506 9322
L24320 9508
" />
<path d="M24479 9349
L24506 9349
L24546 9362
L24585 9402
L24599 9442
L24585 9482
L24440 9627
" />
<path d="M24678 9654
L24890 9866
" />
<path d="M25248 9879
L25301 9932
L25314 9972
L25314 10025
L25275 10091
L25182 10184
L25116 10224
L25063 10224
L25023 10211
L24970 10158
L24957 10118
L24957 10065
L24996 9999
L25089 9906
L25155 9866
L25208 9866
L25248 9879
" />
<path d="M25354 10171
L25460 10277
" />
<path d="M25208 10396
L25447 10158
L25487 10144
L25527 10158
L25553 10184
" />
<path d="M25513 10330
L25619 10436
" />
<path d="M25368 10555
L25606 10317
L25646 10303
L25686 10317
L25712 10343
" />
<path d="M24294 10479
L24321 10532
L24387 10599
L24427 10612
L24453 10612
L24493 10599
L24520 10572
L24533 10532
L24533 10506
L24520 10466
L24480 10400
L24467 10360
L24467 10333
L24480 10294
L24506 10267
L24546 10254
L24573 10254
L24612 10267
L24679 10333
L24705 10386
" />
<path d="M24811 10466
L24599 10811
L24851 10665
L24705 10917
L25050 10705
" />
<path d="M25130 10784
L25302 10956
L25103 10970
L25143 11009
L25156 11049
L25156 11076
L25143 11116
L25076 11182
L25037 11195
L25010 11195
L24970 11182
L24891 11102
L24878 11063
L24878 11036
" />
<path d="M16674 17455
L16693 17399
L16693 17305
L16674 17268
L16655 17249
L16618 17230
L16580 17230
L16543 17249
L16524 17268
L16505 17305
L16486 17380
L16468 17418
L16449 17436
L16411 17455
L16374 17455
L16336 17436
L16318 17418
L16299 17380
L16299 17286
L16318 17230
" />
<path d="M16299 17099
L16693 17005
L16411 16930
L16693 16855
L16299 16761
" />
<path d="M16730 16705
L16730 16405
" />
<path d="M16693 16311
L16299 16311
L16299 16161
L16318 16124
L16336 16105
L16374 16086
L16430 16086
L16468 16105
L16486 16124
L16505 16161
L16505 16311
" />
<path d="M16299 15918
L16618 15918
L16655 15899
L16674 15880
L16693 15843
L16693 15768
L16674 15730
L16655 15711
L16618 15693
L16299 15693
" />
<path d="M16674 15524
L16693 15468
L16693 15374
L16674 15337
L16655 15318
L16618 15299
L16580 15299
L16543 15318
L16524 15337
L16505 15374
L16486 15449
L16468 15486
L16449 15505
L16411 15524
L16374 15524
L16336 15505
L16318 15486
L16299 15449
L16299 15355
L16318 15299
" />
<path d="M16693 15130
L16299 15130
" />
<path d="M16486 15130
L16486 14905
" />
<path d="M16693 14905
L16299 14905
" />
<path d="M13783 16840
L13389 16840
" />
<path d="M13539 16840
L13521 16802
L13521 16727
L13539 16690
L13558 16671
L13596 16652
L13708 16652
L13746 16671
L13764 16690
L13783 16727
L13783 16802
L13764 16840
" />
<path d="M13521 16540
L13521 16390
" />
<path d="M13389 16483
L13727 16483
L13764 16465
L13783 16427
L13783 16390
" />
<path d="M13521 16258
L13783 16258
" />
<path d="M13558 16258
L13539 16240
L13521 16202
L13521 16146
L13539 16108
L13577 16090
L13783 16090
" />
<path d="M13783 15696
L13783 15921
" />
<path d="M13783 15808
L13389 15808
L13446 15846
L13483 15883
L13502 15921
" />
<path d="M18333 19665
L18389 19684
L18483 19684
L18520 19665
L18539 19646
L18558 19609
L18558 19571
L18539 19534
L18520 19515
L18483 19496
L18408 19477
L18370 19459
L18351 19440
L18333 19402
L18333 19365
L18351 19327
L18370 19309
L18408 19290
L18501 19290
L18558 19309
" />
<path d="M18689 19290
L18783 19684
L18858 19402
L18932 19684
L19026 19290
" />
<path d="M19082 19721
L19382 19721
" />
<path d="M19476 19684
L19476 19290
L19626 19290
L19664 19309
L19682 19327
L19701 19365
L19701 19421
L19682 19459
L19664 19477
L19626 19496
L19476 19496
" />
<path d="M19870 19290
L19870 19609
L19889 19646
L19907 19665
L19945 19684
L20020 19684
L20057 19665
L20076 19646
L20095 19609
L20095 19290
" />
<path d="M20264 19665
L20320 19684
L20414 19684
L20451 19665
L20470 19646
L20489 19609
L20489 19571
L20470 19534
L20451 19515
L20414 19496
L20339 19477
L20301 19459
L20282 19440
L20264 19402
L20264 19365
L20282 19327
L20301 19309
L20339 19290
L20432 19290
L20489 19309
" />
<path d="M20657 19684
L20657 19290
" />
<path d="M20657 19477
L20882 19477
" />
<path d="M20882 19684
L20882 19290
" />
<path d="M20511 22558
L20511 22164
" />
<path d="M20511 22314
L20549 22295
L20624 22295
L20661 22314
L20680 22333
L20699 22370
L20699 22483
L20680 22520
L20661 22539
L20624 22558
L20549 22558
L20511 22539
" />
<path d="M20811 22295
L20961 22295
" />
<path d="M20867 22164
L20867 22501
L20886 22539
L20923 22558
L20961 22558
" />
<path d="M21092 22295
L21092 22558
" />
<path d="M21092 22333
L21111 22314
L21148 22295
L21205 22295
L21242 22314
L21261 22351
L21261 22558
" />
<path d="M21430 22201
L21448 22183
L21486 22164
L21580 22164
L21617 22183
L21636 22201
L21655 22239
L21655 22276
L21636 22333
L21411 22558
L21655 22558
" />
<path d="M13426 7073
L13201 7073
" />
<path d="M13314 7073
L13314 6680
L13276 6736
L13239 6773
L13201 6792
" />
<path d="M13670 6680
L13708 6680
L13745 6698
L13764 6717
L13783 6755
L13801 6830
L13801 6923
L13783 6998
L13764 7036
L13745 7055
L13708 7073
L13670 7073
L13633 7055
L13614 7036
L13595 6998
L13576 6923
L13576 6830
L13595 6755
L13614 6717
L13633 6698
L13670 6680
" />
<path d="M13970 7073
L13970 6680
" />
<path d="M14195 7073
L14026 6848
" />
<path d="M14195 6680
L13970 6905
" />
<path d="M14720 7073
L14682 7055
L14664 7017
L14664 6680
" />
<path d="M14870 7073
L14870 6811
" />
<path d="M14870 6680
L14851 6698
L14870 6717
L14889 6698
L14870 6680
L14870 6717
" />
<path d="M15057 6811
L15057 7073
" />
<path d="M15057 6848
L15076 6830
L15114 6811
L15170 6811
L15207 6830
L15226 6867
L15226 7073
" />
<path d="M26480 21711
L26255 21711
" />
<path d="M26367 21711
L26367 21317
L26330 21374
L26292 21411
L26255 21430
" />
<path d="M26723 21317
L26761 21317
L26798 21336
L26817 21355
L26836 21392
L26855 21467
L26855 21561
L26836 21636
L26817 21674
L26798 21692
L26761 21711
L26723 21711
L26686 21692
L26667 21674
L26648 21636
L26630 21561
L26630 21467
L26648 21392
L26667 21355
L26686 21336
L26723 21317
" />
<path d="M27023 21711
L27023 21317
" />
<path d="M27061 21561
L27173 21711
" />
<path d="M27173 21449
L27023 21599
" />
<path d="M27698 21711
L27661 21692
L27642 21655
L27642 21317
" />
<path d="M27848 21711
L27848 21449
" />
<path d="M27848 21317
L27829 21336
L27848 21355
L27867 21336
L27848 21317
L27848 21355
" />
<path d="M28036 21449
L28036 21711
" />
<path d="M28036 21486
L28054 21467
L28092 21449
L28148 21449
L28186 21467
L28204 21505
L28204 21711
" />
</g>
<g style="fill:#000000; fill-opacity:0.0; 
stroke:#000000; stroke-width:59.0551; stroke-opacity:1; 
stroke-linecap:round; stroke-linejoin:round;">
</g>
<g style="fill:#C2C200; fill-opacity:0.0; 
stroke:#C2C200; stroke-width:59.0551; stroke-opacity:1; 
stroke-linecap:round; stroke-linejoin:round;">
</g>
<g style="fill:#C2C200; fill-opacity:0.0; 
stroke:#C2C200; stroke-width:39.3701; stroke-opacity:1; 
stroke-linecap:round; stroke-linejoin:round;">
<path d="M36520 21915
L36539 21865
" />
<path d="M11417 3398
L11381 3446
" />
<path d="M11453 3355
L11417 3398
" />
<path d="M14283 393
L11453 3355
" />
<path d="M14322 354
L14283 393
" />
<path d="M25692 126
L25674 113
" />
<path d="M25710 140
L25692 126
" />
<path d="M25727 155
L25710 140
" />
<path d="M11162 3868
L11139 3924
" />
<path d="M11188 3809
L11162 3868
" />
<path d="M11216 3747
L11188 3809
" />
<path d="M11246 3684
L11216 3747
" />
<path d="M37259 11128
L37236 11072
" />
<path d="M37275 11184
L37259 11128
" />
<path d="M25744 171
L25727 155
" />
<path d="M25760 187
L25744 171
" />
<path d="M25776 204
L25760 187
" />
<path d="M26998 10724
L26809 10713
" />
<path d="M36655 10664
L26998 10724
" />
<path d="M11125 24872
L11161 24901
" />
<path d="M33563 24922
L33625 24906
" />
<path d="M26376 10568
L26271 10492
" />
<path d="M26499 10632
L26376 10568
" />
<path d="M25791 222
L25776 204
" />
<path d="M25805 240
L25791 222
" />
<path d="M25819 259
L25805 240
" />
<path d="M11398 24988
L33188 24965
" />
<path d="M36368 22189
L36398 22147
" />
<path d="M33687 24887
L33746 24865
" />
<path d="M11317 24977
L11358 24985
" />
<path d="M37041 10825
L36990 10785
" />
<path d="M37088 10868
L37041 10825
" />
<path d="M33249 24963
L33312 24960
" />
<path d="M25913 526
L25912 505
" />
<path d="M25918 9719
L25913 526
" />
<path d="M25918 9731
L25918 9719
" />
<path d="M36500 21963
L36520 21915
" />
<path d="M11092 24841
L11125 24872
" />
<path d="M37207 11018
L37172 10966
" />
<path d="M37236 11072
L37207 11018
" />
<path d="M34107 24630
L36302 22269
" />
<path d="M11161 24901
L11198 24926
" />
<path d="M36302 22269
L36336 22230
" />
<path d="M36570 21764
L36583 21712
" />
<path d="M34064 24673
L34107 24630
" />
<path d="M11277 24964
L11317 24977
" />
<path d="M34017 24713
L34064 24673
" />
<path d="M11061 24807
L11092 24841
" />
<path d="M36453 22058
L36477 22011
" />
<path d="M10949 24574
L10957 24614
" />
<path d="M33501 24935
L33563 24922
" />
<path d="M36477 22011
L36500 21963
" />
<path d="M36583 21712
L36593 21661
" />
<path d="M33312 24960
L33375 24954
" />
<path d="M11198 24926
L11237 24947
" />
<path d="M33968 24750
L34017 24713
" />
<path d="M33916 24783
L33968 24750
" />
<path d="M11032 24771
L11061 24807
" />
<path d="M26643 10681
L26499 10632
" />
<path d="M26809 10713
L26643 10681
" />
<path d="M33375 24954
L33438 24946
" />
<path d="M36712 10667
L36655 10664
" />
<path d="M36769 10678
L36712 10667
" />
<path d="M33625 24906
L33687 24887
" />
<path d="M14754 94
L14700 114
" />
<path d="M14807 78
L14754 94
" />
<path d="M14862 64
L14807 78
" />
<path d="M14916 52
L14862 64
" />
<path d="M36602 21609
L36608 21557
" />
<path d="M25920 9762
L25918 9731
" />
<path d="M25925 9812
L25920 9762
" />
<path d="M25935 9876
L25925 9812
" />
<path d="M36556 21815
L36570 21764
" />
<path d="M36937 10750
L36882 10720
" />
<path d="M36990 10785
L36937 10750
" />
<path d="M25636 90
L25617 80
" />
<path d="M25655 101
L25636 90
" />
<path d="M25674 113
L25655 101
" />
<path d="M10957 24614
L10969 24655
" />
<path d="M14547 188
L14498 217
" />
<path d="M14597 161
L14547 188
" />
<path d="M14648 136
L14597 161
" />
<path d="M14700 114
L14648 136
" />
<path d="M14363 317
L14322 354
" />
<path d="M14406 282
L14363 317
" />
<path d="M14452 248
L14406 282
" />
<path d="M14498 217
L14452 248
" />
<path d="M37132 10915
L37088 10868
" />
<path d="M37172 10966
L37132 10915
" />
<path d="M14971 44
L14916 52
" />
<path d="M15026 39
L14971 44
" />
<path d="M15081 38
L15026 39
" />
<path d="M25477 45
L15081 38
" />
<path d="M33861 24814
L33916 24783
" />
<path d="M36613 21506
L37284 11297
" />
<path d="M25907 464
L25903 443
" />
<path d="M25910 484
L25907 464
" />
<path d="M25912 505
L25910 484
" />
<path d="M11358 24985
L11398 24988
" />
<path d="M25832 279
L25819 259
" />
<path d="M25844 298
L25832 279
" />
<path d="M25855 318
L25844 298
" />
<path d="M36608 21557
L36613 21506
" />
<path d="M37283 11241
L37275 11184
" />
<path d="M37284 11297
L37283 11241
" />
<path d="M36336 22230
L36368 22189
" />
<path d="M33188 24965
L33249 24963
" />
<path d="M33438 24946
L33501 24935
" />
<path d="M36539 21865
L36556 21815
" />
<path d="M11088 4057
L11077 4085
" />
<path d="M11101 4020
L11088 4057
" />
<path d="M11119 3975
L11101 4020
" />
<path d="M11139 3924
L11119 3975
" />
<path d="M33805 24841
L33861 24814
" />
<path d="M33746 24865
L33805 24841
" />
<path d="M25578 63
L25558 57
" />
<path d="M25598 71
L25578 63
" />
<path d="M25617 80
L25598 71
" />
<path d="M25866 339
L25855 318
" />
<path d="M25875 359
L25866 339
" />
<path d="M25884 380
L25875 359
" />
<path d="M11071 4103
L11069 4109
" />
<path d="M11077 4085
L11071 4103
" />
<path d="M36398 22147
L36427 22103
" />
<path d="M25891 401
L25884 380
" />
<path d="M25898 422
L25891 401
" />
<path d="M25903 443
L25898 422
" />
<path d="M36826 10696
L36769 10678
" />
<path d="M36882 10720
L36826 10696
" />
<path d="M26184 10407
L26112 10316
" />
<path d="M26271 10492
L26184 10407
" />
<path d="M25952 9953
L25935 9876
" />
<path d="M25976 10038
L25952 9953
" />
<path d="M26010 10128
L25976 10038
" />
<path d="M10946 24533
L10949 24574
" />
<path d="M36427 22103
L36453 22058
" />
<path d="M11237 24947
L11277 24964
" />
<path d="M26055 10222
L26010 10128
" />
<path d="M26112 10316
L26055 10222
" />
<path d="M11007 24734
L11032 24771
" />
<path d="M10986 24695
L11007 24734
" />
<path d="M11069 4109
L10946 24533
" />
<path d="M10969 24655
L10986 24695
" />
<path d="M36593 21661
L36602 21609
" />
<path d="M25497 46
L25477 45
" />
<path d="M25518 48
L25497 46
" />
<path d="M25538 52
L25518 48
" />
<path d="M25558 57
L25538 52
" />
<path d="M11278 3621
L11246 3684
" />
<path d="M11311 3559
L11278 3621
" />
<path d="M11345 3501
L11311 3559
" />
<path d="M11381 3446
L11345 3501
" />
</g> 
</svg>
