M48
METRIC,TZ
T1C0.600
T2C0.800
T3C1.000
T4C1.500
T5C2.500
%
G90
G05
T1
X13560Y11010
X13560Y9010
T2
X16320Y28900
X17500Y13870
X21708Y34288
X22457Y25146
X22888Y19258
X24253Y26942
X26049Y28738
X27100Y15030
X27845Y30534
X27845Y19758
X28014Y36403
X29641Y21554
X31437Y23350
X33233Y25146
X33403Y31015
X34720Y15030
X35906Y28639
X37702Y26843
T3
X3622Y3299
X3626Y10374
X4240Y28320
X4240Y15820
X5394Y8606
X8930Y5071
X9240Y28320
X9240Y15820
X10697Y3303
X13120Y40800
X13120Y38300
X13120Y35800
X15640Y25100
X15640Y17600
X19600Y9130
X19600Y4130
X32100Y9130
X32100Y4130
X32608Y37572
X34404Y35776
X36200Y33980
X38980Y12590
X41480Y12590
X43980Y12590
T4
X7880Y50940
X28370Y50940
X53510Y28990
X53510Y8500
T5
X6120Y42650
X6120Y33950
X37130Y5590
X45830Y5590
T0
M30
