<?xml version="1.0" standalone="no"?>
<!DOCTYPE svg PUBLIC "-//W3C//DTD SVG 1.1//EN"
"http://www.w3.org/Graphics/SVG/1.1/DTD/svg11.dtd">
<svg width="5480.26" height="5202.74" viewBox="0 0 5480.26 5202.74" version="1.1"
xmlns="http://www.w3.org/2000/svg"
xmlns:xlink="http://www.w3.org/1999/xlink">
<circle cx="4308.29" cy="4232.95" r="23.622" style=""/>
<circle cx="4308.29" cy="4390.43" r="23.622" style=""/>
<circle cx="2407.34" cy="2986.26" r="31.4961" style=""/>
<circle cx="2548.76" cy="2844.84" r="31.4961" style=""/>
<circle cx="2745.85" cy="2657.76" r="31.4961" style=""/>
<circle cx="3170.18" cy="2233.5" r="31.4961" style=""/>
<circle cx="3183.48" cy="2695.63" r="31.4961" style=""/>
<circle cx="3324.9" cy="2837.05" r="31.4961" style=""/>
<circle cx="3466.32" cy="2978.46" r="31.4961" style=""/>
<circle cx="3607.74" cy="3119.88" r="31.4961" style=""/>
<circle cx="3183.48" cy="3544.13" r="31.4961" style=""/>
<circle cx="3042.07" cy="3402.72" r="31.4961" style=""/>
<circle cx="2900.65" cy="3261.3" r="31.4961" style=""/>
<circle cx="2759.23" cy="3119.88" r="31.4961" style=""/>
<circle cx="2642.14" cy="3916.42" r="31.4961" style=""/>
<circle cx="3242.14" cy="3916.42" r="31.4961" style=""/>
<circle cx="3573.8" cy="3583.5" r="31.4961" style=""/>
<circle cx="3998.05" cy="4007.76" r="31.4961" style=""/>
<circle cx="4090.96" cy="2824.29" r="31.4961" style=""/>
<circle cx="3666.71" cy="2400.04" r="31.4961" style=""/>
<circle cx="1913.01" cy="4108.54" r="39.3701" style=""/>
<circle cx="2109.86" cy="4108.54" r="39.3701" style=""/>
<circle cx="2306.71" cy="4108.54" r="39.3701" style=""/>
<circle cx="2848.44" cy="4380.98" r="39.3701" style=""/>
<circle cx="2848.44" cy="4774.68" r="39.3701" style=""/>
<circle cx="3832.7" cy="4774.68" r="39.3701" style=""/>
<circle cx="3832.7" cy="4380.98" r="39.3701" style=""/>
<circle cx="4144.51" cy="3714.05" r="39.3701" style=""/>
<circle cx="4648.44" cy="3854.21" r="39.3701" style=""/>
<circle cx="5042.14" cy="3854.21" r="39.3701" style=""/>
<circle cx="5090.49" cy="4283.03" r="39.3701" style=""/>
<circle cx="4951.28" cy="4422.24" r="39.3701" style=""/>
<circle cx="4672.85" cy="4700.59" r="39.3701" style=""/>
<circle cx="4533.72" cy="4839.8" r="39.3701" style=""/>
<circle cx="5090.81" cy="4840.12" r="39.3701" style=""/>
<circle cx="4144.51" cy="3123.5" r="39.3701" style=""/>
<circle cx="4648.44" cy="2869.96" r="39.3701" style=""/>
<circle cx="5042.14" cy="2869.96" r="39.3701" style=""/>
<circle cx="4342.93" cy="2280.98" r="39.3701" style=""/>
<circle cx="4342.93" cy="2084.13" r="39.3701" style=""/>
<circle cx="4342.93" cy="1887.28" r="39.3701" style=""/>
<circle cx="2808.44" cy="2141.46" r="39.3701" style=""/>
<circle cx="2667.03" cy="2282.87" r="39.3701" style=""/>
<circle cx="2525.61" cy="2424.29" r="39.3701" style=""/>
<circle cx="1162.62" cy="4430.59" r="59.0551" style=""/>
<circle cx="1162.62" cy="2817.2" r="59.0551" style=""/>
<circle cx="3142.14" cy="1088.86" r="59.0551" style=""/>
<circle cx="4755.53" cy="1088.86" r="59.0551" style=""/>
<circle cx="1767.34" cy="4659.72" r="98.4252" style=""/>
<circle cx="2452.38" cy="4659.72" r="98.4252" style=""/>
<circle cx="4894.11" cy="2426.65" r="98.4252" style=""/>
<circle cx="4894.11" cy="1741.61" r="98.4252" style=""/>
</svg>
