<?xml version="1.0" standalone="no"?>
<!DOCTYPE svg PUBLIC "-//W3C//DTD SVG 1.1//EN"
"http://www.w3.org/Graphics/SVG/1.1/DTD/svg11.dtd">
<svg width="5472" height="5194" viewBox="0 0 5472 5194" version="1.1"
xmlns="http://www.w3.org/2000/svg"
xmlns:xlink="http://www.w3.org/1999/xlink">
<g fill-rule="evenodd"><path d="M 3315.22,2136.89 L 5243.36,2124.87 L 5250.48,2125.08 L 5262.22,2125.86 L 5274.56,2127.46 L 5286.37,2129.77 L 5296.94,2132.44 L 5308.32,2136.01 L 5317.63,2139.45 L 5329.59,2144.57 L 5337.85,2148.57 L 5349.15,2154.71 L 5356.25,2158.96 L 5366.9,2165.96 L 5373.39,2170.62 L 5384.03,2178.94 L 5390.02,2184.01 L 5399.77,2192.96 L 5405.28,2198.44 L 5414.27,2208.12 L 5419.41,2214.11 L 5427.33,2224.13 L 5432.2,2230.87 L 5439.32,2241.64 L 5443.93,2249.35 L 5449.93,2260.52 L 5454.26,2269.67 L 5459.15,2281.56 L 5462.83,2292.22 L 5466.15,2303.96 L 5468.72,2315.85 L 5470.45,2327.13 L 5471.57,2340.77 L 5471.73,2352.82 L 5471.52,2360.52 L 5337.28,4402.08 L 5337.13,4404.04 L 5336.23,4414.57 L 5335.83,4418.36 L 5334.54,4428.7 L 5334,4432.44 L 5332.25,4443.08 L 5331.56,4446.83 L 5329.45,4457.14 L 5328.62,4460.82 L 5326.04,4471.38 L 5325.06,4475.08 L 5322.15,4485.26 L 5321.01,4488.94 L 5317.6,4499.31 L 5316.31,4502.99 L 5312.6,4512.92 L 5311.11,4516.66 L 5306.88,4526.71 L 5305.21,4530.44 L 5300.71,4540 L 5298.85,4543.75 L 5293.88,4553.23 L 5291.75,4557.08 L 5286.29,4566.45 L 5283.93,4570.3 L 5278.27,4579.08 L 5275.64,4582.94 L 5269.48,4591.56 L 5266.53,4595.48 L 5259.84,4603.9 L 5256.58,4607.8 L 5249.7,4615.62 L 5247.95,4617.55 L 4809.13,5089.8 L 4806.46,5092.56 L 4797.48,5101.5 L 4791.98,5106.57 L 4782.45,5114.71 L 4777.06,5119 L 4767.17,5126.32 L 4761.84,5129.99 L 4751.21,5136.83 L 4745.9,5140.01 L 4734.59,5146.31 L 4729.5,5148.96 L 4717.99,5154.51 L 4713.17,5156.69 L 4701.5,5161.57 L 4696.85,5163.38 L 4684.52,5167.82 L 4680.07,5169.3 L 4667.85,5173.05 L 4663.62,5174.24 L 4651.05,5177.5 L 4646.94,5178.47 L 4634.09,5181.21 L 4630.14,5181.97 L 4617.39,5184.15 L 4613.57,5184.72 L 4600.81,5186.4 L 4597.12,5186.81 L 4584.39,5187.99 L 4580.77,5188.26 L 4568.14,5188.96 L 4564.56,5189.09 L 4552.24,5189.33 L 4550.46,5189.34 L 193.118,5194 L 186.161,5193.76 L 177.337,5193.14 L 164.91,5191.48 L 156.372,5189.77 L 145.787,5187.04 L 137.718,5184.47 L 128.308,5180.93 L 119.647,5177.16 L 111.404,5173.11 L 103.639,5168.83 L 96.53,5164.5 L 88.7451,5159.31 L 82.1681,5154.51 L 74.5291,5148.45 L 68.604,5143.35 L 61.665,5136.87 L 56.3757,5131.54 L 50.1566,5124.79 L 45.1593,5118.91 L 39.1362,5111.23 L 34.3868,5104.64 L 29.2356,5096.82 L 24.9602,5089.7 L 20.7208,5081.91 L 16.7933,5073.84 L 13.2118,5065.53 L 9.72632,5056.17 L 7.0587,5047.71 L 4.2431,5036.53 L 2.51934,5027.49 L 0.96156,5015.08 L 0.451633,5006.74 L 0.269658,5000.14 L 24.7742,915.872 L 26.204,899.743 L 26.424,898.467 L 30.8213,881.827 L 34.5928,871.361 L 35.4267,869.127 L 45.7752,842.453 L 46.8691,839.753 L 56.6877,816.508 L 58.0455,813.439 L 69.7158,788.244 L 71.1476,785.285 L 77.4947,772.703 L 78.8145,770.179 L 85.5776,757.685 L 87.2973,754.639 L 94.1804,742.937 L 96.504,739.181 L 103.667,728.163 L 106.917,723.469 L 114.248,713.511 L 119.053,707.492 L 126.658,698.695 L 129.939,695.084 L 695.847,102.579 L 697.621,100.77 L 705.472,92.9628 L 709.065,89.5633 L 717.588,81.9004 L 721.301,78.7248 L 730.106,71.5659 L 733.814,68.6963 L 743.008,61.9212 L 746.816,59.2516 L 756.363,52.8905 L 760.21,50.4529 L 769.919,44.6137 L 773.898,42.346 L 784.213,36.7788 L 788.33,34.6791 L 798.567,29.7598 L 802.762,27.8641 L 813.378,23.3607 L 817.792,21.6129 L 828.774,17.5675 L 833.436,15.9817 L 844.39,12.5582 L 849.131,11.2064 L 860,8.39881 L 864.971,7.25097 L 876.114,4.98129 L 881.381,4.05543 L 892.567,2.40366 L 898.2,1.73775 L 909.635,0.717898 L 915.428,0.373947 L 926.37,0.0459935 L 929.388,0.00199972 L 3008.45,1.47979 L 3015.86,1.76375 L 3024.67,2.43565 L 3035.09,3.79346 L 3039.38,4.58735 L 3048.56,6.74504 L 3056.8,9.10471 L 3067.82,12.9762 L 3076.29,16.5317 L 3085.73,21.101 L 3093.55,25.4144 L 3099.72,29.1199 L 3103.75,31.7455 L 3110.89,36.8668 L 3121.83,45.4696 L 3129.52,52.1966 L 3136.47,58.9476 L 3143.04,65.9807 L 3152.34,76.9631 L 3159.06,85.8838 L 3166.96,97.7062 L 3172.76,107.591 L 3179.2,120.201 L 3182.62,127.65 L 3184.45,132.113 L 3186.73,138.236 L 3189.58,146.771 L 3191.56,153.46 L 3192.73,158.024 L 3194.34,165.431 L 3195.84,173.971 L 3197.14,184.82 L 3197.69,193.479 L 3197.89,199.684 L 3198.9,2036.06 L 3199.65,2044.5 L 3200.68,2051.15 L 3202.61,2060.1 L 3205.46,2070.06 L 3209.22,2080.18 L 3213.9,2089.96 L 3219.47,2099.05 L 3225.84,2107.13 L 3233.2,2114.28 L 3242.03,2120.7 L 3253.19,2126.5 L 3267.87,2131.54 L 3287.33,2135.26 L 3315.22,2136.89 z " style="fill-opacity:1.000000;fill:rgb(103,198,105);stroke:rgb(0,0,0);stroke-width:2"/></g>
</svg>
