<?xml version="1.0" standalone="no"?>
<!DOCTYPE svg PUBLIC "-//W3C//DTD SVG 1.1//EN"
"http://www.w3.org/Graphics/SVG/1.1/DTD/svg11.dtd">
<svg width="5027" height="4796" viewBox="0 0 5027 4796" version="1.1"
xmlns="http://www.w3.org/2000/svg"
xmlns:xlink="http://www.w3.org/1999/xlink">
<g fill-rule="evenodd"><path d="M 2877.61,2143.04 L 2876.15,2156.96 L 2871.82,2170.26 L 2864.83,2182.38 L 2855.47,2192.77 L 2844.15,2201 L 2831.37,2206.69 L 2817.69,2209.59 L 2803.7,2209.59 L 2790.01,2206.69 L 2777.23,2201 L 2765.91,2192.77 L 2756.55,2182.38 L 2749.56,2170.26 L 2745.24,2156.96 L 2743.77,2143.04 L 2745.24,2129.13 L 2749.56,2115.82 L 2756.55,2103.71 L 2765.91,2093.31 L 2777.23,2085.09 L 2790.01,2079.4 L 2803.7,2076.49 L 2817.69,2076.49 L 2831.37,2079.4 L 2844.15,2085.09 L 2855.47,2093.31 L 2864.83,2103.71 L 2871.82,2115.82 L 2876.15,2129.13 L 2877.61,2143.04 z " style="fill-opacity:1.000000;fill:rgb(103,198,105);stroke:rgb(0,0,0);stroke-width:2"/></g>
<g fill-rule="evenodd"><path d="M 4680.55,2980.61 L 4890.49,2980.61 L 4897.04,2981.3 L 4903.3,2983.33 L 4909,2986.62 L 4913.89,2991.03 L 4917.76,2996.35 L 4920.44,3002.37 L 4921.81,3008.81 L 4921.81,3015.39 L 4920.44,3021.83 L 4917.76,3027.85 L 4913.89,3033.17 L 4909,3037.58 L 4903.3,3040.87 L 4897.04,3042.9 L 4890.49,3043.59 L 4680.55,3043.59 L 4674,3042.9 L 4667.74,3040.87 L 4662.03,3037.58 L 4657.14,3033.17 L 4653.27,3027.85 L 4650.59,3021.83 L 4649.23,3015.39 L 4649.23,3008.81 L 4650.59,3002.37 L 4653.27,2996.35 L 4657.14,2991.03 L 4662.03,2986.62 L 4667.74,2983.33 L 4674,2981.3 L 4680.55,2980.61 z " style="fill-opacity:1.000000;fill:rgb(115,81,255);stroke:rgb(0,0,0);stroke-width:2"/></g>
<g fill-rule="evenodd"><path d="M 2520.09,377.826 L 2474.41,377.898 L 2469.56,377.524 L 2464.83,376.406 L 2460.32,374.574 L 2430.33,359.578 L 2426,356.959 L 2422.15,353.679 L 2407.15,338.683 L 2403.87,334.83 L 2401.25,330.499 L 2386.26,300.507 L 2384.42,296.003 L 2383.31,291.272 L 2382.93,286.423 L 2382.93,196.447 L 2383.31,191.602 L 2384.42,186.871 L 2386.26,182.365 L 2401.25,152.374 L 2403.87,148.046 L 2407.15,144.191 L 2422.14,129.193 L 2426,125.913 L 2430.33,123.292 L 2460.32,108.296 L 2464.83,106.464 L 2469.56,105.346 L 2474.41,104.97 L 2519.4,104.97 L 2524.24,105.346 L 2528.97,106.464 L 2533.48,108.296 L 2563.47,123.292 L 2567.8,125.911 L 2571.66,129.193 L 2586.65,144.191 L 2589.93,148.044 L 2592.55,152.374 L 2607.54,182.365 L 2609.38,186.869 L 2610.49,191.6 L 2610.87,196.447 L 2610.87,286.423 L 2610.49,291.272 L 2609.38,296.003 L 2607.54,300.507 L 2592.55,330.499 L 2589.93,334.83 L 2586.65,338.683 L 2571.65,353.679 L 2567.8,356.959 L 2563.47,359.578 L 2532.2,375.176 L 2525.94,377.21 L 2520.09,377.826M 2511.96,314.915 L 2530.73,305.53 L 2538.5,297.761 L 2547.89,278.988 L 2547.89,203.884 L 2538.5,185.111 L 2530.73,177.34 L 2511.96,167.953 L 2481.84,167.953 L 2463.07,177.338 L 2455.3,185.109 L 2445.92,203.88 L 2445.92,278.992 L 2455.3,297.761 L 2463.07,305.53 L 2481.84,314.915 L 2511.96,314.915 z " style="fill-opacity:1.000000;fill:rgb(74,236,41);stroke:rgb(0,0,0);stroke-width:2"/></g>
<g fill-rule="evenodd"><path d="M 1327.01,287.923 L 1222.44,287.923 L 1199.63,356.367 L 1196.9,362.362 L 1192.99,367.657 L 1188.07,372.027 L 1182.34,375.274 L 1176.06,377.26 L 1169.51,377.898 L 1162.97,377.16 L 1156.72,375.076 L 1151.05,371.743 L 1146.19,367.299 L 1142.36,361.944 L 1139.73,355.909 L 1138.41,349.458 L 1138.46,342.875 L 1139.88,336.448 L 1244.85,21.532 L 1247.55,15.5728 L 1251.43,10.3016 L 1256.31,5.94416 L 1261.99,2.69062 L 1268.22,0.678905 L 1274.73,0.000999859 L 1281.24,0.680904 L 1287.46,2.69062 L 1293.14,5.94416 L 1298.02,10.3016 L 1301.9,15.5748 L 1304.6,21.534 L 1409.68,336.932 L 1412.41,330.661 L 1416.28,325.335 L 1421.17,320.93 L 1426.87,317.638 L 1433.13,315.605 L 1439.68,314.915 L 1462.24,314.915 L 1476.19,307.94 L 1483.17,293.984 L 1483.17,167.953 L 1439.68,167.953 L 1433.13,167.265 L 1426.87,165.232 L 1421.17,161.94 L 1416.28,157.535 L 1412.41,152.208 L 1409.73,146.194 L 1408.36,139.755 L 1408.36,133.17 L 1409.73,126.731 L 1412.41,120.716 L 1416.28,115.391 L 1421.17,110.985 L 1426.87,107.694 L 1433.13,105.66 L 1439.68,104.97 L 1483.17,104.97 L 1483.17,31.4906 L 1483.86,24.9435 L 1485.89,18.6824 L 1489.18,12.9812 L 1493.59,8.08786 L 1498.92,4.21841 L 1504.93,1.54078 L 1511.37,0.172976 L 1517.95,0.172976 L 1524.39,1.54078 L 1530.41,4.21841 L 1535.73,8.08786 L 1540.14,12.9812 L 1543.43,18.6824 L 1545.46,24.9435 L 1546.15,31.4906 L 1546.15,104.97 L 1559.65,104.97 L 1566.2,105.66 L 1572.46,107.694 L 1578.16,110.985 L 1583.05,115.391 L 1586.92,120.716 L 1589.6,126.731 L 1590.97,133.17 L 1590.97,139.755 L 1589.6,146.194 L 1586.92,152.208 L 1583.05,157.535 L 1578.16,161.94 L 1572.46,165.232 L 1566.2,167.265 L 1559.65,167.953 L 1546.15,167.953 L 1546.15,301.419 L 1545.78,306.268 L 1544.66,310.999 L 1542.83,315.503 L 1527.83,345.494 L 1525.21,349.826 L 1521.93,353.679 L 1518.08,356.959 L 1513.75,359.578 L 1483.76,374.574 L 1479.25,376.406 L 1474.52,377.524 L 1469.67,377.898 L 1439.68,377.898 L 1433.13,377.21 L 1426.87,375.176 L 1421.17,371.885 L 1416.28,367.479 L 1412.41,362.152 L 1409.7,355.967 L 1407.09,361.946 L 1403.26,367.301 L 1398.4,371.745 L 1392.72,375.078 L 1386.48,377.16 L 1379.93,377.898 L 1373.38,377.26 L 1367.11,375.272 L 1361.38,372.023 L 1356.45,367.655 L 1352.54,362.358 L 1349.82,356.365 L 1327.01,287.923M 1306.01,224.939 L 1274.73,131.075 L 1243.43,224.939 L 1306.01,224.939 z " style="fill-opacity:1.000000;fill:rgb(205,186,171);stroke:rgb(0,0,0);stroke-width:2"/></g>
<g fill-rule="evenodd"><path d="M 629.897,-0.000999859 L 779.858,-0.000999859 L 786.001,0.604915 L 791.908,2.39666 L 797.353,5.30825 L 802.125,9.2237 L 806.04,13.995 L 808.952,19.4403 L 810.743,25.3474 L 811.349,31.4906 L 811.349,346.406 L 810.743,352.551 L 808.952,358.459 L 806.04,363.904 L 802.125,368.675 L 797.353,372.591 L 791.908,375.502 L 786.001,377.294 L 779.858,377.898 L 629.897,377.898 L 623.348,377.21 L 617.087,375.176 L 611.385,371.885 L 606.492,367.479 L 602.623,362.152 L 599.945,356.139 L 598.577,349.7 L 598.577,343.115 L 599.945,336.676 L 602.623,330.661 L 606.492,325.335 L 611.385,320.93 L 617.087,317.638 L 623.348,315.605 L 629.897,314.915 L 748.366,314.915 L 748.366,212.943 L 674.884,212.943 L 668.335,212.255 L 662.074,210.221 L 656.373,206.93 L 651.48,202.525 L 647.61,197.197 L 644.933,191.184 L 643.565,184.745 L 643.565,178.16 L 644.933,171.721 L 647.61,165.706 L 651.48,160.38 L 656.373,155.975 L 662.074,152.684 L 668.335,150.65 L 674.884,149.96 L 748.366,149.96 L 748.366,62.9821 L 629.897,62.9821 L 623.348,62.2942 L 617.087,60.2605 L 611.385,56.969 L 606.492,52.5636 L 602.623,47.2364 L 599.945,41.2232 L 598.577,34.7841 L 598.577,28.199 L 599.945,21.7599 L 602.623,15.7448 L 606.492,10.4195 L 611.385,6.01415 L 617.087,2.72262 L 623.348,0.688903 L 629.897,-0.000999859 z " style="fill-opacity:1.000000;fill:rgb(242,251,227);stroke:rgb(0,0,0);stroke-width:2"/></g>
<g fill-rule="evenodd"><path d="M 1033.29,377.898 L 974.806,377.898 L 969.957,377.524 L 965.226,376.406 L 960.722,374.574 L 930.73,359.578 L 926.401,356.959 L 922.548,353.681 L 907.55,338.685 L 904.268,334.83 L 901.649,330.499 L 886.653,300.507 L 884.821,296.003 L 883.703,291.272 L 883.329,286.423 L 883.329,196.447 L 883.703,191.602 L 884.821,186.871 L 886.653,182.365 L 901.649,152.374 L 904.268,148.044 L 907.548,144.189 L 922.546,129.191 L 926.399,125.911 L 930.73,123.292 L 960.722,108.296 L 965.226,106.464 L 969.957,105.346 L 974.806,104.97 L 1034.79,104.97 L 1039.64,105.346 L 1044.37,106.464 L 1049.89,108.808 L 1055.05,106.512 L 1061.49,105.144 L 1068.07,105.144 L 1074.51,106.512 L 1080.53,109.19 L 1085.85,113.059 L 1090.26,117.952 L 1093.55,123.654 L 1095.58,129.915 L 1096.27,136.462 L 1096.27,451.38 L 1095.58,457.929 L 1093.55,464.19 L 1090.26,469.891 L 1085.85,474.784 L 1080.53,478.654 L 1074.51,481.331 L 1068.07,482.699 L 1061.49,482.699 L 1055.05,481.331 L 1049.04,478.654 L 1043.71,474.784 L 1039.3,469.891 L 1036.01,464.19 L 1033.98,457.929 L 1033.29,451.38 L 1033.29,377.898M 955.695,297.759 L 963.466,305.528 L 982.237,314.915 L 1027.36,314.915 L 1033.29,311.949 L 1033.29,170.923 L 1027.35,167.953 L 982.241,167.953 L 963.468,177.34 L 955.697,185.111 L 946.312,203.88 L 946.312,278.992 L 955.695,297.759 z " style="fill-opacity:1.000000;fill:rgb(70,124,194);stroke:rgb(0,0,0);stroke-width:2"/></g>
<g fill-rule="evenodd"><path d="M 2234.47,252.775 L 2279.79,125.871 L 2282.64,119.938 L 2286.66,114.725 L 2291.68,110.463 L 2297.47,107.336 L 2303.79,105.484 L 2310.36,104.984 L 2316.88,105.86 L 2323.08,108.076 L 2328.69,111.529 L 2333.45,116.075 L 2337.16,121.51 L 2339.67,127.599 L 2340.85,134.074 L 2340.66,140.655 L 2339.11,147.054 L 2264.13,356.999 L 2261.36,362.806 L 2257.46,367.927 L 2252.61,372.149 L 2247,375.298 L 2240.87,377.242 L 2234.47,377.898 L 2228.07,377.242 L 2221.94,375.298 L 2216.33,372.149 L 2211.48,367.925 L 2207.58,362.804 L 2204.81,356.999 L 2129.83,147.054 L 2128.28,140.657 L 2128.09,134.076 L 2129.27,127.601 L 2131.78,121.512 L 2135.49,116.075 L 2140.25,111.531 L 2145.86,108.076 L 2152.06,105.862 L 2158.58,104.984 L 2165.15,105.484 L 2171.46,107.336 L 2177.26,110.461 L 2182.27,114.725 L 2186.3,119.936 L 2189.15,125.871 L 2234.47,252.775 z " style="fill-opacity:1.000000;fill:rgb(84,248,27);stroke:rgb(0,0,0);stroke-width:2"/></g>
<g fill-rule="evenodd"><path d="M 1889.56,-0.000999859 L 2039.52,-0.000999859 L 2045.67,0.604915 L 2051.57,2.39666 L 2057.02,5.30825 L 2061.79,9.2237 L 2065.7,13.995 L 2068.62,19.4403 L 2070.41,25.3474 L 2071.01,31.4906 L 2071.01,346.406 L 2070.41,352.551 L 2068.62,358.459 L 2065.7,363.904 L 2061.79,368.675 L 2057.02,372.591 L 2051.57,375.502 L 2045.67,377.294 L 2039.52,377.898 L 1889.56,377.898 L 1883.01,377.21 L 1876.75,375.176 L 1871.05,371.885 L 1866.16,367.479 L 1862.29,362.152 L 1859.61,356.139 L 1858.24,349.7 L 1858.24,343.115 L 1859.61,336.676 L 1862.29,330.661 L 1866.16,325.335 L 1871.05,320.93 L 1876.75,317.638 L 1883.01,315.605 L 1889.56,314.915 L 2008.03,314.915 L 2008.03,212.943 L 1934.55,212.943 L 1928,212.255 L 1921.74,210.221 L 1916.04,206.93 L 1911.15,202.525 L 1907.28,197.197 L 1904.6,191.184 L 1903.23,184.745 L 1903.23,178.16 L 1904.6,171.721 L 1907.28,165.706 L 1911.15,160.38 L 1916.04,155.975 L 1921.74,152.684 L 1928,150.65 L 1934.55,149.96 L 2008.03,149.96 L 2008.03,62.9821 L 1889.56,62.9821 L 1883.01,62.2942 L 1876.75,60.2605 L 1871.05,56.969 L 1866.16,52.5636 L 1862.29,47.2364 L 1859.61,41.2232 L 1858.24,34.7841 L 1858.24,28.199 L 1859.61,21.7599 L 1862.29,15.7448 L 1866.16,10.4195 L 1871.05,6.01415 L 1876.75,2.72262 L 1883.01,0.688903 L 1889.56,-0.000999859 z " style="fill-opacity:1.000000;fill:rgb(232,231,141);stroke:rgb(0,0,0);stroke-width:2"/></g>
<g fill-rule="evenodd"><path d="M 5026.95,3491.97 L 5026.95,3551.96 L 5026.58,3556.81 L 5025.46,3561.54 L 5023.63,3566.04 L 5008.63,3596.03 L 5006.01,3600.36 L 5002.73,3604.22 L 4987.74,3619.21 L 4983.88,3622.49 L 4979.55,3625.11 L 4949.56,3640.11 L 4945.06,3641.94 L 4940.32,3643.06 L 4935.48,3643.43 L 4920.48,3643.43 L 4915.63,3643.06 L 4910.9,3641.94 L 4906.4,3640.11 L 4876.41,3625.11 L 4872.07,3622.49 L 4868.22,3619.21 L 4860.5,3611.49 L 4852.77,3619.21 L 4848.92,3622.49 L 4844.59,3625.11 L 4814.6,3640.11 L 4810.09,3641.94 L 4805.36,3643.06 L 4800.51,3643.43 L 4740.53,3643.43 L 4735.68,3643.06 L 4730.95,3641.94 L 4726.45,3640.11 L 4696.46,3625.11 L 4692.12,3622.49 L 4688.27,3619.21 L 4673.27,3604.22 L 4669.99,3600.36 L 4667.38,3596.03 L 4652.38,3566.04 L 4650.55,3561.54 L 4649.43,3556.81 L 4649.05,3551.96 L 4649.05,3491.97 L 4649.43,3487.12 L 4650.55,3482.39 L 4652.38,3477.89 L 4667.38,3447.9 L 4669.99,3443.57 L 4673.27,3439.72 L 4688.27,3424.72 L 4692.12,3421.44 L 4696.46,3418.82 L 4726.45,3403.82 L 4730.95,3401.99 L 4735.68,3400.87 L 4740.53,3400.5 L 4800.51,3400.5 L 4805.36,3400.87 L 4810.09,3401.99 L 4814.6,3403.82 L 4844.59,3418.82 L 4848.92,3421.44 L 4852.78,3424.72 L 4860.5,3432.44 L 4868.22,3424.72 L 4872.07,3421.44 L 4876.41,3418.82 L 4906.4,3403.82 L 4910.9,3401.99 L 4915.63,3400.87 L 4920.48,3400.5 L 4935.48,3400.5 L 4940.33,3400.87 L 4945.06,3401.99 L 4949.56,3403.82 L 4979.55,3418.82 L 4983.88,3421.44 L 4987.74,3424.72 L 5002.74,3439.72 L 5006.01,3443.57 L 5008.63,3447.9 L 5023.63,3477.89 L 5025.46,3482.39 L 5026.58,3487.12 L 5026.95,3491.97M 4712.04,3499.41 L 4712.04,3544.52 L 4721.42,3563.29 L 4729.19,3571.06 L 4747.96,3580.45 L 4793.08,3580.45 L 4811.85,3571.06 L 4819.62,3563.29 L 4829.01,3544.52 L 4829.01,3499.41 L 4819.62,3480.64 L 4811.85,3472.86 L 4793.08,3463.48 L 4747.97,3463.48 L 4729.19,3472.86 L 4721.43,3480.63 L 4712.04,3499.41M 4946.82,3571.06 L 4954.58,3563.29 L 4963.97,3544.52 L 4963.97,3499.41 L 4954.58,3480.64 L 4946.82,3472.86 L 4927.92,3463.48 L 4909.15,3472.86 L 4901.38,3480.63 L 4891.99,3499.41 L 4891.99,3544.52 L 4901.37,3563.29 L 4909.14,3571.06 L 4927.91,3580.45 L 4946.82,3571.06 z " style="fill-opacity:1.000000;fill:rgb(118,90,46);stroke:rgb(0,0,0);stroke-width:2"/></g>
<g fill-rule="evenodd"><path d="M 5026.95,3012.1 L 5026.35,3018.24 L 5024.86,3023.38 L 5021.87,3029.25 L 5017.73,3034.37 L 5002.73,3049.36 L 4997.96,3053.28 L 4992.52,3056.19 L 4986.61,3057.98 L 4980.47,3058.59 L 4974.32,3057.98 L 4968.42,3056.19 L 4962.97,3053.28 L 4958.2,3049.36 L 4942.07,3033.17 L 4938.2,3027.85 L 4935.52,3021.83 L 4934.15,3015.39 L 4933.98,3012.1 L 4934.43,3007.48 L 4935.52,3002.37 L 4936.38,3000.05 L 4939.29,2994.61 L 4943.2,2989.83 L 4958.2,2974.84 L 4962.97,2970.92 L 4968.42,2968.01 L 4974.32,2966.22 L 4980.47,2965.61 L 4986.61,2966.22 L 4992.52,2968.01 L 4997.96,2970.92 L 5002.73,2974.84 L 5017.73,2989.83 L 5021.65,2994.6 L 5024.56,3000.05 L 5025.88,3003.95 L 5026.35,3005.96 L 5026.95,3012.1 z " style="fill-opacity:1.000000;fill:rgb(99,51,159);stroke:rgb(0,0,0);stroke-width:2"/></g>
<g fill-rule="evenodd"><path d="M 4921.98,3265.53 L 4995.46,3265.53 L 5002.01,3266.22 L 5008.27,3268.26 L 5013.97,3271.55 L 5018.87,3275.95 L 5022.74,3281.28 L 5025.41,3287.29 L 5026.78,3293.73 L 5026.78,3300.32 L 5025.41,3306.76 L 5022.74,3312.77 L 5018.87,3318.1 L 5013.97,3322.5 L 5008.27,3325.79 L 5002.01,3327.83 L 4995.46,3328.52 L 4680.55,3328.52 L 4674,3327.83 L 4667.74,3325.79 L 4662.03,3322.5 L 4657.14,3318.1 L 4653.27,3312.77 L 4650.59,3306.76 L 4649.23,3300.32 L 4649.23,3293.73 L 4650.59,3287.29 L 4652.89,3282.14 L 4650.55,3276.61 L 4649.43,3271.88 L 4649.05,3267.03 L 4649.05,3207.05 L 4649.43,3202.2 L 4650.55,3197.47 L 4652.38,3192.96 L 4667.38,3162.97 L 4669.99,3158.64 L 4673.27,3154.79 L 4688.27,3139.79 L 4692.12,3136.51 L 4696.46,3133.89 L 4726.45,3118.9 L 4730.95,3117.06 L 4735.68,3115.95 L 4740.53,3115.57 L 4830.51,3115.57 L 4835.35,3115.95 L 4840.09,3117.06 L 4844.59,3118.9 L 4874.58,3133.89 L 4878.91,3136.51 L 4882.77,3139.79 L 4897.76,3154.79 L 4901.04,3158.64 L 4903.66,3162.97 L 4918.66,3192.96 L 4920.49,3197.47 L 4921.61,3202.2 L 4921.98,3207.05 L 4921.98,3265.53M 4715,3265.53 L 4856.03,3265.53 L 4859,3259.6 L 4859,3214.48 L 4849.61,3195.71 L 4841.84,3187.94 L 4823.07,3178.55 L 4747.97,3178.55 L 4729.19,3187.94 L 4721.43,3195.71 L 4712.04,3214.48 L 4712.04,3259.6 L 4715,3265.53 z " style="fill-opacity:1.000000;fill:rgb(201,154,102);stroke:rgb(0,0,0);stroke-width:2"/></g>
<g fill-rule="evenodd"><path d="M 4719.01,2823.67 L 4732.97,2830.65 L 4859,2830.65 L 4859,2787.16 L 4859.69,2780.61 L 4861.72,2774.35 L 4865.01,2768.65 L 4869.42,2763.76 L 4874.74,2759.89 L 4880.76,2757.21 L 4887.2,2755.84 L 4893.78,2755.84 L 4900.22,2757.21 L 4906.24,2759.89 L 4911.56,2763.76 L 4915.97,2768.65 L 4919.26,2774.35 L 4921.29,2780.61 L 4921.98,2787.16 L 4921.98,2830.65 L 4995.46,2830.65 L 5002.01,2831.34 L 5008.27,2833.37 L 5013.97,2836.66 L 5018.87,2841.07 L 5022.74,2846.39 L 5025.41,2852.41 L 5026.78,2858.85 L 5026.78,2865.43 L 5025.41,2871.87 L 5022.74,2877.88 L 5018.87,2883.21 L 5013.97,2887.62 L 5008.27,2890.91 L 5002.01,2892.94 L 4995.46,2893.63 L 4921.98,2893.63 L 4921.98,2907.13 L 4921.29,2913.68 L 4919.26,2919.94 L 4915.97,2925.64 L 4911.56,2930.53 L 4906.24,2934.4 L 4900.22,2937.08 L 4893.78,2938.45 L 4887.2,2938.45 L 4880.76,2937.08 L 4874.74,2934.4 L 4869.42,2930.53 L 4865.01,2925.64 L 4861.72,2919.94 L 4859.69,2913.68 L 4859,2907.13 L 4859,2893.63 L 4725.54,2893.63 L 4720.69,2893.26 L 4715.95,2892.14 L 4711.45,2890.31 L 4681.46,2875.31 L 4677.13,2872.69 L 4673.27,2869.41 L 4669.99,2865.56 L 4667.38,2861.23 L 4652.38,2831.24 L 4650.55,2826.73 L 4649.43,2822 L 4649.05,2817.15 L 4649.05,2787.16 L 4649.74,2780.61 L 4651.78,2774.35 L 4655.07,2768.65 L 4659.47,2763.76 L 4664.8,2759.89 L 4670.81,2757.21 L 4677.25,2755.84 L 4683.84,2755.84 L 4690.28,2757.21 L 4696.29,2759.89 L 4701.62,2763.76 L 4706.02,2768.65 L 4709.31,2774.35 L 4711.35,2780.61 L 4712.04,2787.16 L 4712.04,2809.72 L 4719.01,2823.67 z " style="fill-opacity:1.000000;fill:rgb(50,13,183);stroke:rgb(0,0,0);stroke-width:2"/></g>
<g fill-rule="evenodd"><path d="M 2787.82,314.915 L 2787.82,31.4906 L 2788.51,24.9435 L 2790.55,18.6824 L 2793.84,12.9812 L 2798.24,8.08786 L 2803.57,4.21841 L 2809.58,1.54078 L 2816.02,0.172976 L 2822.61,0.172976 L 2829.05,1.54078 L 2835.06,4.21841 L 2840.39,8.08786 L 2844.79,12.9812 L 2848.08,18.6824 L 2850.12,24.9435 L 2850.81,31.4906 L 2850.81,346.406 L 2850.2,352.551 L 2848.41,358.459 L 2845.5,363.904 L 2841.58,368.675 L 2836.81,372.591 L 2831.37,375.502 L 2825.46,377.294 L 2819.32,377.898 L 2669.36,377.898 L 2662.81,377.21 L 2656.55,375.176 L 2650.84,371.885 L 2645.95,367.479 L 2642.08,362.152 L 2639.4,356.139 L 2638.04,349.7 L 2638.04,343.115 L 2639.4,336.676 L 2642.08,330.661 L 2645.95,325.335 L 2650.84,320.93 L 2656.55,317.638 L 2662.81,315.605 L 2669.36,314.915 L 2787.82,314.915 z " style="fill-opacity:1.000000;fill:rgb(49,88,163);stroke:rgb(0,0,0);stroke-width:2"/></g>
<g fill-rule="evenodd"><path d="M 2058.25,2397.65 L 2136.19,2319.72 L 2247.53,2431.06 L 2169.59,2508.99 L 2058.25,2397.65 z " style="fill-opacity:1.000000;fill:rgb(90,37,93);stroke:rgb(0,0,0);stroke-width:2"/></g>
<g fill-rule="evenodd"><path d="M 432.606,4140.68 L 431.573,4150.5 L 428.521,4159.89 L 423.584,4168.44 L 416.977,4175.78 L 408.988,4181.59 L 399.965,4185.6 L 390.306,4187.65 L 380.432,4187.65 L 370.773,4185.6 L 361.752,4181.59 L 353.762,4175.78 L 347.154,4168.44 L 342.217,4159.89 L 339.166,4150.5 L 338.132,4140.68 L 339.166,4130.86 L 342.217,4121.47 L 347.154,4112.91 L 353.762,4105.57 L 361.75,4099.77 L 370.773,4095.75 L 380.432,4093.7 L 390.306,4093.7 L 399.965,4095.75 L 408.986,4099.77 L 416.977,4105.57 L 423.584,4112.91 L 428.521,4121.47 L 431.573,4130.86 L 432.606,4140.68 z " style="fill-opacity:1.000000;fill:rgb(5,23,88);stroke:rgb(0,0,0);stroke-width:2"/></g>
<g fill-rule="evenodd"><path d="M 710.957,4419.03 L 709.923,4428.85 L 706.872,4438.24 L 701.935,4446.79 L 695.328,4454.13 L 687.339,4459.93 L 678.316,4463.95 L 668.657,4466 L 658.783,4466 L 649.124,4463.95 L 640.103,4459.93 L 632.112,4454.13 L 625.505,4446.79 L 620.568,4438.24 L 617.516,4428.85 L 616.483,4419.03 L 617.516,4409.21 L 620.568,4399.81 L 625.505,4391.26 L 632.112,4383.92 L 640.101,4378.12 L 649.124,4374.1 L 658.783,4372.05 L 668.657,4372.05 L 678.316,4374.1 L 687.337,4378.12 L 695.328,4383.92 L 701.935,4391.26 L 706.872,4399.81 L 709.923,4409.21 L 710.957,4419.03 z " style="fill-opacity:1.000000;fill:rgb(233,94,212);stroke:rgb(0,0,0);stroke-width:2"/></g>
<g fill-rule="evenodd"><path d="M 304.746,2283.18 L 304.746,2007.63 L 580.296,2007.63 L 580.296,2283.18 L 304.746,2283.18 z " style="fill-opacity:1.000000;fill:rgb(171,178,205);stroke:rgb(0,0,0);stroke-width:2"/></g>
<g fill-rule="evenodd"><path d="M 304.746,1598.24 L 304.746,1322.69 L 580.296,1322.69 L 580.296,1598.24 L 304.746,1598.24 z " style="fill-opacity:1.000000;fill:rgb(198,155,180);stroke:rgb(0,0,0);stroke-width:2"/></g>
<g fill-rule="evenodd"><path d="M 3431.08,4515.94 L 3431.08,4240.39 L 3706.63,4240.39 L 3706.63,4515.94 L 3431.08,4515.94 z " style="fill-opacity:1.000000;fill:rgb(84,17,14);stroke:rgb(0,0,0);stroke-width:2"/></g>
<g fill-rule="evenodd"><path d="M 2746.14,4515.94 L 2746.14,4240.39 L 3021.69,4240.39 L 3021.69,4515.94 L 2746.14,4515.94 z " style="fill-opacity:1.000000;fill:rgb(130,116,65);stroke:rgb(0,0,0);stroke-width:2"/></g>
<g fill-rule="evenodd"><path d="M 2552.43,3990.4 L 2662.68,3880.15 L 2662.68,3748.33 L 2657.68,3747.27 L 2635.13,3737.23 L 2615.16,3722.72 L 2598.64,3704.37 L 2586.29,3682.99 L 2578.66,3659.51 L 2576.08,3634.96 L 2578.66,3610.41 L 2586.29,3586.93 L 2598.64,3565.55 L 2615.16,3547.2 L 2635.13,3532.69 L 2657.68,3522.65 L 2681.83,3517.51 L 2706.52,3517.51 L 2730.67,3522.65 L 2753.22,3532.69 L 2773.19,3547.2 L 2789.71,3565.55 L 2802.06,3586.93 L 2809.69,3610.41 L 2812.27,3634.96 L 2809.69,3659.51 L 2802.06,3682.99 L 2789.71,3704.37 L 2773.19,3722.72 L 2753.22,3737.23 L 2730.67,3747.27 L 2725.67,3748.33 L 2725.67,3893.19 L 2725.06,3899.34 L 2723.27,3905.24 L 2720.36,3910.69 L 2716.44,3915.46 L 2602.17,4029.72 L 2607.8,4037 L 2618.33,4058.45 L 2624.31,4081.58 L 2625.53,4105.44 L 2621.91,4129.06 L 2613.61,4151.47 L 2600.97,4171.74 L 2584.51,4189.06 L 2564.89,4202.71 L 2542.94,4212.14 L 2519.53,4216.95 L 2468.22,4217.55 L 2444.45,4215.14 L 2421.65,4207.98 L 2400.76,4196.39 L 2382.63,4180.82 L 2368,4161.93 L 2357.48,4140.48 L 2355.02,4130.95 L 1637.09,4130.95 L 1629.49,4151.47 L 1616.86,4171.74 L 1600.39,4189.06 L 1580.78,4202.71 L 1558.82,4212.14 L 1535.42,4216.95 L 1484.11,4217.55 L 1460.34,4215.14 L 1437.54,4207.98 L 1416.65,4196.39 L 1398.52,4180.82 L 1383.89,4161.93 L 1373.37,4140.48 L 1367.38,4117.34 L 1366.17,4093.48 L 1369.79,4069.86 L 1378.09,4047.45 L 1390.72,4027.18 L 1407.19,4009.86 L 1426.8,3996.21 L 1448.76,3986.78 L 1472.16,3981.97 L 1523.47,3981.37 L 1547.24,3983.79 L 1570.04,3990.94 L 1590.93,4002.53 L 1609.06,4018.1 L 1623.69,4037 L 1634.21,4058.45 L 1636.68,4067.97 L 2354.6,4067.97 L 2362.2,4047.45 L 2374.84,4027.18 L 2391.3,4009.86 L 2410.91,3996.21 L 2432.87,3986.78 L 2456.28,3981.97 L 2507.58,3981.37 L 2531.36,3983.79 L 2552.43,3990.4 z " style="fill-opacity:1.000000;fill:rgb(33,61,220);stroke:rgb(0,0,0);stroke-width:2"/></g>
<g fill-rule="evenodd"><path d="M 2502.84,1790.65 L 2527.89,1765.6 L 2622.53,1860.24 L 2527.89,1954.88 L 2433.25,1860.24 L 2458.3,1835.19 L 2182.21,1559.1 L 2178.61,1554.71 L 2085.94,1462.04 L 1384.91,1462.04 L 1378.76,1461.43 L 1372.86,1459.64 L 1367.41,1456.73 L 1362.64,1452.81 L 749.116,839.289 L 699.179,839.289 L 699.179,925.891 L 462.992,925.891 L 462.992,689.704 L 699.179,689.704 L 699.179,776.306 L 762.162,776.306 L 768.305,776.912 L 774.212,778.704 L 779.658,781.615 L 784.429,785.531 L 1397.95,1399.05 L 2098.98,1399.05 L 2105.13,1399.66 L 2111.03,1401.45 L 2116.48,1404.36 L 2121.25,1408.28 L 2226.75,1513.77 L 2230.35,1518.17 L 2502.84,1790.65 z " style="fill-opacity:1.000000;fill:rgb(135,112,233);stroke:rgb(0,0,0);stroke-width:2"/></g>
<g fill-rule="evenodd"><path d="M 1237.66,3786.59 L 1116.1,3908.15 L 1126.68,3908.15 L 1126.68,3994.75 L 929.857,3994.75 L 929.857,3908.15 L 1027.03,3908.15 L 1221.71,3713.47 L 1222.95,3701.73 L 1230.58,3678.25 L 1236.18,3668.55 L 1169.75,3602.12 L 1165.84,3597.35 L 1162.93,3591.9 L 1161.14,3585.99 L 1160.53,3579.85 L 1160.53,3511.32 L 1152.66,3511.35 L 1136.81,3509.74 L 1121.61,3504.97 L 1107.69,3497.24 L 1095.6,3486.86 L 1085.85,3474.27 L 1078.83,3459.97 L 1074.84,3444.54 L 1074.03,3428.64 L 1076.44,3412.89 L 1081.98,3397.95 L 1090.4,3384.44 L 1101.38,3372.89 L 1114.45,3363.79 L 1129.09,3357.51 L 1144.7,3354.3 L 1231.39,3353.9 L 1247.24,3355.51 L 1262.43,3360.28 L 1276.36,3368.01 L 1288.45,3378.38 L 1298.2,3390.98 L 1305.22,3405.28 L 1309.21,3420.7 L 1310.02,3436.61 L 1307.6,3452.36 L 1302.07,3467.3 L 1293.64,3480.81 L 1282.67,3492.36 L 1269.59,3501.46 L 1254.95,3507.74 L 1239.35,3510.95 L 1223.52,3511.02 L 1223.52,3566.81 L 1280.32,3623.61 L 1301.97,3613.97 L 1326.12,3608.84 L 1350.8,3608.84 L 1374.95,3613.97 L 1397.5,3624.01 L 1417.48,3638.53 L 1434,3656.87 L 1446.34,3678.25 L 1453.97,3701.73 L 1456.55,3726.29 L 1453.97,3750.84 L 1446.34,3774.32 L 1434,3795.7 L 1417.48,3814.04 L 1397.5,3828.56 L 1374.95,3838.6 L 1350.8,3843.73 L 1326.12,3843.73 L 1301.97,3838.6 L 1279.41,3828.56 L 1259.44,3814.04 L 1242.92,3795.7 L 1237.66,3786.59 z " style="fill-opacity:1.000000;fill:rgb(62,161,65);stroke:rgb(0,0,0);stroke-width:2"/></g>
<g fill-rule="evenodd"><path d="M 719.648,2721.53 L 719.648,3439.46 L 740.163,3447.06 L 760.44,3459.7 L 777.76,3476.16 L 791.41,3495.77 L 800.833,3517.73 L 805.644,3541.14 L 806.25,3592.44 L 803.832,3616.21 L 796.679,3639.01 L 785.083,3659.91 L 769.517,3678.04 L 750.622,3692.66 L 729.171,3703.18 L 706.038,3709.17 L 682.175,3710.39 L 658.557,3706.77 L 636.15,3698.47 L 615.873,3685.83 L 598.553,3669.37 L 584.903,3649.75 L 575.48,3627.8 L 570.669,3604.39 L 570.063,3553.08 L 572.481,3529.31 L 579.634,3506.51 L 591.23,3485.62 L 606.796,3467.49 L 625.691,3452.86 L 647.142,3442.34 L 656.665,3439.88 L 656.665,2721.95 L 636.15,2714.35 L 615.873,2701.72 L 598.553,2685.25 L 584.903,2665.64 L 575.48,2643.68 L 570.669,2620.28 L 570.063,2568.97 L 572.481,2545.2 L 579.634,2522.4 L 591.23,2501.51 L 606.796,2483.38 L 625.691,2468.75 L 647.142,2458.23 L 670.275,2452.24 L 694.138,2451.03 L 717.756,2454.65 L 740.163,2462.94 L 760.44,2475.58 L 777.76,2492.05 L 791.294,2511.49 L 1132.3,2511.49 L 1137.68,2494.95 L 1150.02,2473.57 L 1166.54,2455.23 L 1186.51,2440.71 L 1209.07,2430.67 L 1233.22,2425.54 L 1257.9,2425.54 L 1282.05,2430.67 L 1304.6,2440.71 L 1324.58,2455.23 L 1341.1,2473.57 L 1353.44,2494.95 L 1361.07,2518.43 L 1363.65,2542.99 L 1361.07,2567.54 L 1353.44,2591.02 L 1341.1,2612.4 L 1324.58,2630.75 L 1304.6,2645.26 L 1282.05,2655.3 L 1257.9,2660.43 L 1233.22,2660.43 L 1209.07,2655.3 L 1186.51,2645.26 L 1166.54,2630.75 L 1150.02,2612.4 L 1137.68,2591.02 L 1132.3,2574.48 L 805.85,2574.48 L 806.25,2608.33 L 803.832,2632.1 L 796.679,2654.9 L 785.083,2675.79 L 769.517,2693.92 L 750.622,2708.55 L 729.171,2719.07 L 719.648,2721.53 z " style="fill-opacity:1.000000;fill:rgb(225,252,103);stroke:rgb(0,0,0);stroke-width:2"/></g>
<g fill-rule="evenodd"><path d="M 2162.75,921.174 L 2157.75,920.11 L 2135.2,910.069 L 2115.23,895.557 L 2098.71,877.21 L 2086.36,855.829 L 2078.73,832.35 L 2076.15,807.797 L 2078.73,783.245 L 2086.36,759.766 L 2098.71,738.385 L 2115.23,720.038 L 2135.2,705.526 L 2157.75,695.485 L 2181.9,690.352 L 2206.59,690.352 L 2230.74,695.485 L 2253.29,705.526 L 2273.26,720.038 L 2289.78,738.385 L 2302.13,759.766 L 2309.76,783.245 L 2312.34,807.797 L 2309.76,832.35 L 2302.13,855.829 L 2289.78,877.21 L 2273.26,895.557 L 2253.29,910.069 L 2230.74,920.11 L 2225.74,921.172 L 2225.74,1207.3 L 2887.28,1868.84 L 2891.2,1873.61 L 2894.11,1879.06 L 2895.9,1884.97 L 2896.51,1891.11 L 2896.51,1911.54 L 3132.73,2147.77 L 4206.56,2147.77 L 4212.7,2148.37 L 4218.61,2150.16 L 4224.06,2153.07 L 4228.83,2156.99 L 4483.91,2412.07 L 4487.82,2416.85 L 4490.74,2422.29 L 4492.53,2428.2 L 4493.13,2434.34 L 4493.13,3298.79 L 4492.53,3304.93 L 4490.74,3310.84 L 4487.82,3316.28 L 4483.91,3321.05 L 4204.98,3599.98 L 4204.98,4030.97 L 4291.59,4030.97 L 4291.59,4267.15 L 4055.4,4267.15 L 4055.4,4030.97 L 4142,4030.97 L 4142,3586.93 L 4142.61,3580.79 L 4144.4,3574.88 L 4147.31,3569.44 L 4151.22,3564.67 L 4430.15,3285.74 L 4430.15,2447.39 L 4193.51,2210.75 L 3119.69,2210.75 L 3113.55,2210.14 L 3107.64,2208.35 L 3102.2,2205.44 L 3097.42,2201.53 L 2842.75,1946.85 L 2838.83,1942.08 L 2835.92,1936.63 L 2834.13,1930.73 L 2833.53,1924.58 L 2833.53,1904.16 L 2171.98,1242.61 L 2168.06,1237.84 L 2165.15,1232.39 L 2163.36,1226.48 L 2162.75,1220.34 L 2162.75,921.174 z " style="fill-opacity:1.000000;fill:rgb(62,1,126);stroke:rgb(0,0,0);stroke-width:2"/></g>
<g fill-rule="evenodd"><path d="M 2490.96,3079.76 L 2477.95,3081.83 L 2464.8,3081.14 L 2452.09,3077.73 L 2440.36,3071.75 L 2430.12,3063.47 L 2352.18,2985.53 L 2343.9,2975.29 L 2337.92,2963.56 L 2334.51,2950.85 L 2333.83,2937.7 L 2335.88,2924.69 L 2340.6,2912.4 L 2347.78,2901.36 L 2357.08,2892.05 L 2368.13,2884.87 L 2380.42,2880.16 L 2393.42,2878.1 L 2406.58,2878.78 L 2419.29,2882.19 L 2431.02,2888.17 L 2441.26,2896.46 L 2519.2,2974.39 L 2527.48,2984.63 L 2533.46,2996.36 L 2536.87,3009.08 L 2537.55,3022.23 L 2535.5,3035.23 L 2788.82,3288.55 L 2950.83,3288.55 L 2956.97,3289.16 L 2962.88,3290.95 L 2968.33,3293.86 L 2973.1,3297.78 L 3248.65,3573.33 L 3252.56,3578.1 L 3255.48,3583.54 L 3257.27,3589.45 L 3257.87,3595.59 L 3257.87,3718.26 L 3263.1,3721.52 L 3271.9,3729.88 L 3278.83,3739.84 L 3283.62,3751 L 3286.07,3762.89 L 3286.37,3885.16 L 3285.14,3897.23 L 3281.51,3908.82 L 3275.62,3919.43 L 3267.71,3928.64 L 3258.11,3936.07 L 3247.22,3941.42 L 3235.46,3944.46 L 3223.34,3945.07 L 3211.35,3943.23 L 3199.96,3939.02 L 3189.66,3932.6 L 3180.86,3924.24 L 3173.93,3914.27 L 3169.14,3903.12 L 3166.7,3891.23 L 3166.39,3768.96 L 3167.62,3756.88 L 3171.25,3745.3 L 3177.14,3734.68 L 3185.05,3725.48 L 3194.89,3717.93 L 3194.89,3608.64 L 2937.78,3351.53 L 2775.78,3351.53 L 2769.63,3350.93 L 2763.72,3349.14 L 2758.28,3346.23 L 2753.51,3342.31 L 2490.96,3079.76 z " style="fill-opacity:1.000000;fill:rgb(151,234,220);stroke:rgb(0,0,0);stroke-width:2"/></g>
<g fill-rule="evenodd"><path d="M 1956.22,2455.95 L 1969.22,2453.89 L 1982.37,2454.58 L 1995.09,2457.99 L 2006.82,2463.97 L 2017.05,2472.25 L 2094.99,2550.19 L 2103.28,2560.42 L 2109.25,2572.15 L 2112.66,2584.87 L 2113.35,2598.02 L 2111.29,2611.03 L 2106.57,2623.32 L 2099.4,2634.36 L 2090.09,2643.67 L 2079.05,2650.84 L 2066.75,2655.56 L 2053.75,2657.62 L 2040.6,2656.93 L 2027.88,2653.53 L 2016.15,2647.55 L 2005.92,2639.26 L 1927.98,2561.33 L 1919.7,2551.09 L 1913.72,2539.36 L 1910.31,2526.64 L 1909.62,2513.49 L 1911.68,2500.49 L 1647.49,2236.3 L 1645.32,2233.66 L 1633.27,2231.09 L 1610.72,2221.05 L 1590.74,2206.54 L 1574.22,2188.19 L 1561.88,2166.81 L 1554.25,2143.33 L 1551.67,2118.78 L 1554.25,2094.23 L 1561.88,2070.75 L 1574.22,2049.37 L 1590.74,2031.02 L 1610.72,2016.51 L 1633.27,2006.47 L 1657.42,2001.34 L 1682.1,2001.34 L 1706.25,2006.47 L 1728.81,2016.51 L 1748.78,2031.02 L 1765.3,2049.37 L 1777.65,2070.75 L 1785.27,2094.23 L 1787.86,2118.78 L 1785.27,2143.33 L 1777.65,2166.81 L 1765.3,2188.19 L 1748.78,2206.54 L 1728.81,2221.05 L 1723.63,2223.36 L 1956.22,2455.95 z " style="fill-opacity:1.000000;fill:rgb(107,150,143);stroke:rgb(0,0,0);stroke-width:2"/></g>
<g fill-rule="evenodd"><path d="M 1815.2,2597.29 L 1827.82,2595.29 L 1840.97,2595.98 L 1853.69,2599.39 L 1865.42,2605.37 L 1875.65,2613.65 L 1953.59,2691.59 L 1961.88,2701.83 L 1967.85,2713.56 L 1971.26,2726.27 L 1971.95,2739.42 L 1969.89,2752.43 L 1965.17,2764.72 L 1958,2775.76 L 1948.69,2785.07 L 1937.65,2792.25 L 1925.35,2796.96 L 1912.35,2799.02 L 1899.2,2798.34 L 1886.48,2794.93 L 1874.75,2788.95 L 1864.52,2780.66 L 1786.58,2702.73 L 1778.29,2692.49 L 1772.31,2680.76 L 1768.91,2668.04 L 1768.22,2654.89 L 1770.4,2641.57 L 1271.31,2142.48 L 1267.4,2137.71 L 1264.49,2132.26 L 1262.7,2126.36 L 1262.09,2120.21 L 1262.09,1868.28 L 1029.57,1868.34 L 1023.42,1867.73 L 1017.52,1865.94 L 1011.71,1862.73 L 935.526,1862.92 L 923.449,1861.69 L 911.867,1858.06 L 901.253,1852.17 L 892.044,1844.26 L 884.613,1834.66 L 879.268,1823.77 L 876.224,1812.01 L 875.61,1799.89 L 877.448,1787.9 L 881.663,1776.51 L 888.084,1766.21 L 896.447,1757.41 L 906.41,1750.48 L 917.566,1745.69 L 929.455,1743.25 L 1051.73,1742.94 L 1063.8,1744.17 L 1075.38,1747.8 L 1086,1753.69 L 1095.21,1761.6 L 1102.64,1771.2 L 1107.98,1782.1 L 1111.03,1793.85 L 1111.61,1805.36 L 1293.58,1805.3 L 1299.73,1805.9 L 1305.63,1807.69 L 1311.08,1810.6 L 1315.85,1814.52 L 1319.77,1819.29 L 1322.68,1824.74 L 1324.47,1830.64 L 1325.08,1836.79 L 1325.08,2107.17 L 1815.2,2597.29 z " style="fill-opacity:1.000000;fill:rgb(56,92,42);stroke:rgb(0,0,0);stroke-width:2"/></g>
<g fill-rule="evenodd"><path d="M 2051.59,3231.27 L 2051.02,3220.5 L 2053.08,3207.49 L 2057.8,3195.2 L 2064.97,3184.16 L 2074.28,3174.85 L 2085.33,3167.68 L 2097.62,3162.96 L 2110.62,3160.9 L 2123.77,3161.59 L 2136.49,3164.99 L 2148.22,3170.97 L 2158.46,3179.26 L 2236.39,3257.2 L 2244.68,3267.43 L 2250.66,3279.16 L 2254.06,3291.88 L 2254.75,3305.03 L 2252.69,3318.03 L 2247.98,3330.32 L 2240.8,3341.37 L 2231.49,3350.68 L 2220.45,3357.85 L 2208.16,3362.57 L 2195.15,3364.63 L 2182,3363.94 L 2169.28,3360.53 L 2157.55,3354.55 L 2147.32,3346.27 L 2095.3,3294.25 L 1879.93,3294.25 L 1880.76,3302.08 L 1878.18,3326.63 L 1870.55,3350.11 L 1858.2,3371.49 L 1841.68,3389.84 L 1821.71,3404.35 L 1799.15,3414.39 L 1775.01,3419.52 L 1750.32,3419.52 L 1726.17,3414.39 L 1703.62,3404.35 L 1683.64,3389.84 L 1667.12,3371.49 L 1654.78,3350.11 L 1647.15,3326.63 L 1644.57,3302.08 L 1647.15,3277.53 L 1654.78,3254.05 L 1667.12,3232.67 L 1683.64,3214.32 L 1703.62,3199.81 L 1726.17,3189.77 L 1750.32,3184.63 L 1775.01,3184.63 L 1799.15,3189.77 L 1821.71,3199.81 L 1841.68,3214.32 L 1856.94,3231.27 L 2051.59,3231.27 z " style="fill-opacity:1.000000;fill:rgb(236,176,59);stroke:rgb(0,0,0);stroke-width:2"/></g>
<g fill-rule="evenodd"><path d="M 1127.68,4796 L 587.957,4796 L 581.811,4795.4 L 575.904,4793.6 L 570.459,4790.69 L 565.688,4786.78 L 523.164,4744.25 L 400.087,4744.25 L 393.942,4743.65 L 388.035,4741.86 L 382.589,4738.95 L 377.818,4735.03 L 321.014,4678.23 L 259.779,4739.46 L 64.9341,4544.62 L 126.17,4483.38 L 11.8516,4369.06 L 7.93612,4364.29 L 5.02453,4358.85 L 3.23278,4352.94 L 2.62886,4346.79 L 2.62886,4127.7 L 0.64914,4121.45 L 0.0452253,4115.3 L 0.0452253,3855.42 L 0.64914,3849.28 L 2.44089,3843.37 L 5.35048,3837.93 L 9.26793,3833.15 L 191.836,3650.59 L 181.836,3627.8 L 177.024,3604.39 L 176.418,3553.08 L 178.836,3529.31 L 185.989,3506.51 L 197.585,3485.62 L 213.151,3467.49 L 232.047,3452.86 L 253.498,3442.34 L 263.02,3439.88 L 263.02,2721.95 L 242.505,2714.35 L 222.228,2701.72 L 204.908,2685.25 L 191.258,2665.64 L 181.836,2643.68 L 177.024,2620.28 L 176.418,2568.97 L 178.836,2545.2 L 185.989,2522.4 L 192.204,2511.2 L 43.5551,2362.55 L 39.6397,2357.78 L 36.7281,2352.33 L 34.9363,2346.43 L 34.3324,2340.28 L 34.3324,2056.4 L 34.9363,2050.25 L 36.7281,2044.35 L 39.6377,2038.9 L 43.5551,2034.13 L 279.596,1798.09 L 284.367,1794.17 L 289.813,1791.26 L 295.72,1789.47 L 301.865,1788.87 L 611.105,1788.87 L 617.248,1789.47 L 623.156,1791.26 L 628.601,1794.17 L 633.372,1798.09 L 802.29,1967.01 L 885.607,1967.01 L 888.084,1963.04 L 896.447,1954.24 L 906.41,1947.3 L 917.566,1942.52 L 929.455,1940.07 L 1051.73,1939.76 L 1063.8,1940.99 L 1075.38,1944.63 L 1086,1950.52 L 1095.21,1958.42 L 1102.64,1968.02 L 1107.98,1978.92 L 1111.03,1990.67 L 1111.64,2002.79 L 1109.8,2014.79 L 1105.59,2026.17 L 1099.17,2036.48 L 1090.8,2045.27 L 1080.84,2052.21 L 1069.68,2057 L 1057.8,2059.44 L 935.526,2059.75 L 923.449,2058.52 L 911.867,2054.88 L 901.253,2048.99 L 892.044,2041.09 L 884.613,2031.49 L 883.881,2029.99 L 789.248,2029.99 L 783.103,2029.39 L 777.196,2027.6 L 771.751,2024.68 L 766.979,2020.77 L 598.059,1851.85 L 314.909,1851.85 L 97.3156,2069.44 L 97.3156,2327.24 L 236.596,2466.52 L 253.498,2458.23 L 276.63,2452.24 L 300.493,2451.03 L 324.112,2454.65 L 346.519,2462.94 L 366.796,2475.58 L 384.115,2492.05 L 397.765,2511.66 L 407.188,2533.62 L 411.999,2557.02 L 412.605,2608.33 L 410.188,2632.1 L 403.035,2654.9 L 391.438,2675.79 L 375.872,2693.92 L 356.977,2708.55 L 335.526,2719.07 L 326.003,2721.53 L 326.003,3439.46 L 346.519,3447.06 L 366.796,3459.7 L 384.115,3476.16 L 397.765,3495.77 L 407.188,3517.73 L 411.999,3541.14 L 412.605,3592.44 L 410.188,3616.21 L 403.035,3639.01 L 396.817,3650.22 L 541.379,3794.78 L 805.014,3794.78 L 896.001,3703.79 L 896.001,3106.69 L 896.605,3100.54 L 898.397,3094.64 L 901.307,3089.19 L 905.224,3084.42 L 1094.57,2895.07 L 1085.85,2883.8 L 1078.83,2869.5 L 1074.84,2854.08 L 1074.03,2838.17 L 1076.44,2822.42 L 1081.98,2807.49 L 1090.4,2793.97 L 1101.38,2782.42 L 1114.45,2773.32 L 1129.09,2767.04 L 1144.7,2763.83 L 1231.39,2763.43 L 1247.24,2765.04 L 1262.43,2769.81 L 1276.36,2777.54 L 1288.45,2787.92 L 1298.2,2800.51 L 1301.41,2807.07 L 1627.38,2807.07 L 1626.82,2796.29 L 1628.88,2783.29 L 1633.6,2771 L 1640.77,2759.95 L 1650.08,2750.64 L 1661.12,2743.47 L 1673.41,2738.75 L 1686.42,2736.69 L 1699.57,2737.38 L 1712.29,2740.79 L 1724.02,2746.77 L 1734.25,2755.05 L 1812.19,2832.99 L 1820.47,2843.23 L 1826.45,2854.96 L 1829.86,2867.67 L 1830.55,2880.82 L 1828.49,2893.83 L 1823.77,2906.12 L 1816.6,2917.17 L 1807.29,2926.47 L 1796.24,2933.65 L 1783.95,2938.36 L 1770.95,2940.42 L 1757.8,2939.74 L 1745.08,2936.33 L 1733.35,2930.35 L 1723.12,2922.06 L 1671.1,2870.05 L 1304.58,2870.05 L 1302.07,2876.83 L 1293.64,2890.35 L 1282.67,2901.89 L 1269.59,2910.99 L 1254.95,2917.28 L 1239.35,2920.48 L 1157.85,2920.86 L 958.984,3119.73 L 958.984,3716.84 L 958.379,3722.98 L 956.587,3728.89 L 953.675,3734.33 L 949.76,3739.11 L 840.327,3848.54 L 835.554,3852.46 L 830.111,3855.37 L 824.203,3857.16 L 818.06,3857.76 L 528.337,3857.76 L 522.192,3857.16 L 516.285,3855.37 L 510.839,3852.46 L 506.068,3848.54 L 352.426,3694.89 L 335.526,3703.18 L 311.701,3709.21 L 310.258,3710.26 L 304.242,3712.94 L 297.803,3714.3 L 291.218,3714.3 L 284.779,3712.94 L 278.766,3710.26 L 276.378,3708.52 L 264.912,3706.77 L 242.505,3698.47 L 236.666,3694.83 L 63.0284,3868.46 L 63.0284,3956.54 L 64.5382,3960.48 L 65.568,3966.98 L 65.2241,3973.55 L 63.0284,3980.88 L 63.0284,4105.48 L 65.0061,4111.74 L 65.612,4117.88 L 65.612,4333.75 L 170.705,4438.85 L 231.943,4377.61 L 426.787,4572.45 L 365.55,4633.69 L 413.129,4681.27 L 536.21,4681.27 L 542.353,4681.88 L 548.26,4683.67 L 553.705,4686.58 L 558.477,4690.49 L 600.999,4733.02 L 1114.63,4733.02 L 1157.16,4690.49 L 1161.93,4686.58 L 1167.37,4683.67 L 1173.28,4681.88 L 1179.43,4681.27 L 1199.77,4681.27 L 1201.26,4680.87 L 1207.84,4680.53 L 1214.34,4681.56 L 1217.19,4682.65 L 1474.66,4682.65 L 1474.66,4636.02 L 1472.9,4630.22 L 1472.3,4624.08 L 1472.3,4610 L 1460.34,4608.78 L 1437.54,4601.63 L 1416.65,4590.03 L 1398.52,4574.47 L 1383.89,4555.57 L 1373.37,4534.12 L 1367.38,4510.99 L 1366.17,4487.12 L 1369.79,4463.51 L 1378.09,4441.1 L 1390.72,4420.82 L 1407.19,4403.5 L 1426.8,4389.85 L 1448.76,4380.43 L 1472.16,4375.62 L 1523.47,4375.01 L 1547.24,4377.43 L 1570.04,4384.58 L 1590.93,4396.18 L 1609.06,4411.75 L 1623.69,4430.64 L 1634.21,4452.09 L 1640.2,4475.22 L 1641.41,4499.09 L 1637.79,4522.71 L 1629.49,4545.11 L 1616.86,4565.39 L 1600.39,4582.71 L 1580.78,4596.36 L 1558.82,4605.78 L 1535.28,4610.59 L 1535.28,4614.51 L 1537.04,4620.3 L 1537.64,4626.44 L 1537.64,4682.65 L 2454.84,4682.65 L 2454.84,4625.65 L 2455.44,4619.52 L 2456.41,4616.32 L 2456.41,4610 L 2444.45,4608.78 L 2421.65,4601.63 L 2400.76,4590.03 L 2382.63,4574.47 L 2368,4555.57 L 2357.48,4534.12 L 2351.49,4510.99 L 2350.28,4487.12 L 2353.9,4463.51 L 2362.2,4441.1 L 2374.84,4420.82 L 2391.3,4403.5 L 2410.91,4389.85 L 2432.87,4380.43 L 2456.28,4375.62 L 2507.58,4375.01 L 2531.36,4377.43 L 2554.15,4384.58 L 2575.05,4396.18 L 2593.18,4411.75 L 2607.8,4430.64 L 2618.33,4452.09 L 2624.31,4475.22 L 2625.53,4499.09 L 2621.91,4522.71 L 2613.61,4545.11 L 2600.97,4565.39 L 2584.51,4582.71 L 2564.89,4596.36 L 2542.94,4605.78 L 2519.4,4610.59 L 2519.4,4624.08 L 2518.79,4630.22 L 2517.82,4633.42 L 2517.82,4682.22 L 3238.98,4661.63 L 3238.98,4165.86 L 3016.69,3943.57 L 3014.52,3943.23 L 3003.14,3939.02 L 2992.84,3932.6 L 2984.04,3924.24 L 2977.11,3914.27 L 2972.32,3903.12 L 2969.88,3891.23 L 2969.57,3768.96 L 2970.8,3756.88 L 2974.43,3745.3 L 2980.32,3734.68 L 2988.23,3725.48 L 2997.83,3718.04 L 3008.72,3712.7 L 3020.48,3709.66 L 3032.6,3709.04 L 3044.6,3710.88 L 3055.98,3715.09 L 3066.28,3721.52 L 3075.08,3729.88 L 3082.01,3739.84 L 3086.8,3751 L 3089.24,3762.89 L 3089.55,3885.16 L 3088.32,3897.23 L 3084.69,3908.82 L 3079.81,3917.61 L 3292.74,4130.54 L 3296.65,4135.31 L 3299.57,4140.76 L 3301.36,4146.67 L 3301.96,4152.81 L 3301.96,4659.83 L 3680.43,4649.02 L 3681.69,4648.73 L 3692.7,4639.64 L 3805.04,4527.3 L 3805.04,2976.55 L 3804.25,2968.03 L 3803.28,2964.82 L 3802.68,2958.68 L 3802.68,2944.95 L 3778.61,2920.89 L 3113.37,2920.89 L 3107.22,2920.28 L 3101.32,2918.49 L 3095.87,2915.58 L 3091.1,2911.66 L 2951.19,2771.76 L 2889.96,2832.99 L 2800.89,2743.92 L 2967.9,2576.91 L 3056.97,2665.98 L 2995.73,2727.22 L 3126.41,2857.9 L 3791.66,2857.9 L 3797.8,2858.51 L 3803.71,2860.3 L 3806.58,2861.84 L 3809.56,2856.16 L 3813.48,2851.38 L 4071.22,2593.64 L 4065.61,2583.93 L 4057.98,2560.45 L 4055.4,2535.9 L 4057.98,2511.35 L 4065.61,2487.87 L 4077.95,2466.49 L 4094.47,2448.14 L 4114.45,2433.63 L 4137,2423.59 L 4161.15,2418.46 L 4185.83,2418.46 L 4209.98,2423.59 L 4232.54,2433.63 L 4252.51,2448.14 L 4269.03,2466.49 L 4281.38,2487.87 L 4289,2511.35 L 4291.59,2535.9 L 4289,2560.45 L 4281.38,2583.93 L 4269.03,2605.31 L 4252.51,2623.66 L 4232.54,2638.17 L 4209.98,2648.21 L 4185.83,2653.35 L 4161.15,2653.35 L 4137,2648.21 L 4115.35,2638.58 L 3867.24,2886.69 L 3867.24,2954.3 L 3868.02,2961.04 L 3868.02,4540.34 L 3867.42,4546.49 L 3865.63,4552.4 L 3862.71,4557.84 L 3858.8,4562.61 L 3814.01,4607.4 L 3817.1,4633.98 L 3816.65,4637.01 L 3815.83,4638.93 L 3814.62,4640.64 L 3679.31,4764.35 L 3676.18,4766.28 L 3672.57,4766.96 L 1167.09,4769.64 L 1149.95,4786.78 L 1145.17,4790.69 L 1139.73,4793.6 L 1133.82,4795.4 L 1127.68,4796 z " style="fill-opacity:1.000000;fill:rgb(251,50,175);stroke:rgb(0,0,0);stroke-width:2"/></g>
<g fill-rule="evenodd"><path d="M 2349.56,3221.17 L 2336.55,3223.23 L 2323.4,3222.54 L 2310.69,3219.13 L 2298.96,3213.15 L 2288.72,3204.87 L 2210.78,3126.93 L 2202.5,3116.69 L 2196.52,3104.96 L 2193.11,3092.25 L 2192.42,3079.1 L 2194.48,3066.09 L 2199.2,3053.8 L 2206.37,3042.76 L 2215.68,3033.45 L 2226.73,3026.27 L 2239.02,3021.56 L 2252.02,3019.5 L 2265.17,3020.18 L 2277.89,3023.59 L 2289.62,3029.57 L 2299.86,3037.86 L 2377.8,3115.8 L 2386.08,3126.03 L 2392.06,3137.76 L 2395.47,3150.48 L 2396.15,3163.63 L 2394.09,3176.63 L 2405.63,3188.17 L 2409.54,3192.94 L 2412.46,3198.38 L 2414.25,3204.29 L 2414.85,3210.43 L 2414.85,3512.87 L 2414.25,3519.01 L 2412.46,3524.92 L 2409.54,3530.36 L 2405.63,3535.13 L 2283.53,3657.23 L 2278.76,3661.14 L 2273.32,3664.05 L 2267.41,3665.85 L 2261.27,3666.45 L 2207.52,3666.45 L 2202.14,3682.99 L 2189.8,3704.37 L 2173.28,3722.72 L 2153.3,3737.23 L 2130.75,3747.27 L 2106.6,3752.4 L 2081.92,3752.4 L 2057.77,3747.27 L 2035.21,3737.23 L 2015.24,3722.72 L 1998.72,3704.37 L 1986.38,3682.99 L 1978.75,3659.51 L 1976.17,3634.96 L 1978.75,3610.41 L 1986.38,3586.93 L 1998.72,3565.55 L 2015.24,3547.2 L 2035.21,3532.69 L 2057.77,3522.65 L 2081.92,3517.51 L 2106.6,3517.51 L 2130.75,3522.65 L 2153.3,3532.69 L 2173.28,3547.2 L 2189.8,3565.55 L 2202.14,3586.93 L 2207.52,3603.47 L 2248.22,3603.47 L 2351.87,3499.82 L 2351.87,3223.48 L 2349.56,3221.17 z " style="fill-opacity:1.000000;fill:rgb(60,84,236);stroke:rgb(0,0,0);stroke-width:2"/></g>
<g fill-rule="evenodd"><path d="M 2760.25,2501.76 L 2781.96,2480.04 L 2792.19,2471.76 L 2803.92,2465.78 L 2816.64,2462.37 L 2829.79,2461.69 L 2842.79,2463.74 L 2855.09,2468.46 L 2866.13,2475.64 L 2875.44,2484.94 L 2882.61,2495.99 L 2887.33,2508.28 L 2889.39,2521.28 L 2888.7,2534.43 L 2885.29,2547.15 L 2879.31,2558.88 L 2871.03,2569.12 L 2793.09,2647.05 L 2782.85,2655.34 L 2771.12,2661.32 L 2758.4,2664.73 L 2745.26,2665.41 L 2732.25,2663.35 L 2719.96,2658.64 L 2708.91,2651.46 L 2699.61,2642.15 L 2692.43,2631.11 L 2687.72,2618.82 L 2685.66,2605.81 L 2686.35,2592.66 L 2689.76,2579.94 L 2695.73,2568.21 L 2704.02,2557.98 L 2715.71,2546.29 L 2648.59,2479.17 L 2626.94,2488.81 L 2602.8,2493.94 L 2578.11,2493.94 L 2553.96,2488.81 L 2531.41,2478.77 L 2511.43,2464.26 L 2494.91,2445.91 L 2482.57,2424.53 L 2474.94,2401.05 L 2472.36,2376.5 L 2474.94,2351.95 L 2482.57,2328.47 L 2494.91,2307.09 L 2511.43,2288.74 L 2531.41,2274.23 L 2553.96,2264.19 L 2578.11,2259.05 L 2602.8,2259.05 L 2626.94,2264.19 L 2649.5,2274.23 L 2669.47,2288.74 L 2685.99,2307.09 L 2698.34,2328.47 L 2705.96,2351.95 L 2708.55,2376.5 L 2705.96,2401.05 L 2698.34,2424.53 L 2692.73,2434.24 L 2760.25,2501.76 z " style="fill-opacity:1.000000;fill:rgb(24,219,92);stroke:rgb(0,0,0);stroke-width:2"/></g>
<g fill-rule="evenodd"><path d="M 2605.79,2021.56 L 2603.84,2015.56 L 2602.37,2001.64 L 2603.84,1987.73 L 2608.16,1974.42 L 2615.15,1962.31 L 2624.51,1951.91 L 2635.83,1943.69 L 2648.61,1938 L 2662.3,1935.09 L 2676.29,1935.09 L 2689.97,1938 L 2702.75,1943.69 L 2714.07,1951.91 L 2723.43,1962.31 L 2730.42,1974.42 L 2734.75,1987.73 L 2736.21,2001.64 L 2734.75,2015.56 L 2730.42,2028.86 L 2723.43,2040.98 L 2714.07,2051.37 L 2702.75,2059.6 L 2689.97,2065.29 L 2676.29,2068.19 L 2662.3,2068.19 L 2650.69,2065.73 L 2543.12,2173.3 L 2538.34,2177.22 L 2532.9,2180.13 L 2526.99,2181.92 L 2520.85,2182.53 L 2396.48,2182.53 L 2396.48,2394.07 L 2398.33,2400.09 L 2398.94,2406.23 L 2398.94,2493.73 L 2570,2664.79 L 2573.92,2669.56 L 2576.83,2675.01 L 2578.62,2680.92 L 2579.23,2687.06 L 2579.23,2752.27 L 2582.66,2755.05 L 2660.6,2832.99 L 2668.88,2843.23 L 2674.86,2854.96 L 2678.27,2867.67 L 2678.96,2880.82 L 2676.9,2893.83 L 2945.65,3162.58 L 3167.34,3162.58 L 3173.48,3163.19 L 3179.39,3164.98 L 3184.83,3167.89 L 3189.6,3171.81 L 3446.26,3428.47 L 3450.17,3433.24 L 3453.09,3438.68 L 3454.88,3444.59 L 3455.48,3450.73 L 3455.48,3683.88 L 3454.7,3690.62 L 3454.7,3718.26 L 3459.93,3721.52 L 3468.72,3729.88 L 3475.66,3739.84 L 3480.45,3751 L 3482.89,3762.89 L 3483.2,3885.16 L 3481.97,3897.23 L 3478.33,3908.82 L 3472.44,3919.43 L 3464.54,3928.64 L 3454.94,3936.07 L 3444.04,3941.42 L 3432.29,3944.46 L 3420.17,3945.07 L 3408.17,3943.23 L 3396.79,3939.02 L 3386.49,3932.6 L 3377.69,3924.24 L 3370.75,3914.27 L 3365.97,3903.12 L 3363.52,3891.23 L 3363.21,3768.96 L 3364.44,3756.88 L 3368.08,3745.3 L 3373.97,3734.68 L 3381.87,3725.48 L 3391.71,3717.93 L 3391.71,3684.67 L 3392.5,3677.93 L 3392.5,3463.78 L 3154.29,3225.57 L 2932.61,3225.57 L 2926.46,3224.96 L 2920.56,3223.17 L 2915.11,3220.26 L 2910.34,3216.34 L 2632.36,2938.36 L 2619.36,2940.42 L 2606.21,2939.74 L 2593.49,2936.33 L 2581.76,2930.35 L 2571.52,2922.06 L 2493.59,2844.13 L 2485.3,2833.89 L 2479.32,2822.16 L 2475.92,2809.44 L 2475.23,2796.29 L 2477.29,2783.29 L 2482,2771 L 2489.18,2759.95 L 2498.49,2750.64 L 2509.53,2743.47 L 2516.25,2740.9 L 2516.25,2700.11 L 2345.18,2529.04 L 2341.26,2524.27 L 2338.35,2518.82 L 2336.56,2512.92 L 2335.96,2506.77 L 2335.96,2415.94 L 2334.1,2409.92 L 2333.5,2403.78 L 2333.5,2164.08 L 2224.39,2054.97 L 2202.74,2064.61 L 2178.59,2069.74 L 2153.91,2069.74 L 2129.76,2064.61 L 2107.2,2054.57 L 2087.23,2040.05 L 2070.71,2021.71 L 2058.37,2000.33 L 2050.74,1976.85 L 2048.16,1952.29 L 2050.74,1927.74 L 2058.37,1904.26 L 2063.97,1894.55 L 1860.87,1691.46 L 1230.58,1691.46 L 1224.44,1690.85 L 1218.53,1689.06 L 1213.09,1686.15 L 1208.32,1682.23 L 1162.43,1636.35 L 1103.72,1636.35 L 1098.54,1644.66 L 1089.76,1653.9 L 1079.3,1661.18 L 1067.59,1666.2 L 1055.11,1668.77 L 938.517,1669.09 L 925.837,1667.8 L 913.679,1663.99 L 902.536,1657.8 L 892.866,1649.5 L 885.067,1639.42 L 879.454,1627.98 L 876.26,1615.65 L 875.614,1602.92 L 877.544,1590.32 L 881.969,1578.37 L 888.71,1567.56 L 897.491,1558.32 L 907.95,1551.04 L 919.662,1546.02 L 932.144,1543.45 L 1048.74,1543.13 L 1061.41,1544.42 L 1073.57,1548.23 L 1084.71,1554.42 L 1094.39,1562.72 L 1102.46,1573.36 L 1175.47,1573.36 L 1181.62,1573.97 L 1187.52,1575.76 L 1192.97,1578.67 L 1197.74,1582.59 L 1243.63,1628.47 L 1873.92,1628.47 L 1880.06,1629.08 L 1885.97,1630.87 L 1891.42,1633.78 L 1896.19,1637.7 L 2108.11,1849.62 L 2129.76,1839.98 L 2153.91,1834.85 L 2178.59,1834.85 L 2202.74,1839.98 L 2225.29,1850.02 L 2245.27,1864.53 L 2261.79,1882.88 L 2274.13,1904.26 L 2281.76,1927.74 L 2284.34,1952.29 L 2281.76,1976.85 L 2274.13,2000.33 L 2268.53,2010.03 L 2378.03,2119.54 L 2507.8,2119.54 L 2605.79,2021.56 z " style="fill-opacity:1.000000;fill:rgb(2,26,254);stroke:rgb(0,0,0);stroke-width:2"/></g>
<g fill-rule="evenodd"><path d="M 354.413,3944.52 L 355.641,3947.72 L 358.215,3963.98 L 357.355,3980.41 L 353.096,3996.31 L 345.625,4010.98 L 335.266,4023.77 L 268.464,4090.57 L 255.671,4100.93 L 241.005,4108.41 L 225.108,4112.67 L 208.672,4113.53 L 192.416,4110.95 L 177.05,4105.05 L 163.246,4096.09 L 151.608,4084.45 L 142.645,4070.65 L 136.746,4055.28 L 134.17,4039.03 L 135.032,4022.59 L 139.292,4006.69 L 146.765,3992.03 L 157.121,3979.24 L 223.924,3912.43 L 236.714,3902.07 L 251.378,3894.6 L 267.276,3890.34 L 283.713,3889.48 L 299.969,3892.05 L 308.018,3895.14 L 318.564,3884.6 L 323.336,3880.68 L 328.781,3877.77 L 334.688,3875.98 L 340.833,3875.37 L 361.29,3875.37 L 367.434,3875.98 L 373.341,3877.77 L 378.786,3880.68 L 383.557,3884.6 L 576.376,4077.42 L 993.408,4077.42 L 996.659,4073.8 L 1004.65,4068 L 1013.67,4063.98 L 1023.33,4061.93 L 1033.2,4061.93 L 1042.86,4063.98 L 1051.88,4068 L 1059.87,4073.8 L 1066.48,4081.14 L 1071.42,4089.7 L 1074.47,4099.09 L 1075.5,4108.91 L 1074.47,4118.73 L 1071.42,4128.12 L 1066.48,4136.67 L 1059.76,4144.09 L 1059.76,4332.83 L 1059.15,4338.97 L 1057.36,4344.88 L 1054.45,4350.33 L 1050.53,4355.1 L 903.684,4501.94 L 906.774,4509.99 L 909.349,4526.24 L 908.488,4542.68 L 904.228,4558.58 L 896.755,4573.24 L 886.397,4586.04 L 830.726,4641.71 L 817.934,4652.07 L 803.27,4659.54 L 787.373,4663.8 L 770.935,4664.66 L 754.679,4662.08 L 739.313,4656.18 L 725.511,4647.22 L 713.873,4635.58 L 704.908,4621.78 L 699.011,4606.41 L 696.435,4590.16 L 697.297,4573.72 L 701.559,4557.82 L 709.03,4543.16 L 719.388,4530.37 L 775.058,4474.7 L 787.847,4464.34 L 802.512,4456.87 L 818.41,4452.61 L 834.846,4451.75 L 851.104,4454.32 L 859.148,4457.41 L 996.775,4319.78 L 996.775,4144.1 L 993.41,4140.4 L 563.336,4140.4 L 557.191,4139.8 L 551.284,4138 L 545.839,4135.09 L 541.067,4131.18 L 354.413,3944.52 z " style="fill-opacity:1.000000;fill:rgb(67,251,250);stroke:rgb(0,0,0);stroke-width:2"/></g>
</svg>
